<svg width="70" height="92" viewBox="0 0 70 92" fill="none" xmlns="http://www.w3.org/2000/svg">
<g filter="url(#filter0_b_554_1190)">
<rect width="70" height="70" rx="35" fill="url(#paint0_linear_554_1190)"/>
<path d="M40.5246 50.1352C47.9164 50.1352 53.9086 44.143 53.9086 36.7512C53.9086 29.3594 47.9164 23.3672 40.5246 23.3672C33.1328 23.3672 27.1406 29.3594 27.1406 36.7512C27.1406 44.143 33.1328 50.1352 40.5246 50.1352Z" fill="#ECF7FF"/>
<path d="M28.2397 52.788C33.6943 52.788 38.1161 48.3662 38.1161 42.9116C38.1161 37.457 33.6943 33.0352 28.2397 33.0352C22.7851 33.0352 18.3633 37.457 18.3633 42.9116C18.3633 48.3662 22.7851 52.788 28.2397 52.788Z" fill="#ECF7FF"/>
<path d="M28.2416 37.9911C34.3035 37.9911 39.2176 33.0769 39.2176 27.0151C39.2176 20.9532 34.3035 16.0391 28.2416 16.0391C22.1797 16.0391 17.2656 20.9532 17.2656 27.0151C17.2656 33.0769 22.1797 37.9911 28.2416 37.9911Z" fill="#ECF7FF"/>
<path d="M50.3818 31.2006V49.7185H20.7578V31.2006C20.7578 30.598 21.2548 30.1016 21.8574 30.1016H49.2828C49.8854 30.1016 50.3818 30.598 50.3818 31.2006Z" fill="#D3E5F1"/>
<path d="M50.3818 31.2006V48.5961H20.7578V31.2011C20.7578 30.598 21.2548 30.1016 21.8574 30.1016H49.2828C49.8854 30.1016 50.3818 30.598 50.3818 31.2006Z" fill="#E8F1F6"/>
<path d="M32.3203 49.7188H38.8181V50.8393H32.3203V49.7188Z" fill="#B1C6D7"/>
<path d="M50.3818 31.2006V32.8467C50.3803 32.5557 50.264 32.2771 50.0582 32.0713C49.8525 31.8655 49.5738 31.7493 49.2828 31.7477H21.8574C21.2548 31.7477 20.7578 31.9513 20.7578 32.5539V31.2006C20.7578 30.598 21.2548 30.1016 21.8574 30.1016H49.2828C49.8854 30.1016 50.3818 30.598 50.3818 31.2006Z" fill="#D3E5F1"/>
<path d="M44.1144 21.0345V37.2442C44.1139 37.6666 43.9459 38.0715 43.6473 38.3702C43.3486 38.6688 42.9437 38.8368 42.5213 38.8373H28.5814C28.1591 38.8368 27.7542 38.6689 27.4556 38.3704C27.157 38.0718 26.9889 37.667 26.9883 37.2448V18.5495C26.9887 18.1273 27.1567 17.7225 27.4552 17.424C27.7538 17.1254 28.1586 16.9575 28.5808 16.957H40.0433V19.4409C40.0427 19.6497 40.0834 19.8566 40.1628 20.0497C40.2423 20.2428 40.3591 20.4183 40.5064 20.5663C40.6538 20.7142 40.8289 20.8317 41.0216 20.9119C41.2144 20.9922 41.4211 21.0336 41.6299 21.0339H44.1144V21.0345Z" fill="#F4F9FE"/>
<path d="M42.4962 21.0334V35.6249C42.4956 36.0472 42.3274 36.4521 42.0287 36.7507C41.7299 37.0492 41.3249 37.2171 40.9025 37.2174H26.9883V18.5495C26.9887 18.1273 27.1567 17.7225 27.4552 17.424C27.7538 17.1254 28.1586 16.9575 28.5808 16.957H40.0433V19.4409C40.0427 19.6497 40.0834 19.8566 40.1628 20.0497C40.2423 20.2428 40.3591 20.4183 40.5064 20.5663C40.6538 20.7142 40.8289 20.8317 41.0216 20.9119C41.2144 20.9922 41.4211 21.0336 41.6299 21.0339L42.4962 21.0334Z" fill="white"/>
<path d="M44.1173 21.0328H41.634C41.2117 21.0328 40.8066 20.865 40.508 20.5663C40.2093 20.2677 40.0415 19.8626 40.0415 19.4403V16.957L44.1173 21.0328ZM29.0469 45.6203H31.0273V49.717H29.0469V45.6203Z" fill="#CBA6C2"/>
<path d="M32.7305 43.918H34.7109V49.7181H32.7305V43.918Z" fill="#FC938E"/>
<path d="M36.4297 44.8906H38.4101V49.7177H36.4297V44.8906Z" fill="#FDE5CA"/>
<path d="M40.1172 45.8633H42.0976V49.7168H40.1172V45.8633Z" fill="#77D3E3"/>
<path d="M34.4766 33.5312H35.9886V35.5787H34.4766V33.5312Z" fill="#9AB7CF"/>
<path d="M36.7231 35.5781V41.1315C36.7231 41.9481 36.0581 42.6131 35.2414 42.6131C34.8272 42.6131 34.4597 42.4498 34.1914 42.1815C34.0397 42.0298 33.9172 41.849 33.8472 41.6448C33.7831 41.4815 33.7539 41.3123 33.7539 41.1315V35.5781H36.7231Z" fill="#B1C6D7"/>
<path d="M35.8481 35.5781V40.2565C35.8476 40.4956 35.7894 40.7311 35.6783 40.943C35.5672 41.1548 35.4066 41.3366 35.2101 41.4729C35.0136 41.6093 34.787 41.6961 34.5497 41.726C34.3124 41.756 34.0714 41.7281 33.8472 41.6448C33.7831 41.4815 33.7539 41.3123 33.7539 41.1315V35.5781H35.8481Z" fill="#9AB7CF"/>
<path d="M40.8603 28.7726C40.8619 29.1244 40.8277 29.4754 40.7582 29.8203C40.6135 30.5999 40.3039 31.3397 39.8501 31.99C39.3962 32.6403 38.8087 33.1861 38.1268 33.5909C37.255 34.1211 36.2539 34.4009 35.2335 34.3994C34.2131 34.4009 33.212 34.1211 32.3401 33.5909C30.7109 32.6109 29.6055 30.823 29.6055 28.7726C29.6055 25.6739 32.1348 23.1562 35.2329 23.1562C38.3432 23.1562 40.8603 25.6739 40.8603 28.7726Z" fill="#F4F9FE"/>
<path d="M39.3984 28.766C39.3984 29.0408 39.3751 29.2974 39.3226 29.5424C39.2155 30.1193 38.9862 30.6665 38.6501 31.1475C38.3141 31.6284 37.8791 32.0319 37.3742 32.3308C36.7304 32.7238 35.9906 32.9318 35.2363 32.9318C34.482 32.9318 33.7422 32.7238 33.0984 32.3308C32.4815 31.9625 31.9708 31.4405 31.616 30.8158C31.2612 30.1911 31.0745 29.485 31.0742 28.7666C31.0742 26.4799 32.9467 24.6133 35.2392 24.6133C37.5376 24.6133 39.3984 26.4794 39.3984 28.766Z" fill="#FE9594"/>
<path d="M37.3725 32.3364C36.7278 32.7286 35.9874 32.9355 35.2328 32.9344C34.4494 32.9344 33.7167 32.7156 33.0938 32.3364L35.2328 28.7734L37.3725 32.3364Z" fill="#FDE5CA"/>
<path d="M39.3195 29.5493C39.2124 30.1258 38.9835 30.6729 38.6478 31.1538C38.3122 31.6347 37.8777 32.0383 37.3735 32.3376L35.2344 28.7734L39.32 29.5487L39.3195 29.5493Z" fill="#77D3E3"/>
<path d="M18.7911 41.9715C18.5057 41.9712 18.2322 41.8577 18.0304 41.656C17.8286 41.4542 17.7152 41.1806 17.7148 40.8953C17.7148 40.302 18.1978 39.819 18.7911 39.819C19.3843 39.819 19.8679 40.302 19.8679 40.8953C19.8675 41.1807 19.7538 41.4543 19.552 41.656C19.3501 41.8578 19.0765 41.9712 18.7911 41.9715ZM18.7911 40.4024C18.7249 40.4002 18.6589 40.4113 18.5971 40.4352C18.5353 40.459 18.479 40.495 18.4314 40.5411C18.3838 40.5872 18.346 40.6424 18.3202 40.7034C18.2944 40.7644 18.2811 40.83 18.2812 40.8962C18.2813 40.9624 18.2947 41.028 18.3207 41.0889C18.3466 41.1498 18.3845 41.2049 18.4322 41.2509C18.4799 41.2969 18.5364 41.3328 18.5982 41.3565C18.6601 41.3801 18.7261 41.3911 18.7923 41.3888C18.9188 41.3825 19.0381 41.3277 19.1254 41.2359C19.2127 41.144 19.2613 41.022 19.2612 40.8953C19.261 40.7686 19.2121 40.6468 19.1246 40.5551C19.0371 40.4634 18.9177 40.4084 18.7911 40.4024ZM48.3136 19.438H46.0713C45.5521 19.438 45.1292 19.0156 45.1292 18.4965C45.1292 18.175 45.2983 17.8764 45.5626 17.7072C45.5836 17.1606 46.1238 16.7447 46.6575 16.859C46.7635 16.7144 46.9019 16.5967 47.0617 16.5154C47.2215 16.434 47.3981 16.3913 47.5774 16.3906C48.2051 16.3906 48.7161 16.9016 48.7161 17.5293V17.534C48.8926 17.6112 49.0427 17.7383 49.1481 17.8996C49.2535 18.061 49.3095 18.2495 49.3093 18.4422C49.3089 18.7063 49.2037 18.9593 49.017 19.146C48.8302 19.3327 48.5776 19.4376 48.3136 19.438ZM46.465 17.4225C46.4172 17.4227 46.3701 17.4335 46.327 17.4542C46.2839 17.4749 46.246 17.505 46.216 17.5422C46.186 17.5795 46.1648 17.6229 46.1538 17.6694C46.1427 17.7159 46.1423 17.7643 46.1523 17.811C46.1641 17.867 46.1592 17.9253 46.1381 17.9785C46.1171 18.0317 46.0808 18.0775 46.0339 18.1103C46.0147 18.1237 45.9581 18.1599 45.9359 18.1686C45.8702 18.1947 45.8137 18.2398 45.7739 18.2982C45.7341 18.3567 45.7127 18.4257 45.7125 18.4965C45.7125 18.6942 45.8735 18.8546 46.0713 18.8546H48.313C48.5405 18.8546 48.726 18.6697 48.726 18.4422C48.7263 18.3417 48.6893 18.2446 48.6222 18.1697C48.5551 18.0948 48.4626 18.0475 48.3626 18.0368C48.3201 18.032 48.2792 18.018 48.2428 17.9957C48.2063 17.9733 48.1752 17.9433 48.1517 17.9076C48.1282 17.8719 48.1127 17.8315 48.1065 17.7892C48.1003 17.7469 48.1035 17.7038 48.1158 17.6629C48.1359 17.5812 48.1371 17.4959 48.1194 17.4137C48.1018 17.3314 48.0656 17.2542 48.0138 17.188C47.962 17.1217 47.8957 17.068 47.8202 17.0311C47.7446 16.9941 47.6616 16.9748 47.5774 16.9745C47.466 16.9747 47.3573 17.0083 47.2652 17.071C47.1732 17.1338 47.1021 17.2227 47.0612 17.3263C47.0456 17.366 47.0215 17.4019 46.9906 17.4314C46.9597 17.4609 46.9227 17.4833 46.8823 17.497C46.8419 17.5107 46.7989 17.5154 46.7565 17.5108C46.714 17.5062 46.6731 17.4924 46.6365 17.4704C46.5848 17.4389 46.5255 17.4224 46.465 17.4225ZM23.3108 19.6625H23.8941V20.3025H23.3108V19.6625ZM23.3108 21.349H23.8941V21.9889H23.3108V21.349ZM24.1257 20.534H24.7656V21.1174H24.1257V20.534ZM22.4393 20.534H23.0792V21.1174H22.4393V20.534ZM48.0908 25.3885H48.6741V26.0285H48.0908V25.3885ZM48.0908 27.075H48.6741V27.7149H48.0908V27.075ZM48.9051 26.26H49.545V26.8434H48.9051V26.26ZM47.2193 26.26H47.8592V26.8434H47.2193V26.26ZM18.2649 26.4123H18.8483V28.5047H18.2649V26.4123Z" fill="#A0AFC5"/>
<path d="M17.5156 27.1641H19.608V27.7474H17.5156V27.1641ZM52.6294 37.3018C52.344 37.3015 52.0705 37.188 51.8687 36.9862C51.6669 36.7845 51.5534 36.5109 51.5531 36.2256C51.5531 35.6323 52.0361 35.1493 52.6294 35.1493V35.7326C52.5317 35.7326 52.4363 35.7616 52.3551 35.8159C52.274 35.8701 52.2107 35.9472 52.1734 36.0374C52.1361 36.1276 52.1263 36.2269 52.1454 36.3226C52.1645 36.4184 52.2116 36.5063 52.2806 36.5753C52.3497 36.6443 52.4377 36.6913 52.5335 36.7102C52.6292 36.7292 52.7285 36.7194 52.8186 36.6819C52.9088 36.6445 52.9858 36.5811 53.04 36.4999C53.0942 36.4187 53.123 36.3232 53.1229 36.2256H53.7062C53.7057 36.511 53.5921 36.7845 53.3903 36.9863C53.1884 37.188 52.9148 37.3015 52.6294 37.3018Z" fill="#A0AFC5"/>
<path d="M52.4296 49.7148V50.129C52.4296 51.0973 51.6479 51.879 50.6796 51.879H20.4687C19.7454 51.879 19.1271 51.4473 18.8587 50.8232C18.7671 50.6032 18.7195 50.3673 18.7188 50.129V49.7148H52.4296Z" fill="#E8F1F6"/>
<path d="M51.4554 49.7148C51.3502 50.0788 51.1294 50.3987 50.8263 50.626C50.5232 50.8533 50.1543 50.9758 49.7754 50.9748H19.5646C19.3137 50.9748 19.0746 50.9223 18.8587 50.8232C18.7671 50.6032 18.7195 50.3673 18.7188 50.129V49.7148H51.4554Z" fill="#F4F9FE"/>
<path d="M32.7539 49.7148H38.3889V50.8348H32.7539V49.7148Z" fill="#9AB7CF"/>
<path d="M20.4693 42.1821H21.0527V43.2863H20.4693V42.1821ZM50.0927 48.6028H50.6761V45.5298C50.6761 44.7132 50.9322 43.9356 51.4169 43.2793L51.6911 42.9072L51.2215 42.5607L50.9473 42.9328C50.3903 43.6839 50.0906 44.5947 50.0927 45.5298V48.6028ZM20.4693 44.3842H21.0527V48.6022H20.4693V44.3842ZM45.1338 29.1988C46.1863 29.9745 47.46 30.3916 48.7674 30.3888H49.5642C49.692 30.3888 50.0933 30.7242 50.0933 31.1967V41.6232H50.6767V31.1962C50.6767 30.4472 50.0653 29.8055 49.5642 29.8055H48.7674C47.584 29.8081 46.4311 29.4304 45.4786 28.7281L45.1338 29.1988ZM21.0521 31.1967C21.0521 30.7517 21.4143 30.3894 21.86 30.3894H22.2788C23.6222 30.3894 24.9523 30.0452 26.1259 29.3948L25.843 28.8844C24.752 29.4881 23.5257 29.8052 22.2788 29.8061H21.86C21.4912 29.8064 21.1376 29.953 20.8768 30.2137C20.616 30.4744 20.4692 30.828 20.4688 31.1967V41.0819H21.0521V31.1962V31.1967ZM26.6947 24.0352H27.278V25.2071H26.6947V24.0352Z" fill="#62809E"/>
<path d="M43.8212 37.2402C43.8212 37.9577 43.2378 38.541 42.5203 38.541H37.0078V35.5777C37.0078 35.4143 36.8795 35.286 36.7162 35.286H36.2845V34.586C39.0915 34.0989 41.1553 31.6244 41.1553 28.7702C41.1553 25.5093 38.4953 22.861 35.2345 22.861C31.9678 22.861 29.3137 25.5093 29.3137 28.7702C29.3137 31.6617 31.4469 34.1112 34.1845 34.586V35.286C34.0142 35.3163 33.4612 35.1617 33.4612 35.5777V38.541H28.5787C27.8612 38.541 27.2778 37.9577 27.2778 37.2402V26.3785H26.6945V37.2402C26.6945 38.2785 27.5403 39.1243 28.5787 39.1243H33.4612V41.1252C33.4612 42.1052 34.2545 42.8985 35.2345 42.8985C36.2145 42.8985 37.0078 42.1052 37.0078 41.1252V39.1243H42.5203C43.5645 39.1243 44.4045 38.2785 44.4045 37.2402V27.971C44.4045 26.7577 44.7603 25.5852 45.437 24.5702L45.5478 24.4068L45.0637 24.086L44.9528 24.2493C44.2141 25.3498 43.8201 26.6455 43.8212 27.971V37.2402ZM29.897 28.7702C29.897 25.8302 32.2945 23.4443 35.2345 23.4443C38.1745 23.4443 40.572 25.8302 40.572 28.7702C40.572 31.835 37.9365 34.3655 34.7678 34.0668C32.1837 33.9152 29.897 31.6069 29.897 28.7702ZM34.7678 34.6677C35.0785 34.6914 35.3905 34.6914 35.7012 34.6677V35.286H34.7678V34.6677ZM36.4245 41.1252C36.4245 41.7843 35.8878 42.3152 35.2345 42.3152C34.5753 42.3152 34.0445 41.7843 34.0445 41.1252V35.8693H36.4245V41.1252ZM39.746 19.4392C39.7465 19.939 39.9452 20.4183 40.2987 20.7718C40.6522 21.1252 41.1314 21.324 41.6313 21.3245H43.8235V23.5406H44.4068V21.0322C44.3999 20.9564 44.3706 20.8844 44.3228 20.8252L40.2453 16.7477C40.1889 16.693 40.1139 16.6617 40.0353 16.6602C40.0312 16.6602 40.026 16.6631 40.0219 16.6631H38.2562V17.2464H39.746V19.4392ZM40.3328 17.6577L43.4128 20.7377H41.6337C40.9272 20.7377 40.3328 20.1718 40.3328 19.4368V17.6577ZM26.3381 23.3119C26.9528 22.1141 27.2741 20.7873 27.2755 19.4409V18.5484C27.2758 18.2032 27.4131 17.8722 27.6572 17.6281C27.9013 17.384 28.2323 17.2467 28.5775 17.2464H37.0848V16.6631H28.5775C28.0776 16.6635 27.5983 16.8623 27.2449 17.2158C26.8914 17.5693 26.6926 18.0485 26.6922 18.5484V19.4409C26.6922 20.6892 26.3906 21.9347 25.8195 23.0442L25.7227 23.232L26.2412 23.5003L26.3381 23.3119Z" fill="#62809E"/>
<path d="M28.7368 18.8242H29.3691V19.4566H28.7368V18.8242ZM28.7368 20.38H29.3691V21.0123H28.7368V20.38ZM30.1595 18.8481H33.6169V19.4315H30.1595V18.8481ZM30.1595 20.4045H33.6169V20.9878H30.1595V20.4045ZM28.7368 21.9363H29.3691V22.5686H28.7368V21.9363ZM30.1595 21.9608H33.6169V22.5441H30.1595V21.9608ZM42.3868 49.4236V45.8623C42.3868 45.699 42.2584 45.5706 42.0951 45.5706H40.1176C39.9543 45.5706 39.826 45.699 39.826 45.8623V49.4236H38.7001V44.8881C38.7001 44.7248 38.566 44.5965 38.4084 44.5965H36.4251C36.2676 44.5965 36.1334 44.7248 36.1334 44.8881V49.4236H35.0076V43.914C35.0076 43.7565 34.8793 43.6223 34.7159 43.6223H32.7385C32.5751 43.6223 32.4468 43.7565 32.4468 43.914V49.4236H31.3151V45.6173C31.3151 45.4598 31.1868 45.3256 31.0234 45.3256H29.0459C28.8826 45.3256 28.7543 45.4598 28.7543 45.6173V49.4236H18.4258V50.1294C18.4258 51.2552 19.3416 52.1711 20.4674 52.1711H21.3541V51.5877H20.4674C20.0808 51.5873 19.7102 51.4335 19.4368 51.1601C19.1634 50.8867 19.0096 50.516 19.0091 50.1294V50.0069C35.5723 50.0069 35.9608 50.011 52.1366 50.0069V50.1294C52.1366 50.9332 51.4833 51.5877 50.6783 51.5877H24.8541V52.1711H50.6783C51.8041 52.1711 52.72 51.2552 52.72 50.1294V49.4236H42.3868ZM40.4093 46.154H41.8034V49.4236H40.4093V46.154ZM36.7168 45.1798H38.1168V49.4236H36.7168V45.1798ZM33.0301 44.2056H34.4243V49.4236H33.0301V44.2056ZM29.3376 45.909H30.7318V49.4236H29.3376V45.909Z" fill="#62809E"/>
<path d="M22.5234 51.5938H23.6901V52.1771H22.5234V51.5938Z" fill="#62809E"/>
<path d="M39.3974 28.7666C39.3974 29.0414 39.3741 29.298 39.3216 29.543L35.2383 28.7672V24.6133C37.5366 24.6133 39.3974 26.4799 39.3974 28.7666Z" fill="#CBA6C2"/>
</g>
<path d="M24.7749 78.6909C24.9067 78.8081 25.0752 78.9766 25.2583 79.189C25.4487 79.4014 25.6392 79.665 25.8223 79.98C26.0054 80.2949 26.1592 80.6685 26.2837 81.1006C26.4082 81.5327 26.4741 82.0308 26.4741 82.5947C26.4741 83.0122 26.4082 83.4297 26.2837 83.8472C26.1592 84.2646 26.0127 84.6528 25.8296 85.0117C25.6465 85.3706 25.4561 85.6782 25.2729 85.9419C25.0825 86.2056 24.9214 86.4033 24.7896 86.5278C24.3062 86.9819 23.7568 87.3481 23.1343 87.6118C22.5117 87.8828 21.8452 88.022 21.1348 88.0293C20.8491 88.0293 20.5928 88.0293 20.3584 88.0293C20.124 88.0293 19.9116 88.0293 19.7212 88.0293C19.5308 88.0293 19.355 88.0293 19.2085 88.0293C19.0547 88.0293 18.9229 88.0293 18.8057 88.0293C18.6885 88.0293 18.5933 88.0293 18.5054 88.0293C18.4175 88.0293 18.3442 88.0293 18.2856 88.0293C18.2271 88.0293 18.1758 88.0293 18.1392 88.0293C18.1025 88.0293 18.0732 88.0293 18.0513 88.0293C18.0366 88.0293 18.022 88.0293 18.0146 88.0293C18.0073 88.0293 18 88.0293 18 88.0293V79.2915C18 79.2036 18.0073 79.0864 18.0146 78.9473C18.0293 78.8154 18.0659 78.6616 18.1245 78.4932C18.1831 78.332 18.2783 78.1636 18.4102 77.9951C18.6152 77.7607 18.8643 77.5923 19.1572 77.4897C19.4575 77.3799 19.7798 77.314 20.124 77.292C20.4683 77.2627 20.8052 77.248 21.1348 77.248C21.8379 77.248 22.4971 77.3799 23.1196 77.6289C23.7422 77.8853 24.2915 78.2368 24.7749 78.6909ZM21.1348 86.5718C21.8452 86.5718 22.4971 86.3887 23.0903 86.0298C23.6763 85.6636 24.145 85.1729 24.4966 84.5723C24.8481 83.9644 25.0239 83.3052 25.0239 82.5947C25.0239 81.8843 24.8481 81.2324 24.5039 80.6465C24.1597 80.0605 23.6982 79.5991 23.1196 79.2476C22.541 78.9033 21.8965 78.7202 21.1787 78.7056V78.6982L19.9702 78.6909C19.6699 78.6763 19.5015 78.8081 19.4648 79.0791C19.4575 79.1377 19.4575 79.5405 19.4502 80.2876C19.4429 81.0273 19.4429 81.8843 19.4429 82.8511C19.4355 83.8252 19.4355 84.6821 19.4355 85.4365C19.4355 86.1909 19.4355 86.5645 19.4355 86.5645L21.1348 86.5718ZM35.6807 84.0522C35.6807 84.1035 35.6807 84.1548 35.6807 84.2061V88H34.2305V87.1064C33.8862 87.3848 33.5054 87.6045 33.0806 87.7583C32.6558 87.9194 32.209 87.9927 31.7402 87.9927C31.0151 87.9927 30.356 87.8169 29.7627 87.4653C29.1621 87.1064 28.686 86.6304 28.3345 86.0371C27.9756 85.4365 27.7998 84.7773 27.7998 84.0522C27.7998 83.3271 27.9756 82.668 28.3345 82.0747C28.686 81.4741 29.1621 80.998 29.7627 80.6465C30.356 80.2876 31.0151 80.1118 31.7402 80.1118C32.209 80.1118 32.6558 80.1924 33.0806 80.3462C33.498 80.5 33.8862 80.7197 34.2231 80.998V80.1045H35.6733L35.6807 83.8984C35.6807 83.9497 35.6807 84.001 35.6807 84.0522ZM34.2231 84.1841V84.1768V83.9277C34.1792 83.2539 33.9155 82.6899 33.4468 82.2432C32.9707 81.7891 32.4067 81.562 31.7402 81.562C31.0518 81.562 30.4658 81.811 29.9824 82.2944C29.4917 82.7852 29.25 83.3711 29.25 84.0522C29.25 84.7407 29.4917 85.3267 29.9824 85.8174C30.4658 86.3008 31.0518 86.5425 31.7402 86.5425C32.4067 86.5425 32.978 86.3154 33.4468 85.8687C33.9155 85.4146 34.1792 84.8579 34.2231 84.1841ZM41.5254 87.9854C41.4888 87.9854 41.4521 87.9854 41.4155 87.9854C40.8735 87.9854 40.4121 87.9561 40.0239 87.8901C39.6431 87.8242 39.2622 87.6704 38.8887 87.4287C38.5151 87.1943 38.2588 86.8062 38.1343 86.2715C38.0244 85.7588 37.9731 84.9678 37.9658 83.8911C37.9658 82.8145 37.9731 82.0381 37.9878 81.5693H36.999V80.1118H37.9731C37.9658 79.1157 37.9658 78.1416 37.9731 77.1968H39.4453L39.4526 80.1118H41.0786V81.5693H39.46C39.438 82.7559 39.438 84.0522 39.46 85.4585C39.4673 86.2422 40.1558 86.5938 41.5254 86.5352V87.9854ZM50.5049 84.0522C50.5049 84.1035 50.5049 84.1548 50.5049 84.2061V88H49.0547V87.1064C48.7104 87.3848 48.3296 87.6045 47.9048 87.7583C47.48 87.9194 47.0332 87.9927 46.5645 87.9927C45.8394 87.9927 45.1802 87.8169 44.5869 87.4653C43.9863 87.1064 43.5103 86.6304 43.1587 86.0371C42.7998 85.4365 42.624 84.7773 42.624 84.0522C42.624 83.3271 42.7998 82.668 43.1587 82.0747C43.5103 81.4741 43.9863 80.998 44.5869 80.6465C45.1802 80.2876 45.8394 80.1118 46.5645 80.1118C47.0332 80.1118 47.48 80.1924 47.9048 80.3462C48.3223 80.5 48.7104 80.7197 49.0474 80.998V80.1045H50.4976L50.5049 83.8984C50.5049 83.9497 50.5049 84.001 50.5049 84.0522ZM49.0474 84.1841V84.1768V83.9277C49.0034 83.2539 48.7397 82.6899 48.271 82.2432C47.7949 81.7891 47.231 81.562 46.5645 81.562C45.876 81.562 45.29 81.811 44.8066 82.2944C44.3159 82.7852 44.0742 83.3711 44.0742 84.0522C44.0742 84.7407 44.3159 85.3267 44.8066 85.8174C45.29 86.3008 45.876 86.5425 46.5645 86.5425C47.231 86.5425 47.8022 86.3154 48.271 85.8687C48.7397 85.4146 49.0034 84.8579 49.0474 84.1841Z" fill="black"/>
<defs>
<filter id="filter0_b_554_1190" x="-183.289" y="-183.289" width="436.579" height="436.579" filterUnits="userSpaceOnUse" color-interpolation-filters="sRGB">
<feFlood flood-opacity="0" result="BackgroundImageFix"/>
<feGaussianBlur in="BackgroundImageFix" stdDeviation="91.6447"/>
<feComposite in2="SourceAlpha" operator="in" result="effect1_backgroundBlur_554_1190"/>
<feBlend mode="normal" in="SourceGraphic" in2="effect1_backgroundBlur_554_1190" result="shape"/>
</filter>
<linearGradient id="paint0_linear_554_1190" x1="0" y1="0" x2="70" y2="70" gradientUnits="userSpaceOnUse">
<stop stop-color="#37CBF9" stop-opacity="0"/>
<stop offset="1" stop-color="#207893" stop-opacity="0.25"/>
</linearGradient>
</defs>
</svg>
