<svg width="70" height="93" viewBox="0 0 70 93" fill="none" xmlns="http://www.w3.org/2000/svg">
<g filter="url(#filter0_b_554_1477)">
<rect width="70" height="70" rx="35" fill="url(#paint0_linear_554_1477)"/>
<g style="mix-blend-mode:darken" clip-path="url(#clip0_554_1477)">
<path d="M42.389 52.279H28.7812L30.4774 43.7798L40.6896 43.7773L42.389 52.279Z" fill="#CCD1D9"/>
<path d="M55.9959 44.6205C55.9959 45.0914 55.6146 45.4701 55.1449 45.4701H16.0222C15.5525 45.4701 15.1719 45.0914 15.1719 44.6205V17.4043C15.1719 16.9346 15.5525 16.5547 16.0222 16.5547H55.1449C55.6146 16.5547 55.9959 16.9346 55.9959 17.4043V44.6205ZM42.3875 52.2749H28.7797C28.31 52.2749 27.9294 51.8938 27.9294 51.4253C27.9294 50.9544 28.31 50.5731 28.7797 50.5731H42.3875C42.8572 50.5731 43.2384 50.9543 43.2384 51.4253C43.2384 51.8938 42.8571 52.2749 42.3875 52.2749Z" fill="#E6E9ED"/>
<path d="M55.1449 16.5547H16.0222C15.5525 16.5547 15.1719 16.9346 15.1719 17.4043V40.3671H55.9959V17.4043C55.9959 16.9346 55.6146 16.5547 55.1449 16.5547Z" fill="#ED5564"/>
<path d="M55.1424 16.5547H47.4879V40.3671H55.9933V17.4043C55.9934 16.9346 55.6121 16.5547 55.1424 16.5547ZM36.4317 42.9187C36.4317 43.3896 36.0511 43.7708 35.5813 43.7708C35.1116 43.7708 34.7305 43.3897 34.7305 42.9187C34.7305 42.4502 35.1117 42.0691 35.5813 42.0691C36.051 42.0691 36.4317 42.4502 36.4317 42.9187Z" fill="#434A54"/>
<path d="M47.4922 26.7617H55.8793V28.4623H47.4922V26.7617Z" fill="#656D78"/>
<path d="M35.4158 40.368L36.4305 35.8331L32.1778 31.8633L27.9258 35.8331L28.9399 40.368H35.4158Z" fill="#FFCE54"/>
<path d="M32.1827 30.165C30.0655 30.165 28.211 29.7775 26.6718 29.0138C25.4122 28.3884 24.3639 27.5151 23.5565 26.4163C22.1823 24.5474 21.9886 22.6713 21.9805 22.5915L23.6742 22.4295C23.6755 22.4407 23.8473 23.9769 24.9729 25.4707C26.4692 27.4565 28.8949 28.4644 32.1827 28.4644C35.4711 28.4644 37.8974 27.4565 39.3924 25.4707C40.5186 23.9769 40.6905 22.4407 40.6918 22.4258L42.3849 22.5915C42.3774 22.6713 42.1831 24.5474 40.8089 26.4163C40.0015 27.5151 38.9538 28.3885 37.6943 29.0138C36.1546 29.7775 34.3001 30.165 32.1827 30.165Z" fill="#E6E9ED"/>
<path d="M30.4806 29.3128C30.4806 28.3734 31.2419 27.6122 32.1812 27.6122C33.1206 27.6122 33.8824 28.3734 33.8824 29.3128C33.8824 30.2534 33.1206 31.0146 32.1812 31.0146C31.2419 31.0146 30.4806 30.2534 30.4806 29.3128ZM21.125 22.5092C21.125 21.5698 21.8862 20.8086 22.8262 20.8086C23.7655 20.8086 24.5268 21.5698 24.5268 22.5092C24.5268 23.4486 23.7655 24.211 22.8262 24.211C21.8862 24.211 21.125 23.4486 21.125 22.5092ZM39.8357 22.5092C39.8357 21.5698 40.5969 20.8086 41.5362 20.8086C42.4756 20.8086 43.2381 21.5698 43.2381 22.5092C43.2381 23.4486 42.4756 24.211 41.5362 24.211C40.5969 24.211 39.8357 23.4486 39.8357 22.5092Z" fill="#F5F7FA"/>
<path d="M33.0332 37.8184C33.0332 37.35 32.652 36.9688 32.1824 36.9688C31.7127 36.9688 31.332 37.35 31.332 37.8184V40.3699H33.0332V37.8184Z" fill="#F6BB42"/>
</g>
</g>
<path d="M17.2749 78.6909C17.4067 78.8081 17.5752 78.9766 17.7583 79.189C17.9487 79.4014 18.1392 79.665 18.3223 79.98C18.5054 80.2949 18.6592 80.6685 18.7837 81.1006C18.9082 81.5327 18.9741 82.0308 18.9741 82.5947C18.9741 83.0122 18.9082 83.4297 18.7837 83.8472C18.6592 84.2646 18.5127 84.6528 18.3296 85.0117C18.1465 85.3706 17.9561 85.6782 17.7729 85.9419C17.5825 86.2056 17.4214 86.4033 17.2896 86.5278C16.8062 86.9819 16.2568 87.3481 15.6343 87.6118C15.0117 87.8828 14.3452 88.022 13.6348 88.0293C13.3491 88.0293 13.0928 88.0293 12.8584 88.0293C12.624 88.0293 12.4116 88.0293 12.2212 88.0293C12.0308 88.0293 11.855 88.0293 11.7085 88.0293C11.5547 88.0293 11.4229 88.0293 11.3057 88.0293C11.1885 88.0293 11.0933 88.0293 11.0054 88.0293C10.9175 88.0293 10.8442 88.0293 10.7856 88.0293C10.7271 88.0293 10.6758 88.0293 10.6392 88.0293C10.6025 88.0293 10.5732 88.0293 10.5513 88.0293C10.5366 88.0293 10.522 88.0293 10.5146 88.0293C10.5073 88.0293 10.5 88.0293 10.5 88.0293V79.2915C10.5 79.2036 10.5073 79.0864 10.5146 78.9473C10.5293 78.8154 10.5659 78.6616 10.6245 78.4932C10.6831 78.332 10.7783 78.1636 10.9102 77.9951C11.1152 77.7607 11.3643 77.5923 11.6572 77.4897C11.9575 77.3799 12.2798 77.314 12.624 77.292C12.9683 77.2627 13.3052 77.248 13.6348 77.248C14.3379 77.248 14.9971 77.3799 15.6196 77.6289C16.2422 77.8853 16.7915 78.2368 17.2749 78.6909ZM13.6348 86.5718C14.3452 86.5718 14.9971 86.3887 15.5903 86.0298C16.1763 85.6636 16.645 85.1729 16.9966 84.5723C17.3481 83.9644 17.5239 83.3052 17.5239 82.5947C17.5239 81.8843 17.3481 81.2324 17.0039 80.6465C16.6597 80.0605 16.1982 79.5991 15.6196 79.2476C15.041 78.9033 14.3965 78.7202 13.6787 78.7056V78.6982L12.4702 78.6909C12.1699 78.6763 12.0015 78.8081 11.9648 79.0791C11.9575 79.1377 11.9575 79.5405 11.9502 80.2876C11.9429 81.0273 11.9429 81.8843 11.9429 82.8511C11.9355 83.8252 11.9355 84.6821 11.9355 85.4365C11.9355 86.1909 11.9355 86.5645 11.9355 86.5645L13.6348 86.5718ZM28.166 84.3452H26.7085L21.7646 84.3379C21.8525 84.9678 22.1162 85.4951 22.5703 85.9053C23.0317 86.3154 23.5811 86.5352 24.2402 86.5498C24.7017 86.5425 25.207 86.4546 25.7417 86.2861C26.2837 86.125 26.7158 85.9126 27.0601 85.6709H27.0674L27.8511 86.8208C27.2065 87.2676 26.5986 87.5752 26.0347 87.751C25.4707 87.9268 24.8701 88.0073 24.2329 88C23.1709 87.978 22.27 87.6191 21.5449 86.9307C20.8125 86.2495 20.4023 85.3779 20.3071 84.3306C20.2998 84.2427 20.2998 84.1548 20.2998 84.0596C20.2998 83.6421 20.3657 83.2539 20.4829 82.873C20.7466 82.0601 21.2153 81.4082 21.8892 80.9028C22.563 80.3975 23.3467 80.1411 24.2402 80.1265C25.1338 80.1411 25.9175 80.3975 26.5913 80.9028C27.2578 81.4082 27.7266 82.0674 27.9976 82.8804C28.1147 83.2539 28.1733 83.6494 28.1733 84.0669C28.1733 84.1548 28.1733 84.25 28.166 84.3452ZM22.2114 82.7339L26.5767 82.7412C26.3643 82.3457 26.064 82.0308 25.6831 81.7964C25.3022 81.562 24.8701 81.4448 24.394 81.4375C23.918 81.4375 23.4858 81.562 23.105 81.7964C22.7241 82.0308 22.4238 82.3457 22.2114 82.7339ZM33.2344 83.3345C33.6226 83.4297 34.0254 83.5396 34.4282 83.6641C34.8311 83.7959 35.1973 83.9497 35.5415 84.1328C35.8784 84.3232 36.1567 84.5576 36.3618 84.8286C36.5669 85.1069 36.6621 85.4512 36.6548 85.854C36.6401 86.2129 36.5229 86.5571 36.2886 86.894C36.0615 87.231 35.6953 87.502 35.1899 87.707C34.6846 87.9121 34.0181 88.0146 33.1831 88C32.5239 87.9854 31.9673 87.8975 31.5278 87.7363C31.0811 87.5825 30.7222 87.3848 30.4438 87.165C30.1729 86.938 29.9604 86.7183 29.814 86.4912C29.6748 86.2642 29.5723 86.0737 29.521 85.9199L29.4478 85.7222L30.9932 85.356L31.0664 85.5317C31.1177 85.6929 31.2202 85.8467 31.3667 86.0005C31.5205 86.1616 31.7476 86.2935 32.0625 86.4033C32.3774 86.5132 32.8169 86.5718 33.3809 86.5864H33.3955C33.5347 86.5864 33.7251 86.5718 33.9741 86.5352C34.2305 86.4985 34.4575 86.4326 34.6699 86.3447C34.8823 86.2642 34.9995 86.147 35.0215 86.0078C35.0361 85.6855 34.853 85.4365 34.4648 85.2534C34.084 85.0703 33.542 84.8945 32.8389 84.7261C32.458 84.6235 32.1211 84.521 31.8428 84.4111C31.5718 84.2939 31.2715 84.1548 30.9639 83.979C30.2314 83.5762 29.8799 83.0049 29.9019 82.2871C29.9238 81.6426 30.2314 81.1152 30.8247 80.6978C31.4766 80.2803 32.2383 80.0825 33.1172 80.0972C34.9043 80.1411 36.0542 80.8442 36.5596 82.2065L36.6328 82.4116L35.0874 82.7778L35.0142 82.5947C34.9629 82.4263 34.8677 82.2651 34.7212 82.104C34.582 81.9429 34.3403 81.8037 34.0034 81.6938C33.6665 81.5767 33.3369 81.5181 33.0146 81.5107C32.9707 81.5034 32.9268 81.5034 32.8828 81.5034C32.4214 81.5107 32.0845 81.5913 31.8647 81.7451C31.645 81.9062 31.5205 82.0967 31.5059 82.3237C31.5205 82.5654 31.6743 82.7559 31.9746 82.9097C32.2749 83.0635 32.6924 83.2026 33.2344 83.3345ZM38.0391 87.9927L38.0537 80.1118H39.5039L39.4966 88L38.0391 87.9927ZM38.7715 78.625C38.5591 78.625 38.376 78.5591 38.2222 78.4126C38.0684 78.2734 37.9951 78.105 37.9951 77.9072C37.9951 77.7021 38.0684 77.5337 38.2222 77.3945C38.376 77.2554 38.5591 77.1821 38.7715 77.1821C38.9839 77.1821 39.167 77.2554 39.3208 77.3945C39.4746 77.5337 39.5479 77.7021 39.5479 77.9072C39.5479 78.105 39.4746 78.2734 39.3208 78.4126C39.167 78.5591 38.9839 78.625 38.7715 78.625ZM48.7764 80.1045C48.7764 80.1558 48.7837 80.4927 48.7837 81.1152C48.7837 81.7378 48.791 82.4995 48.791 83.3857C48.791 84.272 48.7837 85.1362 48.7764 85.9785C48.769 86.8208 48.7544 87.4873 48.7324 87.978C48.6592 89.2012 48.3369 90.124 47.7803 90.7539C47.2163 91.3838 46.5425 91.7866 45.7441 91.9624C44.9458 92.1382 44.1475 92.1528 43.3564 91.999C42.5654 91.8525 41.9062 91.6035 41.3716 91.2666L41.9795 89.7505C42.2798 89.9922 42.7192 90.1826 43.2832 90.3291C43.8472 90.4756 44.4258 90.5195 45.0264 90.4609C45.6343 90.4023 46.1396 90.1753 46.5571 89.7871C46.9746 89.3989 47.187 88.791 47.2017 87.9634C47.2017 87.9634 47.2017 87.7656 47.209 87.3701C47.209 87.3115 47.209 87.2529 47.209 87.187C46.8721 87.4434 46.5059 87.6484 46.0957 87.7876C45.6855 87.9341 45.2534 88.0073 44.8066 88.0073C44.0815 88.0073 43.415 87.8315 42.8218 87.4727C42.2285 87.1211 41.7524 86.645 41.4009 86.0518C41.042 85.4512 40.8662 84.792 40.8662 84.0669C40.8662 83.3418 41.042 82.6826 41.4009 82.0894C41.7524 81.4888 42.2285 81.02 42.8218 80.6611C43.415 80.3096 44.0815 80.1338 44.8066 80.1338C45.2754 80.1338 45.7222 80.207 46.147 80.3682C46.5645 80.522 46.9453 80.7344 47.2896 81.0127C47.2969 80.3975 47.3042 80.0898 47.3042 80.0898L48.7764 80.1045ZM47.2456 84.543C47.2456 84.25 47.2529 83.957 47.2529 83.6567C47.1431 83.0562 46.8647 82.5581 46.4106 82.1699C45.9565 81.7817 45.4219 81.584 44.8066 81.584C44.1182 81.584 43.5322 81.8257 43.0488 82.3091C42.5581 82.7998 42.3164 83.3857 42.3164 84.0669C42.3164 84.7554 42.5581 85.3413 43.0488 85.8247C43.5322 86.3154 44.1182 86.5571 44.8066 86.5571C45.4072 86.5571 45.9346 86.3667 46.3813 85.9858C46.8354 85.6123 47.1211 85.1289 47.2456 84.543ZM53.8374 80.1045C54.5552 80.1118 55.1704 80.2437 55.6978 80.4854C56.2178 80.7344 56.6499 81.0493 56.9868 81.4375C57.3237 81.8257 57.5801 82.2285 57.7412 82.6606C57.9097 83.0854 57.9902 83.481 57.9902 83.8398L57.9829 88H56.54V84.5356C56.5767 83.8398 56.4668 83.2759 56.2251 82.8438C55.9761 82.4116 55.6611 82.0894 55.2656 81.8843C54.8701 81.6865 54.46 81.5767 54.0352 81.5767C53.4492 81.562 52.9146 81.7671 52.4312 82.1919C51.9404 82.624 51.6548 83.2832 51.5669 84.1914V84.9751C51.5742 85.3047 51.5742 85.6636 51.5742 86.0591C51.5742 86.4619 51.5669 86.8281 51.5669 87.1577V88H51.5522H50.1094V87.9927V87.978L50.1167 83.9204C50.1167 83.8838 50.1167 83.8545 50.1167 83.8179L50.124 80.1045L51.5742 80.1118V80.9688C52.2554 80.4121 53.0098 80.1265 53.8374 80.1045Z" fill="black"/>
<defs>
<filter id="filter0_b_554_1477" x="-183.289" y="-183.289" width="436.579" height="436.579" filterUnits="userSpaceOnUse" color-interpolation-filters="sRGB">
<feFlood flood-opacity="0" result="BackgroundImageFix"/>
<feGaussianBlur in="BackgroundImageFix" stdDeviation="91.6447"/>
<feComposite in2="SourceAlpha" operator="in" result="effect1_backgroundBlur_554_1477"/>
<feBlend mode="normal" in="SourceGraphic" in2="effect1_backgroundBlur_554_1477" result="shape"/>
</filter>
<linearGradient id="paint0_linear_554_1477" x1="0" y1="0" x2="70" y2="70" gradientUnits="userSpaceOnUse">
<stop stop-color="#37CBF9" stop-opacity="0"/>
<stop offset="1" stop-color="#207893" stop-opacity="0.25"/>
</linearGradient>
<clipPath id="clip0_554_1477">
<rect width="40.8333" height="40.8333" fill="white" transform="translate(15.168 14)"/>
</clipPath>
</defs>
</svg>
