<svg width="400" height="400" viewBox="0 0 400 400" fill="none" xmlns="http://www.w3.org/2000/svg">
<path d="M193.321 69.7109H118.473V144.559H193.321V69.7109Z" fill="#E4E3FF"/>
<path d="M301.608 78.1133H284.84V94.8813H301.608V78.1133Z" fill="#E4E3FF"/>
<path d="M330.274 113.344H156.77V286.848H330.274V113.344Z" fill="#E4E3FF"/>
<path d="M339.408 142.184V143.352H338.24" stroke="#A386F4" stroke-width="1.1728" stroke-miterlimit="10"/>
<path d="M333.792 143.352H302.68" stroke="#A386F4" stroke-width="1.1728" stroke-miterlimit="10" stroke-dasharray="2.22 4.44"/>
<path d="M300.455 143.352H299.279V142.184" stroke="#A386F4" stroke-width="1.1728" stroke-miterlimit="10"/>
<path d="M299.279 137.737V106.625" stroke="#A386F4" stroke-width="1.1728" stroke-miterlimit="10" stroke-dasharray="2.22 4.44"/>
<path d="M299.279 104.403V103.227H300.455" stroke="#A386F4" stroke-width="1.1728" stroke-miterlimit="10"/>
<path d="M304.904 103.227H336.016" stroke="#A386F4" stroke-width="1.1728" stroke-miterlimit="10" stroke-dasharray="2.22 4.44"/>
<path d="M338.24 103.227H339.408V104.403" stroke="#A386F4" stroke-width="1.1728" stroke-miterlimit="10"/>
<path d="M339.408 108.848V139.96" stroke="#A386F4" stroke-width="1.1728" stroke-miterlimit="10" stroke-dasharray="2.22 4.44"/>
<path d="M154.783 40.5742H136.688V58.6702H154.783V40.5742Z" stroke="#E5E1F9" stroke-width="1.1728" stroke-miterlimit="10"/>
<path d="M285.224 120.665V247.953C285.224 253.761 280.52 258.473 274.704 258.473H108.424C102.616 258.473 97.9043 253.769 97.9043 247.953V120.665C97.9043 114.857 102.608 110.145 108.424 110.145H274.712C280.52 110.145 285.224 114.857 285.224 120.665Z" fill="#7563FB"/>
<path d="M285.224 120.665V130.833H97.9043V120.665C97.9043 114.857 102.616 110.145 108.424 110.145H274.704C280.512 110.145 285.224 114.857 285.224 120.665Z" fill="#602CA2"/>
<path d="M170.096 181.96H74.7282C73.3122 181.96 72.1602 180.808 72.1602 179.392V143.728C72.1602 142.312 73.3122 141.16 74.7282 141.16H170.096C171.512 141.16 172.664 142.312 172.664 143.728V179.392C172.664 180.808 171.512 181.96 170.096 181.96Z" fill="white"/>
<path d="M121.721 149.546V173.826C121.721 173.842 121.721 173.866 121.713 173.882C121.697 174.298 121.521 174.682 121.233 174.954C120.961 175.218 120.585 175.37 120.177 175.37H80.3448C79.9368 175.37 79.5608 175.21 79.2888 174.954C79.0008 174.682 78.8168 174.298 78.8088 173.882C78.8008 173.866 78.8008 173.85 78.8008 173.834V149.554C78.8008 148.57 79.6008 147.77 80.5848 147.77H119.937C120.921 147.762 121.721 148.562 121.721 149.546Z" fill="#A5A3EF"/>
<path d="M121.72 173.874C121.704 174.29 121.528 174.674 121.24 174.946C120.968 175.21 120.592 175.362 120.184 175.362H80.3524C79.9444 175.362 79.5684 175.202 79.2964 174.946C79.0084 174.674 78.8244 174.29 78.8164 173.874L100.248 155.258L121.72 173.874Z" fill="#7563FB"/>
<path d="M121.721 149.542V152.206L100.241 169.67L78.8086 152.214V149.542C78.8086 148.558 79.6086 147.758 80.5926 147.758H119.945C120.929 147.758 121.721 148.558 121.721 149.542Z" fill="#BBB5F9"/>
<path d="M166.015 149.68H127.559V152.36H166.015V149.68Z" fill="#E4E3FF"/>
<path d="M166.015 160.227H127.559V162.907H166.015V160.227Z" fill="#E4E3FF"/>
<path d="M166.015 170.758H127.559V173.438H166.015V170.758Z" fill="#E4E3FF"/>
<path opacity="0.2" d="M221.568 193.801H113.6V245.137H221.568V193.801Z" fill="#E4E3FF"/>
<path d="M296.767 247.985H199.407C197.095 247.985 195.223 246.113 195.223 243.801V190.161C195.223 187.849 197.095 185.977 199.407 185.977H296.767C299.079 185.977 300.951 187.849 300.951 190.161V243.809C300.943 246.113 299.071 247.985 296.767 247.985Z" fill="#57229D"/>
<path d="M218.073 198.211H203.137V213.147H218.073V198.211Z" fill="#E14C72"/>
<path d="M293.041 199.113H222.121V202.393H293.041V199.113Z" fill="#7563FB"/>
<path d="M293.041 208.953H222.121V212.233H293.041V208.953Z" fill="#7563FB"/>
<path d="M218.073 220.824H203.137V235.76H218.073V220.824Z" fill="#E14C72"/>
<path d="M293.041 221.727H222.121V225.007H293.041V221.727Z" fill="#7563FB"/>
<path d="M293.041 231.57H222.121V234.85H293.041V231.57Z" fill="#7563FB"/>
<path d="M199.566 154.816H202.878V162.952C202.878 164.56 203.67 165.488 205.238 165.488C206.806 165.488 207.638 164.56 207.638 162.952V154.816H210.95V162.928C210.95 166.688 208.318 168.544 205.182 168.544C202.022 168.544 199.566 166.688 199.566 162.928V154.816Z" fill="white"/>
<path d="M213.287 154.816H216.599V168.416H213.287V154.816Z" fill="white"/>
<path d="M227.079 152.305H229.607L225.495 169.745H222.967L227.079 152.305Z" fill="white"/>
<path d="M235.936 154.816H239.248V162.952C239.248 164.56 240.04 165.488 241.608 165.488C243.176 165.488 244.008 164.56 244.008 162.952V154.816H247.32V162.928C247.32 166.688 244.688 168.544 241.552 168.544C238.392 168.544 235.936 166.688 235.936 162.928V154.816Z" fill="white"/>
<path d="M255.206 164.252L252.766 168.42H249.006L253.366 161.508L248.91 154.828H252.766L255.494 158.932L257.894 154.828H261.654L257.334 161.684L261.83 168.428H257.974L255.206 164.252Z" fill="white"/>
<path d="M270.775 174.879H190.631" stroke="white" stroke-width="0.5864" stroke-miterlimit="10"/>
<path d="M270.775 144.418H190.631" stroke="white" stroke-width="0.5864" stroke-miterlimit="10"/>
<path d="M189.639 173.882V145.418" stroke="white" stroke-width="0.5864" stroke-miterlimit="10"/>
<path d="M271.768 173.882V145.418" stroke="white" stroke-width="0.5864" stroke-miterlimit="10"/>
<path d="M272.768 143.418H270.768V145.418H272.768V143.418Z" stroke="white" stroke-width="0.5864" stroke-miterlimit="10"/>
<path d="M272.768 173.879H270.768V175.879H272.768V173.879Z" stroke="white" stroke-width="0.5864" stroke-miterlimit="10"/>
<path d="M190.631 143.418H188.631V145.418H190.631V143.418Z" stroke="white" stroke-width="0.5864" stroke-miterlimit="10"/>
<path d="M190.631 173.879H188.631V175.879H190.631V173.879Z" stroke="white" stroke-width="0.5864" stroke-miterlimit="10"/>
<path d="M271.063 102.161H174.815C172.679 102.161 170.943 100.425 170.943 98.2891V60.9931C170.943 58.8571 172.679 57.1211 174.815 57.1211H271.063C273.199 57.1211 274.935 58.8571 274.935 60.9931V98.2891C274.935 100.425 273.207 102.161 271.063 102.161Z" fill="#7563FB"/>
<path d="M222.759 93.4317H181.895C181.183 93.4317 180.607 92.8557 180.607 92.1437V67.1357C180.607 66.4237 181.183 65.8477 181.895 65.8477H222.759C223.471 65.8477 224.047 66.4237 224.047 67.1357V92.1437C224.047 92.8557 223.471 93.4317 222.759 93.4317Z" fill="#E14C72"/>
<path d="M183.647 85.1858L186.983 81.8498C189.087 79.7458 192.487 79.7458 194.591 81.8498L197.023 84.2818C197.151 84.4098 197.367 84.4098 197.503 84.2818L206.359 75.4258C207.807 73.9778 210.151 73.9778 211.599 75.4258L220.999 84.8258C221.063 84.8898 221.095 84.9778 221.095 85.0658V90.7058C221.095 90.8898 220.943 91.0418 220.759 91.0418H183.879C183.695 91.0418 183.543 90.8898 183.543 90.7058V85.4258C183.543 85.3378 183.583 85.2498 183.647 85.1858Z" fill="white"/>
<path d="M190.671 78.5613C191.9 78.5613 192.895 77.5656 192.895 76.3373C192.895 75.109 191.9 74.1133 190.671 74.1133C189.443 74.1133 188.447 75.109 188.447 76.3373C188.447 77.5656 189.443 78.5613 190.671 78.5613Z" fill="white"/>
<path d="M265.28 66.5625H230.008V69.0425H265.28V66.5625Z" fill="#E4E3FF"/>
<path d="M265.28 74.4492H230.008V76.9292H265.28V74.4492Z" fill="#E4E3FF"/>
<path d="M265.28 82.3477H230.008V84.8277H265.28V82.3477Z" fill="#E4E3FF"/>
<path d="M265.28 90.2383H230.008V92.7183H265.28V90.2383Z" fill="#E4E3FF"/>
<path d="M141.673 98.472H95.5212C89.2652 98.472 84.2012 93.4 84.2012 87.152C84.2012 80.896 89.2732 75.832 95.5212 75.832H141.673C147.929 75.832 152.993 80.904 152.993 87.152C152.993 93.408 147.929 98.472 141.673 98.472Z" fill="#7563FB"/>
<path d="M141.706 98.5457C147.998 98.5457 153.098 93.4454 153.098 87.1537C153.098 80.8621 147.998 75.7617 141.706 75.7617C135.415 75.7617 130.314 80.8621 130.314 87.1537C130.314 93.4454 135.415 98.5457 141.706 98.5457Z" fill="#57229D"/>
<path d="M141.704 92.6237C144.727 92.6237 147.176 90.1738 147.176 87.1517C147.176 84.1296 144.727 81.6797 141.704 81.6797C138.682 81.6797 136.232 84.1296 136.232 87.1517C136.232 90.1738 138.682 92.6237 141.704 92.6237Z" fill="#7563FB"/>
<path d="M107.439 235.18L133.047 233.068L132.383 189.14L126.359 179.868L118.135 174.316L110.567 176.084C106.263 177.092 103.335 181.076 103.671 185.484L107.719 216.428L107.439 235.18Z" fill="#E8C4B3"/>
<path d="M115.062 169.035L115.422 177.851C115.422 177.851 117.334 178.891 121.694 178.707C124.046 178.611 124.527 177.475 124.527 177.475L124.391 174.219L115.062 169.035Z" fill="#E8C4B3"/>
<path d="M113.767 162.489C113.799 162.809 113.823 163.105 113.855 163.393C113.863 163.497 113.855 163.601 113.855 163.713C113.855 168.953 117.439 174.425 122.527 174.985C122.527 174.985 122.567 174.993 122.639 175.001C122.679 175.001 122.743 175.009 122.815 175.001C123.903 175.089 127.831 175.249 129.199 173.617C130.807 171.697 132.159 168.233 132.063 165.913C131.967 163.593 131.527 163.057 131.487 162.121C131.455 161.393 131.759 159.081 131.727 158.089C131.567 153.417 128.239 148.913 122.655 149.137C114.279 149.473 113.303 156.873 113.767 162.489Z" fill="#E8C4B3"/>
<path d="M100.038 217.674C102.958 218.266 107.974 201.61 109.574 194.386C111.174 187.162 111.15 181.178 107.582 180.458C104.014 179.738 101.662 185.234 100.326 192.514C98.9823 199.786 97.1183 217.082 100.038 217.674Z" fill="#E8C4B3"/>
<path d="M112.84 248.923C115.32 247.995 109.176 229.523 107.256 224.379C105.328 219.235 102.92 213.947 100.144 214.987C97.3676 216.027 99.0156 221.595 100.944 226.747C102.872 231.883 110.368 249.851 112.84 248.923Z" fill="#E8C4B3"/>
<path d="M98.2071 205.5C98.2071 205.5 97.5191 212.532 97.9511 216.084C98.8551 223.62 107.703 243.86 107.703 243.86L112.335 241.228C112.335 241.228 106.119 216.22 106.047 214.82C105.975 213.42 107.935 206.58 107.935 206.58L98.2071 205.5Z" fill="#E8C4B3"/>
<path d="M111.247 195.361C111.151 197.241 109.999 202.145 109.223 205.313C108.815 206.993 108.503 208.193 108.503 208.193L103.175 207.465L97.3672 206.673C97.3672 206.673 98.4872 185.321 105.687 185.521C111.439 185.665 111.399 192.473 111.247 195.361Z" fill="#E14C72"/>
<path d="M109.224 205.305C108.816 206.985 108.504 208.185 108.504 208.185L103.176 207.457L105.704 194.473L109.224 205.305Z" fill="#E4E3FF"/>
<path d="M111.023 241.284L111.039 240.668L112.327 241.236L112.335 241.244L114.519 242.332C115.079 242.612 115.559 243.02 115.919 243.532L116.927 246.1C116.927 246.1 116.591 246.884 115.671 245.612C115.431 245.284 114.823 245.036 114.319 244.86L115.063 246.228L116.647 249.34C117.055 250.228 112.999 252.204 111.647 250.948L110.887 250.324C109.975 249.324 109.087 248.716 108.639 247.444L107.719 243.868L111.023 241.284Z" fill="#E8C4B3"/>
<path d="M126.742 230.29C124.086 230.962 122.206 234.826 122.63 238.682C122.966 241.746 123.726 245.722 125.318 250.45C129.302 262.258 131.646 277.698 135.398 278.082C139.15 278.466 141.47 269.322 139.198 256.802C137.15 245.49 135.774 230.802 133.102 229.77C131.75 229.242 129.062 229.706 126.742 230.29Z" fill="#E8C4B3"/>
<path d="M136.831 269.813C126.719 266.285 129.159 323.421 132.255 332.349C135.351 341.277 137.831 310.429 139.031 295.269C140.239 280.109 140.815 271.197 136.831 269.813Z" fill="#E8C4B3"/>
<path d="M110.72 231.605C108.04 232.173 106.008 235.965 106.28 239.829C106.496 242.901 107.104 246.901 108.512 251.693C112.032 263.645 113.776 279.165 117.512 279.693C121.248 280.221 123.92 271.173 122.136 258.581C120.528 247.197 119.728 232.461 117.088 231.333C115.768 230.749 113.064 231.109 110.72 231.605Z" fill="#E8C4B3"/>
<path d="M121.223 275.892C114.823 267.3 85.6792 316.588 83.2392 325.716C80.7992 334.844 99.2872 310.084 108.775 298.212C118.263 286.332 123.735 279.276 121.223 275.892Z" fill="#E8C4B3"/>
<path d="M118.783 230.989C118.967 232.477 128.839 274.549 128.839 274.549C128.839 274.549 125.839 300.853 129.935 335.317L133.399 339.237L137.423 335.845C137.423 335.845 142.055 282.365 140.751 271.757C139.447 261.149 130.143 230.621 130.143 230.621L118.783 230.989Z" fill="#E8C4B3"/>
<path d="M120.832 239.549C120.832 239.549 124.184 268.493 122.136 279.109C120.088 289.717 87.3522 329.373 87.3522 329.373L81.7442 330.629L81.5762 324.573C81.5762 324.573 100.456 287.581 109.112 276.221C109.832 275.277 99.9922 243.461 106.88 232.101C113.76 220.749 120.832 239.549 120.832 239.549Z" fill="#E8C4B3"/>
<path d="M102.863 278.642C102.719 277.41 102.543 243.322 105.711 232.426C110.895 214.562 135.495 230.642 135.495 230.642C135.495 230.642 140.791 243.322 142.551 275.482C142.991 283.546 102.983 279.89 102.863 278.642Z" fill="#461D93"/>
<path d="M135.934 231.354L125.214 231.978L106.454 233.058C105.574 233.106 104.862 232.418 104.894 231.538C105.134 225.626 105.846 205.29 104.878 200.482C101.438 183.45 103.982 177.81 108.702 176.282C115.782 173.978 122.814 177.794 125.214 179.866C129.486 183.546 135.014 183.09 135.59 189.002C135.71 190.202 135.79 192.098 135.414 195.658C135.35 196.386 135.23 197.146 135.038 197.93C135.038 197.93 135.038 197.93 135.038 197.946C134.974 198.234 134.902 198.522 134.798 198.81C134.63 199.37 134.51 199.794 134.446 199.962C131.366 208.65 135.55 226.242 136.614 230.41C136.742 230.866 136.422 231.322 135.934 231.354Z" fill="#E14C72"/>
<path d="M135.935 231.356L125.215 231.98C127.599 231.436 129.991 230.692 131.327 229.764C134.647 227.444 131.871 218.5 132.039 210.548C132.207 202.604 128.527 202.356 128.527 202.356C131.823 202.388 134.319 198.052 135.423 195.66C135.359 196.388 135.239 197.148 135.047 197.932C135.047 197.932 135.047 197.932 135.047 197.948C134.983 198.236 134.911 198.524 134.807 198.812C134.639 199.372 134.519 199.796 134.455 199.964C131.375 208.652 135.559 226.244 136.623 230.412C136.743 230.868 136.423 231.324 135.935 231.356Z" fill="#E4E3FF"/>
<path d="M157.079 202.14C158.591 199.596 144.647 189.452 138.407 185.588C132.167 181.724 126.559 179.788 124.719 182.892C122.871 185.996 127.247 189.996 133.623 193.636C139.999 197.268 155.567 204.684 157.079 202.14Z" fill="#E8C4B3"/>
<path d="M183.319 180.579C181.775 178.459 165.759 189.235 161.359 192.443C156.959 195.651 152.543 199.363 154.279 201.739C156.007 204.115 160.895 201.051 165.295 197.851C169.695 194.643 184.863 182.699 183.319 180.579Z" fill="#E8C4B3"/>
<path d="M143.184 188.7L155.048 195.54L178.016 181.652L181.44 184.724C181.44 184.724 163.232 202.028 155.68 203.012C149.816 203.78 138.16 197.564 138.16 197.356C138.16 197.148 143.184 188.7 143.184 188.7Z" fill="#E8C4B3"/>
<path d="M143.439 188.466L138.327 198.522C138.327 198.522 129.975 194.45 127.455 193.042C124.935 191.634 116.679 185.97 119.615 181.026C123.287 174.826 143.439 188.466 143.439 188.466Z" fill="#E14C72"/>
<path d="M176.88 183.131L176.264 183.139L176.776 181.827L176.784 181.819L177.776 179.595C178.032 179.027 178.424 178.531 178.912 178.147L181.44 177.035C181.44 177.035 182.24 177.331 181.008 178.307C180.688 178.563 180.464 179.179 180.312 179.691L181.648 178.891L184.696 177.179C185.568 176.739 187.704 180.699 186.512 182.107L185.92 182.891C184.96 183.843 184.392 184.755 183.136 185.259L179.6 186.331L176.88 183.131Z" fill="#E8C4B3"/>
<path d="M126.222 182.268C127.31 189.124 129.854 196.732 123.342 201.732C120.11 204.212 114.606 206.788 110.638 204.612C108.91 203.66 107.782 201.94 106.086 200.94C104.198 199.828 101.902 199.196 99.7105 199.284C98.6865 199.324 97.6625 199.5 96.6385 199.46C93.7345 199.348 92.5025 196.956 92.0385 194.38C91.1905 189.676 92.8545 185.06 96.7185 182.212C98.1585 181.148 99.8625 180.204 100.678 178.524C101.574 176.684 100.694 174.636 100.382 172.756C99.9905 170.38 100.766 167.796 102.774 166.38C105.278 164.62 107.83 164.052 109.278 161.068C110.598 158.356 110.67 155.196 112.15 152.548C113.518 150.1 116.19 148.1 118.91 147.428C123.638 146.276 132.254 147.988 133.166 153.844C133.23 154.284 133.334 155.244 133.158 155.868C132.822 157.044 132.326 157.372 131.87 158.46C130.438 161.86 129.854 165.652 129.086 169.292C128.318 172.964 126.398 176.46 126.118 180.228C126.07 180.94 126.118 181.612 126.222 182.268Z" fill="#461D93"/>
<path d="M129.927 335.309C129.927 335.309 133.175 339.205 137.423 335.845C137.423 335.845 145.967 338.021 145.951 339.989C145.935 341.957 141.503 341.421 141.503 341.421L130.191 341.037C130.191 341.029 128.951 338.605 129.927 335.309Z" fill="#461D93"/>
<path d="M81.5671 324.57C81.5671 324.57 81.9351 329.634 87.3511 329.37C87.3511 329.37 93.0311 336.114 91.8711 337.706C90.7111 339.298 87.4231 336.274 87.4231 336.274L78.4551 329.37C78.4551 329.37 78.8551 326.674 81.5671 324.57Z" fill="#461D93"/>
<path d="M238.68 277.16H221.912V293.928H238.68V277.16Z" stroke="#A386F4" stroke-width="1.1728" stroke-miterlimit="10"/>
<mask id="mask0_388_3076" style="mask-type:luminance" maskUnits="userSpaceOnUse" x="271" y="289" width="66" height="53">
<path d="M336.149 289.734H271.797V341.622H336.149V289.734Z" fill="white"/>
</mask>
<g mask="url(#mask0_388_3076)">
<path d="M328.182 314.682C330.022 319.258 318.054 324.498 316.83 330.986C315.606 337.474 325.638 329.37 325.982 335.874C326.182 339.61 322.174 346.466 315.726 350.554C308.094 355.386 297.95 353.074 292.854 345.618C287.614 337.954 280.182 322.37 285.358 317.85C289.798 313.978 294.486 327.33 301.078 322.306C305.862 318.658 293.902 312.682 297.622 308.386C301.734 303.634 306.798 313.706 309.75 308.682C312.702 303.658 309.534 294.154 314.734 294.506C319.926 294.858 319.078 302.714 318.27 307.818C317.462 312.914 316.878 314.41 318.47 314.53C320.054 314.658 326.342 310.106 328.182 314.682Z" fill="#E4E3FF"/>
<path d="M320.686 338.008L306.15 344.336L309.798 327.384L309.806 327.4L320.182 319.6L310.11 325.944L314.374 306.152L311.31 317.616L304.718 312.992L311.022 318.696L306.35 336.184L291.934 327L306.078 337.208L303.014 348.688L305.102 349.192L305.878 345.568L320.686 338.008Z" fill="#E4E3FF"/>
<path d="M298.294 309.455C297.63 306.463 296.558 304.935 296.35 304.647C296.574 302.247 296.902 295.871 294.054 296.447C291.174 297.031 294.462 302.767 295.726 304.799C295.726 304.879 295.742 304.951 295.798 305.015C295.814 305.039 296.966 306.527 297.662 309.679C296.262 307.655 292.494 302.663 290.686 304.911C288.694 307.399 296.174 309.903 297.806 310.415C298.022 311.583 298.166 312.943 298.174 314.511C298.174 315.023 298.166 315.575 298.134 316.151C296.814 314.279 292.782 308.967 290.958 311.311C289.03 313.791 296.326 316.151 298.102 316.679C297.966 318.663 297.622 320.999 296.942 323.695C295.774 322.007 291.542 316.263 289.654 318.679C287.702 321.191 295.174 323.583 296.846 324.079C296.358 325.943 295.71 327.975 294.862 330.175C293.878 328.399 290.23 322.215 288.11 324.431C285.91 326.735 293.126 329.871 294.726 330.527C294.046 332.255 293.246 334.087 292.302 336.031C291.494 334.367 288.07 327.695 285.79 329.855C283.438 332.079 290.758 335.647 292.166 336.303C291.302 338.055 290.334 339.895 289.23 341.815C288.406 340.119 284.998 333.503 282.726 335.655C280.398 337.863 287.59 341.399 289.07 342.087C288.35 343.335 287.574 344.623 286.742 345.943C286.654 346.079 286.686 346.263 286.798 346.367C286.814 346.383 286.83 346.391 286.846 346.399C286.998 346.495 287.206 346.447 287.302 346.295C288.134 344.975 288.91 343.687 289.638 342.439C291.078 342.663 299.11 343.799 298.598 340.583C298.102 337.503 291.502 341.135 289.838 342.111C290.966 340.151 291.95 338.287 292.822 336.503C294.854 336.799 301.942 337.623 301.462 334.599C301.006 331.735 295.278 334.671 293.126 335.879C293.974 334.119 294.694 332.439 295.326 330.855C297.062 330.511 304.51 328.863 302.982 326.095C301.598 323.591 297.294 328.143 295.638 330.055C296.43 327.967 297.038 326.039 297.502 324.255C299.222 323.639 306.246 320.919 304.334 318.423C302.63 316.191 299.15 321.103 297.742 323.303C298.342 320.807 298.654 318.623 298.782 316.751C300.398 315.671 306.39 311.439 303.966 309.495C301.87 307.815 299.758 312.863 298.838 315.479C298.846 315.119 298.854 314.767 298.846 314.431C298.83 312.887 298.694 311.551 298.486 310.391C299.67 309.143 304.846 303.431 301.982 302.055C299.422 300.823 298.542 306.879 298.294 309.455Z" fill="#E14C72"/>
</g>
<path d="M336.154 341.625H209.314V342.057H336.154V341.625Z" fill="#602CA2"/>
<path d="M205.769 341.625H78.209V342.057H205.769V341.625Z" fill="#602CA2"/>
</svg>
