<svg width="78" height="92" viewBox="0 0 78 92" fill="none" xmlns="http://www.w3.org/2000/svg">
<g filter="url(#filter0_b_554_2988)">
<rect x="4" width="70" height="70" rx="35" fill="#37CBF9"/>
<rect x="4.46053" y="0.460526" width="69.0789" height="69.0789" rx="34.5395" stroke="#847C7C" stroke-width="0.921053"/>
<path d="M44.7117 43.1889H32.2747C30.8654 43.1889 29.7227 42.0462 29.7227 40.6368V28.2005C29.7227 26.7911 30.8654 25.6484 32.2747 25.6484H44.7117C46.1211 25.6484 47.2638 26.7911 47.2638 28.2005V40.6375C47.2638 42.0469 46.1211 43.1889 44.7117 43.1889Z" fill="#FAF5F5"/>
<path d="M44.7143 43.5079H32.2773C30.6944 43.5079 29.4062 42.2197 29.4062 40.6368V28.1992C29.4062 26.6163 30.6944 25.3281 32.2773 25.3281H44.7143C46.2972 25.3281 47.5854 26.6163 47.5854 28.1992V40.6362C47.5854 42.2197 46.2979 43.5079 44.7143 43.5079ZM32.2773 25.9661C31.046 25.9661 30.0443 26.9678 30.0443 28.1992V40.6362C30.0443 41.8675 31.046 42.8692 32.2773 42.8692H44.7143C45.9457 42.8692 46.9474 41.8675 46.9474 40.6362V28.1992C46.9474 26.9678 45.9457 25.9661 44.7143 25.9661H32.2773Z" fill="#63312D"/>
<path d="M47.8916 25.6484H44.7188C46.1281 25.6484 47.2708 26.7911 47.2708 28.2005V40.6375C47.2708 42.0468 46.1281 43.1895 44.7188 43.1895H47.8916C49.301 43.1895 50.4437 42.0468 50.4437 40.6375V28.2005C50.4437 26.7911 49.301 25.6484 47.8916 25.6484Z" fill="#52BADB"/>
<path d="M47.8903 43.5079H44.7174C44.5414 43.5079 44.3984 43.365 44.3984 43.1889C44.3984 43.0128 44.5414 42.8699 44.7174 42.8699C45.9488 42.8699 46.9505 41.8682 46.9505 40.6368V28.1992C46.9505 26.9678 45.9488 25.9661 44.7174 25.9661C44.5414 25.9661 44.3984 25.8232 44.3984 25.6471C44.3984 25.471 44.5414 25.3281 44.7174 25.3281H47.8903C49.4733 25.3281 50.7614 26.6163 50.7614 28.1992V40.6362C50.7614 42.2197 49.4733 43.5079 47.8903 43.5079ZM46.5199 42.8699H47.8897C49.1211 42.8699 50.1228 41.8682 50.1228 40.6368V28.1992C50.1228 26.9678 49.1211 25.9661 47.8897 25.9661H46.5199C47.1713 26.4932 47.5885 27.2983 47.5885 28.1992V40.6362C47.5885 41.5377 47.1719 42.3429 46.5199 42.8699Z" fill="#63312D"/>
<path d="M42.4145 29.5H34.5781C34.0258 29.5 33.5781 29.9477 33.5781 30.5V38.3364C33.5781 38.8887 34.0258 39.3364 34.5781 39.3364H42.4145C42.9668 39.3364 43.4145 38.8887 43.4145 38.3364V30.5C43.4145 29.9477 42.9668 29.5 42.4145 29.5Z" fill="#066286"/>
<path d="M35.2591 21.0898H34.6211V24.4395H35.2591V21.0898Z" fill="#63312D"/>
<path d="M37.5365 20.3984H36.8984V24.439H37.5365V20.3984Z" fill="#63312D"/>
<path d="M39.8099 19.4961H39.1719V24.4408H39.8099V19.4961Z" fill="#63312D"/>
<path d="M42.0794 21.0898H41.4414V24.4395H42.0794V21.0898Z" fill="#63312D"/>
<path d="M44.3529 18H43.7148V24.4332H44.3529V18Z" fill="#63312D"/>
<path d="M39.4878 19.4951C39.9945 19.4951 40.4053 19.0843 40.4053 18.5776C40.4053 18.0709 39.9945 17.6602 39.4878 17.6602C38.9811 17.6602 38.5703 18.0709 38.5703 18.5776C38.5703 19.0843 38.9811 19.4951 39.4878 19.4951Z" fill="#F9DD9D"/>
<path d="M22.5073 35.706C23.014 35.706 23.4248 35.2953 23.4248 34.7886C23.4248 34.2819 23.014 33.8711 22.5073 33.8711C22.0006 33.8711 21.5898 34.2819 21.5898 34.7886C21.5898 35.2953 22.0006 35.706 22.5073 35.706Z" fill="#F9DD9D"/>
<path d="M57.6558 35.706C58.1625 35.706 58.5732 35.2953 58.5732 34.7886C58.5732 34.2819 58.1625 33.8711 57.6558 33.8711C57.149 33.8711 56.7383 34.2819 56.7383 34.7886C56.7383 35.2953 57.149 35.706 57.6558 35.706Z" fill="#F9DD9D"/>
<path d="M39.4878 51.1709C39.9945 51.1709 40.4053 50.7601 40.4053 50.2534C40.4053 49.7467 39.9945 49.3359 39.4878 49.3359C38.9811 49.3359 38.5703 49.7467 38.5703 50.2534C38.5703 50.7601 38.9811 51.1709 39.4878 51.1709Z" fill="#F9DD9D"/>
<path d="M39.4865 19.8128C38.8051 19.8128 38.25 19.2584 38.25 18.5763C38.25 17.8943 38.8044 17.3398 39.4865 17.3398C40.1685 17.3398 40.723 17.8943 40.723 18.5763C40.723 19.2584 40.1679 19.8128 39.4865 19.8128ZM39.4865 17.9785C39.1566 17.9785 38.888 18.2465 38.888 18.577C38.888 18.9075 39.1566 19.1754 39.4865 19.1754C39.8163 19.1754 40.0849 18.9075 40.0849 18.577C40.0849 18.2465 39.8163 17.9785 39.4865 17.9785Z" fill="#63312D"/>
<path d="M28.3652 39.0156H25.0156V39.6536H28.3652V39.0156Z" fill="#63312D"/>
<path d="M28.3687 36.7422H24.3281V37.3802H28.3687V36.7422Z" fill="#63312D"/>
<path d="M28.3665 34.4688H23.4219V35.1068H28.3665V34.4688Z" fill="#63312D"/>
<path d="M28.3652 32.1953H25.0156V32.8333H28.3652V32.1953Z" fill="#63312D"/>
<path d="M28.3668 29.9219H21.9336V30.5599H28.3668V29.9219Z" fill="#63312D"/>
<path d="M22.506 36.0237C21.8246 36.0237 21.2695 35.4693 21.2695 34.7873C21.2695 34.1052 21.824 33.5508 22.506 33.5508C23.1881 33.5508 23.7425 34.1052 23.7425 34.7873C23.7425 35.4693 23.1874 36.0237 22.506 36.0237ZM22.506 34.1894C22.1762 34.1894 21.9076 34.4574 21.9076 34.7879C21.9076 35.1184 22.1762 35.3864 22.506 35.3864C22.8359 35.3864 23.1045 35.1184 23.1045 34.7879C23.1045 34.4574 22.8352 34.1894 22.506 34.1894Z" fill="#63312D"/>
<path d="M55.1465 29.9219H51.7969V30.5599H55.1465V29.9219Z" fill="#63312D"/>
<path d="M55.8375 32.1953H51.7969V32.8333H55.8375V32.1953Z" fill="#63312D"/>
<path d="M56.7415 34.4688H51.7969V35.1068H56.7415V34.4688Z" fill="#63312D"/>
<path d="M55.1465 36.7422H51.7969V37.3802H55.1465V36.7422Z" fill="#63312D"/>
<path d="M58.23 39.0156H51.7969V39.6536H58.23V39.0156Z" fill="#63312D"/>
<path d="M57.6584 36.0237C56.977 36.0237 56.4219 35.4693 56.4219 34.7873C56.4219 34.1052 56.9763 33.5508 57.6584 33.5508C58.3404 33.5508 58.8948 34.1052 58.8948 34.7873C58.8948 35.4693 58.3404 36.0237 57.6584 36.0237ZM57.6584 34.1894C57.3285 34.1894 57.0599 34.4574 57.0599 34.7879C57.0599 35.1184 57.3285 35.3864 57.6584 35.3864C57.9882 35.3864 58.2568 35.1184 58.2568 34.7879C58.2568 34.4574 57.9882 34.1894 57.6584 34.1894Z" fill="#63312D"/>
<path d="M35.2591 44.3906H34.6211V47.7402H35.2591V44.3906Z" fill="#63312D"/>
<path d="M37.5365 44.3906H36.8984V48.4312H37.5365V44.3906Z" fill="#63312D"/>
<path d="M39.8099 44.3906H39.1719V49.3353H39.8099V44.3906Z" fill="#63312D"/>
<path d="M42.0794 44.3906H41.4414V47.7402H42.0794V44.3906Z" fill="#63312D"/>
<path d="M44.3529 44.3906H43.7148V50.8238H44.3529V44.3906Z" fill="#63312D"/>
<path d="M39.4865 51.4925C38.8051 51.4925 38.25 50.9381 38.25 50.256C38.25 49.574 38.8044 49.0195 39.4865 49.0195C40.1685 49.0195 40.723 49.574 40.723 50.256C40.723 50.9381 40.1679 51.4925 39.4865 51.4925ZM39.4865 49.6582C39.1566 49.6582 38.888 49.9262 38.888 50.2567C38.888 50.5871 39.1566 50.8551 39.4865 50.8551C39.8163 50.8551 40.0849 50.5871 40.0849 50.2567C40.0849 49.9262 39.8163 49.6582 39.4865 49.6582Z" fill="#63312D"/>
</g>
<path d="M7.12842 86.5791C7.14307 86.5791 7.15771 86.5791 7.16504 86.5718V88H0.5V79.3647C0.5 78.7788 0.712402 78.2734 1.13721 77.856C1.56934 77.4385 2.07471 77.2261 2.66797 77.2261C2.66797 77.2261 2.8877 77.2261 3.3125 77.2261C3.74463 77.2261 4.23535 77.2261 4.79199 77.2261C5.34131 77.2261 5.83203 77.2261 6.25684 77.2261C6.68164 77.2261 6.90869 77.2261 6.93799 77.2261V78.6689C6.91602 78.6689 6.68896 78.6689 6.26416 78.6763C5.84668 78.6763 5.35596 78.6763 4.79932 78.6763C4.24268 78.6763 3.75195 78.6763 3.31982 78.6763C2.8877 78.6763 2.66797 78.6836 2.66797 78.6836C2.47754 78.6836 2.30908 78.7495 2.16992 78.8813C2.03809 79.0132 1.96484 79.1743 1.96484 79.3647V81.8623H6.57178V83.2686L1.96484 83.2759L1.93555 86.5425L7.12842 86.5791ZM8.49805 85.7808C8.49805 85.7734 8.49805 85.7661 8.49805 85.7588V85.7808ZM16.8037 80.1045C17.3457 80.1045 17.8657 80.2437 18.3564 80.5073C18.8545 80.771 19.2573 81.1299 19.5723 81.5767C19.8799 82.0234 20.041 82.5215 20.041 83.0635C20.041 83.0708 20.041 83.1367 20.041 83.2759C20.041 83.6274 20.041 84.2354 20.041 85.0996C20.0337 85.9712 20.0337 86.938 20.0337 88H18.5835C18.5835 87.9268 18.5835 87.6411 18.5835 87.1504C18.5835 86.6523 18.5835 86.0957 18.5835 85.4658C18.5835 84.8359 18.5835 84.2866 18.5835 83.7959C18.5908 83.3125 18.5908 83.0708 18.5908 83.0635C18.5908 82.7852 18.4956 82.5361 18.3125 82.3091C18.1294 82.082 17.9023 81.8989 17.6313 81.7598C17.353 81.6279 17.082 81.562 16.8037 81.562C16.4009 81.562 15.998 81.7085 15.6025 82.0015C15.2144 82.2944 15.002 82.6313 14.9727 83.0049C14.9727 83.0342 14.9727 83.2832 14.9727 83.7593C14.9653 84.228 14.9653 84.7847 14.9653 85.4146C14.9653 86.0444 14.9653 86.6084 14.9653 87.1138C14.958 87.6191 14.958 87.9121 14.958 88H13.5151C13.5151 87.2017 13.5151 86.418 13.5151 85.6416C13.5151 84.8652 13.5151 84.228 13.5225 83.7373C13.5225 83.2686 13.5225 83.0269 13.5225 83.0049C13.4858 82.5947 13.2808 82.2505 12.9072 81.9722C12.5337 81.6938 12.1455 81.562 11.7354 81.562C11.4717 81.562 11.2153 81.6426 10.959 81.811C10.71 81.9795 10.5049 82.1699 10.3364 82.397C10.168 82.6167 10.0728 82.8218 10.0508 83.0049L10.0435 88H8.58594C8.58594 87.9927 8.58594 87.9927 8.58594 87.9927V87.9268C8.58594 87.7144 8.58594 87.2969 8.58594 86.6743C8.58594 86.0518 8.58594 85.4072 8.59326 84.7554C8.59326 84.0962 8.59326 83.6055 8.59326 83.2832C8.59326 83.1367 8.59326 83.0635 8.59326 83.0635C8.59326 83.0415 8.59326 83.0269 8.59326 83.0049C8.59326 82.9976 8.59326 82.9902 8.59326 82.9829L8.60059 80.1045L10.0508 80.1118V80.5952C10.5708 80.2729 11.1348 80.1045 11.7354 80.1045C12.1821 80.1045 12.6362 80.1997 13.1123 80.3755C13.5811 80.5586 13.9619 80.8076 14.2476 81.1226C14.5332 80.8076 14.9214 80.5586 15.4048 80.3828C15.8955 80.1997 16.3569 80.1045 16.8037 80.1045ZM25.3145 80.1191C26.0396 80.1191 26.6987 80.2949 27.292 80.6465C27.8926 81.0054 28.3687 81.4814 28.7202 82.0747C29.0791 82.6753 29.2549 83.3345 29.2549 84.0596C29.2549 84.7773 29.0791 85.4438 28.7202 86.0371C28.3687 86.6377 27.8926 87.1064 27.292 87.4653C26.6987 87.8169 26.0396 88 25.3145 88C24.8384 88 24.3916 87.9194 23.9741 87.7656C23.5493 87.6045 23.1685 87.3921 22.8242 87.1064V88H21.3594V77.2188H22.8096L22.8169 81.0127C23.1611 80.7271 23.542 80.5073 23.9668 80.3535C24.3916 80.1924 24.8384 80.1191 25.3145 80.1191ZM25.3145 86.5425C26.0029 86.5425 26.5889 86.3008 27.0723 85.8174C27.563 85.3267 27.8047 84.7407 27.8047 84.0596C27.8047 83.3711 27.563 82.7852 27.0723 82.2944C26.5889 81.811 26.0029 81.5693 25.3145 81.5693C24.626 81.5693 24.04 81.811 23.5566 82.2944C23.0659 82.7852 22.8242 83.3711 22.8242 84.0596C22.8242 84.7407 23.0659 85.3267 23.5566 85.8174C24.04 86.3008 24.626 86.5425 25.3145 86.5425ZM38.4395 84.3452H36.9819L32.0381 84.3379C32.126 84.9678 32.3896 85.4951 32.8438 85.9053C33.3052 86.3154 33.8545 86.5352 34.5137 86.5498C34.9751 86.5425 35.4805 86.4546 36.0151 86.2861C36.5571 86.125 36.9893 85.9126 37.3335 85.6709H37.3408L38.1245 86.8208C37.48 87.2676 36.8721 87.5752 36.3081 87.751C35.7441 87.9268 35.1436 88.0073 34.5063 88C33.4443 87.978 32.5435 87.6191 31.8184 86.9307C31.0859 86.2495 30.6758 85.3779 30.5806 84.3306C30.5732 84.2427 30.5732 84.1548 30.5732 84.0596C30.5732 83.6421 30.6392 83.2539 30.7563 82.873C31.02 82.0601 31.4888 81.4082 32.1626 80.9028C32.8364 80.3975 33.6201 80.1411 34.5137 80.1265C35.4072 80.1411 36.1909 80.3975 36.8647 80.9028C37.5312 81.4082 38 82.0674 38.271 82.8804C38.3882 83.2539 38.4468 83.6494 38.4468 84.0669C38.4468 84.1548 38.4468 84.25 38.4395 84.3452ZM32.4849 82.7339L36.8501 82.7412C36.6377 82.3457 36.3374 82.0308 35.9565 81.7964C35.5757 81.562 35.1436 81.4448 34.6675 81.4375C34.1914 81.4375 33.7593 81.562 33.3784 81.7964C32.9976 82.0308 32.6973 82.3457 32.4849 82.7339ZM47.6387 77.2114L47.6533 88.0073H46.2031V87.1211C45.8589 87.3994 45.478 87.6118 45.0532 87.7729C44.6284 87.9268 44.1816 88.0073 43.7129 88.0073C42.9878 88.0073 42.3286 87.8242 41.7354 87.4727C41.1348 87.1138 40.6587 86.645 40.3071 86.0444C39.9482 85.4512 39.7725 84.7847 39.7725 84.0669C39.7725 83.3418 39.9482 82.6826 40.3071 82.082C40.6587 81.4888 41.1348 81.0127 41.7354 80.6538C42.3286 80.3022 42.9878 80.1265 43.7129 80.1265C44.1816 80.1265 44.6284 80.1997 45.0532 80.3535C45.4707 80.5073 45.8516 80.7271 46.1958 81.0054L46.1885 77.2114H47.6387ZM46.2031 84.0815C46.2031 84.0742 46.2031 84.0742 46.2031 84.0742C46.2031 84.0669 46.2031 84.0669 46.2031 84.0669C46.2031 84.0156 46.2031 83.9644 46.1958 83.9131C46.1445 83.2466 45.8809 82.6899 45.4121 82.2432C44.9434 81.7964 44.3721 81.5767 43.7129 81.5767C43.0244 81.5767 42.4385 81.8184 41.9551 82.3018C41.4644 82.7925 41.2227 83.3784 41.2227 84.0669C41.2227 84.748 41.4644 85.334 41.9551 85.8247C42.4385 86.3081 43.0244 86.5498 43.7129 86.5498C44.3721 86.5498 44.9434 86.3301 45.4121 85.8833C45.8809 85.4365 46.1445 84.8799 46.1958 84.2134V83.9424C46.2031 83.9863 46.2031 84.0303 46.2031 84.0815ZM56.8525 77.2114L56.8672 88.0073H55.417V87.1211C55.0728 87.3994 54.6919 87.6118 54.2671 87.7729C53.8423 87.9268 53.3955 88.0073 52.9268 88.0073C52.2017 88.0073 51.5425 87.8242 50.9492 87.4727C50.3486 87.1138 49.8726 86.645 49.521 86.0444C49.1621 85.4512 48.9863 84.7847 48.9863 84.0669C48.9863 83.3418 49.1621 82.6826 49.521 82.082C49.8726 81.4888 50.3486 81.0127 50.9492 80.6538C51.5425 80.3022 52.2017 80.1265 52.9268 80.1265C53.3955 80.1265 53.8423 80.1997 54.2671 80.3535C54.6846 80.5073 55.0654 80.7271 55.4097 81.0054L55.4023 77.2114H56.8525ZM55.417 84.0815C55.417 84.0742 55.417 84.0742 55.417 84.0742C55.417 84.0669 55.417 84.0669 55.417 84.0669C55.417 84.0156 55.417 83.9644 55.4097 83.9131C55.3584 83.2466 55.0947 82.6899 54.626 82.2432C54.1572 81.7964 53.5859 81.5767 52.9268 81.5767C52.2383 81.5767 51.6523 81.8184 51.1689 82.3018C50.6782 82.7925 50.4365 83.3784 50.4365 84.0669C50.4365 84.748 50.6782 85.334 51.1689 85.8247C51.6523 86.3081 52.2383 86.5498 52.9268 86.5498C53.5859 86.5498 54.1572 86.3301 54.626 85.8833C55.0947 85.4365 55.3584 84.8799 55.4097 84.2134V83.9424C55.417 83.9863 55.417 84.0303 55.417 84.0815ZM66.0664 84.3452H64.6089L59.665 84.3379C59.7529 84.9678 60.0166 85.4951 60.4707 85.9053C60.9321 86.3154 61.4814 86.5352 62.1406 86.5498C62.6021 86.5425 63.1074 86.4546 63.6421 86.2861C64.1841 86.125 64.6162 85.9126 64.9604 85.6709H64.9678L65.7515 86.8208C65.1069 87.2676 64.499 87.5752 63.9351 87.751C63.3711 87.9268 62.7705 88.0073 62.1333 88C61.0713 87.978 60.1704 87.6191 59.4453 86.9307C58.7129 86.2495 58.3027 85.3779 58.2075 84.3306C58.2002 84.2427 58.2002 84.1548 58.2002 84.0596C58.2002 83.6421 58.2661 83.2539 58.3833 82.873C58.647 82.0601 59.1157 81.4082 59.7896 80.9028C60.4634 80.3975 61.2471 80.1411 62.1406 80.1265C63.0342 80.1411 63.8179 80.3975 64.4917 80.9028C65.1582 81.4082 65.627 82.0674 65.8979 82.8804C66.0151 83.2539 66.0737 83.6494 66.0737 84.0669C66.0737 84.1548 66.0737 84.25 66.0664 84.3452ZM60.1118 82.7339L64.4771 82.7412C64.2646 82.3457 63.9644 82.0308 63.5835 81.7964C63.2026 81.562 62.7705 81.4448 62.2944 81.4375C61.8184 81.4375 61.3862 81.562 61.0054 81.7964C60.6245 82.0308 60.3242 82.3457 60.1118 82.7339ZM75.2656 77.2114L75.2803 88.0073H73.8301V87.1211C73.4858 87.3994 73.105 87.6118 72.6802 87.7729C72.2554 87.9268 71.8086 88.0073 71.3398 88.0073C70.6147 88.0073 69.9556 87.8242 69.3623 87.4727C68.7617 87.1138 68.2856 86.645 67.9341 86.0444C67.5752 85.4512 67.3994 84.7847 67.3994 84.0669C67.3994 83.3418 67.5752 82.6826 67.9341 82.082C68.2856 81.4888 68.7617 81.0127 69.3623 80.6538C69.9556 80.3022 70.6147 80.1265 71.3398 80.1265C71.8086 80.1265 72.2554 80.1997 72.6802 80.3535C73.0977 80.5073 73.4785 80.7271 73.8228 81.0054L73.8154 77.2114H75.2656ZM73.8301 84.0815C73.8301 84.0742 73.8301 84.0742 73.8301 84.0742C73.8301 84.0669 73.8301 84.0669 73.8301 84.0669C73.8301 84.0156 73.8301 83.9644 73.8228 83.9131C73.7715 83.2466 73.5078 82.6899 73.0391 82.2432C72.5703 81.7964 71.999 81.5767 71.3398 81.5767C70.6514 81.5767 70.0654 81.8184 69.582 82.3018C69.0913 82.7925 68.8496 83.3784 68.8496 84.0669C68.8496 84.748 69.0913 85.334 69.582 85.8247C70.0654 86.3081 70.6514 86.5498 71.3398 86.5498C71.999 86.5498 72.5703 86.3301 73.0391 85.8833C73.5078 85.4365 73.7715 84.8799 73.8228 84.2134V83.9424C73.8301 83.9863 73.8301 84.0303 73.8301 84.0815Z" fill="black"/>
<defs>
<filter id="filter0_b_554_2988" x="-179.289" y="-183.289" width="436.579" height="436.579" filterUnits="userSpaceOnUse" color-interpolation-filters="sRGB">
<feFlood flood-opacity="0" result="BackgroundImageFix"/>
<feGaussianBlur in="BackgroundImageFix" stdDeviation="91.6447"/>
<feComposite in2="SourceAlpha" operator="in" result="effect1_backgroundBlur_554_2988"/>
<feBlend mode="normal" in="SourceGraphic" in2="effect1_backgroundBlur_554_2988" result="shape"/>
</filter>
</defs>
</svg>
