<svg width="446" height="446" viewBox="0 0 446 446" fill="none" xmlns="http://www.w3.org/2000/svg">
<path d="M334.655 244.101C335.249 245.94 335.276 247.959 334.601 249.953L293.458 372.983C292.214 376.628 289 379.192 285.179 379.514L97.3072 394.751C93.8531 395.065 90.8374 393.56 88.9642 391.18C88.7942 390.83 73.9944 360.389 74.8969 362.245C76.8243 365.195 80.2337 366.843 83.7677 366.524C84.1396 366.49 107.385 364.407 105.95 364.535L272.204 349.894C276.025 349.572 279.275 347.004 280.483 343.363C322.126 216.479 322.629 221.447 321.192 216.195C321.361 216.546 335.552 245.96 334.655 244.101Z" fill="#C3D7F9"/>
<path d="M283.657 369.57L276.362 346.992C275.99 345.846 277.727 345.289 278.09 346.433L285.384 369.011C285.756 370.157 284.02 370.714 283.657 369.57Z" fill="#0E2365"/>
<path d="M272.28 350.811L83.8496 367.44C75.8044 368.146 69.9968 359.96 73.3329 352.595L128.925 231.319C130.542 227.84 133.886 225.551 137.462 225.203L197.224 219.335C198.427 219.217 198.593 221.03 197.403 221.145C115.961 229.142 143.122 226.338 137.465 227.032C134.49 227.397 131.863 229.317 130.575 232.08L74.9889 353.349C72.2371 359.419 77.0092 366.215 83.6915 365.627L272.125 348.998C275.581 348.737 278.527 346.388 279.621 343.087L320.167 221.452C322.023 215.873 317.969 210.211 312.275 210.006C311.087 209.962 311.123 208.173 312.338 208.188C319.207 208.44 324.144 215.253 321.891 222.028L281.344 343.661C280.007 347.699 276.402 350.469 272.28 350.811Z" fill="#0E2365"/>
<path d="M247.916 161.729C244.316 165.29 238.1 163.259 234.622 162.665C222.476 161.058 214.722 159.056 212.151 158.683C209.386 158.292 204.476 157.856 199.676 156.148C216.319 167.672 226.895 165.666 229.894 169.51C231.186 171.23 231.277 174.079 228.519 177.116C225.601 180.259 220.619 182.633 213.844 182.618C212.017 182.66 210.091 182.786 208.347 182.304C198.425 179.491 183.952 169.174 178.785 159.959C176.444 155.813 174.679 148.299 178.312 145.362C179.645 144.282 181.562 144.084 183.266 144.534C182.961 139.316 188.472 133.103 196.684 134.167C203.452 135.208 207.457 138.823 216.484 140.858C219.198 141.478 222.288 141.281 225.088 141.707C232.605 142.875 244.99 146.386 248.675 152.989C250.184 155.735 250.176 159.546 247.916 161.729Z" fill="#FCA8D7"/>
<path d="M175.867 240.764L175.826 240.732C176.808 238.823 177.142 235.41 180.04 234.626L180.293 234.595C181.472 234.684 182.284 235.238 182.426 236.392L182.461 236.682C182.462 239.63 178.006 242.435 175.867 240.764Z" fill="#0E2365"/>
<path d="M169.48 256.999L171.214 252.559C173.251 250.997 176.228 250.877 176.513 253.195L176.549 253.484C176.474 257.245 170.537 259.493 169.48 256.999Z" fill="#0E2365"/>
<path d="M162.667 273.721C162.739 273.712 162.816 273.74 162.889 273.731L164.901 268.558C167.138 267.189 169.755 268.082 169.523 269.975C169.524 271.777 167.714 273.8 165.612 274.352C164.018 274.824 162.854 274.209 162.667 273.721Z" fill="#0E2365"/>
<path d="M197.81 237.741L180.137 282.742C179.546 284.212 178.203 285.259 176.678 285.409L162.748 286.936C160.738 287.183 160.009 285.719 154.823 282.284L155.061 279.13C155.385 278.786 157.586 274.187 160.622 273.814C161.245 275.635 163.22 276.843 166.089 276.121C168.969 275.326 171.351 272.571 171.362 269.959C171.348 267.187 168.931 265.512 165.834 266.263L168.715 258.887C169.78 259.713 170.959 260.144 173.109 259.634C177.722 258.361 180.047 252.694 176.908 250.455C175.846 249.592 174.276 249.381 172.673 249.798C172.533 249.852 172.352 249.874 172.215 249.964L175.156 242.471C179.854 245.216 186.778 238.182 183.443 234.211C183.814 234.171 195.339 232.946 194.621 233.022C197.16 232.747 198.821 235.19 197.81 237.741Z" fill="#0E2365"/>
<path d="M100.235 321.599C97.4941 322.341 96.3753 321.107 96.6853 320.234C96.6448 320.202 96.6808 320.197 96.6764 320.161L97.404 318.601L97.4402 318.597C98.3927 317.378 100.091 316.617 101.261 316.473C105.101 316.002 104.727 319.87 100.235 321.599Z" fill="#0E2365"/>
<path d="M126.073 315.486L105.956 364.537C105.584 364.57 83.4018 366.558 83.7738 366.525C83.2669 366.588 82.7147 366.582 82.2305 366.531C82.158 366.54 82.0857 366.549 82.045 366.517C81.5245 366.471 80.9996 366.388 80.5428 366.26C78.8285 363.677 78.3337 360.245 79.8478 357.008L95.6469 322.494C95.9786 322.904 96.5468 323.291 97.3873 323.494L84.0252 353.002C83.5307 354.152 85.2024 354.816 85.6982 353.752L89.1957 346.007C89.5642 346.016 104.494 346.402 103.543 346.378C104.653 346.241 104.599 344.62 103.47 344.585L90.0052 344.216L99.3152 323.625C99.8529 323.531 100.407 323.519 101.385 323.113C104.293 321.947 106.177 319.326 105.652 317.148C104.995 314.538 101.777 314.125 99.1934 315.147C99.1253 315.192 99.0168 315.205 98.9487 315.251L99.4717 314.12L112.911 313.389C115.998 311.576 119.985 309.322 119.985 309.322C120.387 309.607 125.824 313.461 125.422 313.176C126.077 313.721 126.406 314.6 126.073 315.486Z" fill="#0E2365"/>
<path d="M165.493 239.845L139.202 299.396C138.569 300.834 137.187 301.85 135.693 301.96L121.705 303.015C119.401 303.153 119.149 301.709 114.761 297.361L114.034 296.531C114.034 296.531 113.957 296.503 113.952 296.467C113.952 296.467 116.838 290.929 118.004 289.646C119.258 288.182 121.154 289.016 122.508 289.498L125.41 282.891C125.784 282.893 137.963 282.957 137.183 282.953C138.407 282.803 138.135 281.114 137.11 281.161L126.216 281.064L133.32 264.971L142.916 264.97C143.548 265.464 144.562 263.218 142.915 263.168L134.126 263.145L142.208 244.836C142.582 244.829 152.016 244.65 151.415 244.662C152.494 244.529 152.426 242.783 151.265 242.842L143.018 243.045L144.942 238.655C145.574 237.217 146.993 236.197 148.446 236.055L153.476 235.695L153.445 235.442L155.36 233.074L160.085 230.84L160.122 230.835L160.171 230.939C160.212 230.971 160.252 231.003 160.298 231.071L164.646 235.647L164.651 235.684C165.749 236.541 166.211 238.212 165.493 239.845Z" fill="#0E2365"/>
<path d="M178.557 241.105C173.746 242.335 174.262 236.14 179.069 234.792C179.325 234.716 179.78 234.583 180.042 234.636L180.296 234.604C184.104 234.892 182.454 240.011 178.557 241.105Z" fill="#C3D7F9"/>
<path d="M169.242 255.992C169.2 256.559 169.423 257.148 169.949 257.56C171.794 259.099 176.48 256.699 176.544 253.478L176.508 253.188C176.058 249.525 169.236 252.024 169.242 255.992ZM169.242 255.992C169.2 256.559 169.423 257.148 169.949 257.56C171.794 259.099 176.48 256.699 176.544 253.478L176.508 253.188C176.058 249.525 169.236 252.024 169.242 255.992ZM188.94 228.978L175.005 230.469C173.552 230.61 172.178 231.698 171.587 233.168L153.914 278.169C152.881 280.84 154.69 283.183 157.103 282.887L171.034 281.36C172.523 281.214 173.901 280.163 174.457 278.698C192.543 232.705 192.243 233.546 192.298 233.272C192.996 230.87 191.371 228.716 188.94 228.978ZM165.192 276.306C163.229 276.547 161.281 275.742 160.622 273.815C159.614 271.193 161.914 267.311 165.653 266.286L165.834 266.264C168.924 265.514 171.348 267.183 171.362 269.96C171.35 272.917 168.352 275.918 165.192 276.306ZM168.715 258.888C165.76 256.465 168.102 251.361 172.215 249.965C172.352 249.875 172.533 249.853 172.673 249.799C175.602 249.036 178.415 250.55 178.345 253.478C178.329 257.72 172.404 261.752 168.715 258.888ZM184.298 236.681C184.218 241.143 178.067 244.807 174.758 242.227C171.485 239.669 174.182 234.214 178.589 233.006C181.524 232.233 184.275 233.691 184.298 236.681ZM169.242 255.992C169.2 256.559 169.423 257.148 169.949 257.56C171.794 259.099 176.48 256.699 176.544 253.478C176.446 253.112 176.55 252.498 175.832 251.874C173.598 250.268 169.238 253.041 169.242 255.992ZM166.125 268.029C162.918 268.977 161.464 272.373 162.668 273.711C162.855 274.199 164.018 274.813 165.613 274.342C168.925 273.472 170.597 269.611 168.812 268.361C168.288 267.984 166.619 267.969 166.125 268.029Z" fill="#C3D7F9"/>
<path d="M97.4466 318.598L97.4104 318.603C96.9975 319.132 96.7337 319.679 96.6828 320.163C96.6872 320.199 96.6512 320.203 96.6917 320.235C96.5535 320.625 96.7508 321.239 97.3678 321.549C99.818 322.78 104.442 319.837 103.867 317.59C103.437 315.685 99.2732 316.261 97.4466 318.598ZM97.4466 318.598L97.4104 318.603C96.9975 319.132 96.7337 319.679 96.6828 320.163C96.6872 320.199 96.6512 320.203 96.6917 320.235C96.5535 320.625 96.7508 321.239 97.3678 321.549C99.818 322.78 104.442 319.837 103.867 317.59C103.437 315.685 99.2732 316.261 97.4466 318.598ZM118.483 308.773L93.8262 310.072L74.1663 352.964C71.3857 359.103 75.5399 365.941 82.0438 366.519C82.4566 366.841 91.7558 365.823 98.3313 365.328C132.423 282.313 115.625 323.217 120.464 311.434C120.924 310.056 119.89 308.689 118.483 308.773ZM101.384 323.115C100.536 323.466 100.094 323.491 99.3141 323.627L90.0041 344.218L103.469 344.587C104.597 344.621 104.654 346.243 103.542 346.38C103.044 346.367 88.25 345.984 89.1946 346.009L85.6971 353.754C85.1951 354.831 83.5341 354.144 84.024 353.004L97.3861 323.495C93.6163 322.588 94.0011 317.444 98.9476 315.252C99.0157 315.207 99.1242 315.194 99.1923 315.149C101.782 314.125 104.996 314.548 105.651 317.15C106.176 319.328 104.292 321.949 101.384 323.115ZM97.4466 318.598L97.4104 318.603C96.9975 319.132 96.7337 319.679 96.6828 320.163C96.6872 320.199 96.6512 320.203 96.6917 320.235C96.5535 320.625 96.7508 321.239 97.3678 321.549C99.818 322.78 104.442 319.837 103.867 317.59C103.437 315.685 99.2732 316.261 97.4466 318.598Z" fill="#01B990"/>
<path d="M319.027 161.987C319.022 161.95 319.022 161.95 319.022 161.95L316.711 158.999L315.381 173.317L292.194 235.391L272.31 244.12C263.267 245.349 303.038 239.943 194.021 254.762L202.241 264.819L281.88 257.687L298.568 245.381L326.533 171.616L319.027 161.987ZM265.489 250.545C200.825 255.993 202.82 256.809 202.411 255.423C202.186 255.084 202.545 254.29 203.188 254.261L265.302 248.73C265.81 248.668 266.261 249.053 266.287 249.565C266.292 249.601 266.296 249.637 266.265 249.678C266.282 250.117 265.96 250.488 265.489 250.545Z" fill="#C3D7F9"/>
<path d="M281.981 258.576C281.971 258.578 281.953 258.58 281.953 258.58L223.285 263.833C222.098 263.937 221.922 262.169 223.092 262.025C313.298 253.948 268.619 257.949 281.537 256.792L297.811 244.808L325.689 171.285C326.127 170.161 327.81 170.807 327.393 171.931L299.417 245.704C299.355 245.867 299.243 246.01 299.106 246.112L282.411 258.405C282.283 258.498 282.136 258.557 281.981 258.576Z" fill="#0E2365"/>
<path d="M201.542 265.377L193.326 255.316C192.568 254.384 193.973 253.238 194.737 254.166L202.953 264.227C203.718 265.167 202.301 266.3 201.542 265.377Z" fill="#0E2365"/>
<path d="M193.177 254.423L193.969 252.33C194.395 251.21 196.093 251.843 195.672 252.972L194.881 255.066C194.454 256.185 192.76 255.542 193.177 254.423Z" fill="#0E2365"/>
<path d="M318.416 160.919C307.825 147.49 312.885 150.394 297.608 151.342C299.321 152.418 300.938 153.617 302.52 154.82C303.018 155.288 302.93 155.965 302.548 156.25C300.326 158.214 298.542 160.749 297.409 163.499C297.3 163.806 296.991 163.991 296.666 164.031C295.971 164.117 295.467 163.42 295.74 162.785C296.846 160.112 298.494 157.667 300.563 155.648C299.372 154.759 295.781 152.13 294.371 151.629L281.641 152.751C280.315 154.07 279.602 156.526 280.642 158.094C281.31 159.101 279.759 160.068 279.11 159.091C277.987 157.428 278.06 155.029 279.205 152.976L272.188 153.617C235.348 157.109 236.459 156.335 234.807 157.582C215.917 172.061 215.698 171.248 214.944 173.367C214.791 173.771 202.646 205.788 203.418 203.753L188.277 243.627C187.721 245.092 187.99 246.676 188.983 247.878C193.353 253.235 194.169 254.353 194.598 254.688C196.755 256.697 199.355 255.456 202.409 255.421C202.184 255.082 202.542 254.288 203.185 254.259L265.3 248.728C265.807 248.666 266.259 249.051 266.285 249.563C266.29 249.599 266.294 249.635 266.262 249.676C273.628 248.859 274.736 249.314 276.187 248.163C290.817 237.142 291.641 237.475 292.377 235.403L319.036 165.071C319.595 163.752 319.326 162.169 318.416 160.919ZM225.845 230.705C215.755 231.498 215.141 231.986 213.614 231.398C209.797 231.618 202.433 232.043 202.881 232.017C201.724 232.076 201.536 230.261 202.767 230.193L211.494 229.71C210.773 228.622 210.568 227.25 211.1 225.897L215.789 213.484L205.445 214.276C204.354 214.41 204.055 212.608 205.331 212.451L216.513 211.593L225.485 187.955L215.269 188.584C214.018 188.648 213.977 186.814 215.155 186.76L226.173 186.069L229.701 176.775C230.248 175.238 231.662 174.182 233.301 174.054L287.593 169.189C290.651 168.884 293.124 172.007 291.975 174.938L289.253 182.11C289.619 182.087 304.538 181.135 303.589 181.196C304.687 181.061 304.94 182.831 303.735 182.979C302.658 183.05 295.519 183.522 295.967 183.492L288.561 183.96L279.898 206.825L287.327 206.244L294.176 205.734C295.304 205.595 295.595 207.398 294.289 207.558L286.603 208.134L279.174 208.716C273.248 223.28 273.861 225.044 271.297 226.301C271.664 226.28 290.532 225.232 289.335 225.299C290.442 225.249 290.726 226.966 289.413 227.128C202.299 232.03 232.345 230.339 225.845 230.705ZM314.776 173.793L292.071 234.706C291.715 235.874 289.969 235.211 290.375 234.068L313.08 173.156C313.244 172.694 313.765 172.446 314.226 172.61C314.692 172.81 314.94 173.332 314.776 173.793Z" fill="#558DFD"/>
<path d="M190.909 234.637L212.492 177.366C212.92 176.252 214.616 176.877 214.195 178.009L192.766 234.869C192.768 235.038 192.714 235.21 192.594 235.366C192.303 235.77 192.267 235.821 192.557 235.417C191.876 236.306 190.57 235.541 190.909 234.637Z" fill="#0E2365"/>
<path d="M296.654 181.635C296.507 182.02 286.695 207.887 287.322 206.237L286.598 208.127C286.447 208.525 278.256 230.155 278.408 229.758C277.821 231.263 276.479 232.311 274.84 232.438L220.552 237.339C219.172 237.472 217.964 236.922 217.124 236.069C214.291 232.915 211.588 229.907 211.887 230.242C212.745 231.212 214.034 231.737 215.441 231.643L225.84 230.698L269.733 226.779C271.326 226.583 272.734 225.596 273.333 224.057L279.169 208.708L279.893 206.818L288.556 183.953L289.248 182.103L291.97 174.931C292.53 173.502 292.235 171.994 291.404 170.919C291.758 170.802 291.97 170.739 291.97 170.739L296.041 176.048L296.046 176.085C298.529 178.511 296.703 181.245 296.654 181.635Z" fill="#C3D7F9"/>
<path d="M215.527 232.551C211.542 232.826 208.897 229.002 210.254 225.56L228.853 176.447C229.507 174.604 231.222 173.333 233.227 173.142L287.51 168.279C291.196 167.914 294.23 171.652 292.825 175.261L274.188 224.383C273.72 225.587 272.834 226.554 271.696 227.113C270.155 228.014 271.726 227.348 215.527 232.551ZM230.558 177.075L211.951 226.214C211.163 228.212 212.473 230.066 213.898 230.528C215.198 231.031 211.998 230.922 269.655 225.875C270.878 225.725 272.025 224.933 272.494 223.729L291.128 174.611L291.131 174.603C292.045 172.253 290.017 169.857 287.682 170.089L233.382 174.955C232.189 175.022 231 175.826 230.558 177.075Z" fill="#0E2365"/>
<path d="M275.824 187.917L265.758 214.496C265.228 215.877 263.946 216.847 262.478 216.971L234.31 219.505C232.899 219.651 231.673 219.017 230.906 218.019L230.879 218.022C230.659 217.68 227.127 212.199 227.351 212.547L230.512 207.734L233.169 206.792L240.402 187.702C240.929 186.293 242.213 185.351 243.679 185.199L258.444 183.89L260.668 180.565L271.721 178.676L275.091 184.003C275.999 185.011 276.375 186.477 275.824 187.917Z" fill="#0E2365"/>
<path d="M272.209 182.328L262.13 208.906C261.604 210.293 260.332 211.258 258.853 211.391L230.675 213.915C227.826 214.17 225.692 211.356 226.706 208.682L236.785 182.104C237.311 180.716 238.584 179.751 240.062 179.619L268.241 177.095C271.089 176.84 273.223 179.653 272.209 182.328Z" fill="#FBD072"/>
<path d="M225.855 208.356L235.934 181.778C236.58 180.075 238.265 178.884 239.979 178.709L268.159 176.185C269.339 176.082 269.528 177.849 268.353 177.993C267.99 178.037 239.787 180.607 240.144 180.521C239.008 180.594 238.037 181.37 237.637 182.423L227.559 209.002C227.132 210.122 225.436 209.485 225.855 208.356Z" fill="#0E2365"/>
<path d="M160.637 234.703L134.346 294.255C133.718 295.729 132.331 296.708 130.837 296.818L116.886 297.869C115.477 297.98 114.413 297.318 114.037 296.528C114.037 296.528 113.96 296.5 113.956 296.464C113.401 295.54 113.286 294.304 113.832 293.06L118.431 282.606C118.896 283.061 118.911 282.775 125.414 282.888C125.787 282.89 137.967 282.954 137.186 282.95C138.41 282.8 138.139 281.111 137.113 281.158L126.219 281.061L119.154 281.01L126.309 264.727C126.82 265.126 127.088 264.864 133.324 264.968L142.919 264.967C143.552 265.461 144.566 263.215 142.919 263.165C142.545 263.165 125.98 263.128 127.032 263.131L135.078 244.827C135.16 244.89 135.309 244.908 135.422 244.931C135.796 244.925 152.361 244.655 151.309 244.672L151.418 244.659C152.498 244.526 152.429 242.78 151.268 242.839C150.902 242.847 135.202 243.204 136.2 243.181L135.829 243.154L140.086 233.513C140.723 232.111 142.138 231.055 143.595 230.95L157.588 229.93C158.606 229.842 159.497 230.211 160.089 230.836C160.129 230.868 160.17 230.9 160.174 230.936C160.215 230.968 160.256 231 160.301 231.068C161.037 231.97 161.242 233.342 160.637 234.703Z" fill="#C3D7F9"/>
<path d="M303.381 140.012C294.003 130.858 281.892 127.109 273.83 87.9783C272.54 81.666 271.73 75.6627 268.32 70.0519C262.511 60.471 251.901 54.8989 241.299 51.2006C214.096 41.684 202.329 49.6827 190.064 67.4914C185.501 74.0443 180.455 80.2522 176.326 87.0458C173.236 92.1565 169.385 94.0285 168.605 105.31C168.251 110.207 168.597 115.127 168.057 120.01C167.008 130.028 162.193 139.921 164.145 149.828C165.886 158.819 173.27 166.494 176.795 172.907C180.633 179.324 183.211 185.993 187.286 191.877C187.869 190.04 188.692 188.064 190.397 186.973C192.717 185.511 195.744 186.206 197.673 187.55C199.684 188.957 201.006 191.038 202.188 192.878C202.459 193.286 202.344 193.851 201.936 194.122C200.36 195.166 200.104 191.539 196.643 189.037C195.197 188.038 192.998 187.499 191.398 188.541C189.998 189.411 189.374 191.216 188.858 193.007C188.772 193.202 188.645 193.364 188.477 193.495C190.675 196.424 193.24 199.05 196.313 201.026C198.623 202.47 200.888 203.846 203.413 203.757C207.309 203.58 210.392 200.157 210.445 196.349C210.51 191.241 206.354 188.127 205.256 184.928C202.532 176.465 201.312 172.259 200.378 167.659C197.543 153.696 197.813 133.446 209.059 124.277C221.371 115.078 243.866 119.558 254.18 130.648C261.6 138.637 266.197 148.638 274.551 155.831C281.576 161.843 290.692 165.724 300.058 165.052C311.051 164.271 316.011 151.843 303.381 140.012ZM251.561 117.404C249.416 110.719 243.331 105.473 236.386 104.304C229.473 103.094 222.012 106.105 217.772 111.7C217.027 112.653 215.596 111.509 216.313 110.592C220.929 104.474 229.133 101.224 236.716 102.499C244.263 103.778 250.926 109.541 253.295 116.86C253.638 118.074 251.879 118.482 251.561 117.404ZM302.544 156.254C300.322 158.218 298.538 160.753 297.405 163.503C297.295 163.81 296.987 163.995 296.661 164.035C295.967 164.121 295.463 163.424 295.736 162.789C296.842 160.116 298.49 157.671 300.558 155.652C296.45 152.584 292.213 149.639 287.046 150.106L286.865 150.128C281.283 150.813 279.044 155.696 280.638 158.098C281.306 159.105 279.754 160.072 279.106 159.095C277.983 157.432 278.056 155.033 279.201 152.98C279.233 152.94 279.228 152.904 279.26 152.863C281.782 148.645 287.957 146.406 295.429 150.106C297.92 151.396 300.146 153.022 302.515 154.824C303.014 155.292 302.925 155.969 302.544 156.254Z" fill="#FCA8D7"/>
<path d="M195.843 201.782C191.394 198.974 187.583 194.63 183.848 188.103C183.249 187.062 184.833 186.156 185.426 187.201C189.007 193.459 192.625 197.603 196.809 200.241C199.8 202.107 202.64 203.878 205.94 202.142C208.052 201.043 209.493 198.706 209.527 196.324C209.569 193.684 208.038 191.065 206.513 188.911C203.906 185.223 204.681 185.594 202.829 180.123C201.427 175.957 200.308 171.826 199.497 167.847C196.563 153.397 197.016 132.779 208.474 123.584C220.503 114.198 243.978 118.312 254.844 130.037C262.215 138.005 266.983 148.167 275.151 155.152C282.642 161.559 291.457 164.753 299.975 164.141C310.294 163.431 314.668 151.9 302.765 140.674L302.236 140.188C293.323 132.045 280.872 126.54 272.935 88.1524C272.832 87.6606 273.148 87.1798 273.64 87.0783C274.103 87.0018 274.615 87.2932 274.714 87.7836C276.517 96.4872 278.987 106.642 283.659 115.963C290.583 129.787 296.988 132.934 303.455 138.839L303.903 139.25C317.164 151.745 312.012 165.107 300.105 165.954C291.107 166.601 281.827 163.253 273.968 156.535C265.486 149.276 260.859 139.206 253.507 131.275C243.461 120.427 221.149 116.113 209.63 124.988C198.771 133.696 198.5 153.797 201.277 167.485C202.669 174.328 204.209 178.253 205.397 182.271C206.946 187.46 206.936 185.858 209.181 189.631C210.128 191.227 211.385 193.658 211.347 196.351C211.304 199.381 209.469 202.356 206.783 203.756C202.774 205.836 199.47 204.046 195.843 201.782Z" fill="#0E2365"/>
<path d="M199 203.715C192.595 201.231 187.473 194.693 183.984 188.713C178.831 179.866 179.15 178.142 171.639 167.457C161.702 153.322 160.726 148.414 164.694 131.291C166.78 122.329 166.956 120.319 166.935 112.533C166.838 94.4459 170.51 94.2998 174.688 87.2998C175.297 86.2662 176.868 87.1981 176.248 88.2317C171.937 95.446 168.685 95.0187 168.751 112.524C168.779 120.471 168.581 122.586 166.466 131.703C162.645 148.159 163.411 152.594 173.128 166.412C180.766 177.275 180.316 178.78 185.554 187.797C194.612 203.32 201.091 200.808 200.178 203.196C199.989 203.673 199.459 203.894 199 203.715Z" fill="#0E2365"/>
<path d="M169.868 123.001C169.728 121.792 171.536 121.591 171.674 122.786C178.034 176.558 177.248 171.702 178.243 174.246C178.425 174.714 178.193 175.241 177.729 175.424C175.452 176.299 175.541 171.475 169.868 123.001Z" fill="#0E2365"/>
<path d="M196.217 80.1691C199.624 67.7692 211.612 59.5286 224.532 60.9698C225.734 61.1015 225.521 62.923 224.331 62.7761C212.379 61.4316 201.157 69.0503 197.972 80.6513C197.649 81.8152 195.899 81.3233 196.217 80.1691Z" fill="#0E2365"/>
<path d="M317.931 282.145C319.156 287.708 316.564 292.823 312.812 291.811C311.071 291.341 309.462 289.396 308.681 286.822C306.974 281.2 309.33 275.616 313.009 276.063C315.163 276.325 317.205 278.846 317.931 282.145Z" fill="#0E2365"/>
<path d="M326.765 255.614C327.99 261.177 325.398 266.292 321.646 265.28C319.905 264.81 318.296 262.865 317.515 260.291C315.808 254.668 318.164 249.085 321.843 249.532C323.997 249.794 326.039 252.314 326.765 255.614Z" fill="#0E2365"/>
<path d="M247.558 310.224C247.979 314.278 244.442 318.376 239.65 319.39C234.857 320.403 230.64 317.944 230.22 313.891C229.801 309.856 233.338 305.757 238.13 304.744C242.923 303.73 247.14 306.189 247.558 310.224Z" fill="#0E2365"/>
<path d="M245.988 307.224C246.409 311.278 242.872 315.376 238.08 316.39C233.287 317.403 229.07 314.944 228.649 310.891C228.231 306.856 231.767 302.757 236.56 301.744C241.352 300.73 245.569 303.189 245.988 307.224Z" fill="#C3D7F9"/>
<path d="M277.049 309.025C277.469 313.079 273.932 317.177 269.14 318.191C264.348 319.204 260.13 316.745 259.71 312.692C259.291 308.657 262.828 304.558 267.621 303.545C272.413 302.531 276.63 304.99 277.049 309.025Z" fill="#0E2365"/>
<path d="M275.478 306.025C275.899 310.079 272.362 314.177 267.57 315.191C262.777 316.204 258.56 313.745 258.14 309.692C257.721 305.657 261.258 301.558 266.05 300.545C270.842 299.531 275.06 301.99 275.478 306.025Z" fill="#01B990"/>
<path d="M242.277 334.76C242.698 338.813 239.161 342.911 234.369 343.925C229.576 344.938 225.359 342.48 224.938 338.426C224.52 334.391 228.057 330.292 232.849 329.279C237.641 328.265 241.859 330.724 242.277 334.76Z" fill="#0E2365"/>
<path d="M240.707 331.76C241.127 335.813 237.591 339.911 232.798 340.925C228.006 341.938 223.789 339.48 223.368 335.426C222.949 331.391 226.486 327.292 231.279 326.279C236.071 325.266 240.288 327.724 240.707 331.76Z" fill="#558DFD"/>
<path d="M271.338 333.912C271.758 337.965 268.221 342.064 263.429 343.077C258.637 344.091 254.419 341.632 253.999 337.579C253.58 333.543 257.117 329.445 261.91 328.431C266.702 327.418 270.919 329.877 271.338 333.912Z" fill="#0E2365"/>
<path d="M269.767 330.912C270.188 334.965 266.651 339.064 261.859 340.077C257.066 341.091 252.849 338.632 252.429 334.579C252.01 330.543 255.547 326.445 260.339 325.431C265.132 324.418 269.349 326.877 269.767 330.912Z" fill="#FCA8D7"/>
<path d="M100.233 321.595C97.4922 322.337 96.3733 321.103 96.6833 320.23C96.6428 320.198 96.6789 320.193 96.6744 320.157C96.7254 319.673 96.9892 319.126 97.402 318.597L97.4383 318.593C98.3907 317.374 100.089 316.613 101.259 316.469C105.099 315.998 104.725 319.866 100.233 321.595Z" fill="#01B990"/>
<path d="M278.335 272.627C162.157 279.652 219.699 276.173 203.062 277.179C201.928 277.249 201.671 275.475 202.954 275.364L278.17 270.817C279.336 270.745 279.49 272.485 278.335 272.627Z" fill="#0E2365"/>
<path d="M256.888 285.374C247.739 285.66 221.43 286.482 223.057 286.431C221.835 286.468 221.817 284.621 222.999 284.614L256.748 283.563C257.901 283.528 258.029 285.234 256.888 285.374Z" fill="#0E2365"/>
<path d="M100.427 223.949C100.052 223.878 93.3697 224.708 88.7179 218.744C80.8905 208.7 89.8287 191.596 105.649 201.762C109.646 204.336 113.042 207.803 117.271 209.612C118.372 210.088 117.661 211.756 116.553 211.285C112.057 209.359 108.625 205.838 104.663 203.293C90.6583 194.279 83.5373 209.154 90.155 217.627C92.4946 220.626 96.4582 222.399 100.255 222.14C100.755 222.105 101.188 222.483 101.224 222.985C101.255 223.47 100.903 223.89 100.427 223.949Z" fill="#0E2365"/>
<path d="M124.587 205.211L118.388 199.391C117.519 198.568 118.747 197.241 119.635 198.064L125.834 203.884C126.718 204.718 125.46 206.021 124.587 205.211Z" fill="#0E2365"/>
<path d="M146.601 208.376C135.385 204.539 125.24 197.017 123.822 185.277C122.887 177.603 127.918 173.646 133.975 175.83C136.214 176.641 138.131 178.152 139.823 179.483C140.762 180.228 139.646 181.655 138.696 180.912C137.036 179.603 135.321 178.25 133.355 177.541C123.723 174.055 122.297 188.853 133.126 198.779C136.718 202.071 141.321 204.649 147.191 206.655C148.326 207.046 147.739 208.767 146.601 208.376Z" fill="#0E2365"/>
<path d="M221.085 304.551L221.081 304.515L216.952 298.441C216.898 298.301 216.813 298.201 216.727 298.101C216.727 298.101 211.791 301.023 210.115 301.744C209.345 302.059 208.502 302.677 207.716 303.766L145.501 309.677C143.939 309.832 142.593 310.843 142.038 312.309L132.749 337.567C132.056 337.909 131.399 338.247 130.891 338.604C128.942 340.093 124.628 346.284 124.628 346.284C124.633 346.321 124.633 346.321 124.674 346.352C124.714 346.384 124.759 346.452 124.764 346.488C125.355 347.408 127.732 350.903 128.711 352.29C128.941 352.667 129.117 352.902 129.117 352.902C129.875 353.986 131.205 354.631 132.694 354.485L204.606 347.604C206.168 347.449 207.479 346.443 208.034 344.977L221.579 308.277C222.076 306.93 221.798 305.567 221.085 304.551ZM191.31 326.442C190.616 328.881 188.199 331.052 185.909 331.26L147.469 334.987C145.178 335.195 143.856 333.409 144.55 330.971C145.243 328.533 147.664 326.397 149.951 326.153L188.395 322.462C190.681 322.218 192.003 324.005 191.31 326.442ZM195.205 310.56C194.512 312.998 192.09 315.133 189.804 315.377L151.36 319.068C149.074 319.312 147.752 317.526 148.445 315.088C149.134 312.614 151.555 310.478 153.846 310.27L192.285 306.543C194.576 306.336 195.898 308.122 195.205 310.56ZM204.824 345.482L201.331 338.889C200.742 337.853 202.37 336.961 202.957 338.064L206.41 344.625C206.966 345.67 205.415 346.556 204.824 345.482Z" fill="#0E2365"/>
<path d="M216.955 298.446C216.902 298.306 216.816 298.206 216.73 298.106C215.963 296.951 214.584 296.201 213.022 296.356L141.11 303.237C139.548 303.392 138.238 304.398 137.682 305.864L124.142 342.6C123.677 343.907 123.919 345.274 124.632 346.29C124.636 346.326 124.636 346.326 124.677 346.358C124.717 346.389 124.762 346.457 124.767 346.494C125.593 347.532 126.886 348.182 128.339 348.04L200.252 341.159C201.813 341.004 203.124 339.998 203.679 338.532L217.22 301.796C217.661 300.602 217.515 299.407 216.955 298.446ZM191.313 326.448C190.619 328.886 188.202 331.058 185.912 331.265L147.472 334.993C145.182 335.2 143.859 333.414 144.553 330.976C145.246 328.538 147.668 326.402 149.954 326.158L188.398 322.467C190.684 322.224 192.006 324.01 191.313 326.448ZM195.208 310.565C194.515 313.003 192.093 315.139 189.807 315.383L151.363 319.074C149.077 319.318 147.755 317.531 148.448 315.093C149.137 312.619 151.558 310.483 153.849 310.276L192.289 306.549C194.579 306.341 195.902 308.127 195.208 310.565Z" fill="#FBD072"/>
<path d="M196.425 330.005L205.373 306.981C205.822 305.863 207.499 306.518 207.071 307.638L198.123 330.662C197.679 331.779 195.994 331.132 196.425 330.005Z" fill="#0E2365"/>
<path d="M134.759 334.557L145.555 311.173C146.064 310.081 147.708 310.842 147.209 311.935L136.413 335.32C135.901 336.411 134.26 335.65 134.759 334.557Z" fill="#0E2365"/>
<path d="M235.386 384.478C58.9623 398.746 146.344 391.679 121.08 393.722C119.886 393.869 119.664 392.064 120.858 391.917C277.565 379.242 223.507 383.614 235.203 382.668C236.38 382.574 236.553 384.334 235.386 384.478Z" fill="#0E2365"/>
<path d="M282.02 387.899C280.927 387.397 281.692 385.743 282.784 386.249C295.71 392.204 311.101 386.686 317.285 373.839C317.791 372.76 319.449 373.541 318.92 374.63C312.331 388.333 295.885 394.288 282.02 387.899Z" fill="#0E2365"/>
<path d="M312.465 284.259C311.436 283.66 312.324 282.087 313.381 282.687C320.157 286.622 328.434 287.827 336.033 286.02C346.421 283.551 354.377 275.65 357.032 268.395C353.008 267.764 349.142 266.262 345.849 263.886C338.296 258.443 341.609 251.307 348.741 251.744C355.267 252.129 361.345 258.312 359.383 266.856C384.249 268.782 395.328 238.483 377.86 223.537C372.181 226.964 364.861 227.697 358.689 225.159C352.022 222.442 352.434 216.095 359.188 215.499C365.865 214.917 372.658 217.181 377.972 221.3C385.405 216.111 387.863 205.984 384.59 198.129C382.307 192.641 377.229 187.946 370.665 185.247C364.026 182.519 356.78 182.016 351.211 181.883C341.702 181.651 331.602 182.755 325.607 190.148C324.846 191.084 323.442 189.938 324.193 189.002C327.869 184.472 333.047 182.349 336.744 181.368C344.905 179.198 361.337 179.445 371.353 183.567C378.365 186.447 383.801 191.498 386.272 197.429C389.797 205.893 387.233 216.768 379.418 222.498C397.678 238.687 385.622 271.046 358.878 268.624C356.134 276.653 347.545 285.153 336.451 287.789C328.297 289.726 319.574 288.383 312.465 284.259ZM346.913 262.41C350.045 264.671 353.735 266.081 357.566 266.65C359.337 259.369 354.296 253.893 348.635 253.56C343.085 253.223 341.026 258.171 346.913 262.41ZM359.377 223.477C364.811 225.71 371.224 225.175 376.334 222.326C371.461 218.736 365.354 216.787 359.347 217.311C354.414 217.73 354.633 221.543 359.377 223.477Z" fill="#0E2365"/>
<path d="M329.48 187.284C327.61 194.205 322.747 198.92 318.64 197.806C317.993 197.628 317.405 197.333 316.913 196.915L326.004 173.042C329.685 174.575 331.251 180.743 329.48 187.284Z" fill="#01B990"/>
<path d="M297.708 245.052L325.672 171.295C326.087 170.17 327.792 170.786 327.38 171.922C289.048 273.03 302.274 238.145 299.411 245.694C298.99 246.809 297.287 246.18 297.708 245.052Z" fill="#0E2365"/>
<path d="M244.209 187.355C240.859 191.482 238.317 196.36 236.857 201.462C236.72 201.946 237 202.448 237.482 202.585C237.975 202.722 238.467 202.445 238.608 201.962C239.083 200.301 239.738 198.624 240.463 197.022C240.521 197.035 240.559 197.09 240.621 197.091C240.716 197.092 247.854 197.215 247.948 197.204C247.983 197.2 248.003 197.166 248.036 197.158C248.166 198.507 248.326 199.832 248.444 201.182C248.487 201.683 248.93 202.053 249.429 202.009C249.44 202.008 249.45 202.007 249.461 202.006C249.944 201.946 250.298 201.513 250.256 201.024C249.891 196.851 249.466 192.665 248.994 188.585C248.618 185.37 246.131 184.986 244.209 187.355ZM241.304 195.284C243.55 190.837 246.154 187.407 246.814 187.674C247.209 187.86 247.24 189.248 247.857 195.395C246.778 195.377 240.931 195.278 241.304 195.284Z" fill="#0E2365"/>
<path d="M261.912 185.934L255.766 186.121C254.557 186.156 254.624 187.975 255.825 187.939C255.694 187.943 256.362 187.922 257.287 187.893L254.143 200.838L252.165 200.733C250.993 200.626 250.839 202.484 252.066 202.549L258.149 202.872C259.328 202.96 259.466 201.12 258.248 201.056L255.987 200.936C256.483 199.384 257.109 195.76 259.175 187.834C260.501 187.793 261.777 187.753 262.052 187.745C263.195 187.604 263.063 185.899 261.912 185.934Z" fill="#0E2365"/>
</svg>
