<svg width="70" height="92" viewBox="0 0 70 92" fill="none" xmlns="http://www.w3.org/2000/svg">
<g filter="url(#filter0_b_554_2937)">
<rect width="70" height="70" rx="35" fill="#37CBF9"/>
<rect x="0.460526" y="0.460526" width="69.0789" height="69.0789" rx="34.5395" stroke="#847C7C" stroke-width="0.921053"/>
<g clip-path="url(#clip0_554_2937)">
<path d="M54.1883 46.1888C54.1883 47.6537 53.0032 48.8388 51.5383 48.8388C50.0763 48.8388 48.8911 47.6537 48.8911 46.1888C48.8911 44.7267 50.0763 43.5415 51.5383 43.5415C53.0032 43.5415 54.1883 44.7267 54.1883 46.1888ZM21.8402 45.9988C21.8402 47.4637 20.655 48.6488 19.1901 48.6488C17.7281 48.6488 16.543 47.4637 16.543 45.9988C16.543 44.5367 17.7281 43.3516 19.1901 43.3516C20.655 43.3516 21.8402 44.5367 21.8402 45.9988Z" fill="#FB961D"/>
<path d="M21.8402 26.9636C21.8402 28.4285 20.655 29.6137 19.1901 29.6137C17.7281 29.6137 16.543 28.4285 16.543 26.9636C16.543 25.5015 17.7281 24.3164 19.1901 24.3164C20.655 24.3164 21.8402 25.5015 21.8402 26.9636ZM54.6228 26.9636C54.6228 28.4285 53.4377 29.6137 51.9728 29.6137C50.5108 29.6137 49.3256 28.4285 49.3256 26.9636C49.3256 25.5015 50.5108 24.3164 51.9728 24.3164C53.4377 24.3164 54.6228 25.5015 54.6228 26.9636Z" fill="#A2E55A"/>
<path d="M24.231 42.123C22.149 41.9559 20.5273 40.5665 20.5273 38.4234C20.5273 36.1377 22.3771 34.2879 24.6588 34.2879C24.8381 34.2879 25.0092 34.3001 25.1803 34.3245C25.5674 32.434 27.2338 31.0243 29.2303 31.0243C29.544 31.0243 29.8578 31.0609 30.1511 31.1302C30.8397 29.8142 32.2168 28.9219 33.8018 28.9219C35.3582 28.9219 36.715 29.7816 37.4158 31.0609C37.5869 31.0365 37.758 31.0243 37.9332 31.0243C39.9175 31.0243 41.5758 32.4218 41.975 34.2879H42.0647C44.3504 34.2879 46.1961 36.1377 46.1961 38.4234C46.1961 40.6521 44.4441 42.0659 42.2399 42.1352L24.231 42.123Z" fill="white"/>
<path d="M24.231 42.123C22.149 41.9559 20.5273 40.5665 20.5273 38.4234C20.5273 36.1377 22.3771 34.2879 24.6588 34.2879C24.8381 34.2879 25.0092 34.3001 25.1803 34.3245C25.5674 32.434 27.2338 31.0243 29.2303 31.0243C29.544 31.0243 29.8578 31.0609 30.1511 31.1302C30.8397 29.8142 32.2168 28.9219 33.8018 28.9219C35.3582 28.9219 36.715 29.7816 37.4158 31.0609C37.5869 31.0365 37.758 31.0243 37.9332 31.0243C39.9175 31.0243 41.5758 32.4218 41.975 34.2879H42.0647C44.3504 34.2879 46.1961 36.1377 46.1961 38.4234C46.1961 40.6521 44.4441 42.0659 42.2399 42.1352L24.231 42.123Z" fill="#5B58CF"/>
<path d="M26.3482 42.123C24.2662 41.9559 22.6445 40.5665 22.6445 38.4234C22.6445 36.1377 24.4943 34.2879 26.776 34.2879C26.9553 34.2879 27.1264 34.3001 27.2975 34.3245C27.6846 32.434 29.351 31.0243 31.3475 31.0243C31.6612 31.0243 31.9749 31.0609 32.2683 31.1302C32.9569 29.8142 34.334 28.9219 35.919 28.9219C37.4754 28.9219 38.8322 29.7816 39.533 31.0609C39.7041 31.0365 39.8752 31.0243 40.0504 31.0243C42.0347 31.0243 43.6929 32.4218 44.0922 34.2879H44.1819C46.4676 34.2879 48.3133 36.1377 48.3133 38.4234C48.3133 40.6521 46.5613 42.0659 44.3571 42.1352L26.3482 42.123Z" fill="white"/>
<path d="M26.3482 42.123C24.2662 41.9559 22.6445 40.5665 22.6445 38.4234C22.6445 36.1377 24.4943 34.2879 26.776 34.2879C26.9553 34.2879 27.1264 34.3001 27.2975 34.3245C27.6846 32.434 29.351 31.0243 31.3475 31.0243C31.6612 31.0243 31.9749 31.0609 32.2683 31.1302C32.9569 29.8142 34.334 28.9219 35.919 28.9219C37.4754 28.9219 38.8322 29.7816 39.533 31.0609C39.7041 31.0365 39.8752 31.0243 40.0504 31.0243C42.0347 31.0243 43.6929 32.4218 44.0922 34.2879H44.1819C46.4676 34.2879 48.3133 36.1377 48.3133 38.4234C48.3133 40.6521 46.5613 42.0659 44.3571 42.1352L26.3482 42.123Z" fill="white"/>
<path d="M48.3121 38.4254C48.3121 40.6516 46.5608 42.0672 44.3558 42.1367H44.3165C44.0079 36.6317 39.4406 32.2611 33.8601 32.2611C28.7181 32.2611 24.4442 35.9633 23.5519 40.8452C22.9833 40.2252 22.6445 39.4055 22.6445 38.4254C22.6445 36.1387 24.4956 34.2876 26.7763 34.2876C26.9547 34.2876 27.1271 34.2997 27.2965 34.3239C27.6837 32.4335 29.3503 31.0239 31.3466 31.0239C31.6611 31.0239 31.9757 31.0603 32.2691 31.1298C32.9557 29.8141 34.335 28.9219 35.9199 28.9219C37.4746 28.9219 38.8327 29.7808 39.5314 31.0603C39.7038 31.0361 39.8762 31.0239 40.0516 31.0239C42.0358 31.0239 43.6934 32.4214 44.0926 34.2876H44.1803C46.467 34.2876 48.3121 36.1387 48.3121 38.4254Z" fill="#E2F2FF"/>
<path d="M38.1254 17.7058C38.1254 19.1707 36.9402 20.3559 35.4753 20.3559C34.0133 20.3559 32.8281 19.1707 32.8281 17.7058C32.8281 16.2437 34.0133 15.0586 35.4753 15.0586C36.9402 15.0586 38.1254 16.2437 38.1254 17.7058Z" fill="#FB961D"/>
<path d="M33.6097 51.9129C33.6097 50.8848 34.4452 50.052 35.4732 50.052C36.5013 50.052 37.3342 50.8848 37.3342 51.9129C37.3342 52.941 36.5013 53.7738 35.4732 53.7738C34.4452 53.7738 33.6097 52.941 33.6097 51.9129ZM40.0124 47.7984C40.0124 46.7703 40.8478 45.9375 41.8759 45.9375C42.904 45.9375 43.7368 46.7703 43.7368 47.7984C43.7368 48.8265 42.904 49.6593 41.8759 49.6593C40.8478 49.6593 40.0124 48.8265 40.0124 47.7984ZM30.9315 47.7984C30.9315 46.7703 30.0961 45.9375 29.068 45.9375C28.0399 45.9375 27.207 46.7703 27.207 47.7984C27.207 48.8265 28.0399 49.6593 29.068 49.6593C30.0961 49.6593 30.9315 48.8265 30.9315 47.7984Z" fill="#FAD014"/>
<path d="M52.2784 43.3382V29.9086C53.7635 29.7543 54.925 28.4961 54.925 26.9685C54.925 25.3442 53.6002 24.0195 51.9729 24.0195C50.9929 24.0195 50.1248 24.5003 49.5894 25.2354L38.2559 18.696C38.3648 18.3874 38.4253 18.0547 38.4253 17.7069C38.4253 16.0796 37.1035 14.7578 35.4732 14.7578C33.8489 14.7578 32.5241 16.0796 32.5241 17.7069C32.5241 18.0547 32.5846 18.3874 32.6935 18.696L21.5142 25.1508C20.9728 24.4641 20.132 24.0195 19.1913 24.0195C17.564 24.0195 16.2422 25.3442 16.2422 26.9685C16.2422 28.4234 17.2948 29.6333 18.6771 29.8783V43.0992C17.2948 43.3442 16.2422 44.5541 16.2422 46.003C16.2422 47.6332 17.564 48.955 19.1913 48.955C20.8185 48.955 22.1434 47.6332 22.1434 46.003C22.1434 45.5372 22.0345 45.0925 21.8409 44.6993L25.7821 42.4277C34.4582 42.436 31.4652 42.4331 32.1127 42.4337V45.6763C32.1127 45.8517 32.0129 46.0151 31.8587 46.0967L30.8817 46.614C30.4945 46.0272 29.8291 45.637 29.0729 45.637C27.8812 45.637 26.9103 46.6079 26.9103 47.7996C26.9103 48.9913 27.8812 49.9622 29.0729 49.9622C30.2677 49.9622 31.2386 48.9913 31.2386 47.7996C31.2386 47.5757 31.2053 47.361 31.1418 47.1614L32.14 46.6321C32.4969 46.4446 32.7177 46.0786 32.7177 45.6763V42.4337H35.1737C35.1768 43.5287 35.1737 47.3973 35.1737 49.7747C34.1242 49.9198 33.3135 50.8243 33.3135 51.9162C33.3135 53.1079 34.2845 54.0788 35.4792 54.0788C36.671 54.0788 37.6419 53.1079 37.6419 51.9162C37.6419 50.8243 36.8282 49.9169 35.7787 49.7747C35.7787 47.4004 35.7817 43.55 35.7787 42.4368H38.2377V45.6763C38.2377 46.0786 38.4585 46.4446 38.8124 46.6321L39.8106 47.1614C39.7471 47.361 39.7138 47.5757 39.7138 47.7996C39.7138 48.9913 40.6877 49.9622 41.8795 49.9622C43.0742 49.9622 44.0452 48.9913 44.0452 47.7996C44.0452 46.6079 43.0742 45.637 41.8795 45.637C41.1263 45.637 40.4579 46.0272 40.0707 46.614L39.0967 46.0967C38.9395 46.0151 38.8427 45.8517 38.8427 45.6763V42.4368C39.4074 42.4371 36.7969 42.4357 44.3658 42.4398C44.6077 42.4308 44.8467 42.4097 45.0735 42.3733H45.0766L49.0268 44.6509C48.7486 45.0985 48.5882 45.6278 48.5882 46.1935C48.5882 47.8207 49.913 49.1455 51.5403 49.1455C53.1676 49.1455 54.4924 47.8207 54.4924 46.1935C54.4924 44.8203 53.5487 43.6649 52.2784 43.3382ZM29.0729 49.3573C28.2139 49.3573 27.5152 48.6586 27.5152 47.7996C27.5152 46.9405 28.2139 46.2419 29.0729 46.2419C29.9342 46.2419 30.6337 46.9386 30.6337 47.7996C30.6337 48.6586 29.935 49.3573 29.0729 49.3573ZM41.8795 46.2419C42.7415 46.2419 43.4402 46.9405 43.4402 47.7996C43.4402 48.6586 42.7415 49.3573 41.8795 49.3573C41.0205 49.3573 40.3187 48.6586 40.3187 47.7996C40.3187 46.9712 40.9972 46.2419 41.8795 46.2419ZM51.9729 24.6244C53.2674 24.6244 54.32 25.677 54.32 26.9685C54.32 28.2687 53.2642 29.3187 51.9729 29.3187C51.0435 29.3187 50.184 28.7638 49.8102 27.873C49.6923 27.5946 49.6287 27.2892 49.6287 26.9685C49.6287 25.6632 50.6964 24.6244 51.9729 24.6244ZM49.2839 25.7587C49.1176 26.1277 49.0238 26.5359 49.0238 26.9685C49.0238 27.398 49.1145 27.8064 49.2839 28.1754L42.9623 31.8201C42.0007 30.9837 40.7636 30.6304 39.6926 30.7404C38.7927 29.2609 37.1321 28.5306 35.7787 28.6231V20.6438C36.7163 20.5471 37.527 20.0088 37.9958 19.2435L49.2839 25.7587ZM33.129 17.7069C33.129 16.4124 34.1816 15.3628 35.4732 15.3628C36.7678 15.3628 37.8203 16.4124 37.8203 17.7069C37.8203 18.9914 36.7737 20.0541 35.4732 20.0541C34.1868 20.0541 33.129 19.006 33.129 17.7069ZM32.9536 19.2435C33.4255 20.0117 34.2361 20.5471 35.1737 20.6438V28.6835C35.0648 28.7017 34.956 28.7229 34.8501 28.7501C33.0613 28.2869 31.0198 29.0467 29.9924 30.7918C28.9751 30.608 27.9406 30.796 27.0676 31.2877L21.8409 28.2751C22.0345 27.882 22.1434 27.4374 22.1434 26.9685C22.1434 26.4998 22.0345 26.0551 21.8379 25.6619L32.9536 19.2435ZM27.0615 33.998C26.661 33.9589 26.0759 34.0033 25.525 34.1674C25.9554 32.5586 27.4071 31.3821 29.1123 31.3301C28.144 31.8905 27.3757 32.8439 27.0615 33.998ZM33.6735 29.228C33.0383 29.6001 32.4969 30.1323 32.1097 30.7918C31.6521 30.7091 31.2068 30.7002 30.7365 30.7646C31.4261 29.8359 32.4969 29.2642 33.6735 29.228ZM16.8471 26.9685C16.8471 25.677 17.8967 24.6244 19.1913 24.6244C20.5043 24.6244 21.5384 25.6956 21.5384 26.9685C21.5384 28.244 20.5215 29.2717 19.282 29.3158C18.1417 29.4271 16.8471 28.4185 16.8471 26.9685ZM21.5384 46.003C21.5384 47.2975 20.4858 48.3501 19.1913 48.3501C17.8967 48.3501 16.8471 47.2975 16.8471 46.003C16.8471 44.5528 18.1483 43.5511 19.282 43.6618C20.5264 43.7059 21.5384 44.7329 21.5384 46.003ZM21.5172 44.1881C20.994 43.5197 20.1894 43.084 19.282 43.0568V29.9207C20.1894 29.8934 20.994 29.4578 21.5172 28.7894L26.502 31.6629C25.7579 32.2436 25.2013 33.0511 24.9442 33.998C22.5821 33.7673 20.2227 35.7507 20.2227 38.426C20.2227 40.6281 21.8227 42.2342 24.2032 42.4247C24.2123 42.4277 24.2213 42.4277 24.2274 42.4277H24.5692L21.5172 44.1881ZM24.5419 34.5938C23.2262 35.3651 22.34 36.7927 22.34 38.426C22.34 39.9172 23.0719 41.1332 24.2848 41.8227H24.2425C22.1978 41.6535 20.8276 40.2893 20.8276 38.426C20.8276 36.3511 22.4821 34.6543 24.5419 34.5938ZM37.0369 51.9162C37.0369 52.7751 36.3382 53.4739 35.4792 53.4739C34.6172 53.4739 33.9185 52.7751 33.9185 51.9162C33.9185 49.8528 37.0369 49.8357 37.0369 51.9162ZM26.3598 41.8227C26.0408 41.7944 25.8711 41.7559 25.767 41.7381C24.055 41.3751 22.9449 40.1048 22.9449 38.426C22.9449 36.0977 25.0085 34.3228 27.2521 34.624C27.4094 34.6483 27.5606 34.5424 27.5908 34.3851C28.015 32.3148 30.0942 30.9352 32.1974 31.427C32.3305 31.4571 32.4697 31.3936 32.5332 31.2727C33.8577 28.7535 37.4129 28.4882 39.0544 30.8703C39.2648 31.162 39.3059 31.4062 39.5747 31.3604C40.8193 31.1933 42.0681 31.6885 42.8686 32.5732C43.4505 33.1982 43.7941 34.0955 43.7941 34.3518C43.8569 34.6406 44.151 34.5823 44.1813 34.5908C44.2206 34.5908 44.2569 34.5908 44.2962 34.5938C46.356 34.6543 48.0075 36.3511 48.0075 38.426C48.0075 40.1048 46.8763 41.3812 45.1794 41.735C44.4106 41.9102 38.9014 41.8259 26.3598 41.8227ZM45.9174 42.1615C47.5599 41.5929 48.6124 40.1986 48.6124 38.426C48.6124 36.0275 46.7039 34.0675 44.3295 33.9888C44.151 33.3415 43.8304 32.7547 43.4069 32.2648L49.5834 28.7017C50.0643 29.3641 50.8174 29.8209 51.6734 29.9086V43.2474C51.6311 43.2444 51.5857 43.2444 51.5403 43.2444C50.6965 43.2444 49.9342 43.5983 49.3989 44.17L45.9174 42.1615ZM51.5403 48.5406C50.2458 48.5406 49.1932 47.488 49.1932 46.1935C49.1932 44.9125 50.239 43.8493 51.5403 43.8493C52.8514 43.8493 53.8875 44.9178 53.8875 46.1935C53.8875 47.488 52.8319 48.5406 51.5403 48.5406Z" fill="#402DA3"/>
<path d="M53.1619 16.9998C53.0318 16.9998 52.9117 16.9153 52.8723 16.7842C52.8243 16.6244 52.9151 16.4557 53.075 16.4076L53.6203 16.2439C53.7816 16.1978 53.9489 16.2867 53.9971 16.4468C54.0451 16.6066 53.9542 16.7753 53.7943 16.8235L53.249 16.9871C53.2199 16.9957 53.1907 16.9998 53.1619 16.9998ZM50.7556 17.7229C50.6255 17.7229 50.5054 17.6384 50.466 17.5073C50.418 17.3475 50.5088 17.1788 50.6687 17.1306L51.214 16.967C51.375 16.92 51.5426 17.0095 51.5908 17.1699C51.6388 17.3297 51.5479 17.4984 51.388 17.5465L50.8427 17.7102C50.8136 17.7188 50.7844 17.7229 50.7556 17.7229ZM52.6748 18.7552C52.5447 18.7552 52.4246 18.6708 52.3853 18.5399L52.2215 17.9946C52.1734 17.8345 52.2642 17.6659 52.4242 17.6177C52.5844 17.572 52.7529 17.6606 52.8008 17.8204L52.9646 18.3656C53.0127 18.5257 52.9219 18.6944 52.7619 18.7425C52.733 18.7511 52.7036 18.7552 52.6748 18.7552ZM51.9517 16.3491C51.8218 16.3491 51.7015 16.2646 51.6622 16.1337L51.4983 15.5885C51.4502 15.4284 51.5408 15.2597 51.7008 15.2116C51.8613 15.1649 52.0294 15.2544 52.0776 15.4142L52.2415 15.9595C52.2896 16.1196 52.1989 16.2882 52.039 16.3364C52.0099 16.3449 51.9805 16.3491 51.9517 16.3491ZM53.5883 18.0094C53.54 18.0094 53.4909 17.9979 53.4453 17.9734L52.9439 17.7037C52.7968 17.6245 52.7417 17.4411 52.8207 17.294C52.8997 17.1466 53.0829 17.0908 53.2304 17.1708L53.7318 17.4405C53.8789 17.5197 53.934 17.7031 53.855 17.8502C53.8004 17.9518 53.6961 18.0094 53.5883 18.0094ZM51.3754 16.8193C51.3271 16.8193 51.2781 16.8078 51.2325 16.7833L50.7311 16.5136C50.584 16.4344 50.5289 16.251 50.6079 16.1039C50.6869 15.9568 50.8696 15.9013 51.0176 15.9807L51.519 16.2504C51.6661 16.3296 51.7212 16.513 51.6422 16.6601C51.5875 16.7617 51.4832 16.8193 51.3754 16.8193ZM51.5013 18.6365C51.453 18.6365 51.4038 18.625 51.3583 18.6005C51.2112 18.5213 51.1561 18.3379 51.2351 18.1908L51.5048 17.6895C51.5837 17.5421 51.7671 17.4872 51.9145 17.5663C52.0616 17.6455 52.1167 17.8289 52.0377 17.976L51.768 18.4773C51.7133 18.5789 51.6091 18.6365 51.5013 18.6365ZM52.6915 16.4238C52.6432 16.4238 52.5942 16.4123 52.5485 16.3878C52.4014 16.3086 52.3463 16.1252 52.4254 15.9781L52.695 15.4765C52.7741 15.3294 52.9567 15.2739 53.1047 15.3533C53.2518 15.4325 53.3069 15.6159 53.2279 15.763L52.9582 16.2646C52.9036 16.3662 52.7993 16.4238 52.6915 16.4238Z" fill="#ED7149"/>
<path d="M18.3893 16.4651C18.2222 16.4651 18.0868 16.3298 18.0868 16.1627V15.5837C18.0868 15.4165 18.2222 15.2812 18.3893 15.2812C18.5563 15.2812 18.6918 15.4165 18.6918 15.5837V16.1627C18.6918 16.3298 18.5563 16.4651 18.3893 16.4651ZM18.3893 19.0211C18.2222 19.0211 18.0868 18.8858 18.0868 18.7186V18.1393C18.0868 17.9722 18.2222 17.8369 18.3893 17.8369C18.5563 17.8369 18.6918 17.9722 18.6918 18.1393V18.7186C18.6918 18.8858 18.5563 19.0211 18.3893 19.0211ZM19.9567 17.4535H19.3776C19.2106 17.4535 19.0752 17.3182 19.0752 17.151C19.0752 16.9838 19.2106 16.8485 19.3776 16.8485H19.9567C20.1238 16.8485 20.2592 16.9838 20.2592 17.151C20.2592 17.3182 20.1238 17.4535 19.9567 17.4535ZM17.4011 17.4535H16.822C16.655 17.4535 16.5195 17.3182 16.5195 17.151C16.5195 16.9838 16.655 16.8485 16.822 16.8485H17.4011C17.5681 16.8485 17.7036 16.9838 17.7036 17.151C17.7036 17.3182 17.5681 17.4535 17.4011 17.4535ZM19.0882 16.7546C19.0108 16.7546 18.9334 16.7251 18.8743 16.666C18.7561 16.5478 18.7561 16.3564 18.8743 16.2383L19.2838 15.8289C19.402 15.7107 19.5934 15.7107 19.7116 15.8289C19.8297 15.947 19.8297 16.1384 19.7116 16.2566L19.302 16.666C19.2429 16.7251 19.1655 16.7546 19.0882 16.7546ZM17.281 18.5617C17.2036 18.5617 17.1262 18.5322 17.0672 18.4731C16.949 18.355 16.949 18.1636 17.0672 18.0454L17.4767 17.636C17.5949 17.5179 17.7863 17.5179 17.9044 17.636C18.0226 17.7542 18.0226 17.9456 17.9044 18.0637L17.4949 18.4731C17.4358 18.5322 17.3584 18.5617 17.281 18.5617ZM19.4977 18.5617C19.4203 18.5617 19.3429 18.5322 19.2838 18.4731L18.8743 18.0637C18.7561 17.9456 18.7561 17.7542 18.8743 17.636C18.9922 17.5179 19.1839 17.5179 19.302 17.636L19.7116 18.0454C19.8297 18.1636 19.8297 18.355 19.7116 18.4731C19.6526 18.5322 19.5751 18.5617 19.4977 18.5617ZM17.6906 16.7546C17.6132 16.7546 17.5358 16.7251 17.4767 16.666L17.0672 16.2566C16.949 16.1384 16.949 15.947 17.0672 15.8289C17.185 15.7107 17.3767 15.7107 17.4949 15.8289L17.9044 16.2383C18.0226 16.3564 18.0226 16.5478 17.9044 16.666C17.8455 16.7251 17.768 16.7546 17.6906 16.7546Z" fill="#FAD014"/>
<path d="M47.2265 52.7829C46.6964 52.7829 46.2053 52.4376 46.0449 51.9039C45.9503 51.589 45.9838 51.2558 46.1395 50.966C46.2953 50.676 46.5549 50.4639 46.8704 50.3691C47.1852 50.2745 47.5192 50.3079 47.8095 50.4639C48.0997 50.6198 48.3118 50.8792 48.4063 51.1941C48.6023 51.8454 48.2316 52.5345 47.58 52.7309C47.4625 52.7661 47.3434 52.7829 47.2265 52.7829ZM47.2263 50.9217C47.1655 50.9217 47.1043 50.9306 47.0443 50.9486C46.8838 50.9968 46.7516 51.1046 46.6725 51.2523C46.5932 51.3999 46.576 51.5695 46.6242 51.7296C46.724 52.0619 47.0742 52.2509 47.4059 52.1514C47.7379 52.0513 47.9269 51.7001 47.8271 51.3683C47.779 51.2079 47.671 51.0762 47.5233 50.9968C47.4304 50.9468 47.3289 50.9217 47.2263 50.9217Z" fill="#A2E55A"/>
</g>
</g>
<path d="M24.0073 77.2188H25.4941V87.9927H24L24.0073 77.2188ZM30.7676 80.1191C31.4927 80.1191 32.1519 80.3022 32.7451 80.6538C33.3457 81.0054 33.8145 81.4814 34.1733 82.082C34.5249 82.6753 34.7007 83.3345 34.7007 84.0596C34.7007 84.7847 34.5249 85.4438 34.1733 86.0444C33.8145 86.6377 33.3457 87.1138 32.7451 87.4653C32.1519 87.8242 31.4927 88 30.7676 88C30.0425 88 29.376 87.8242 28.7827 87.4653C28.1895 87.1138 27.7134 86.6377 27.3618 86.0444C27.0029 85.4438 26.8271 84.7847 26.8271 84.0596C26.8271 83.3345 27.0029 82.6753 27.3618 82.082C27.7134 81.4814 28.1895 81.0054 28.7827 80.6538C29.376 80.3022 30.0425 80.1191 30.7676 80.1191ZM30.7676 86.5498C31.4487 86.5498 32.0347 86.3008 32.5254 85.8174C33.0088 85.334 33.2505 84.748 33.2505 84.0596C33.2505 83.3784 33.0088 82.7925 32.5254 82.3018C32.0347 81.8184 31.4487 81.5767 30.7676 81.5767C30.0791 81.5767 29.4932 81.8184 29.0098 82.3018C28.519 82.7925 28.2773 83.3784 28.2773 84.0596C28.2773 84.748 28.519 85.334 29.0098 85.8174C29.4932 86.3008 30.0791 86.5498 30.7676 86.5498ZM44.4932 77.2188L44.5005 78.6689L41.0068 78.6763L40.9702 87.9927H39.542L39.5566 78.6763H39.5493L36.0264 78.6836V77.2188H44.4932Z" fill="black"/>
<defs>
<filter id="filter0_b_554_2937" x="-183.289" y="-183.289" width="436.579" height="436.579" filterUnits="userSpaceOnUse" color-interpolation-filters="sRGB">
<feFlood flood-opacity="0" result="BackgroundImageFix"/>
<feGaussianBlur in="BackgroundImageFix" stdDeviation="91.6447"/>
<feComposite in2="SourceAlpha" operator="in" result="effect1_backgroundBlur_554_2937"/>
<feBlend mode="normal" in="SourceGraphic" in2="effect1_backgroundBlur_554_2937" result="shape"/>
</filter>
<clipPath id="clip0_554_2937">
<rect width="40.8333" height="40.8333" fill="white" transform="translate(15.168 14)"/>
</clipPath>
</defs>
</svg>
