<svg width="400" height="400" viewBox="0 0 400 400" fill="none" xmlns="http://www.w3.org/2000/svg">
<path d="M195.009 380.935C283.127 380.935 354.561 374.166 354.561 365.815C354.561 357.465 283.127 350.695 195.009 350.695C106.891 350.695 35.457 357.465 35.457 365.815C35.457 374.166 106.891 380.935 195.009 380.935Z" fill="#B9D4F3"/>
<path d="M211.079 119.57C207.583 118.666 204.135 117.514 200.767 116.106C185.983 109.938 172.855 99.3055 157.071 96.5855C144.047 94.3375 129.967 98.1055 119.687 106.378C110.791 113.53 107.111 123.874 102.815 133.986C100.447 139.546 97.4868 144.874 94.1188 149.962C90.7508 155.05 86.9669 159.898 82.9748 164.482C64.5029 183.514 31.2548 200.97 43.7268 233.378C58.6868 272.442 102.735 284.906 139.935 286.554C145.071 286.93 150.239 287.218 155.399 287.498C170.879 288.322 186.303 288.994 200.743 291.458C204.455 291.938 208.143 292.546 211.799 293.298C226.599 296.362 240.663 302.034 254.919 306.89C276.223 314.146 301.455 320.466 322.999 310.602C331.327 306.794 338.647 302.722 343.247 294.33C349.703 282.546 346.631 270.49 342.839 258.458C338.839 245.786 335.111 233.026 330.799 220.458C323.519 199.218 314.935 177.194 318.263 154.994C319.847 144.426 324.287 133.17 320.607 122.554C317.615 113.922 310.031 108.194 301.399 105.906C288.687 102.53 276.263 108.074 265.175 113.714C248.415 122.226 229.087 124.218 211.079 119.57Z" fill="#B9D4F3"/>
<path d="M321.195 289.993C320.363 290.297 317.451 284.009 317.179 283.385C314.699 277.649 314.051 271.145 315.099 264.969C316.115 259.009 318.371 252.969 321.451 248.193C324.027 244.193 327.555 240.113 331.835 238.929C334.243 238.265 336.723 238.945 338.443 241.257C339.963 243.305 340.699 246.177 340.947 248.817C341.739 257.281 339.747 265.457 337.099 273.081C335.091 278.857 332.347 284.977 327.331 287.617C325.363 288.641 323.251 289.233 321.195 289.993Z" fill="#D64E12"/>
<path d="M315.479 337.599L315.031 337.567C315.151 335.615 318.159 289.367 327.791 261.055L328.215 261.199C318.607 289.463 315.607 335.647 315.479 337.599Z" fill="#5434BA"/>
<path d="M308.547 291.514C309.115 291.77 311.259 287.642 311.459 287.234C313.299 283.466 313.875 279.074 313.283 274.802C312.707 270.682 311.267 266.442 309.235 263.01C307.531 260.138 305.187 257.162 302.243 256.114C300.595 255.522 298.859 255.85 297.627 257.33C296.531 258.642 295.963 260.554 295.739 262.338C295.011 268.058 296.227 273.746 297.899 279.09C299.163 283.138 300.939 287.466 304.355 289.546C305.691 290.362 307.139 290.89 308.547 291.514Z" fill="#D64E12"/>
<path d="M298.343 308.383C298.951 308.375 299.631 303.607 299.687 303.143C300.191 298.847 299.335 294.511 297.423 290.807C295.575 287.239 292.895 283.927 289.919 281.631C287.431 279.711 284.295 277.967 281.239 278.279C279.519 278.455 278.015 279.511 277.343 281.423C276.743 283.119 276.823 285.143 277.183 286.895C278.327 292.519 281.263 297.271 284.511 301.503C286.975 304.711 289.991 307.951 293.823 308.391C295.327 308.559 296.839 308.415 298.343 308.383Z" fill="#D64E12"/>
<path d="M314.392 339.735C314.376 339.335 312.392 299.495 303.184 271.703L303.608 271.559C312.84 299.415 314.824 339.311 314.84 339.711L314.392 339.735Z" fill="#5434BA"/>
<path d="M324.686 318.425C324.094 318.249 324.358 313.433 324.398 312.961C324.742 308.641 326.414 304.649 328.998 301.553C331.486 298.569 334.742 296.057 338.086 294.617C340.886 293.409 344.27 292.553 347.19 293.665C348.83 294.289 350.086 295.721 350.374 297.761C350.63 299.569 350.158 301.521 349.47 303.137C347.262 308.313 343.486 312.153 339.502 315.409C336.478 317.873 332.91 320.225 329.094 319.633C327.59 319.401 326.142 318.857 324.686 318.425Z" fill="#D64E12"/>
<path d="M316.865 337.92L316.457 337.744C316.497 337.648 316.593 337.328 316.729 336.896C321.809 320.56 328.649 311.72 333.497 307.176L333.801 307.504C328.993 312.008 322.201 320.792 317.153 337.032C317.001 337.512 316.913 337.808 316.865 337.92Z" fill="#5434BA"/>
<path d="M313.44 338.672C313.336 338.408 302.544 311.792 289.168 295.12L289.52 294.84C302.936 311.56 313.752 338.232 313.864 338.504L313.44 338.672Z" fill="#5434BA"/>
<path d="M304.201 360.608H325.617L329.209 337.504H300.609L304.201 360.608Z" fill="#505EA3"/>
<path d="M330.283 335.48H299.539V341.896H330.283V335.48Z" fill="#505EA3"/>
<path d="M129.695 74.1511V356.687C129.695 360.151 132.511 362.967 135.975 362.967H293.255C296.735 362.967 299.551 360.151 299.551 356.687V74.1511C299.551 70.6871 296.735 67.8711 293.255 67.8711H252.663C249.951 67.8711 247.759 70.0631 247.759 72.7751C247.759 74.1271 247.207 75.3591 246.319 76.2391C245.431 77.1271 244.207 77.6791 242.855 77.6791H186.391C183.679 77.6791 181.487 75.4871 181.487 72.7751C181.487 71.4231 180.935 70.1911 180.047 69.3111C179.159 68.4231 177.935 67.8711 176.583 67.8711H135.975C132.495 67.8711 129.695 70.6871 129.695 74.1511Z" fill="#111856"/>
<path d="M127.841 362.074C124.873 362.074 122.457 359.658 122.457 356.69V74.1535C122.457 71.1855 124.873 68.7695 127.841 68.7695H168.449C169.521 68.7695 170.521 69.1855 171.281 69.9455C172.033 70.7055 172.457 71.7055 172.457 72.7775C172.457 75.9775 175.057 78.5775 178.265 78.5775H234.729C236.281 78.5775 237.737 77.9775 238.833 76.8735C239.929 75.7775 240.529 74.3215 240.529 72.7695C240.529 70.5615 242.321 68.7695 244.529 68.7695H285.121C288.097 68.7695 290.513 71.1855 290.513 74.1535V356.69C290.513 359.658 288.097 362.074 285.121 362.074H127.841Z" fill="#505EA3"/>
<path d="M285.119 69.6711C287.599 69.6711 289.615 71.6791 289.615 74.1511V356.687C289.615 359.159 287.599 361.167 285.119 361.167H127.839C125.367 361.167 123.359 359.159 123.359 356.687V74.1511C123.359 71.6791 125.367 69.6711 127.839 69.6711H168.447C169.279 69.6711 170.055 69.9911 170.639 70.5831C171.223 71.1671 171.551 71.9511 171.551 72.7751C171.551 76.4711 174.559 79.4791 178.255 79.4791H234.719C236.511 79.4791 238.191 78.7831 239.463 77.5191C240.727 76.2551 241.423 74.5671 241.423 72.7751C241.423 71.0631 242.815 69.6711 244.527 69.6711H285.119ZM285.119 67.8711H244.527C241.815 67.8711 239.623 70.0631 239.623 72.7751C239.623 74.1271 239.071 75.3591 238.183 76.2391C237.295 77.1271 236.071 77.6791 234.719 77.6791H178.255C175.543 77.6791 173.351 75.4871 173.351 72.7751C173.351 71.4231 172.799 70.1911 171.911 69.3111C171.023 68.4231 169.799 67.8711 168.447 67.8711H127.839C124.359 67.8711 121.559 70.6871 121.559 74.1511V356.687C121.559 360.151 124.375 362.967 127.839 362.967H285.119C288.599 362.967 291.415 360.151 291.415 356.687V74.1511C291.407 70.6871 288.599 67.8711 285.119 67.8711Z" fill="#B9D4F3"/>
<path opacity="0.5" d="M276.559 285.242H133.391V352.506H276.559V285.242Z" fill="#505EA3"/>
<path d="M201.333 293.977H140.773V343.769H201.333V293.977Z" fill="#505EA3"/>
<path d="M269.392 293.977H208.832V304.081H269.392V293.977Z" fill="#505EA3"/>
<path d="M269.392 313.008H208.832V323.112H269.392V313.008Z" fill="#505EA3"/>
<path d="M269.392 332.039H208.832V342.143H269.392V332.039Z" fill="#505EA3"/>
<path d="M263 137.503H147.392C142.936 137.503 139.328 133.887 139.328 129.439V104.431C139.328 99.9752 142.944 96.3672 147.392 96.3672H263C267.456 96.3672 271.064 99.9832 271.064 104.431V129.439C271.064 133.895 267.456 137.503 263 137.503Z" fill="white"/>
<path d="M164.945 108.168H169.513L172.033 120.928L175.153 108.168H179.849L182.849 120.928L185.393 108.168H189.985L185.417 125.704H180.249L177.449 114.168L174.553 125.704H169.385L164.945 108.168Z" fill="#505EA3"/>
<path d="M200.829 125.895C196.733 125.895 193.789 123.151 193.789 118.727C193.789 114.303 196.685 111.559 200.829 111.559C204.901 111.559 207.773 114.255 207.773 118.503C207.773 118.903 207.749 119.327 207.701 119.751H198.037C198.189 121.575 199.309 122.423 200.685 122.423C201.885 122.423 202.557 121.823 202.909 121.071H207.453C206.773 123.799 204.301 125.895 200.829 125.895ZM198.053 117.375H203.397C203.397 115.855 202.197 114.975 200.773 114.975C199.381 114.983 198.301 115.831 198.053 117.375Z" fill="#505EA3"/>
<path d="M221.08 111.559C224.528 111.559 227.224 114.303 227.224 118.703C227.224 123.095 224.504 125.895 221.08 125.895C219.032 125.895 217.56 124.967 216.784 123.743V125.695H212.512V107.215H216.784V113.735C217.56 112.487 219.08 111.559 221.08 111.559ZM219.808 115.279C218.208 115.279 216.76 116.503 216.76 118.727C216.76 120.951 218.208 122.175 219.808 122.175C221.432 122.175 222.88 120.927 222.88 118.703C222.88 116.479 221.432 115.279 219.808 115.279Z" fill="#505EA3"/>
<path d="M237.912 107.039C241.76 107.039 243.832 109.239 243.832 111.983C243.832 114.383 242.336 115.655 241.088 116.079V116.175C242.912 116.775 244.16 118.175 244.16 120.567C244.16 123.639 241.96 125.839 238.144 125.839C234.344 125.839 231.6 124.039 231.48 119.919H235.624C235.648 121.343 236.424 122.295 238 122.295C239.32 122.295 240.048 121.447 240.048 120.247C240.048 118.623 239.072 117.975 236.848 117.975H236.048V114.503H236.848C238.296 114.503 239.696 114.151 239.696 112.503C239.696 111.279 238.968 110.607 237.824 110.607C236.448 110.607 235.952 111.607 235.872 112.607H231.704C231.84 109.015 234.192 107.039 237.912 107.039Z" fill="#505EA3"/>
<path d="M145.903 245.807L145.879 244.607C146.703 244.607 147.543 244.583 148.399 244.527L148.471 245.727C147.591 245.783 146.727 245.807 145.903 245.807ZM142.615 245.639C141.687 245.535 140.815 245.383 140.015 245.191L140.303 244.023C141.055 244.207 141.879 244.351 142.751 244.447L142.615 245.639ZM151.695 245.423L151.551 244.231C152.367 244.127 153.207 244.007 154.063 243.871L154.255 245.055C153.383 245.191 152.527 245.319 151.695 245.423ZM157.431 244.463L157.191 243.287C158.007 243.119 158.831 242.943 159.679 242.743L159.951 243.911C159.095 244.111 158.255 244.303 157.431 244.463ZM136.887 243.999C136.031 243.519 135.303 242.943 134.727 242.287L135.631 241.495C136.111 242.047 136.735 242.535 137.463 242.943L136.887 243.999ZM163.071 243.135L162.759 241.975C163.567 241.759 164.383 241.535 165.215 241.295L165.551 242.447C164.711 242.695 163.887 242.919 163.071 243.135ZM168.631 241.527L168.271 240.383C169.071 240.135 169.879 239.871 170.695 239.599L171.071 240.735C170.255 241.007 169.439 241.271 168.631 241.527ZM174.119 239.687L173.719 238.559C174.511 238.279 175.311 237.983 176.119 237.687L176.535 238.815C175.719 239.111 174.919 239.407 174.119 239.687ZM133.199 239.175C133.095 238.663 133.039 238.111 133.039 237.551C133.039 237.191 133.063 236.823 133.103 236.439L134.295 236.575C134.255 236.911 134.239 237.239 134.239 237.551C134.239 238.031 134.287 238.503 134.375 238.935L133.199 239.175ZM179.535 237.663L179.095 236.543C179.879 236.231 180.671 235.919 181.463 235.591L181.919 236.703C181.119 237.039 180.327 237.351 179.535 237.663ZM184.887 235.479L184.415 234.375C185.191 234.047 185.975 233.703 186.759 233.359L187.239 234.455C186.455 234.807 185.671 235.143 184.887 235.479ZM135.031 233.615L133.903 233.207C134.183 232.439 134.535 231.623 134.951 230.799L136.023 231.343C135.631 232.127 135.295 232.895 135.031 233.615ZM190.175 233.143L189.679 232.047C190.447 231.695 191.223 231.335 191.999 230.975L192.511 232.063C191.727 232.431 190.943 232.791 190.175 233.143ZM195.399 230.671L194.871 229.591C195.631 229.223 196.399 228.839 197.159 228.455L197.695 229.527C196.927 229.919 196.159 230.303 195.399 230.671ZM137.583 228.615L136.567 227.967C137.015 227.271 137.503 226.551 138.031 225.823L138.999 226.527C138.495 227.239 138.015 227.935 137.583 228.615ZM200.559 228.079L200.007 227.015C200.759 226.623 201.511 226.231 202.271 225.831L202.831 226.895C202.071 227.295 201.319 227.687 200.559 228.079ZM205.663 225.367L205.087 224.311C205.831 223.903 206.575 223.495 207.319 223.079L207.903 224.127C207.159 224.543 206.407 224.959 205.663 225.367ZM140.943 224.023L140.015 223.263C140.543 222.615 141.103 221.959 141.687 221.295L142.591 222.087C142.007 222.735 141.463 223.383 140.943 224.023ZM208.983 223.519L208.391 222.471C209.135 222.047 209.871 221.623 210.607 221.199L211.207 222.239C210.479 222.671 209.735 223.095 208.983 223.519ZM213.983 220.623L213.367 219.591C214.103 219.151 214.831 218.711 215.559 218.271L216.183 219.295C215.455 219.735 214.719 220.183 213.983 220.623ZM144.735 219.743L143.863 218.911C144.439 218.303 145.039 217.687 145.663 217.071L146.511 217.919C145.895 218.527 145.303 219.135 144.735 219.743ZM218.911 217.607L218.271 216.591C218.999 216.135 219.719 215.679 220.431 215.223L221.079 216.231C220.359 216.687 219.639 217.143 218.911 217.607ZM148.799 215.703L147.975 214.831C148.591 214.255 149.223 213.671 149.871 213.087L150.679 213.975C150.031 214.551 149.407 215.127 148.799 215.703ZM223.767 214.471L223.103 213.471C223.815 212.999 224.527 212.527 225.223 212.047L225.895 213.039C225.191 213.519 224.479 213.999 223.767 214.471ZM153.063 211.863L152.279 210.951C152.919 210.399 153.575 209.847 154.239 209.287L155.007 210.207C154.343 210.767 153.695 211.319 153.063 211.863ZM228.543 211.215L227.855 210.231C228.559 209.735 229.255 209.247 229.935 208.751L230.639 209.727C229.943 210.223 229.247 210.719 228.543 211.215ZM157.479 208.199L156.727 207.263C157.391 206.735 158.063 206.199 158.743 205.671L159.479 206.623C158.807 207.143 158.135 207.671 157.479 208.199ZM233.231 207.831L232.511 206.863C233.199 206.351 233.879 205.839 234.551 205.327L235.279 206.279C234.607 206.799 233.919 207.319 233.231 207.831ZM162.023 204.679L161.303 203.719C161.983 203.207 162.671 202.703 163.367 202.191L164.071 203.159C163.383 203.671 162.695 204.175 162.023 204.679ZM237.815 204.311L237.071 203.367C237.743 202.831 238.407 202.295 239.055 201.767L239.815 202.695C239.159 203.231 238.495 203.767 237.815 204.311ZM166.671 201.303L165.975 200.319C166.671 199.831 167.375 199.343 168.079 198.847L168.759 199.839C168.063 200.327 167.359 200.815 166.671 201.303ZM242.279 200.631L241.503 199.719C242.159 199.159 242.799 198.599 243.431 198.047L244.231 198.943C243.591 199.503 242.943 200.071 242.279 200.631ZM171.407 198.047L170.743 197.047C171.447 196.575 172.167 196.103 172.887 195.631L173.543 196.639C172.823 197.111 172.111 197.583 171.407 198.047ZM246.599 196.783L245.783 195.903C246.415 195.311 247.031 194.727 247.631 194.143L248.471 195.007C247.863 195.599 247.239 196.191 246.599 196.783ZM176.231 194.919L175.591 193.903C176.311 193.447 177.039 192.999 177.767 192.543L178.399 193.567C177.671 194.015 176.951 194.463 176.231 194.919ZM250.743 192.727L249.879 191.895C250.479 191.271 251.063 190.647 251.615 190.039L252.503 190.847C251.935 191.463 251.351 192.095 250.743 192.727ZM181.127 191.903L180.511 190.871C181.239 190.431 181.975 189.999 182.719 189.559L183.327 190.591C182.591 191.031 181.855 191.471 181.127 191.903ZM186.095 189.007L185.503 187.967C186.055 187.655 186.607 187.343 187.159 187.031L187.743 186.703L188.327 187.751L187.751 188.071C187.191 188.383 186.639 188.695 186.095 189.007ZM254.623 188.407L253.703 187.639C254.263 186.967 254.791 186.303 255.287 185.655L256.239 186.383C255.735 187.047 255.191 187.727 254.623 188.407ZM191.119 186.215L190.551 185.159C191.311 184.751 192.063 184.351 192.815 183.951L193.375 185.015C192.623 185.407 191.879 185.807 191.119 186.215ZM258.127 183.751L257.127 183.087C257.607 182.359 258.055 181.631 258.447 180.943L259.495 181.535C259.079 182.247 258.623 182.991 258.127 183.751ZM196.215 183.543L195.671 182.471C196.439 182.079 197.199 181.695 197.967 181.311L198.503 182.383C197.735 182.767 196.975 183.151 196.215 183.543ZM201.367 180.991L200.847 179.911C201.623 179.535 202.399 179.175 203.167 178.807L203.679 179.895C202.903 180.255 202.135 180.623 201.367 180.991ZM260.919 178.583L259.807 178.135C260.135 177.327 260.391 176.535 260.559 175.791L261.727 176.055C261.543 176.863 261.271 177.711 260.919 178.583ZM206.575 178.567L206.079 177.471C206.863 177.119 207.647 176.767 208.431 176.431L208.911 177.535C208.135 177.871 207.359 178.215 206.575 178.567ZM211.847 176.279L211.383 175.175C212.183 174.839 212.975 174.519 213.759 174.199L214.207 175.311C213.423 175.623 212.639 175.943 211.847 176.279ZM217.175 174.135L216.743 173.015C217.551 172.703 218.351 172.407 219.151 172.111L219.567 173.239C218.775 173.527 217.983 173.831 217.175 174.135ZM260.783 172.823C260.695 172.015 260.471 171.271 260.103 170.615L261.159 170.039C261.599 170.839 261.871 171.735 261.975 172.695L260.783 172.823ZM222.575 172.167L222.183 171.031C223.007 170.743 223.815 170.471 224.623 170.207L224.999 171.351C224.191 171.615 223.391 171.887 222.575 172.167ZM228.031 170.391L227.679 169.239C228.511 168.983 229.335 168.743 230.151 168.519L230.479 169.679C229.671 169.903 228.855 170.143 228.031 170.391ZM233.559 168.855L233.263 167.687C234.111 167.471 234.951 167.271 235.767 167.087L236.031 168.255C235.223 168.439 234.399 168.639 233.559 168.855ZM258.119 168.519C257.503 168.111 256.775 167.759 255.951 167.479L256.343 166.343C257.255 166.655 258.079 167.055 258.775 167.519L258.119 168.519ZM239.143 167.615L238.919 166.439C239.783 166.271 240.639 166.127 241.463 165.999L241.647 167.183C240.839 167.311 239.999 167.455 239.143 167.615ZM252.959 166.791C252.183 166.679 251.343 166.607 250.471 166.575L250.519 165.375C251.439 165.415 252.311 165.487 253.127 165.607L252.959 166.791ZM244.791 166.783L244.671 165.591C245.559 165.503 246.423 165.439 247.255 165.399L247.311 166.599C246.511 166.631 245.663 166.695 244.791 166.783Z" fill="#E9E9F4"/>
<path d="M264.697 251.705C264.689 251.705 264.673 251.705 264.665 251.705H264.385L264.393 250.505H264.665C265.433 250.489 266.193 250.481 266.905 250.425L266.993 251.625C266.265 251.681 265.489 251.705 264.697 251.705ZM261.145 251.561C260.313 251.497 259.441 251.401 258.569 251.297L258.721 250.105C259.577 250.217 260.425 250.305 261.241 250.369L261.145 251.561ZM270.249 251.161L269.985 249.993C270.841 249.801 271.625 249.545 272.305 249.249L272.793 250.345C272.041 250.673 271.185 250.953 270.249 251.161ZM255.377 250.809C254.553 250.665 253.705 250.505 252.841 250.329L253.081 249.153C253.929 249.329 254.769 249.481 255.577 249.625L255.377 250.809ZM249.697 249.641C248.881 249.449 248.041 249.241 247.201 249.017L247.505 247.857C248.345 248.073 249.169 248.281 249.977 248.473L249.697 249.641ZM275.609 248.401L274.729 247.585C275.025 247.265 275.273 246.921 275.473 246.553C275.633 246.257 275.769 245.945 275.873 245.617L277.017 245.985C276.889 246.385 276.721 246.769 276.529 247.137C276.273 247.585 275.969 248.009 275.609 248.401ZM244.097 248.169C243.289 247.937 242.465 247.689 241.633 247.433L241.985 246.281C242.809 246.537 243.625 246.777 244.433 247.009L244.097 248.169ZM238.569 246.457C237.769 246.193 236.953 245.921 236.137 245.633L236.529 244.497C237.345 244.777 238.153 245.049 238.945 245.313L238.569 246.457ZM233.105 244.553C232.313 244.265 231.505 243.961 230.697 243.657L231.121 242.537C231.921 242.841 232.721 243.137 233.513 243.433L233.105 244.553ZM276.089 242.705C276.001 241.969 275.809 241.169 275.529 240.337L276.665 239.953C276.969 240.857 277.177 241.737 277.281 242.553L276.089 242.705ZM227.705 242.489C226.913 242.177 226.121 241.857 225.321 241.521L225.777 240.409C226.569 240.737 227.361 241.057 228.145 241.369L227.705 242.489ZM222.369 240.281C221.585 239.945 220.801 239.601 220.017 239.257L220.505 238.161C221.289 238.505 222.073 238.849 222.849 239.185L222.369 240.281ZM217.089 237.937C216.313 237.585 215.537 237.225 214.761 236.857L215.273 235.769C216.049 236.137 216.825 236.489 217.593 236.841L217.089 237.937ZM274.289 237.497C273.921 236.801 273.497 236.073 273.025 235.329L274.041 234.689C274.529 235.457 274.969 236.217 275.353 236.945L274.289 237.497ZM211.865 235.473C211.097 235.105 210.329 234.721 209.561 234.337L210.097 233.265C210.865 233.649 211.625 234.025 212.393 234.393L211.865 235.473ZM206.697 232.897C205.937 232.505 205.177 232.113 204.417 231.713L204.977 230.649C205.737 231.049 206.489 231.441 207.249 231.825L206.697 232.897ZM271.225 232.737C270.737 232.081 270.209 231.409 269.665 230.745L270.593 229.985C271.153 230.665 271.689 231.353 272.193 232.025L271.225 232.737ZM201.577 230.209C200.913 229.849 200.249 229.489 199.577 229.121L199.329 228.985L199.897 227.929L200.113 228.049C200.825 228.441 201.489 228.801 202.145 229.153L201.577 230.209ZM267.593 228.337C267.041 227.721 266.465 227.105 265.865 226.473L266.729 225.641C267.337 226.281 267.921 226.905 268.489 227.529L267.593 228.337ZM196.529 227.417C195.777 226.993 195.041 226.569 194.297 226.145L194.897 225.105C195.633 225.529 196.369 225.953 197.113 226.369L196.529 227.417ZM191.529 224.521C190.793 224.081 190.057 223.641 189.329 223.201L189.953 222.177C190.681 222.617 191.409 223.057 192.145 223.489L191.529 224.521ZM263.625 224.209C263.033 223.625 262.417 223.041 261.785 222.449L262.609 221.569C263.249 222.169 263.873 222.761 264.473 223.345L263.625 224.209ZM186.593 221.521C185.865 221.065 185.137 220.609 184.425 220.153L185.073 219.137C185.785 219.593 186.505 220.049 187.233 220.497L186.593 221.521ZM259.425 220.305C258.801 219.753 258.161 219.193 257.505 218.625L258.289 217.713C258.953 218.281 259.593 218.841 260.225 219.401L259.425 220.305ZM181.721 218.409C181.001 217.937 180.289 217.465 179.577 216.993L180.249 215.993C180.953 216.465 181.657 216.937 182.377 217.401L181.721 218.409ZM255.057 216.577C254.409 216.041 253.745 215.505 253.073 214.969L253.825 214.033C254.505 214.577 255.169 215.113 255.825 215.649L255.057 216.577ZM176.929 215.185C176.217 214.697 175.513 214.201 174.825 213.713L175.521 212.737C176.209 213.225 176.905 213.713 177.617 214.201L176.929 215.185ZM250.561 213.001C249.897 212.489 249.217 211.977 248.529 211.457L249.249 210.497C249.945 211.017 250.625 211.529 251.297 212.049L250.561 213.001ZM172.217 211.833C171.521 211.321 170.833 210.817 170.153 210.305L170.873 209.345C171.545 209.849 172.233 210.361 172.929 210.865L172.217 211.833ZM245.953 209.569C245.273 209.073 244.577 208.577 243.873 208.081L244.569 207.097C245.273 207.593 245.969 208.097 246.657 208.593L245.953 209.569ZM167.593 208.361C166.905 207.833 166.233 207.297 165.577 206.769L166.329 205.833C166.985 206.361 167.657 206.881 168.337 207.409L167.593 208.361ZM241.249 206.257C240.553 205.777 239.849 205.305 239.137 204.825L239.801 203.825C240.521 204.305 241.225 204.785 241.929 205.265L241.249 206.257ZM163.089 204.737C162.417 204.177 161.769 203.625 161.129 203.073L161.913 202.161C162.545 202.705 163.201 203.257 163.865 203.809L163.089 204.737ZM236.473 203.073C235.761 202.609 235.049 202.153 234.321 201.689L234.961 200.673C235.689 201.137 236.409 201.601 237.121 202.065L236.473 203.073ZM158.705 200.953C158.057 200.369 157.425 199.785 156.809 199.209L157.633 198.337C158.241 198.905 158.865 199.481 159.513 200.065L158.705 200.953ZM231.609 199.993C230.889 199.545 230.161 199.105 229.433 198.657L230.057 197.625C230.793 198.073 231.521 198.521 232.249 198.969L231.609 199.993ZM226.689 197.017C225.961 196.585 225.225 196.161 224.481 195.729L225.081 194.689C225.825 195.121 226.569 195.553 227.297 195.985L226.689 197.017ZM154.497 196.969C153.873 196.345 153.273 195.737 152.697 195.129L153.569 194.297C154.137 194.897 154.737 195.505 155.353 196.113L154.497 196.969ZM221.705 194.153C220.969 193.737 220.217 193.321 219.473 192.913L220.049 191.857C220.801 192.273 221.553 192.689 222.297 193.105L221.705 194.153ZM150.521 192.753C149.937 192.089 149.377 191.425 148.849 190.777L149.785 190.017C150.305 190.657 150.849 191.297 151.425 191.953L150.521 192.753ZM217.729 191.969C216.977 191.561 216.225 191.161 215.473 190.769L216.033 189.705C216.785 190.105 217.545 190.505 218.297 190.913L217.729 191.969ZM212.649 189.289C211.889 188.897 211.129 188.513 210.369 188.129L210.905 187.057C211.665 187.441 212.425 187.825 213.193 188.217L212.649 189.289ZM146.881 188.201C146.353 187.465 145.865 186.737 145.433 186.041L146.449 185.409C146.873 186.089 147.345 186.793 147.857 187.505L146.881 188.201ZM207.505 186.713C206.737 186.337 205.969 185.969 205.201 185.609L205.713 184.521C206.481 184.889 207.249 185.257 208.025 185.633L207.505 186.713ZM202.305 184.257C201.529 183.897 200.753 183.545 199.977 183.201L200.465 182.105C201.241 182.449 202.017 182.809 202.801 183.161L202.305 184.257ZM143.849 183.185C143.449 182.345 143.121 181.521 142.865 180.737L144.009 180.369C144.241 181.097 144.553 181.873 144.929 182.665L143.849 183.185ZM197.049 181.921C196.257 181.585 195.473 181.249 194.697 180.921L195.161 179.817C195.945 180.145 196.729 180.481 197.521 180.817L197.049 181.921ZM191.745 179.713C190.945 179.393 190.153 179.081 189.369 178.777L189.801 177.657C190.593 177.961 191.385 178.273 192.193 178.593L191.745 179.713ZM186.377 177.657C185.569 177.361 184.769 177.073 183.977 176.793L184.377 175.657C185.177 175.937 185.985 176.225 186.793 176.529L186.377 177.657ZM142.281 177.433V177.257C142.281 176.337 142.425 175.473 142.721 174.689L143.849 175.113C143.609 175.761 143.489 176.481 143.489 177.249V177.401L142.281 177.433ZM180.961 175.753C180.145 175.481 179.329 175.217 178.529 174.969L178.889 173.825C179.697 174.081 180.513 174.345 181.337 174.617L180.961 175.753ZM175.473 174.049C174.641 173.809 173.825 173.577 173.017 173.361L173.329 172.201C174.145 172.417 174.969 172.649 175.809 172.897L175.473 174.049ZM145.521 172.817L144.761 171.889C145.417 171.353 146.209 170.889 147.121 170.521L147.577 171.633C146.777 171.953 146.089 172.353 145.521 172.817ZM169.937 172.577C169.097 172.377 168.265 172.185 167.457 172.017L167.705 170.841C168.529 171.017 169.361 171.209 170.217 171.409L169.937 172.577ZM164.329 171.401C163.473 171.249 162.633 171.113 161.817 171.001L161.985 169.809C162.817 169.929 163.665 170.057 164.537 170.217L164.329 171.401ZM150.529 170.817L150.329 169.633C151.137 169.497 152.009 169.393 152.937 169.337L153.009 170.537C152.121 170.585 151.289 170.681 150.529 170.817ZM158.673 170.641C157.809 170.569 156.961 170.513 156.153 170.489L156.193 169.289C157.025 169.313 157.897 169.369 158.785 169.441L158.673 170.641Z" fill="#E9E9F4"/>
<path d="M268.2 222.032C265.456 255.768 235.872 280.896 202.136 278.152C186.976 276.912 173.544 270.264 163.6 260.248C151.424 247.976 144.496 230.656 146 212.088C148.744 178.352 178.328 153.216 212.072 155.968C230.28 157.448 245.976 166.736 256.136 180.288C264.816 191.832 269.464 206.496 268.2 222.032Z" fill="white"/>
<path d="M175.887 207.48L177.455 206.96L174.015 205.64L172.631 206.728L173.023 208.32L174.751 208.592L175.887 207.48ZM200.127 231.912L190.951 228.04L184.375 221.72L175.991 217.72L173.383 219.456C171.831 219.768 170.807 221.248 171.055 222.808L171.207 223.768L169.319 229.464L171.983 231.888L173.719 236.056L176.703 237.728L179.839 240.776L180.127 246.064L182.479 254.904C183.783 259.792 186.271 264.288 189.727 267.984C190.871 268.52 192.007 267.224 191.311 266.16L189.335 263.144L189.551 256.464C191.183 255.728 192.431 254.336 192.983 252.624L194.815 246.936L197.375 244.976C198.479 244.128 199.175 242.856 199.287 241.472L199.359 240.552L200.927 237.072C201.583 235.608 201.447 233.904 200.567 232.568L200.127 231.912ZM155.959 216.008L156.639 215.784L155.143 215.208L154.543 215.68L154.711 216.368L155.463 216.488L155.959 216.008ZM157.055 217.128C157.055 217.128 155.951 217.288 155.575 217.384L155.047 218.32L155.343 218.976C155.343 218.976 156.399 219.08 156.935 219.584C157.471 220.088 158.007 219.488 158.055 219.432C158.095 219.376 158.599 216.928 158.599 216.928L157.543 216.208L157.055 217.128ZM216.279 178.96L213.223 178.968L211.015 178.528C211.015 178.528 210.087 179.592 209.815 179.76L211.159 181.624L212.287 182.56L214.295 181.456L216.559 180.76L216.279 178.96ZM266.023 217.184L263.855 215.056L263.799 212.584L265.807 215.088L267.719 215.568L268.399 215.936C268.327 212 267.887 208.136 267.095 204.4C266.999 205.888 266.847 207.408 266.631 207.36C266.599 207.352 266.559 207.344 266.511 207.336C265.391 207.144 264.367 206.592 263.639 205.712L263.527 205.576L263.799 203.456L263.511 203.16C262.919 202.56 262.735 201.664 263.031 200.88C263.079 200.752 263.111 200.656 263.111 200.632C263.119 200.504 263.127 199.6 263.127 199.6L264.295 199.208L265.679 198.968C262.879 189.936 258.039 181.744 251.655 174.976L248.279 173.096L245.495 174.56L245.111 174.592C243.791 174.696 242.543 175.248 241.567 176.144L235.967 181.328L235.903 181.744C235.607 183.712 236.615 185.648 238.407 186.528C238.407 186.528 239.847 188.552 240.079 188.792C240.095 188.808 240.103 188.816 240.111 188.816C240.175 188.8 241.871 187.72 241.871 187.72L243.151 183.92L243.159 181.448C243.159 181.448 246.063 178.976 246.119 178.92C246.167 178.856 247.807 179.512 247.807 179.512L246.687 181.248L246.087 182.264C245.583 183.12 245.471 184.144 245.775 185.08L245.799 185.16L249.319 185.6L247.423 185.704L246.223 186.864L246.447 187.576C246.447 187.576 241.647 190.328 241.407 190.352C241.287 190.36 240.599 190.288 239.919 190.216C239.231 190.144 238.567 190.056 238.567 190.056L238.399 189.68C238.007 188.824 236.871 188.648 236.247 189.344L235.623 190.032L235.191 191.104L232.575 192.064L227.271 193.776L226.927 195.568C226.927 195.568 228.887 197.312 228.791 197.432C228.695 197.552 228.071 198.328 228.071 198.328L226.439 198.176L222.695 199.672C222.695 199.672 222.455 203.184 222.647 203.264C222.775 203.32 224.159 203.808 225.015 204.104C225.407 204.24 225.679 204.336 225.679 204.336C225.679 204.336 228.743 203.48 228.975 203.256C229.207 203.04 231.255 199.496 231.255 199.496L231.687 199.512C234.703 199.632 237.455 201.264 239.015 203.84C239.679 204.936 240.207 205.808 240.175 205.728C240.143 205.648 240.151 204.848 240.175 203.872C240.207 202.736 241.639 202.264 242.343 203.16C243.055 204.056 243.799 204.848 244.311 205C245.583 205.36 247.743 202.808 247.743 202.808L248.615 206.448C248.615 206.448 250.519 206.76 250.631 206.768C250.743 206.776 253.463 206.52 253.463 206.52C253.463 206.52 253.759 208.712 253.751 208.792C253.743 208.88 251.911 210.92 251.911 210.92C251.911 210.92 245.783 210.096 245.495 209.92C245.207 209.744 243.623 208.408 243.623 208.408L240.975 209.232C240.975 209.232 236.343 207.832 236.239 207.496C236.135 207.16 236.143 206.232 236.143 206.232L235.079 204.064L231.991 204.2C231.991 204.2 229.999 204.152 229.935 204.208C229.863 204.264 226.559 205.968 226.559 205.968L224.647 205.272L221.047 207.688L220.839 209.408L215.623 214.64C215.623 214.64 213.335 220.432 216.711 224.48C220.087 228.52 228.055 228.136 228.359 228.352C228.503 228.456 229.399 229.096 230.319 229.752C231.695 230.736 232.639 232.224 232.927 233.888L233.319 236.096L235.543 240.768C234.303 244.056 234.079 247.64 234.911 251.056L236.511 257.624C238.095 258.792 240.239 258.864 241.903 257.8C244.375 256.216 247.727 253.864 248.655 252.24C250.175 249.568 250.927 246.704 250.927 246.704C250.927 246.704 253.551 244.12 253.847 242.776C253.983 242.176 254.167 240.856 254.327 239.584C254.567 237.64 255.495 235.848 256.951 234.536C259.615 232.128 263.663 228.28 263.439 227.304C263.103 225.84 259.407 226.52 259.407 226.52C259.407 226.52 255.135 220.712 254.975 220.304C254.903 220.128 254.527 218.856 254.127 217.456C253.879 216.6 255.007 216.04 255.535 216.76C256.111 217.544 256.551 218.216 256.559 218.424C256.575 219.008 257.463 221.752 257.463 221.752L259.607 224.984L264.847 223.72L268.255 221.368C268.359 219.904 268.415 218.448 268.407 217L266.023 217.184ZM256.455 202.416C255.687 202.56 254.903 202.584 254.135 202.488C252.439 202.264 249.519 201.832 249.615 201.544C249.751 201.136 249.943 199.792 249.943 199.792L251.655 198.6L253.751 199.048L253.791 199.016C254.575 198.368 255.639 198.24 256.583 198.6C256.599 198.608 256.615 198.608 256.623 198.608H256.631C257.263 198.704 257.767 199.176 257.919 199.792L257.951 199.912L257.991 200.376C258.071 201.352 257.415 202.232 256.455 202.416ZM261.759 235.68C260.479 235.36 259.167 238.248 259.167 238.248C259.167 238.248 256.967 239.2 256.911 239.32C256.863 239.448 257.359 241.264 257.359 241.264L256.215 242.552L256.335 244.728L258.599 244.608L260.223 242.704L261.071 239.696L262.591 238.08C262.599 238.088 263.031 236.008 261.759 235.68ZM212.111 175.776L215.863 173.528L217.543 173.496L219.655 172.888C219.655 172.888 220.639 170.744 220.583 170.64C220.527 170.544 220.575 169.112 220.575 169.112L224.567 162.384L226.039 161.248L227.775 161.32L228.407 159.944L228.247 159.512C227.655 159.288 227.047 159.08 226.447 158.888C226.127 158.944 224.007 158.512 224.007 158.512L222.615 157.976L222.263 157.664C221.543 157.48 220.823 157.312 220.095 157.16L213.447 157.824C213.447 157.824 212.735 157.8 212.431 157.776C212.119 157.752 210.703 159.696 210.703 159.696C210.703 159.696 208.911 159.096 208.511 158.928C208.111 158.768 203.999 159.496 203.999 159.496L202.543 158.448L190.135 161.296L189.079 160.952L187.855 161.632C187.855 161.632 187.055 161.328 186.311 161.36C185.575 161.384 184.999 162.552 184.999 162.552C184.999 162.552 185.023 165.176 185.015 165.328C184.999 165.48 184.079 166.4 184.079 166.4L182.263 166.624C181.695 165.624 180.487 166.064 180.487 166.064L180.167 165.92C179.431 165.584 178.583 165.624 177.879 166.032L176.047 165.992L174.623 166.392L172.919 166.512L171.183 167.384C158.319 176.68 149.127 190.904 146.527 207.544L148.487 206.288L149.903 207.816C149.903 207.816 153.031 213.032 153.071 213.096C153.111 213.168 155.359 213.264 155.631 213.368C155.903 213.472 161.743 217.056 161.743 217.056L164.215 216.784L165.783 218.56C167.127 218.952 168.327 217.616 167.791 216.32L167.095 214.632L164.951 214.888L163.399 213.92L164.919 212.312C164.799 211.488 163.935 211 163.167 211.328C162.031 211.816 160.655 212.424 160.511 212.576C160.271 212.84 158.143 211.888 158.143 211.888L157.999 211.664C157.015 210.088 157.175 208.056 158.399 206.664L158.823 206.184C158.823 206.184 159.647 204.904 159.695 204.824C159.743 204.744 161.527 205.456 161.527 205.456L164.975 205.128C164.975 205.128 167.263 207.456 167.335 207.592C167.407 207.728 168.975 205.536 168.975 205.536L170.239 203.88L172.183 203.152C172.183 203.152 175.479 199.128 175.951 199.192C176.423 199.248 183.263 195.064 183.263 195.064L185.159 195.264L186.095 193.888L184.967 191.496L187.431 190.288L189.647 192.088C190.999 191.808 191.903 190.536 191.743 189.168L191.687 188.68L189.311 183.264C189.311 183.264 188.695 181.544 188.639 181.408C188.583 181.272 186.303 181.592 186.303 181.592L184.591 182.16C184.719 181.008 183.831 179.984 182.671 179.952L181.631 179.92C181.631 179.92 180.199 180.432 180.191 180.52C180.183 180.608 176.607 187.256 176.607 187.256L175.135 188.04L174.287 185.96C174.287 185.96 172.551 185.408 172.143 185.352C171.735 185.296 170.327 183.704 170.175 183.696C170.023 183.68 170.943 182.288 170.943 182.288C170.943 182.288 175.615 180.304 175.679 180.288C175.743 180.272 177.391 179.968 177.391 179.968L181.439 175.768L183.279 175.288L183.855 173.864L185.303 172.352L186.655 175.144L184.071 176.456L183.927 177.6C183.847 178.2 184.295 178.744 184.903 178.784L186.303 178.872L187.279 179.6L190.671 179.208L191.479 177.776L192.631 177.808C193.311 177.264 193.575 176.344 193.287 175.52C193.143 175.104 193.023 174.728 193.015 174.632C193.007 174.392 190.143 170.736 190.143 170.736L188.687 171.032L186.271 169.792L188.895 167.624L190.095 167.488L190.839 166.112L194.199 165.024L195.207 166.208L195.287 167.6L196.911 168.144L197.615 167.048L199.759 166.464L200.303 167.744L201.719 169.272L200.055 174.312L199.047 175.256L199.495 179.064C199.495 179.064 198.983 180.28 198.967 180.432C198.967 180.448 198.975 180.488 198.983 180.544C199.199 181.44 200.159 181.936 201.031 181.632C201.311 181.536 201.511 181.464 201.511 181.464L203.575 181.416L209.903 176.032L212.111 175.776ZM200.439 163.12C200.391 163.04 199.583 162.888 199.583 162.888L198.935 163.32L196.791 164.032C196.807 163.992 197.815 162.624 197.815 162.624L198.607 162.776L199.823 162.016C199.823 162.016 202.039 161.896 202.167 161.904C202.047 161.984 200.487 163.2 200.439 163.12ZM221.391 229.712L219.183 229.272C219.183 229.272 218.255 230.336 217.983 230.504L219.327 232.368L220.455 233.304L222.463 232.2L224.727 231.504L224.455 229.696L221.391 229.712Z" fill="#111856"/>
<path d="M268.202 222.033C265.458 255.769 235.874 280.897 202.138 278.153C186.978 276.913 173.546 270.265 163.602 260.249C176.314 263.369 193.274 263.305 214.578 254.505C250.618 239.617 256.314 202.921 256.138 180.281C264.818 191.833 269.466 206.497 268.202 222.033Z" fill="#B9D4F3"/>
<path d="M145.906 245.808C145.226 245.808 144.554 245.784 143.914 245.752L143.985 244.552C144.785 244.6 145.625 244.616 146.497 244.6L146.514 245.8C146.314 245.808 146.106 245.808 145.906 245.808ZM149.761 245.632L149.658 244.432C150.466 244.36 151.314 244.264 152.178 244.152L152.337 245.344C151.45 245.456 150.585 245.552 149.761 245.632ZM140.658 245.336C139.73 245.144 138.866 244.888 138.106 244.584L138.554 243.472C139.25 243.752 140.042 243.984 140.906 244.168L140.658 245.336ZM155.521 244.84L155.306 243.656C156.122 243.512 156.954 243.344 157.802 243.168L158.049 244.344C157.194 244.52 156.345 244.688 155.521 244.84ZM161.194 243.616L160.906 242.448C161.714 242.248 162.538 242.032 163.37 241.808L163.682 242.968C162.842 243.2 162.01 243.416 161.194 243.616ZM135.209 242.784C134.697 242.296 134.266 241.752 133.938 241.152L134.985 240.568C135.257 241.056 135.618 241.504 136.042 241.912L135.209 242.784ZM166.778 242.096L166.433 240.944C167.233 240.704 168.049 240.456 168.874 240.192L169.242 241.336C168.41 241.6 167.586 241.848 166.778 242.096ZM172.29 240.328L171.897 239.192C172.689 238.92 173.498 238.64 174.306 238.344L174.714 239.472C173.898 239.768 173.09 240.056 172.29 240.328ZM177.73 238.36L177.306 237.24C178.09 236.944 178.89 236.632 179.69 236.32L180.13 237.44C179.322 237.752 178.522 238.064 177.73 238.36ZM183.106 236.232L182.642 235.12C183.418 234.8 184.21 234.464 184.994 234.128L185.466 235.232C184.674 235.568 183.89 235.904 183.106 236.232ZM188.409 233.944L187.921 232.848C188.689 232.504 189.465 232.152 190.25 231.792L190.754 232.88C189.962 233.24 189.185 233.592 188.409 233.944ZM193.658 231.52L193.138 230.432C193.897 230.064 194.665 229.696 195.433 229.32L195.961 230.4C195.194 230.776 194.426 231.152 193.658 231.52ZM198.842 228.968L198.298 227.896C199.049 227.512 199.81 227.12 200.57 226.728L201.121 227.792C200.361 228.192 199.602 228.576 198.842 228.968ZM203.962 226.288L203.394 225.232C204.138 224.832 204.889 224.424 205.641 224.008L206.217 225.064C205.465 225.48 204.714 225.888 203.962 226.288ZM209.017 223.504L208.425 222.456C209.17 222.032 209.905 221.608 210.641 221.184L211.241 222.224C210.513 222.656 209.769 223.08 209.017 223.504ZM214.017 220.6L213.402 219.568C214.138 219.128 214.865 218.688 215.593 218.248L216.217 219.272C215.489 219.72 214.753 220.16 214.017 220.6ZM218.945 217.584L218.306 216.568C219.034 216.112 219.754 215.656 220.458 215.2L221.106 216.208C220.394 216.672 219.674 217.128 218.945 217.584ZM223.802 214.456L223.138 213.456C223.85 212.984 224.562 212.504 225.258 212.032L225.93 213.024C225.226 213.496 224.514 213.976 223.802 214.456ZM228.569 211.2L227.882 210.216C228.586 209.72 229.282 209.232 229.962 208.736L230.665 209.712C229.977 210.208 229.281 210.704 228.569 211.2ZM233.258 207.808L232.538 206.84C233.226 206.328 233.906 205.816 234.578 205.304L235.306 206.256C234.634 206.776 233.954 207.296 233.258 207.808ZM237.841 204.288L237.097 203.344C237.77 202.808 238.434 202.272 239.082 201.744L239.841 202.672C239.193 203.208 238.521 203.752 237.841 204.288ZM242.306 200.608L241.53 199.696C242.186 199.136 242.826 198.576 243.45 198.024L244.25 198.92C243.618 199.48 242.97 200.048 242.306 200.608ZM246.634 196.76L245.817 195.88C246.449 195.288 247.065 194.704 247.665 194.12L248.506 194.976C247.89 195.568 247.274 196.16 246.634 196.76ZM250.769 192.696L249.906 191.864C250.506 191.24 251.089 190.616 251.641 190.008L252.53 190.816C251.97 191.432 251.377 192.064 250.769 192.696ZM254.649 188.384L253.73 187.616C254.282 186.952 254.818 186.288 255.314 185.632L256.265 186.36C255.753 187.024 255.217 187.704 254.649 188.384ZM258.146 183.72L257.146 183.056C257.625 182.32 258.074 181.6 258.458 180.912L259.506 181.496C259.106 182.216 258.649 182.96 258.146 183.72ZM260.938 178.552L259.826 178.104C260.154 177.288 260.401 176.496 260.569 175.76L261.738 176.024C261.554 176.824 261.29 177.672 260.938 178.552ZM260.778 172.784C260.69 171.976 260.457 171.24 260.089 170.584L261.138 170C261.586 170.8 261.865 171.688 261.969 172.656L260.778 172.784Z" fill="#E9E9F4"/>
<path d="M264.664 251.704C264.2 251.704 263.72 251.696 263.232 251.68L263.272 250.48C264.152 250.512 264.992 250.512 265.792 250.488L265.832 251.688C265.456 251.704 265.064 251.704 264.664 251.704ZM260 251.456C259.168 251.368 258.304 251.264 257.432 251.136L257.6 249.944C258.456 250.072 259.304 250.176 260.12 250.256L260 251.456ZM269.096 251.384L268.904 250.2C269.776 250.056 270.584 249.864 271.304 249.632L271.68 250.776C270.896 251.024 270.032 251.232 269.096 251.384ZM254.256 250.608C253.432 250.456 252.584 250.28 251.728 250.096L251.984 248.92C252.832 249.104 253.664 249.272 254.48 249.424L254.256 250.608ZM248.592 249.368C247.776 249.168 246.944 248.952 246.104 248.72L246.416 247.56C247.248 247.784 248.072 248 248.88 248.2L248.592 249.368ZM274.696 249.232L273.96 248.28C274.6 247.784 275.112 247.208 275.464 246.552L276.52 247.128C276.088 247.928 275.472 248.632 274.696 249.232ZM243 247.848C242.192 247.608 241.368 247.36 240.544 247.096L240.904 245.952C241.728 246.208 242.544 246.456 243.344 246.696L243 247.848ZM237.488 246.096C236.688 245.824 235.872 245.544 235.056 245.256L235.456 244.12C236.264 244.408 237.072 244.688 237.872 244.952L237.488 246.096ZM232.04 244.16C231.248 243.864 230.448 243.56 229.64 243.248L230.072 242.128C230.872 242.44 231.672 242.744 232.456 243.032L232.04 244.16ZM226.656 242.064C225.872 241.744 225.08 241.416 224.28 241.088L224.744 239.984C225.536 240.312 226.32 240.64 227.104 240.96L226.656 242.064ZM221.32 239.824C220.544 239.488 219.76 239.136 218.968 238.784L219.456 237.688C220.24 238.04 221.016 238.384 221.792 238.72L221.32 239.824ZM216.056 237.456C215.288 237.096 214.512 236.736 213.728 236.368L214.248 235.28C215.024 235.648 215.792 236.008 216.56 236.368L216.056 237.456ZM210.84 234.968C210.072 234.592 209.312 234.216 208.544 233.824L209.08 232.752C209.848 233.136 210.608 233.512 211.368 233.888L210.84 234.968ZM205.68 232.376C204.92 231.984 204.168 231.584 203.408 231.184L203.968 230.12C204.728 230.52 205.48 230.912 206.232 231.304L205.68 232.376ZM200.584 229.664L199.584 229.12C199.168 228.888 198.752 228.664 198.336 228.432L198.92 227.384C199.336 227.616 199.752 227.84 200.168 228.072L201.16 228.616L200.584 229.664ZM195.536 226.856C194.792 226.432 194.048 226 193.312 225.576L193.92 224.536C194.656 224.968 195.392 225.392 196.136 225.816L195.536 226.856ZM190.552 223.936C189.816 223.496 189.08 223.048 188.352 222.608L188.976 221.584C189.696 222.024 190.424 222.464 191.16 222.912L190.552 223.936ZM185.624 220.912C184.896 220.456 184.176 219.992 183.456 219.536L184.104 218.528C184.816 218.984 185.536 219.44 186.264 219.904L185.624 220.912ZM180.776 217.784C180.056 217.304 179.344 216.832 178.64 216.352L179.312 215.36C180.016 215.832 180.72 216.312 181.432 216.784L180.776 217.784ZM175.992 214.536C175.28 214.04 174.584 213.544 173.896 213.056L174.592 212.08C175.28 212.568 175.976 213.064 176.68 213.552L175.992 214.536ZM171.296 211.16C170.6 210.648 169.912 210.136 169.24 209.616L169.968 208.656C170.64 209.168 171.32 209.68 172.016 210.184L171.296 211.16ZM166.696 207.656C166.016 207.12 165.344 206.584 164.688 206.056L165.448 205.12C166.104 205.648 166.768 206.184 167.44 206.712L166.696 207.656ZM162.216 204.008C161.552 203.448 160.896 202.888 160.264 202.328L161.056 201.424C161.688 201.976 162.328 202.528 162.992 203.088L162.216 204.008ZM157.864 200.184C157.224 199.592 156.592 199.008 155.984 198.424L156.816 197.56C157.416 198.136 158.04 198.72 158.68 199.304L157.864 200.184ZM153.696 196.16C153.08 195.528 152.488 194.912 151.912 194.296L152.792 193.48C153.352 194.088 153.944 194.704 154.552 195.32L153.696 196.16ZM149.768 191.88C149.192 191.2 148.64 190.528 148.136 189.88L149.08 189.144C149.576 189.784 150.12 190.448 150.68 191.112L149.768 191.88ZM146.224 187.264C145.72 186.512 145.248 185.776 144.84 185.056L145.88 184.456C146.28 185.144 146.728 185.864 147.216 186.584L146.224 187.264ZM143.376 182.12C143.016 181.248 142.736 180.392 142.56 179.592L143.728 179.328C143.896 180.064 144.152 180.848 144.488 181.664L143.376 182.12ZM143.536 176.368L142.344 176.208C142.456 175.352 142.712 174.56 143.104 173.848L144.16 174.424C143.84 175.016 143.624 175.664 143.536 176.368Z" fill="#E9E9F4"/>
<path d="M88.0338 161.713C87.4098 163.377 87.9538 165.257 89.1698 166.537C94.6258 172.289 112.506 191.361 116.97 187.577C122.218 183.137 105.002 167.721 99.3698 163.793C94.6658 160.513 89.5378 157.697 88.0338 161.713Z" fill="#E2B79F"/>
<path d="M111.661 174.281L115.349 177.473L138.669 144.969L143.189 148.953C143.189 148.953 123.349 189.169 117.229 189.977C111.101 190.793 96.7891 179.033 96.7891 179.033L111.661 174.281Z" fill="#E2B79F"/>
<path d="M51.6547 160.961C49.9987 161.593 48.9507 163.249 48.7987 165.009C48.1107 172.913 43.0067 201.409 48.7907 202.249C55.5907 203.225 59.0947 177.641 58.2947 170.817C57.6387 165.121 55.6547 159.425 51.6547 160.961Z" fill="#E2B79F"/>
<path d="M71.5839 245.216C71.3039 262.856 68.0719 277.104 64.3679 277.048C60.6639 276.992 57.8879 262.64 58.1679 245C58.4479 227.36 61.6799 213.112 65.3839 213.168C69.0879 213.232 71.8639 227.576 71.5839 245.216Z" fill="#E2B79F"/>
<path d="M66.8891 271.111C53.8731 264.327 61.3451 324.319 66.0731 339.295C70.7931 354.263 71.9611 337.927 72.0411 313.143C72.1291 288.367 72.0091 273.783 66.8891 271.111Z" fill="#E2B79F"/>
<path d="M73.9342 259.297L71.9262 338.209H64.1902C64.1902 338.209 57.3182 287.081 58.9902 275.337L55.7422 262.593L73.9342 259.297Z" fill="#E2B79F"/>
<path d="M95.1456 242.693C97.9536 260.109 97.2736 274.709 93.6176 275.293C89.9616 275.885 84.7136 262.246 81.9056 244.83C79.0976 227.414 79.7776 212.814 83.4416 212.23C87.0896 211.638 92.3376 225.277 95.1456 242.693Z" fill="#E2B79F"/>
<path d="M95.0642 269.016C81.0562 264.616 94.3442 330.368 101.616 344.28C108.888 358.192 107.168 341.904 102.912 317.488C98.6562 293.072 100.576 270.744 95.0642 269.016Z" fill="#E2B79F"/>
<path d="M98.8548 259.441L107.303 340.905L99.2868 341.697C99.2868 341.697 87.0628 298.825 86.4948 276.769L79.3828 253.137L98.8548 259.441Z" fill="#E2B79F"/>
<path d="M117.042 363.849C112.21 367.577 103.706 360.809 103.25 359.225C102.794 357.641 102.274 351.929 101.122 350.577C99.9618 349.209 98.3218 346.793 98.6578 345.313C98.7858 344.793 98.8738 344.017 98.9378 343.233C99.0658 341.777 99.1138 340.273 99.1138 340.273L107.034 338.945C107.034 338.945 110.146 346.489 112.186 352.073C112.73 353.569 113.69 354.841 114.698 355.969C117.426 359.065 120.586 361.113 117.042 363.849Z" fill="#E2B79F"/>
<path d="M101.073 346.773H99.2812V355.221H101.073V346.773Z" fill="#111856"/>
<path d="M117.042 363.846C112.21 367.574 103.706 360.806 103.25 359.222C102.794 357.638 102.274 351.926 101.122 350.574C99.9618 349.206 98.3218 346.79 98.6578 345.31C98.7858 344.79 98.8738 344.014 98.9378 343.23C99.9858 344.934 102.586 349.182 103.21 350.83C104.01 352.894 104.138 358.982 109.138 359.022C112.93 359.054 114.474 357.758 114.69 355.966C117.426 359.062 120.586 361.11 117.042 363.846Z" fill="#111856"/>
<path d="M72.7524 345.862C72.7444 345.998 72.6884 346.166 72.6724 346.382C72.3604 349.182 72.6004 358.686 72.6404 359.79C72.6724 360.966 71.0644 363.006 66.6244 363.006C62.1844 363.006 61.4004 361.862 61.2564 357.67C61.1764 355.502 61.8644 352.854 62.5444 350.374C63.1844 348.094 63.6804 345.95 63.8324 344.462C64.1524 341.254 64.1604 337.918 64.1604 337.918H71.9044C71.9044 337.918 72.9284 341.966 72.7524 345.862Z" fill="#E2B79F"/>
<path d="M72.6404 359.793C72.6724 360.969 71.0644 363.009 66.6244 363.009C62.1844 363.009 61.4004 361.865 61.2564 357.673C61.1764 355.505 61.8644 352.857 62.5444 350.377C62.5444 350.377 62.4004 359.121 67.2004 358.825C72.0004 358.537 72.6404 346.297 72.6404 346.297C72.6404 346.297 72.6484 346.329 72.6724 346.377C72.3604 349.185 72.6004 358.689 72.6404 359.793Z" fill="#111856"/>
<path d="M53.736 247.543C54.352 255.447 55.248 262.615 55.512 267.615C56.264 281.375 63.744 336.455 63.744 336.455L72.08 336.287L74.952 243.303L84.704 276.567C86.208 301.319 98 337.831 98 337.831L107.032 337.391C107.032 337.391 102.528 287.127 99.776 260.871C97.024 234.623 90.808 205.743 90.808 205.743C90.808 205.743 71.6 195.431 61.64 202.847H61.632C60.248 203.871 59.056 205.239 58.096 207.031C52.48 217.575 52.664 233.687 53.736 247.543Z" fill="#D64E12"/>
<path opacity="0.5" d="M84.7051 276.56L76.3131 231.184L74.9531 243.296L84.7051 276.56Z" fill="#D64E12"/>
<path opacity="0.5" d="M53.736 247.544C56.48 224.368 64.2 208.128 64.2 208.128C64.2 208.128 62.256 204.24 61.64 202.84H61.632C60.248 203.864 59.056 205.232 58.096 207.024C52.48 217.576 52.664 233.688 53.736 247.544Z" fill="#D64E12"/>
<path d="M72.0394 122.353C71.3994 121.657 70.4074 121.321 69.4794 121.481C68.5514 121.641 67.7274 122.289 67.3514 123.153C66.5514 122.993 65.7034 122.897 64.9274 123.153C64.1514 123.409 63.4714 124.105 63.4714 124.921C63.4714 125.209 63.5434 125.537 63.3434 125.745C63.2154 125.873 63.0314 125.905 62.8554 125.937C61.8554 126.121 60.8634 126.609 60.3114 127.465C59.7594 128.321 59.7514 129.561 60.4714 130.281C59.5274 130.785 58.6314 131.537 58.3354 132.561C58.0314 133.585 58.5594 134.897 59.6074 135.121C59.0314 135.385 58.6234 135.905 58.2554 136.425C57.8954 136.937 57.5274 137.481 57.4554 138.097C57.3834 138.745 57.6954 139.353 58.2954 139.609C57.6474 140.089 56.8154 140.361 56.6314 141.265C56.5114 141.873 56.7914 142.473 57.0314 143.041C57.2714 143.609 57.4794 144.265 57.2234 144.825C56.9754 145.353 56.3674 145.665 56.1834 146.217C56.0394 146.641 56.1914 147.113 56.3914 147.513C56.5674 147.865 57.2634 148.497 57.2874 148.849C57.3114 149.185 56.6634 149.857 56.5034 150.177C56.0154 151.169 55.7914 152.289 55.8714 153.393C55.9594 154.513 56.5674 155.785 57.6794 155.905C56.9754 157.113 56.2554 158.633 56.9754 159.833C57.2794 160.337 57.8154 160.697 58.3994 160.777C59.9754 162.465 62.9434 162.521 64.4794 160.801C65.2474 162.089 66.6634 162.977 68.1594 163.097C69.6554 163.217 71.1994 162.577 72.1594 161.425C73.2074 162.249 74.3433 163.105 75.6714 163.177C76.9993 163.241 78.4554 162.089 78.1594 160.793C79.3034 161.001 80.5194 161.193 81.5914 160.745C82.6634 160.297 83.4234 158.921 82.8074 157.937C84.0314 157.761 85.0394 156.617 85.0554 155.385C85.0554 155.185 85.0394 154.977 85.1434 154.801C85.2554 154.609 85.4874 154.521 85.6874 154.425C86.9114 153.841 87.5993 152.305 87.2154 151.001C87.1674 150.825 87.0954 150.649 87.1274 150.465C87.1594 150.241 87.3354 150.065 87.5114 149.921C87.9354 149.569 88.4074 149.265 88.7434 148.833C89.0794 148.401 89.2474 147.769 88.9674 147.297C88.7754 146.969 88.3834 146.745 88.3034 146.369C88.2234 145.993 88.4874 145.641 88.6634 145.297C88.9994 144.641 89.0074 143.865 89.0074 143.129C89.0154 142.129 89.0154 141.129 89.0234 140.129C89.0234 139.809 89.0154 139.457 88.8234 139.193C88.6874 139.009 88.4714 138.889 88.3274 138.713C87.8874 138.169 88.2554 137.393 88.3514 136.705C88.5674 135.201 87.3994 133.881 86.9834 132.417C86.7594 131.617 86.7514 130.777 86.5914 129.961C86.4314 129.145 86.0474 128.313 85.3114 127.921C84.9194 127.705 84.4314 127.633 84.1274 127.297C83.7754 126.905 83.8074 126.321 83.7194 125.809C83.5274 124.673 82.5513 123.785 81.4713 123.489C80.8874 123.329 80.4314 123.497 79.8634 123.497C79.3114 123.489 79.2474 122.809 78.8474 122.473C78.2234 121.953 77.3114 121.993 76.5114 122.145C75.6954 122.305 74.7833 122.353 73.9594 122.201C73.5993 122.137 73.2314 122.009 72.8634 122.009C72.8154 122.017 71.9114 122.225 72.0394 122.353Z" fill="#111856"/>
<path d="M93.1023 176.361C92.7983 177.353 92.4623 180.737 92.3423 181.897C92.3103 182.209 92.0863 185.801 91.8063 190.089C91.3663 196.993 90.8143 205.729 90.8143 205.729C90.8143 205.729 90.4143 205.801 89.7023 205.913C86.2063 206.473 75.1423 208.097 65.8783 207.857C63.0223 207.785 60.3343 207.529 58.1023 207.017C58.1023 207.017 58.0943 206.905 58.0863 206.689C58.0383 206.273 58.0223 204.969 58.0063 203.161C57.9423 195.833 58.0383 180.097 58.0383 180.097C57.2703 175.033 53.4143 171.161 52.4063 167.297C51.6943 164.553 50.9023 162.841 50.0703 161.497C50.0703 161.497 54.3423 158.129 59.9823 156.481C60.3823 156.369 60.8063 156.241 61.2063 156.145C62.5743 155.809 63.9823 155.553 65.4303 155.425L79.2703 154.801C79.2703 154.801 82.1343 155.177 84.5343 155.833C84.6143 155.849 84.7023 155.865 84.7903 155.897C88.8543 157.033 94.3343 158.809 95.6543 160.425C97.9103 163.161 95.0383 170.017 93.1023 176.361Z" fill="#111856"/>
<path opacity="0.3" d="M91.8103 190.085C91.3703 196.989 90.8183 205.725 90.8183 205.725C90.8183 205.725 90.4183 205.797 89.7063 205.909C86.2103 206.469 75.1463 208.093 65.8823 207.853C63.0103 206.165 60.1703 204.477 58.0103 203.157C57.9463 195.829 58.0423 180.093 58.0423 180.093L58.9703 175.461C58.9703 175.461 63.8343 195.037 75.2583 195.877C86.1383 196.677 87.9543 193.965 91.8103 190.085Z" fill="#505EA3"/>
<path d="M49.3818 162.433C48.3978 164.817 45.9258 170.153 45.5898 179.681L58.1578 180.049C58.7658 177.025 51.6458 160.969 51.6458 160.969H51.5258C50.5578 160.985 49.7418 161.553 49.3818 162.433Z" fill="#111856"/>
<path d="M93.7927 159.047C93.7927 159.047 99.6567 163.463 103.801 166.935C109.233 171.479 112.233 173.919 112.233 173.919L104.953 185.679L90.3047 176.847L93.7927 159.047Z" fill="#111856"/>
<path d="M84.5309 155.822C82.1309 155.166 79.0429 154.71 79.0429 154.71L77.0109 154.814L76.8029 153.062L76.6989 152.19L76.6269 151.582L76.5869 151.246L66.7549 149.758L66.7389 150.086L66.6589 151.574L66.6109 152.438L66.4509 155.366L65.4269 155.422C63.9789 155.55 62.5709 155.806 61.2109 156.15C63.2029 159.318 66.8829 163.278 72.7149 163.046C79.8829 162.766 83.4509 158.214 84.8029 155.902C84.7069 155.862 84.6189 155.846 84.5309 155.822Z" fill="#E2B79F"/>
<path d="M115.686 187.894C117.758 187.974 119.662 186.782 120.798 185.062C126.11 177.046 143.334 150.662 141.03 147.198C138.35 143.174 113.086 181.518 114.038 183.902C114.75 185.694 112.854 187.782 115.686 187.894Z" fill="#E2B79F"/>
<path d="M136.93 148.424L141.074 152.088C141.074 152.088 144.194 150.456 145.794 148.096C146.242 147.448 146.57 146.736 146.682 145.992C147.218 142.528 144.866 142.216 143.938 140.832V140.824C143.93 140.824 143.93 140.824 143.93 140.824C143.234 139.736 147.394 137.032 146.586 136.44C145.786 135.856 142.074 138.584 139.85 140.712C137.626 142.856 137.314 146.096 137.418 146.872C137.522 147.664 136.93 148.424 136.93 148.424Z" fill="#E2B79F"/>
<path d="M47.1651 201.706C47.7891 203.738 49.6051 205.186 51.6691 205.698C61.3251 208.114 91.5971 214.994 94.2131 211.578C97.2611 207.602 52.0451 194.666 50.0371 196.402C48.5171 197.698 46.3171 198.922 47.1651 201.706Z" fill="#E2B79F"/>
<path d="M46.0875 179.672C46.0875 179.672 44.4475 200.76 47.4235 204.104C50.3915 207.456 89.1915 212.496 89.1915 212.496L90.5035 207.456L56.1755 195.432L58.0395 180.096L46.0875 179.672Z" fill="#E2B79F"/>
<path d="M89.1914 212.494C89.1914 212.494 97.9754 216.174 100.159 214.446C102.479 212.622 103.895 211.278 103.311 210.598C102.719 209.91 102.135 209.934 101.047 210.982C99.9594 212.03 95.9594 210.854 95.9594 210.014C95.9594 209.174 98.3594 207.822 97.8234 207.118C97.2874 206.414 95.0794 206.91 93.8554 207.534C92.6314 208.158 90.2794 208.19 90.2794 208.19L89.1914 212.494Z" fill="#E2B79F"/>
<path d="M70.3594 205.977L82.5114 211.473L105.143 211.697L105.207 204.969L70.4314 204.625L70.3594 205.977Z" fill="white"/>
<path d="M70.3594 206.161L81.8714 211.465L105.143 211.697L105.159 210.001L82.4714 209.777L70.3754 204.625L70.3594 206.161Z" fill="#505EA3"/>
<path d="M114.231 211.784L81.8711 211.464L91.2151 189.496L123.583 189.816L114.231 211.784Z" fill="#505EA3"/>
<path d="M115.145 211.792L82.7852 211.48L92.1292 189.504L124.497 189.824L115.145 211.792Z" fill="#111856"/>
<path d="M95.375 211.872C95.375 211.872 98.039 208.52 102.223 208.824C106.407 209.128 102.983 211.792 102.983 211.792L95.375 211.872Z" fill="#E2B79F"/>
<path d="M106.216 201.767C105.616 203.215 104.352 204.071 103.392 203.679C102.432 203.279 102.136 201.783 102.736 200.335C103.336 198.887 104.6 198.031 105.56 198.423C106.528 198.823 106.816 200.319 106.216 201.767Z" fill="url(#paint0_linear_556_1321)"/>
<path d="M76.8092 153.066C75.4012 153.818 73.8652 154.242 72.2572 154.242C70.2572 154.242 68.3372 153.578 66.6172 152.434L66.6652 151.57L66.7452 150.082L76.6332 151.586L76.7052 152.194L76.8092 153.066Z" fill="#E2B79F"/>
<path d="M84.4019 137.689C84.4019 144.449 78.9219 153.041 72.1619 153.041C65.4019 153.041 59.9219 144.449 59.9219 137.689C59.9219 130.929 65.4019 125.449 72.1619 125.449C78.9219 125.449 84.4019 130.929 84.4019 137.689Z" fill="#E2B79F"/>
<path d="M78.4817 141.611C78.8794 141.611 79.2017 141.034 79.2017 140.323C79.2017 139.612 78.8794 139.035 78.4817 139.035C78.0841 139.035 77.7617 139.612 77.7617 140.323C77.7617 141.034 78.0841 141.611 78.4817 141.611Z" fill="#111856"/>
<path d="M69.9622 141.611C70.3598 141.611 70.6822 141.034 70.6822 140.323C70.6822 139.612 70.3598 139.035 69.9622 139.035C69.5645 139.035 69.2422 139.612 69.2422 140.323C69.2422 141.034 69.5645 141.611 69.9622 141.611Z" fill="#111856"/>
<path d="M79.984 136.691C79.96 136.691 79.936 136.683 79.912 136.667C78.832 136.019 77.552 136.275 77.136 136.355C77.056 136.371 77 136.379 76.976 136.379C76.896 136.379 76.832 136.315 76.832 136.235C76.832 136.155 76.896 136.091 76.968 136.091C76.984 136.091 77.024 136.083 77.072 136.075C77.52 135.987 78.88 135.715 80.048 136.419C80.112 136.459 80.136 136.547 80.096 136.619C80.08 136.667 80.032 136.691 79.984 136.691Z" fill="#31374C"/>
<path d="M71.4684 136.691C71.4444 136.691 71.4204 136.683 71.3964 136.667C70.3164 136.019 69.0364 136.275 68.6204 136.355C68.5404 136.371 68.4844 136.379 68.4604 136.379C68.3804 136.379 68.3164 136.315 68.3164 136.235C68.3164 136.155 68.3804 136.091 68.4524 136.091C68.4684 136.091 68.5084 136.083 68.5564 136.075C69.0044 135.987 70.3564 135.715 71.5404 136.419C71.6044 136.459 71.6284 136.547 71.5884 136.619C71.5644 136.667 71.5164 136.691 71.4684 136.691Z" fill="#31374C"/>
<path d="M74.2316 145.649C74.1916 145.649 74.1516 145.625 74.1276 145.585C74.0956 145.529 74.1196 145.457 74.1756 145.425C74.3676 145.321 74.8716 144.985 74.8956 144.633C74.9196 144.249 74.4796 142.785 74.3116 142.257C74.2956 142.193 74.3276 142.129 74.3836 142.113C74.4476 142.089 74.5116 142.129 74.5276 142.185C74.5516 142.265 75.1596 144.137 75.1196 144.649C75.0796 145.201 74.3036 145.609 74.2716 145.625C74.2716 145.641 74.2476 145.649 74.2316 145.649Z" fill="#F4AF9F"/>
<path d="M74.1525 148.906C73.1125 148.906 72.2005 148.458 72.1365 148.426C72.0645 148.394 72.0405 148.306 72.0725 148.234C72.1045 148.162 72.1925 148.138 72.2645 148.17C72.2885 148.178 74.4565 149.242 75.8005 148.034C75.8565 147.978 75.9525 147.986 76.0005 148.042C76.0565 148.098 76.0485 148.194 75.9925 148.242C75.4405 148.746 74.7765 148.906 74.1525 148.906Z" fill="#31374C"/>
<path d="M67.122 131.442C67.122 131.962 67.394 132.482 67.834 132.762C68.642 133.274 69.746 132.954 70.61 133.354C71.002 133.538 71.306 133.85 71.682 134.058C72.178 134.346 72.786 134.434 73.346 134.306C74.026 134.154 74.642 133.69 75.338 133.714C75.946 133.738 76.474 134.13 77.026 134.378C77.642 134.658 78.33 134.762 79.002 134.698C79.106 134.69 79.218 134.674 79.306 134.722C79.418 134.778 79.474 134.898 79.522 135.01C79.762 135.562 80.05 136.146 80.57 136.442C80.93 136.65 81.37 136.706 81.674 136.986C82.034 137.322 82.082 137.866 82.154 138.362C82.266 139.154 82.506 139.922 82.85 140.642C82.986 140.922 83.138 141.21 83.138 141.514C83.138 141.754 83.05 141.986 82.978 142.226C82.826 142.746 82.794 143.29 82.874 143.826C82.93 144.186 83.074 145.13 83.498 145.242C83.802 145.322 84.426 144.914 84.706 144.794C84.986 144.674 85.266 144.554 85.546 144.434C85.546 144.434 85.634 133.17 85.546 132.906C85.458 132.642 77.234 123.434 77.234 123.434L63.466 126.114L59.754 133.602L58.418 140.986C59.05 143.402 59.682 145.818 60.314 148.234C60.57 149.202 60.818 150.17 61.074 151.138C61.154 151.434 61.202 151.754 61.306 152.034C61.594 152.794 62.69 152.178 63.09 151.73C63.45 151.338 63.45 150.81 63.738 150.41C64.018 150.026 64.69 149.914 65.066 149.642C65.506 149.322 65.802 148.81 65.858 148.266C65.938 147.426 65.45 146.618 65.434 145.77C65.41 144.93 65.85 144.114 65.786 143.274C65.746 142.714 65.482 142.186 65.482 141.626C65.482 141.178 65.642 140.746 65.69 140.298C65.794 139.242 65.002 138.194 65.482 137.194C66.018 136.074 66.266 134.89 66.01 133.658C65.962 133.426 65.898 133.17 65.994 132.954C66.066 132.794 66.21 132.682 66.33 132.562C66.69 132.218 66.962 131.778 67.098 131.298C67.122 131.338 67.122 131.386 67.122 131.442Z" fill="#111856"/>
<path d="M342.742 109.938L324.334 139.409L305.934 109.938L324.334 115.73L342.742 109.938Z" fill="#111856"/>
<path d="M342.959 107.602L324.335 113.45L305.719 107.602L324.335 77.7695L342.959 107.602Z" fill="#111856"/>
<path d="M324.336 115.73L342.744 109.938L324.336 139.409V115.73Z" fill="#505EA3"/>
<path d="M342.96 107.602L324.336 113.45V77.7695L342.96 107.602Z" fill="#505EA3"/>
<path d="M210.458 63.8072C204.338 63.7752 198.714 60.4232 195.786 55.0552C195.562 54.6552 195.354 54.2392 195.146 53.7672C194.81 52.9912 194.53 52.2152 194.33 51.4632C194.002 50.2632 193.81 49.0312 193.754 47.7912C193.738 47.5032 193.73 47.2152 193.738 46.9272C193.778 37.7032 201.314 30.1992 210.538 30.1992C213.394 30.2152 216.138 30.9192 218.562 32.2312C220.674 33.3752 222.546 34.9912 223.986 36.9032C225.546 38.9832 226.578 41.3192 227.05 43.8472C227.258 44.9192 227.354 45.9992 227.346 47.0712C227.346 47.6152 227.314 48.1672 227.25 48.7592C226.354 57.3352 219.17 63.7992 210.538 63.7992C210.538 63.8072 210.458 63.8072 210.458 63.8072Z" fill="#505EA3"/>
<path d="M210.528 31.1047H210.6C213.232 31.1207 215.824 31.7847 218.12 33.0327C220.112 34.1127 221.888 35.6487 223.248 37.4567C224.728 39.4247 225.704 41.6327 226.152 44.0327C226.344 45.0407 226.44 46.0647 226.432 47.0807C226.432 47.6007 226.4 48.1207 226.344 48.6807C225.496 56.7927 218.696 62.9127 210.528 62.9127H210.456C204.664 62.8887 199.344 59.7127 196.56 54.6167C196.36 54.2567 196.168 53.8647 195.968 53.4167C195.648 52.6807 195.384 51.9447 195.192 51.2247C194.88 50.0967 194.696 48.9287 194.648 47.7447C194.632 47.4807 194.632 47.2087 194.632 46.9367C194.672 38.2007 201.8 31.1047 210.528 31.1047ZM210.528 29.3047C200.784 29.3047 192.872 37.1767 192.824 46.9287C192.824 47.2327 192.832 47.5367 192.848 47.8407C192.904 49.1767 193.12 50.4727 193.456 51.7127C193.68 52.5447 193.976 53.3607 194.32 54.1447C194.528 54.6087 194.744 55.0647 194.992 55.5047C197.976 60.9687 203.776 64.6887 210.448 64.7207C210.472 64.7207 210.504 64.7207 210.528 64.7207C219.664 64.7207 227.2 57.7927 228.136 48.8727C228.2 48.2887 228.232 47.6967 228.232 47.0967C228.24 45.9287 228.128 44.8007 227.92 43.6967C227.408 40.9847 226.28 38.4967 224.688 36.3767C223.168 34.3527 221.216 32.6647 218.976 31.4487C216.488 30.0887 213.64 29.3207 210.608 29.3047C210.584 29.3047 210.56 29.3047 210.528 29.3047Z" fill="#E6EDFC"/>
<path d="M225.834 42.9C225.322 40.188 224.194 37.7 222.602 35.58C221.082 33.556 219.13 31.868 216.89 30.652C214.402 29.292 211.554 28.524 208.522 28.508C198.738 28.46 190.778 36.348 190.738 46.132C190.738 46.436 190.746 46.74 190.762 47.044C190.818 48.38 191.034 49.676 191.37 50.916C191.594 51.748 191.89 52.564 192.234 53.348C192.442 53.812 192.658 54.268 192.906 54.708C195.89 60.172 201.69 63.892 208.362 63.924C217.53 63.964 225.114 57.02 226.05 48.076C226.114 47.492 226.146 46.9 226.146 46.3C226.154 45.132 226.042 44.004 225.834 42.9Z" fill="#D64E12"/>
<path d="M222.673 43.4988C222.257 41.2828 221.337 39.2428 220.033 37.5068C218.793 35.8508 217.193 34.4748 215.361 33.4748C213.321 32.3628 210.993 31.7308 208.513 31.7228C200.505 31.6828 193.993 38.1388 193.953 46.1468C193.953 46.3948 193.961 46.6508 193.969 46.8908C194.017 47.9868 194.193 49.0428 194.465 50.0588C194.649 50.7388 194.889 51.4028 195.169 52.0508C195.337 52.4268 195.521 52.8028 195.721 53.1628C198.161 57.6348 202.905 60.6828 208.369 60.7068C215.873 60.7388 222.081 55.0588 222.849 47.7388C222.897 47.2588 222.929 46.7788 222.929 46.2828C222.937 45.3308 222.849 44.4028 222.673 43.4988Z" fill="#E6EDFC"/>
<path d="M213.457 59.3336C220.709 56.5641 224.343 48.4401 221.574 41.188C218.804 33.9359 210.68 30.3019 203.428 33.0714C196.176 35.8409 192.542 43.9649 195.311 51.217C198.081 58.4691 206.205 62.103 213.457 59.3336Z" fill="#505EA3"/>
<path d="M214.91 49.1758C214.91 51.1598 213.334 52.3038 210.326 52.3038H204.398V40.8398H209.998C212.862 40.8398 214.342 42.0398 214.342 43.8238C214.342 44.9678 213.75 45.8558 212.822 46.3438C214.094 46.7518 214.91 47.7358 214.91 49.1758ZM207.038 42.8398V45.5438H209.678C210.974 45.5438 211.678 45.0878 211.678 44.1838C211.678 43.2798 210.974 42.8398 209.678 42.8398H207.038ZM212.246 48.8958C212.246 47.9278 211.51 47.4718 210.134 47.4718H207.038V50.3038H210.134C211.51 50.3038 212.246 49.8798 212.246 48.8958Z" fill="white"/>
<path d="M206.57 38.8086H205.426V41.4726H206.57V38.8086Z" fill="white"/>
<path d="M208.847 38.8086H207.703V41.4726H208.847V38.8086Z" fill="white"/>
<path d="M206.57 51.6641H205.426V54.3281H206.57V51.6641Z" fill="white"/>
<path d="M208.847 51.6641H207.703V54.3281H208.847V51.6641Z" fill="white"/>
<path d="M204.394 40.8398H202.754V42.7438H204.394V40.8398Z" fill="white"/>
<path d="M204.394 50.3984H202.754V52.3024H204.394V50.3984Z" fill="white"/>
<path d="M326.222 183.129C317.798 183.105 310.926 189.929 310.902 198.353C310.878 206.777 317.702 213.649 326.126 213.673C334.55 213.697 341.422 206.873 341.446 198.449C341.47 190.025 334.638 183.153 326.222 183.129ZM326.214 184.865C327.278 185.977 329.766 188.881 331.07 192.977C327.822 193.913 324.542 193.889 321.318 192.897C322.654 188.833 325.15 185.961 326.214 184.865ZM331.358 202.449C327.894 201.449 324.406 201.449 320.966 202.457C320.206 199.449 320.342 196.689 320.926 194.281C322.694 194.817 324.47 195.105 326.254 195.113C327.982 195.121 329.718 194.857 331.446 194.361C332.006 196.753 332.118 199.481 331.358 202.449ZM330.942 203.833C330.078 206.369 328.55 209.057 326.126 211.841C323.734 209.057 322.222 206.369 321.374 203.841C324.542 202.921 327.758 202.913 330.942 203.833ZM332.758 193.945C334.566 193.297 336.31 192.393 337.982 191.241C339.262 193.345 340.014 195.809 340.006 198.449C339.998 201.089 339.23 203.545 337.942 205.641C336.278 204.473 334.526 203.553 332.718 202.897C333.55 199.617 333.398 196.585 332.758 193.945ZM337.166 190.049C335.63 191.113 334.014 191.953 332.358 192.553C331.214 188.985 329.262 186.241 327.974 184.705C331.718 185.193 334.982 187.177 337.166 190.049ZM324.446 184.689C323.158 186.209 321.206 188.913 320.038 192.449C318.438 191.841 316.854 190.985 315.286 189.897C317.486 187.089 320.742 185.153 324.446 184.689ZM314.462 191.081C316.158 192.265 317.894 193.193 319.63 193.849C318.958 196.521 318.774 199.585 319.614 202.913C317.87 203.561 316.126 204.473 314.414 205.649C313.102 203.529 312.334 201.033 312.342 198.353C312.35 195.681 313.134 193.193 314.462 191.081ZM315.238 206.833C316.814 205.753 318.422 204.897 320.022 204.297C320.846 206.785 322.262 209.409 324.462 212.113C320.71 211.649 317.438 209.681 315.238 206.833ZM327.798 212.121C330.03 209.409 331.462 206.777 332.302 204.281C333.95 204.889 335.59 205.753 337.11 206.825C334.894 209.697 331.582 211.681 327.798 212.121Z" fill="#111856"/>
<path d="M8.04944 293.357C7.84944 293.357 7.65744 293.285 7.52144 293.149C7.36144 293.005 7.28144 292.813 7.27344 292.613V292.509V267.477C7.27344 266.909 7.73744 266.445 8.30544 266.445H48.9854C49.5534 266.445 50.0174 266.909 50.0174 267.477V292.605C50.0094 292.813 49.9294 293.005 49.7774 293.141C49.6254 293.285 49.4414 293.357 49.2414 293.357H8.04944Z" fill="#B9D4F3"/>
<path d="M48.977 267.253C49.097 267.253 49.201 267.357 49.201 267.477V292.501V292.549H8.08903V292.413V267.485C8.08903 267.365 8.19303 267.261 8.31303 267.261H48.977M48.977 265.629H8.29703C7.28103 265.629 6.45703 266.453 6.45703 267.469V292.565C6.45703 292.581 6.45703 292.597 6.46503 292.613C6.47303 293.045 6.66503 293.445 6.96103 293.725C7.24103 293.997 7.63303 294.157 8.04903 294.157H49.225C49.649 294.157 50.033 293.989 50.313 293.725C50.609 293.445 50.801 293.053 50.809 292.621C50.817 292.605 50.817 292.581 50.817 292.565V267.469C50.817 266.461 49.993 265.629 48.977 265.629Z" fill="white"/>
<path d="M8.05147 293.357C7.85147 293.357 7.65947 293.285 7.52347 293.149C7.45147 293.085 7.39547 293.005 7.35547 292.925L28.6195 274.461L49.9235 292.933C49.8835 293.013 49.8275 293.085 49.7635 293.141C49.6115 293.285 49.4275 293.357 49.2275 293.357H8.05147Z" fill="#B9D4F3"/>
<path d="M28.617 275.527L48.241 292.543H9.02503L28.617 275.527ZM28.617 273.383L6.45703 292.623C6.46503 293.055 6.65703 293.455 6.95303 293.735C7.23303 294.007 7.62503 294.167 8.04103 294.167H49.217C49.641 294.167 50.025 293.999 50.305 293.735C50.601 293.455 50.793 293.063 50.801 292.631L28.617 273.383Z" fill="white"/>
<path d="M7.26562 269.853V267.477C7.26562 266.909 7.72962 266.445 8.29762 266.445H48.9776C49.5456 266.445 50.0096 266.909 50.0096 267.477V269.845L28.6176 287.237L7.26562 269.853Z" fill="#B9D4F3"/>
<path d="M48.977 267.253C49.097 267.253 49.201 267.349 49.201 267.477V269.461L28.617 286.197L8.08103 269.469V267.477C8.08103 267.357 8.17703 267.253 8.30503 267.253H48.977ZM48.977 265.629H8.29703C7.28103 265.629 6.45703 266.453 6.45703 267.469V270.229L28.609 288.277L50.817 270.221V267.469C50.817 266.453 49.993 265.629 48.977 265.629Z" fill="white"/>
<path d="M330.302 163.671C332.361 163.671 334.03 162.002 334.03 159.943C334.03 157.884 332.361 156.215 330.302 156.215C328.243 156.215 326.574 157.884 326.574 159.943C326.574 162.002 328.243 163.671 330.302 163.671Z" fill="#B9D4F3"/>
<path d="M42.0171 332.487C44.076 332.487 45.7451 330.818 45.7451 328.759C45.7451 326.7 44.076 325.031 42.0171 325.031C39.9581 325.031 38.2891 326.7 38.2891 328.759C38.2891 330.818 39.9581 332.487 42.0171 332.487Z" fill="#B9D4F3"/>
<path d="M114.271 58.2568C116.33 58.2568 117.999 56.5877 117.999 54.5288C117.999 52.4699 116.33 50.8008 114.271 50.8008C112.212 50.8008 110.543 52.4699 110.543 54.5288C110.543 56.5877 112.212 58.2568 114.271 58.2568Z" fill="#B9D4F3"/>
<path d="M41.2089 156.793C42.4505 156.793 43.4569 155.786 43.4569 154.545C43.4569 153.303 42.4505 152.297 41.2089 152.297C39.9674 152.297 38.9609 153.303 38.9609 154.545C38.9609 155.786 39.9674 156.793 41.2089 156.793Z" fill="#B9D4F3"/>
<path d="M293.494 54.4257C294.736 54.4257 295.742 53.4192 295.742 52.1777C295.742 50.9362 294.736 49.9297 293.494 49.9297C292.253 49.9297 291.246 50.9362 291.246 52.1777C291.246 53.4192 292.253 54.4257 293.494 54.4257Z" fill="#B9D4F3"/>
<g opacity="0.7">
<path d="M76.2706 74.2383H50.5586V77.4703H76.2706V74.2383Z" fill="#B9D4F3"/>
<path d="M91.8781 74.2383H79.2461V77.4703H91.8781V74.2383Z" fill="#B9D4F3"/>
</g>
<path opacity="0.7" d="M66.7746 85.3281H50.5586V88.5601H66.7746V85.3281Z" fill="#B9D4F3"/>
<path opacity="0.7" d="M91.8704 85.3281H69.5664V88.5601H91.8704V85.3281Z" fill="#B9D4F3"/>
<g opacity="0.7">
<path d="M55.2066 96.3242H50.5586V99.5562H55.2066V96.3242Z" fill="#B9D4F3"/>
<path d="M91.7204 96.5078H57.8164V99.7398H91.7204V96.5078Z" fill="#B9D4F3"/>
</g>
<defs>
<linearGradient id="paint0_linear_556_1321" x1="102.427" y1="201.052" x2="106.53" y2="201.052" gradientUnits="userSpaceOnUse">
<stop stop-color="#E2F4FF"/>
<stop offset="1" stop-color="#D7ECFF"/>
</linearGradient>
</defs>
</svg>
