<svg width="70" height="92" viewBox="0 0 70 92" fill="none" xmlns="http://www.w3.org/2000/svg">
<g filter="url(#filter0_b_554_2917)">
<rect width="70" height="70" rx="35" fill="#37CBF9"/>
<rect x="0.460526" y="0.460526" width="69.0789" height="69.0789" rx="34.5395" stroke="#847C7C" stroke-width="0.921053"/>
<g clip-path="url(#clip0_554_2917)">
<path d="M15.6484 24.2188V49.3971C15.6484 51.3351 17.2196 52.9062 19.1576 52.9062H52.0156C53.9536 52.9062 55.5247 51.3351 55.5247 49.3971V24.2188H15.6484Z" fill="#E0EBFC"/>
<path d="M52.0156 15.9336H19.1576C17.2196 15.9336 15.6484 17.5047 15.6484 19.4427V24.2183H55.5247V19.4427C55.5247 17.5046 53.9536 15.9336 52.0156 15.9336Z" fill="#105050"/>
<path d="M41.2503 21.7166H39.2396C39.0704 21.7166 38.9081 21.6494 38.7884 21.5297C38.6688 21.4101 38.6016 21.2478 38.6016 21.0786V19.0677C38.6016 18.8985 38.6688 18.7362 38.7884 18.6166C38.9081 18.4969 39.0704 18.4297 39.2396 18.4297H41.2503C41.4195 18.4297 41.5818 18.4969 41.7015 18.6166C41.8211 18.7362 41.8883 18.8985 41.8883 19.0677V21.0784C41.8883 21.1622 41.8719 21.2452 41.8398 21.3226C41.8078 21.4001 41.7608 21.4704 41.7015 21.5297C41.6423 21.5889 41.5719 21.636 41.4945 21.668C41.4171 21.7001 41.3341 21.7166 41.2503 21.7166ZM46.4216 21.7166H44.4109C44.2417 21.7166 44.0794 21.6494 43.9598 21.5297C43.8401 21.4101 43.7729 21.2478 43.7729 21.0786V19.0677C43.7729 18.8985 43.8401 18.7362 43.9598 18.6166C44.0794 18.4969 44.2417 18.4297 44.4109 18.4297H46.4216C46.5908 18.4297 46.7531 18.4969 46.8728 18.6166C46.9924 18.7362 47.0596 18.8985 47.0596 19.0677V21.0784C47.0597 21.1622 47.0432 21.2452 47.0111 21.3226C46.9791 21.4001 46.9321 21.4704 46.8728 21.5297C46.8136 21.5889 46.7432 21.636 46.6658 21.668C46.5884 21.7001 46.5054 21.7166 46.4216 21.7166ZM51.5929 21.7166H49.5822C49.413 21.7166 49.2507 21.6494 49.1311 21.5297C49.0114 21.4101 48.9442 21.2478 48.9442 21.0786V19.0677C48.9442 18.8985 49.0114 18.7362 49.1311 18.6166C49.2507 18.4969 49.413 18.4297 49.5822 18.4297H51.5929C51.7622 18.4297 51.9244 18.4969 52.0441 18.6166C52.1637 18.7362 52.231 18.8985 52.231 19.0677V21.0784C52.231 21.1622 52.2145 21.2452 52.1824 21.3226C52.1504 21.4001 52.1034 21.4704 52.0441 21.5297C51.9849 21.5889 51.9146 21.636 51.8371 21.668C51.7597 21.7001 51.6767 21.7166 51.5929 21.7166Z" fill="#FFEA92"/>
<path d="M35.5834 51.155C42.5416 51.155 48.1824 45.5143 48.1824 38.556C48.1824 31.5978 42.5416 25.957 35.5834 25.957C28.6251 25.957 22.9844 31.5978 22.9844 38.556C22.9844 45.5143 28.6251 51.155 35.5834 51.155Z" fill="#A4C9FF"/>
<path d="M35.5859 51.4768C31.3643 51.4768 27.9297 45.6818 27.9297 38.5588C27.9297 31.4358 31.3643 25.6406 35.5859 25.6406C39.8076 25.6406 43.2422 31.4358 43.2422 38.5588C43.2422 45.6818 39.8076 51.4768 35.5859 51.4768ZM35.5859 26.2786C31.716 26.2786 28.5677 31.7875 28.5677 38.5588C28.5677 45.3301 31.716 50.8388 35.5859 50.8388C39.4559 50.8388 42.6042 45.3299 42.6042 38.5588C42.6042 31.7876 39.4559 26.2786 35.5859 26.2786Z" fill="#3762CC"/>
<path d="M35.5846 51.4768C35.5 51.4768 35.4189 51.4432 35.3591 51.3834C35.2992 51.3235 35.2656 51.2424 35.2656 51.1578V25.9596C35.2656 25.875 35.2992 25.7939 35.3591 25.7341C35.4189 25.6742 35.5 25.6406 35.5846 25.6406C35.6692 25.6406 35.7504 25.6742 35.8102 25.7341C35.87 25.7939 35.9036 25.875 35.9036 25.9596V51.1578C35.9036 51.2424 35.87 51.3235 35.8102 51.3834C35.7504 51.4432 35.6692 51.4768 35.5846 51.4768Z" fill="#3762CC"/>
<path d="M43.6312 48.5678C43.5567 48.5679 43.4845 48.5419 43.4273 48.4941C41.2295 46.6667 38.4433 45.6604 35.5819 45.6604C32.7205 45.6604 29.9343 46.6668 27.7365 48.4941C27.6711 48.5457 27.5883 48.5696 27.5055 48.5609C27.4228 48.5522 27.3467 48.5116 27.2935 48.4476C27.2403 48.3836 27.2141 48.3014 27.2207 48.2184C27.2272 48.1355 27.2659 48.0584 27.3285 48.0035C29.6407 46.0811 32.5717 45.0223 35.5818 45.0223C38.5918 45.0223 41.523 46.0811 43.835 48.0035C43.8854 48.0455 43.9216 48.1019 43.9387 48.1652C43.9559 48.2284 43.9531 48.2954 43.9308 48.3571C43.9086 48.4187 43.8679 48.472 43.8143 48.5097C43.7606 48.5474 43.6967 48.5677 43.6312 48.5678ZM35.5821 32.0922C32.5719 32.0922 29.6408 31.0334 27.3288 29.1111C27.2656 29.0564 27.2264 28.9792 27.2196 28.8959C27.2127 28.8127 27.2388 28.7301 27.2922 28.6658C27.3456 28.6016 27.4221 28.5609 27.5052 28.5524C27.5883 28.544 27.6714 28.5684 27.7366 28.6206C29.9343 30.4479 32.7205 31.4544 35.5821 31.4544C38.4436 31.4544 41.2298 30.4479 43.4275 28.6206C43.4597 28.5938 43.4969 28.5736 43.5369 28.5612C43.5769 28.5488 43.6189 28.5444 43.6606 28.5482C43.7023 28.5521 43.7429 28.5641 43.78 28.5836C43.817 28.6031 43.8499 28.6297 43.8767 28.6619C43.9034 28.6941 43.9236 28.7313 43.936 28.7713C43.9484 28.8113 43.9529 28.8533 43.949 28.895C43.9452 28.9367 43.9332 28.9773 43.9137 29.0144C43.8942 29.0514 43.8676 29.0843 43.8353 29.1111C41.5233 31.0334 38.5923 32.0922 35.5821 32.0922ZM48.1811 38.8763H22.9831C22.8985 38.8763 22.8173 38.8427 22.7575 38.7829C22.6977 38.723 22.6641 38.6419 22.6641 38.5573C22.6641 38.4727 22.6977 38.3915 22.7575 38.3317C22.8173 38.2719 22.8985 38.2383 22.9831 38.2383H48.1812C48.2658 38.2383 48.347 38.2719 48.4068 38.3318C48.4666 38.3916 48.5002 38.4728 48.5002 38.5574C48.5001 38.642 48.4665 38.7231 48.4067 38.7829C48.3468 38.8427 48.2657 38.8763 48.1811 38.8763Z" fill="#3762CC"/>
<path d="M35.5821 51.4768C28.459 51.4768 22.6641 45.6818 22.6641 38.5588C22.6641 31.4358 28.459 25.6406 35.5821 25.6406C42.7051 25.6406 48.5001 31.4358 48.5001 38.5588C48.5001 45.6818 42.7051 51.4768 35.5821 51.4768ZM35.5821 26.2786C28.8108 26.2786 23.3021 31.7875 23.3021 38.5588C23.3021 45.3301 28.8108 50.8388 35.5821 50.8388C42.3534 50.8388 47.8621 45.3299 47.8621 38.5588C47.8621 31.7876 42.3534 26.2786 35.5821 26.2786Z" fill="#3762CC"/>
<path d="M49.5008 42.4699H38.409C38.0933 42.4699 37.7906 42.3445 37.5674 42.1213C37.3441 41.8981 37.2188 41.5953 37.2188 41.2797V35.7254C37.2188 35.4097 37.3441 35.107 37.5674 34.8838C37.7906 34.6606 38.0933 34.5352 38.409 34.5352H49.5008C49.8165 34.5352 50.1192 34.6606 50.3424 34.8838C50.5656 35.107 50.691 35.4097 50.691 35.7254V41.2797C50.691 41.5953 50.5656 41.8981 50.3424 42.1213C50.1192 42.3445 49.8165 42.4699 49.5008 42.4699Z" fill="#01256E"/>
<path d="M41.5577 35.5156H39.8613C39.7344 35.5156 39.6127 35.566 39.523 35.6558C39.4332 35.7455 39.3828 35.8672 39.3828 35.9941C39.3828 36.1211 39.4332 36.2428 39.523 36.3325C39.6127 36.4222 39.7344 36.4727 39.8613 36.4727H41.5577C41.6806 36.4728 41.7986 36.5217 41.8855 36.6087C41.9725 36.6956 42.0214 36.8135 42.0215 36.9365C42.0214 37.0595 41.9725 37.1774 41.8855 37.2643C41.7986 37.3513 41.6806 37.4002 41.5577 37.4003H40.8037C40.6768 37.4003 40.5551 37.4508 40.4653 37.5405C40.3756 37.6302 40.3252 37.7519 40.3252 37.8789C40.3252 38.0058 40.3756 38.1275 40.4653 38.2172C40.5551 38.307 40.6768 38.3574 40.8037 38.3574H41.5577C41.6806 38.3575 41.7986 38.4064 41.8855 38.4934C41.9725 38.5803 42.0214 38.6982 42.0215 38.8212V39.9521C42.0214 40.0751 41.9725 40.193 41.8856 40.28C41.7986 40.367 41.6807 40.4159 41.5577 40.4159H39.8613C39.7344 40.4159 39.6127 40.4664 39.523 40.5561C39.4332 40.6458 39.3828 40.7675 39.3828 40.8945C39.3828 41.0214 39.4332 41.1431 39.523 41.2328C39.6127 41.3226 39.7344 41.373 39.8613 41.373H41.5577C42.3412 41.373 42.9785 40.7356 42.9785 39.9521V38.8212C42.9784 38.4735 42.8501 38.138 42.6182 37.8789C42.8501 37.6197 42.9784 37.2842 42.9785 36.9365C42.9784 36.153 42.341 35.5156 41.5577 35.5156ZM47.9561 35.8083C47.9443 35.7991 47.9328 35.7895 47.9199 35.7812C47.6797 35.6085 47.3914 35.5156 47.0957 35.5156H46.3419C45.5584 35.5156 44.921 36.153 44.921 36.9365V39.9521C44.921 40.4121 45.1417 40.8204 45.4817 41.0803C45.4935 41.0895 45.5049 41.0991 45.5179 41.1072C45.758 41.2799 46.0463 41.3728 46.342 41.3728H47.0958C47.8793 41.3728 48.5167 40.7354 48.5167 39.9519V36.9363C48.5167 36.4766 48.2961 36.0681 47.9561 35.8083ZM46.342 36.4727H47.0222L45.8782 39.2181V36.9365C45.8784 36.8135 45.9273 36.6956 46.0142 36.6087C46.1012 36.5217 46.2191 36.4728 46.342 36.4727ZM47.0958 40.4159H46.4159L47.5598 37.6705V39.9521C47.5597 40.0751 47.5107 40.193 47.4237 40.28C47.3368 40.3669 47.2188 40.4158 47.0958 40.4159Z" fill="#E0EBFC"/>
<path d="M43.9533 41.4262C44.2469 41.4262 44.4848 41.1883 44.4848 40.8948C44.4848 40.6012 44.2469 40.3633 43.9533 40.3633C43.6598 40.3633 43.4219 40.6012 43.4219 40.8948C43.4219 41.1883 43.6598 41.4262 43.9533 41.4262Z" fill="#E0EBFC"/>
<path d="M49.5034 42.7875H38.4116C37.5794 42.7875 36.9023 42.1104 36.9023 41.2782V35.7241C36.9023 34.8919 37.5794 34.2148 38.4116 34.2148H49.5034C50.3356 34.2148 51.0127 34.8919 51.0127 35.7241V41.2782C51.0127 42.1104 50.3356 42.7875 49.5034 42.7875ZM38.4116 34.8529C38.1806 34.8531 37.9591 34.945 37.7958 35.1083C37.6325 35.2716 37.5406 35.4931 37.5404 35.7241V41.2782C37.5406 41.5092 37.6325 41.7306 37.7958 41.894C37.9591 42.0573 38.1806 42.1492 38.4116 42.1494H49.5034C49.7344 42.1492 49.9558 42.0573 50.1192 41.894C50.2825 41.7306 50.3744 41.5092 50.3746 41.2782V35.7241C50.3744 35.4931 50.2825 35.2716 50.1192 35.1083C49.9558 34.945 49.7344 34.8531 49.5034 34.8529H38.4116Z" fill="#3762CC"/>
<path d="M52.0143 53.2239H19.1563C17.0454 53.2239 15.3281 51.5066 15.3281 49.3958V24.2174C15.3281 24.1328 15.3617 24.0517 15.4216 23.9919C15.4814 23.932 15.5625 23.8984 15.6471 23.8984H55.5234C55.608 23.8984 55.6892 23.932 55.749 23.9919C55.8088 24.0517 55.8424 24.1328 55.8424 24.2174V49.3958C55.8424 51.5067 54.1252 53.2239 52.0143 53.2239ZM15.9661 24.5365V49.3958C15.9661 51.1548 17.3972 52.5859 19.1563 52.5859H52.0143C53.7733 52.5859 55.2044 51.1548 55.2044 49.3958V24.5365H15.9661Z" fill="#3762CC"/>
<path d="M55.5234 24.536H15.6471C15.5625 24.536 15.4814 24.5024 15.4216 24.4426C15.3617 24.3827 15.3281 24.3016 15.3281 24.217V19.4414C15.3281 17.3307 17.0454 15.6133 19.1563 15.6133H52.0143C54.1252 15.6133 55.8424 17.3307 55.8424 19.4414V24.217C55.8424 24.3016 55.8088 24.3827 55.749 24.4426C55.6892 24.5024 55.608 24.536 55.5234 24.536ZM15.9661 23.898H55.2044V19.4414C55.2044 17.6824 53.7733 16.2513 52.0143 16.2513H19.1563C17.3972 16.2513 15.9661 17.6824 15.9661 19.4414V23.898Z" fill="#3762CC"/>
<path d="M41.2568 22.0342H39.2461C38.7183 22.0342 38.2891 21.6049 38.2891 21.0771V19.0664C38.2891 18.5386 38.7183 18.1094 39.2461 18.1094H41.2568C41.7846 18.1094 42.2138 18.5386 42.2138 19.0664V21.0771C42.2138 21.6049 41.7845 22.0342 41.2568 22.0342ZM39.2459 18.7474C39.07 18.7474 38.9269 18.8905 38.9269 19.0664V21.0771C38.9269 21.2531 39.07 21.3961 39.2459 21.3961H41.2567C41.4326 21.3961 41.5757 21.2531 41.5757 21.0771V19.0664C41.5757 18.8905 41.4326 18.7474 41.2567 18.7474H39.2459ZM46.428 22.0342H44.4173C43.8894 22.0342 43.4602 21.6049 43.4602 21.0771V19.0664C43.4602 18.5386 43.8894 18.1094 44.4173 18.1094H46.428C46.9558 18.1094 47.385 18.5386 47.385 19.0664V21.0771C47.385 21.6049 46.9558 22.0342 46.428 22.0342ZM44.4173 18.7474C44.2413 18.7474 44.0982 18.8905 44.0982 19.0664V21.0771C44.0982 21.2531 44.2413 21.3961 44.4173 21.3961H46.428C46.6039 21.3961 46.747 21.2531 46.747 21.0771V19.0664C46.747 18.8905 46.6039 18.7474 46.428 18.7474H44.4173ZM51.5993 22.0342H49.5886C49.0608 22.0342 48.6315 21.6049 48.6315 21.0771V19.0664C48.6315 18.5386 49.0608 18.1094 49.5886 18.1094H51.5993C52.1271 18.1094 52.5563 18.5386 52.5563 19.0664V21.0771C52.5563 21.6049 52.1269 22.0342 51.5993 22.0342ZM49.5884 18.7474C49.4125 18.7474 49.2694 18.8905 49.2694 19.0664V21.0771C49.2694 21.2531 49.4125 21.3961 49.5884 21.3961H51.5991C51.7751 21.3961 51.9181 21.2531 51.9181 21.0771V19.0664C51.9181 18.8905 51.7751 18.7474 51.5991 18.7474H49.5884Z" fill="#3762CC"/>
</g>
</g>
<path d="M26.5615 77.2114H28.0996C28.0996 77.2114 27.9751 77.6802 27.7261 78.625C27.4771 79.5698 27.1914 80.6611 26.8545 81.9062C26.5249 83.144 26.2173 84.2646 25.939 85.2754C25.6606 86.2788 25.4702 86.894 25.3823 87.1064C25.1992 87.4873 24.9429 87.7437 24.6279 87.8755C24.313 88.0073 23.9907 88.022 23.6831 87.9121C23.3682 87.8022 23.1191 87.5679 22.9507 87.209C22.7676 86.7988 22.6138 86.3521 22.4746 85.8687C22.3428 85.3853 22.2402 84.9678 22.1597 84.6016C22.0864 84.2427 22.0498 84.0669 22.0498 84.0669C22.0498 84.0669 22.0205 84.1914 21.9619 84.4331C21.9033 84.6821 21.8228 84.9824 21.7349 85.334C21.647 85.6782 21.5518 86.0151 21.4565 86.3447C21.3613 86.6743 21.2734 86.9233 21.1929 87.1064C21.0024 87.4873 20.7534 87.7437 20.4385 87.8755C20.1162 88.0073 19.8013 88.022 19.4863 87.9121C19.1714 87.8022 18.9297 87.5679 18.7539 87.209C18.6147 86.8721 18.395 86.1836 18.1021 85.1509C17.8091 84.1108 17.5015 82.9829 17.1792 81.7671C16.8569 80.5513 16.5786 79.4819 16.3516 78.5737C16.1172 77.6655 16 77.2114 16 77.2114H17.5308L19.9551 86.4839L22.0498 79.5625L24.1445 86.4839L26.5615 77.2114ZM35.8193 84.3452H34.3618L29.418 84.3379C29.5059 84.9678 29.7695 85.4951 30.2236 85.9053C30.6851 86.3154 31.2344 86.5352 31.8936 86.5498C32.355 86.5425 32.8604 86.4546 33.395 86.2861C33.937 86.125 34.3691 85.9126 34.7134 85.6709H34.7207L35.5044 86.8208C34.8599 87.2676 34.252 87.5752 33.688 87.751C33.124 87.9268 32.5234 88.0073 31.8862 88C30.8242 87.978 29.9233 87.6191 29.1982 86.9307C28.4658 86.2495 28.0557 85.3779 27.9604 84.3306C27.9531 84.2427 27.9531 84.1548 27.9531 84.0596C27.9531 83.6421 28.019 83.2539 28.1362 82.873C28.3999 82.0601 28.8687 81.4082 29.5425 80.9028C30.2163 80.3975 31 80.1411 31.8936 80.1265C32.7871 80.1411 33.5708 80.3975 34.2446 80.9028C34.9111 81.4082 35.3799 82.0674 35.6509 82.8804C35.7681 83.2539 35.8267 83.6494 35.8267 84.0669C35.8267 84.1548 35.8267 84.25 35.8193 84.3452ZM29.8647 82.7339L34.23 82.7412C34.0176 82.3457 33.7173 82.0308 33.3364 81.7964C32.9556 81.562 32.5234 81.4448 32.0474 81.4375C31.5713 81.4375 31.1392 81.562 30.7583 81.7964C30.3774 82.0308 30.0771 82.3457 29.8647 82.7339ZM41.1074 80.1191C41.8325 80.1191 42.4917 80.2949 43.085 80.6465C43.6855 81.0054 44.1616 81.4814 44.5132 82.0747C44.8721 82.6753 45.0479 83.3345 45.0479 84.0596C45.0479 84.7773 44.8721 85.4438 44.5132 86.0371C44.1616 86.6377 43.6855 87.1064 43.085 87.4653C42.4917 87.8169 41.8325 88 41.1074 88C40.6313 88 40.1846 87.9194 39.7671 87.7656C39.3423 87.6045 38.9614 87.3921 38.6172 87.1064V88H37.1523V77.2188H38.6025L38.6099 81.0127C38.9541 80.7271 39.335 80.5073 39.7598 80.3535C40.1846 80.1924 40.6313 80.1191 41.1074 80.1191ZM41.1074 86.5425C41.7959 86.5425 42.3818 86.3008 42.8652 85.8174C43.356 85.3267 43.5977 84.7407 43.5977 84.0596C43.5977 83.3711 43.356 82.7852 42.8652 82.2944C42.3818 81.811 41.7959 81.5693 41.1074 81.5693C40.4189 81.5693 39.833 81.811 39.3496 82.2944C38.8589 82.7852 38.6172 83.3711 38.6172 84.0596C38.6172 84.7407 38.8589 85.3267 39.3496 85.8174C39.833 86.3008 40.4189 86.5425 41.1074 86.5425ZM52.5845 80.3682C52.5845 80.8296 52.4893 81.2617 52.2915 81.6572C52.1011 82.0527 51.8374 82.397 51.5005 82.6826C52.1816 83.2612 52.5405 84.001 52.5845 84.9165C52.5845 84.9312 52.5845 84.9458 52.5845 84.9604C52.5845 85.3999 52.4966 85.8027 52.3135 86.1836C52.1377 86.5645 51.8887 86.894 51.5811 87.1724C51.5737 87.1797 51.5664 87.187 51.5591 87.1943C51.5225 87.2236 51.4932 87.2456 51.4565 87.2749C51.4419 87.2896 51.4199 87.3042 51.3979 87.3188C51.376 87.3408 51.3613 87.3555 51.3394 87.3701C51.332 87.3701 51.332 87.3774 51.3247 87.3774C51.3247 87.3848 51.3174 87.3848 51.3174 87.3848C51.2808 87.4067 51.2515 87.4287 51.2222 87.4507C51.2075 87.458 51.1929 87.4653 51.1855 87.4727C51.1782 87.48 51.1709 87.48 51.1709 87.4873C51.1636 87.4873 51.1562 87.4946 51.1489 87.502C51.1343 87.5093 51.127 87.5093 51.1196 87.5166C50.6069 87.8389 50.0283 88 49.3691 88.0146C49.2666 88.0146 49.1641 88.0146 49.0615 88.0073C49.0542 88.0073 49.0542 88.0073 49.0542 88C48.439 87.9634 47.9263 87.8535 47.5088 87.6851C47.0913 87.5093 46.7104 87.2676 46.3662 86.9526L47.1792 85.7954C47.2964 85.876 47.4209 85.9492 47.5527 86.0225C47.8677 86.2129 48.1533 86.3447 48.4097 86.4253C48.6733 86.5132 48.9736 86.5571 49.3252 86.5645C49.3472 86.5645 49.3691 86.5645 49.3984 86.5645C49.4131 86.5645 49.4277 86.5645 49.4497 86.5645C49.457 86.5645 49.4717 86.5645 49.4863 86.5645C49.4937 86.5645 49.501 86.5645 49.501 86.5571C49.5229 86.5571 49.5449 86.5571 49.5669 86.5571C49.5815 86.5571 49.6035 86.5498 49.6182 86.5498C49.9038 86.5132 50.1602 86.418 50.3799 86.2642C50.3872 86.2642 50.3872 86.2642 50.3945 86.2568C50.856 85.9126 51.0903 85.4805 51.0903 84.9604C51.0903 84.5942 50.9658 84.272 50.7168 83.9863C50.4751 83.7007 50.1528 83.5176 49.7573 83.4297C49.7061 83.4224 49.6328 83.415 49.5522 83.415C49.4644 83.4077 49.3765 83.4077 49.2959 83.4077C49.208 83.4077 49.1274 83.4077 49.0688 83.415C49.0103 83.415 48.981 83.415 48.981 83.415L48.9883 81.9648C48.9883 81.9648 49.0469 81.9648 49.1787 81.9648C49.3032 81.9648 49.479 81.9502 49.6987 81.9282C50.1089 81.8696 50.4385 81.6938 50.6948 81.3936C50.9512 81.0933 51.0757 80.749 51.0757 80.3682C51.0757 79.9727 50.9438 79.6211 50.6802 79.3135C50.4165 79.0059 50.0796 78.8154 49.6621 78.7422C49.6475 78.7422 49.6328 78.7349 49.6182 78.7349C49.5889 78.7349 49.5522 78.7275 49.5229 78.7275C49.501 78.7275 49.4717 78.7202 49.4497 78.7202C49.4277 78.7202 49.4131 78.7202 49.3984 78.7202C49.3691 78.7202 49.3472 78.7202 49.3252 78.7202C48.9736 78.7349 48.6587 78.7788 48.395 78.8667C48.1313 78.9473 47.8384 79.0864 47.5234 79.2769C47.4062 79.3501 47.2891 79.416 47.1792 79.4893L46.3662 78.332C46.7104 78.0171 47.0986 77.7681 47.5234 77.5996C47.9482 77.4238 48.4683 77.3213 49.0835 77.2773C49.1787 77.2773 49.2739 77.27 49.3691 77.27C50.2773 77.2993 51.0391 77.6069 51.6396 78.1855C52.2476 78.7642 52.5625 79.4966 52.5845 80.3682Z" fill="black"/>
<defs>
<filter id="filter0_b_554_2917" x="-183.289" y="-183.289" width="436.579" height="436.579" filterUnits="userSpaceOnUse" color-interpolation-filters="sRGB">
<feFlood flood-opacity="0" result="BackgroundImageFix"/>
<feGaussianBlur in="BackgroundImageFix" stdDeviation="91.6447"/>
<feComposite in2="SourceAlpha" operator="in" result="effect1_backgroundBlur_554_2917"/>
<feBlend mode="normal" in="SourceGraphic" in2="effect1_backgroundBlur_554_2917" result="shape"/>
</filter>
<clipPath id="clip0_554_2917">
<rect width="40.8333" height="40.8333" fill="white" transform="translate(15.168 14)"/>
</clipPath>
</defs>
</svg>
