<svg width="834" height="1175" viewBox="0 0 834 1175" fill="none" xmlns="http://www.w3.org/2000/svg">
<path d="M-156.119 1014.79C-89.455 950.1 -54.562 889.626 -34.9819 845.986C-15.1827 801.855 -6.07619 763.788 29.9132 717.824C69.5419 667.047 105.307 645.907 120.123 638.363C140.67 627.911 141.721 631.4 177.48 616.918C246.174 589.101 250.347 572.992 284.129 564.19C340.136 549.591 351.328 587.957 419.699 584.624C469.219 582.218 535.098 558.592 570.874 508.178C604.563 460.7 585.007 426.89 627.223 385.197C644.563 368.07 663.334 359.13 700.864 341.258C748.921 318.3 785.722 308.41 799.972 303.854C842.2 290.373 900.147 256.16 963.604 162.355" stroke="#066286" stroke-width="0.931173" stroke-miterlimit="10" stroke-linecap="round"/>
<path d="M-148.696 1024.83C-83.6991 962.883 -46.0813 903.189 -23.9887 856.484C-6.19847 818.351 3.51846 784.573 25.3065 748.262C30.0781 740.327 35.273 732.174 41.2744 723.889C79.1045 671.699 112.445 647.849 126.697 638.301C145.8 625.486 147.395 627.432 182.38 613.165C207.027 603.098 223.879 595.072 236.596 588.446C258.209 577.175 267.659 569.864 288.302 565.347C295.986 563.638 303.842 562.821 311.713 562.911C348.109 563.316 365.995 586.998 421.699 581.97C470.188 577.595 533.944 552.071 569.005 502.39C571.781 498.451 574.357 494.375 576.721 490.177C600.566 447.792 588.744 417.328 625.806 380.628C629.706 376.755 633.861 373.146 638.242 369.826C652.928 358.624 670.605 350.087 698.704 336.696C745.302 314.568 781.5 304.79 797.221 299.776C808.71 296.072 819.867 291.41 830.576 285.84C867.705 266.652 912.957 230.713 961.722 161.988" stroke="#066286" stroke-width="0.931173" stroke-miterlimit="10" stroke-linecap="round"/>
<path d="M-140.572 1035.72C-77.27 976.494 -36.7563 917.68 -12.365 867.737C7.01166 828.084 17.1126 792.656 37.8753 756.254C42.6046 747.934 47.5585 739.374 53.3506 730.768C89.3731 677.154 119.413 649.613 133.996 639.043C152.806 625.446 153.827 624.262 187.984 610.234C211.912 600.427 229.122 592.949 242.053 587.007C263.815 576.966 273.209 570.835 293.145 567.372C300.768 566.084 308.5 565.567 316.226 565.828C351.792 566.713 370.494 587.423 424.449 580.173C471.899 573.817 533.532 546.397 567.879 497.448C570.753 493.263 573.343 489.311 575.535 485.319C600.278 441.778 589.501 412.321 625.195 376.963C629.054 373.107 633.164 369.511 637.498 366.198C652.362 354.722 669.935 346.105 697.421 333.125C742.537 311.774 778.136 302.158 795.25 296.568C806.643 292.89 817.723 288.303 828.383 282.851C865.352 264.05 911.015 229.035 960.555 162.526" stroke="#066286" stroke-width="0.931173" stroke-miterlimit="10" stroke-linecap="round"/>
<path d="M-131.856 1047.3C-70.2134 990.848 -26.953 932.798 -0.104966 879.743C20.7428 838.518 31.3053 801.469 51.0117 764.982C55.7098 756.268 60.4424 747.305 65.9945 738.383C100.227 683.367 128.705 654.366 141.855 640.511C158.131 623.38 160.817 621.817 194.158 608.02C217.371 598.434 234.948 591.515 248.147 586.211C270.038 577.399 279.416 572.451 298.636 570.032C306.161 569.202 313.743 569.008 321.301 569.451C356.027 570.805 375.601 588.478 427.711 579.068C474.165 570.695 533.642 541.424 567.264 493.197C570.105 489.039 572.673 485.105 574.871 481.164C600.444 436.43 590.782 407.996 624.997 373.888C628.817 370.047 632.886 366.46 637.176 363.151C652.208 351.39 669.741 342.679 696.536 330.083C740.138 309.517 775.152 300.033 793.719 293.965C805.018 290.278 816.027 285.753 826.653 280.429C863.464 262.013 909.546 227.934 959.842 163.639" stroke="#066286" stroke-width="0.931173" stroke-miterlimit="10" stroke-linecap="round"/>
<path d="M-123.134 1058.92C-63.1587 1005.2 -17.1557 947.955 12.1512 891.769C34.472 848.952 45.4763 810.279 64.1662 773.712C68.8221 764.612 73.3136 755.244 78.6565 746C111.127 689.614 137.124 658.168 149.75 642.002C164.664 622.898 167.799 619.432 200.368 605.83C222.937 596.461 240.788 590.121 254.206 585.442C276.218 577.846 285.586 574.113 304.093 572.718C311.506 572.346 318.935 572.47 326.332 573.089C360.211 574.882 380.667 589.529 430.996 578.014C476.445 567.613 533.763 536.513 566.681 489.009C569.479 484.887 572.025 480.971 574.229 477.061C600.654 431.135 592.173 403.853 624.866 370.92C628.662 367.108 632.688 363.531 636.922 360.211C652.11 348.194 669.527 339.431 695.719 327.147C737.847 307.369 772.273 298.038 792.267 291.458C803.478 287.789 814.416 283.333 825 278.123C861.672 260.096 908.157 226.93 959.236 164.862" stroke="#066286" stroke-width="0.931173" stroke-miterlimit="10" stroke-linecap="round"/>
<path d="M-117.657 1066.53C-59.3483 1015.55 -10.5826 959.11 21.1721 899.801C44.946 855.391 56.376 815.053 74.0854 778.449C78.6792 768.961 82.9873 759.213 88.0832 749.623C118.769 691.886 142.364 658.024 154.358 639.505C167.985 618.496 171.563 612.985 203.291 599.651C220.826 592.303 238.777 585.992 257.053 580.752C279.21 574.336 288.564 571.856 306.279 571.458C314.028 571.301 321.001 572.181 328.191 572.701C361.187 574.888 382.599 586.576 431.07 572.93C475.538 560.464 530.684 527.561 562.887 480.79C565.652 476.695 568.176 472.797 570.377 468.927C597.69 421.833 590.238 395.517 621.534 363.912C625.297 360.125 629.281 356.565 633.465 353.251C648.849 340.982 666.146 332.117 691.631 320.175C732.247 301.161 766.114 291.996 787.524 284.913C798.652 281.253 809.525 276.856 820.069 271.751C856.592 254.12 903.485 221.898 955.331 162.035" stroke="#066286" stroke-width="0.931173" stroke-miterlimit="10" stroke-linecap="round"/>
<path d="M-113.931 1072.1C-57.3175 1023.85 -5.79831 968.199 28.4332 905.781C53.6603 859.777 65.4762 817.77 82.2896 781.188C86.8233 771.292 90.9171 761.171 95.7948 751.249C124.777 692.148 145.99 655.871 157.324 634.987C169.675 612.155 173.64 604.552 204.564 591.44C221.891 584.094 239.814 578.239 258.137 573.939C280.376 568.716 289.779 567.476 306.796 568.144C314.332 568.417 321.144 569.704 328.337 570.294C360.533 572.955 382.741 581.468 429.431 565.827C472.922 551.256 525.903 516.583 557.381 470.534C560.102 466.474 562.594 462.603 564.813 458.755C593.041 410.527 586.679 385.181 616.552 354.963C620.276 351.189 624.219 347.639 628.36 344.329C643.899 331.805 661.116 322.842 685.968 311.309C725.099 293.093 758.37 284.069 781.235 276.487C792.27 272.834 803.07 268.502 813.571 263.515C849.954 246.273 897.267 214.986 949.87 157.317" stroke="#066286" stroke-width="0.931173" stroke-miterlimit="10" stroke-linecap="round"/>
<path d="M-110.108 1077.72C-55.154 1032.24 -0.938897 977.36 35.7912 911.814C62.4515 864.214 74.6246 820.525 90.4882 783.899C94.9438 773.574 98.8453 763.063 103.512 752.838C130.787 692.414 149.675 653.747 160.254 630.448C171.485 605.738 175.701 596.102 205.809 583.22C223 575.914 240.956 570.557 259.34 567.251C281.623 563.218 291.121 563.253 307.388 564.901C314.687 565.643 321.333 567.284 328.545 567.987C359.89 571.036 382.998 576.434 427.867 558.795C470.374 542.088 521.166 505.682 551.905 460.404C554.594 456.371 557.064 452.518 559.269 448.698C588.351 399.259 583.028 374.981 611.476 345.967C615.167 342.22 619.064 338.683 623.15 335.37C638.822 322.518 655.981 313.529 680.182 302.383C717.812 284.923 750.503 276.083 774.796 267.969C785.751 264.336 796.488 260.073 806.951 255.2C843.149 238.311 890.882 207.96 944.267 152.537" stroke="#066286" stroke-width="0.931173" stroke-miterlimit="10" stroke-linecap="round"/>
<path d="M-106.276 1083.37C-52.9885 1040.63 3.95138 986.529 43.1583 917.874C71.2627 868.669 83.784 823.287 98.7625 786.674C103.145 775.97 106.892 765.092 111.265 754.487C136.844 692.73 153.429 651.656 163.241 625.952C173.339 599.392 177.8 587.691 207.102 575.031C224.15 567.764 242.114 562.873 260.493 560.495C282.915 557.589 292.409 558.98 307.927 561.609C315.008 562.821 321.493 564.778 328.713 565.602C359.214 569.05 383.174 571.318 426.249 551.714C467.767 532.82 516.395 494.734 546.443 450.151C549.099 446.145 551.547 442.309 553.757 438.541C583.766 387.958 579.459 364.674 606.486 336.935C610.147 333.212 614.002 329.684 618.036 326.367C633.857 313.228 650.995 304.146 674.505 293.384C710.631 276.719 742.754 268.034 768.473 259.409C779.35 255.804 790.025 251.619 800.455 246.874C836.541 230.405 884.658 200.946 938.818 147.739" stroke="#066286" stroke-width="0.931173" stroke-miterlimit="10" stroke-linecap="round"/>
<path d="M-102.459 1089.01C-50.8651 1048.96 8.81248 995.619 50.5051 923.866C80.0884 873.009 92.8833 825.977 107.017 789.381C111.31 778.256 114.892 767.021 119.035 756.091C142.934 693.043 157.236 649.565 166.226 621.409C175.28 593.018 179.917 579.235 208.403 566.806C225.343 559.604 243.341 555.203 261.694 553.777C284.185 552.003 293.755 554.757 308.514 558.355C315.378 560.038 321.66 562.327 328.962 563.229C358.634 567.047 383.413 566.102 424.726 544.617C465.237 523.514 511.708 483.778 541.052 439.919C543.664 435.949 546.09 432.131 548.353 428.448C579.268 376.719 575.989 354.421 601.59 327.998C605.209 324.27 609.031 320.745 613.038 317.439C629.08 304.101 646.029 294.9 668.898 284.427C703.53 268.548 735.074 260.026 762.231 250.881C772.048 247.583 782.647 243.589 793.987 238.494C829.914 222.411 878.451 193.887 933.366 142.894" stroke="#066286" stroke-width="0.931173" stroke-miterlimit="10" stroke-linecap="round"/>
<path d="M-98.7775 1094.48C-48.8964 1057.23 13.5169 1004.66 57.726 929.796C88.6899 877.37 101.828 828.593 115.136 792.016C119.329 780.48 122.765 768.888 126.662 757.613C148.925 693.239 160.974 647.348 169.074 616.814C177.03 586.527 181.885 570.737 209.566 558.53C226.418 551.383 244.458 547.451 262.756 546.936C285.347 546.287 294.914 550.487 308.962 554.98C315.609 557.133 321.718 559.746 328.996 560.797C357.819 564.962 383.462 560.879 422.965 537.477C462.468 514.076 506.786 472.761 535.414 429.634C537.993 425.691 540.398 421.891 542.638 418.226C574.471 365.343 572.219 344.03 596.429 318.875C600.002 315.173 603.774 311.671 607.731 308.383C623.954 294.731 640.796 285.489 662.989 275.461C696.129 260.349 727.093 252.011 755.678 242.333C765.444 239.041 775.968 235.09 787.244 230.138C823.013 214.442 871.96 186.842 927.66 138.076" stroke="#066286" stroke-width="0.931173" stroke-miterlimit="10" stroke-linecap="round"/>
<path d="M-95.1319 1099.88C-46.8667 1065.36 18.1808 1013.58 64.9154 935.621C97.3742 881.585 110.701 831.1 123.22 794.585C127.315 782.617 130.614 770.681 134.286 759.042C154.881 693.348 164.716 645.069 171.862 612.1C178.862 580.002 183.84 562.065 210.636 550.162C228.431 542.259 248.396 539.724 263.713 540.013C286.397 540.458 296.079 546.045 309.317 551.512C315.725 554.154 321.672 557.082 328.967 558.265C356.936 562.748 383.363 555.498 421.124 530.217C459.535 504.548 501.791 461.634 529.705 419.24C532.24 415.332 534.623 411.551 536.852 407.895C569.583 353.855 568.347 333.536 591.121 309.705C594.659 306.021 598.39 302.528 602.299 299.241C618.641 285.31 635.429 276.002 657.027 266.297C688.674 251.971 719.026 243.824 749.049 233.626C758.755 230.327 769.223 226.441 780.405 221.621C816.035 206.313 865.393 179.637 921.83 133.063" stroke="#066286" stroke-width="0.931173" stroke-miterlimit="10" stroke-linecap="round"/>
<path d="M-91.5545 1105.23C-44.947 1073.46 22.6361 1022.34 72.0276 941.381C105.727 885.67 119.497 833.541 131.221 797.039C135.188 784.646 138.392 772.349 141.773 760.4C160.799 693.416 168.359 642.652 174.622 607.337C180.641 573.374 185.674 553.453 211.744 541.689C228.863 534.012 249.121 531.967 264.697 532.995C287.473 534.534 297.14 541.596 309.687 547.958C315.888 551.062 321.634 554.301 328.957 555.608C356.116 560.462 383.298 549.943 419.386 522.89C456.734 494.876 496.901 450.439 524.09 408.767C526.603 404.891 528.96 401.13 531.161 397.485C564.838 342.303 564.601 322.957 585.961 300.433C589.454 296.763 593.141 293.282 597.004 290.005C613.504 275.798 630.229 266.414 651.17 257.066C681.302 243.524 711.143 235.577 742.578 224.806C752.243 221.523 762.616 217.678 773.736 212.982C809.216 198.071 858.985 172.32 916.215 127.983" stroke="#066286" stroke-width="0.931173" stroke-miterlimit="10" stroke-linecap="round"/>
<path d="M-88.0341 1110.5C-43.1132 1081.46 27.2057 1031.11 79.0829 947.056C114.226 889.739 128.221 835.855 139.193 799.439C143.049 786.644 146.107 773.991 149.252 761.687C166.679 693.4 172.054 640.15 177.305 602.485C182.356 566.629 187.452 544.646 212.671 533.159C229.117 525.686 249.688 524.135 265.519 525.941C288.409 528.556 298.078 537.114 309.893 544.388C315.831 548.019 321.461 551.518 328.781 552.955C355.181 558.065 384.013 545.389 417.503 515.458C452.712 483.989 491.865 439.14 518.35 398.192C520.826 394.346 523.158 390.606 525.345 386.972C560.033 330.705 560.71 312.273 580.654 291.055C584.116 287.406 587.764 283.938 591.584 280.667C608.25 266.195 624.928 256.686 645.138 247.717C673.777 235.052 703.137 227.299 735.945 215.95C745.559 212.672 755.866 208.881 766.902 204.328C802.243 189.805 852.423 164.978 910.417 122.866" stroke="#066286" stroke-width="0.931173" stroke-miterlimit="10" stroke-linecap="round"/>
<path d="M-84.6081 1115.74C-41.3718 1089.43 31.6898 1039.88 86.0437 952.713C122.631 893.792 136.793 838.217 147.023 801.788C150.783 788.541 153.723 775.565 156.563 762.89C172.386 693.249 175.554 637.642 179.859 597.554C184.004 559.789 189.239 535.792 213.655 524.507C229.417 517.247 250.292 516.178 266.388 518.753C289.375 522.422 299.014 532.504 310.153 540.626C315.85 544.764 321.332 548.53 328.678 550.11C354.189 555.585 382.779 538.647 415.55 507.971C450.549 475.266 486.748 427.796 512.518 387.58C514.9 383.798 517.283 380.017 519.436 376.423C555.021 319 556.728 301.533 575.267 281.632C578.683 277.997 582.287 274.542 586.062 271.281C602.886 256.533 619.446 246.993 639.06 238.367C666.216 226.388 694.908 218.78 729.187 206.974C738.761 203.693 748.969 199.891 759.998 195.508C795.136 181.316 845.782 157.46 904.497 117.609" stroke="#066286" stroke-width="0.931173" stroke-miterlimit="10" stroke-linecap="round"/>
<path d="M-81.1275 1120.86C-39.5508 1097.31 36.2066 1048.53 93.0681 958.252C131.143 897.69 145.395 840.397 154.902 804.067C158.481 790.42 161.387 777.069 163.976 764.088C178.387 693.193 179.146 635.028 182.412 592.647C185.543 552.955 190.83 527.014 214.534 515.91C229.613 508.864 250.813 508.258 267.155 511.601C290.303 516.381 299.837 527.939 310.317 536.929C315.749 541.614 321.098 545.618 328.45 547.339C353.147 553.115 382.386 532.866 413.547 500.495C447.372 465.444 481.603 416.444 506.637 376.959C509.02 373.177 511.326 369.458 513.551 365.952C550.045 307.363 552.721 290.856 569.856 272.253C573.276 268.627 576.881 265.182 580.659 261.932C596.197 248.18 613.886 237.07 633.021 229.045C658.683 217.853 686.796 210.409 722.513 198.082C732.028 194.795 742.186 191.089 753.082 186.833C803.846 166.725 852.578 141.825 898.617 112.471" stroke="#066286" stroke-width="0.931173" stroke-miterlimit="10" stroke-linecap="round"/>
<path d="M-77.7249 1125.99C-37.8149 1105.18 40.6673 1057.17 100.006 963.785C139.481 901.655 153.952 842.646 162.779 806.289C201.9 644.847 163.519 531.843 215.449 507.19C229.844 500.357 251.37 500.216 267.955 504.346C303.36 513.149 306.808 539.02 328.265 544.456C380.878 557.792 462.038 428.155 507.656 355.303C552.13 284.266 548.945 275.746 575.066 252.498C620.639 211.89 660.685 210.727 746.132 178.019C796.884 158.507 845.923 134.801 892.738 107.147" stroke="#066286" stroke-width="0.931173" stroke-miterlimit="10" stroke-linecap="round"/>
<path d="M-75.1615 1129.12C-33.7977 1108.23 41.7996 1061.17 98.5051 971.859C137.606 910.163 150.258 852.189 160.044 813.547C199.209 659.27 165.235 554.827 214.971 525.849C234.399 514.523 256.358 505.747 274.803 504.768C311.057 502.859 314.85 524.626 338.873 527.172C391.478 532.764 469.202 414.317 513.237 345.688C556.079 278.768 554.03 271.455 583.484 249.128C632.427 212.027 669.575 209.604 750.396 179.189C800.815 160.207 849.334 136.52 895.313 108.442" stroke="#066286" stroke-width="0.931173" stroke-miterlimit="10" stroke-linecap="round"/>
<path d="M-72.4979 1132.37C-3.16229 1097.97 55.474 1045.3 97.0959 980.042C135.832 918.792 146.58 861.886 157.4 820.915C196.326 673.725 166.337 576.214 214.595 544.609C239.088 528.582 260.749 511.842 281.752 505.312C317.753 494.068 322.434 510.519 349.581 510.009C401.422 509.008 476.457 400.589 518.921 336.173C560.032 273.451 559.04 267.227 592.005 245.86C644.008 212.135 678.645 208.7 754.76 180.481C804.827 162.027 852.817 138.369 897.944 109.894" stroke="#066286" stroke-width="0.931173" stroke-miterlimit="10" stroke-linecap="round"/>
<path d="M-67.7425 1138.16C0.026834 1105.31 57.3357 1054.28 97.7894 990.754C136.14 929.948 144.996 874.1 156.847 830.821C195.222 690.738 176.058 607.453 216.3 565.917C241.476 539.933 267.131 521.088 290.794 508.373C326.54 489.149 331.802 499.221 362.383 495.365C413.008 488.981 485.915 389.491 526.685 329.206C566.242 270.719 566.018 265.474 602.598 245.128C657.479 214.599 689.779 210.321 761.218 184.292C810.95 166.379 858.429 142.742 902.699 113.857" stroke="#066286" stroke-width="0.931173" stroke-miterlimit="10" stroke-linecap="round"/>
<path d="M-60.5107 1146.98C5.68197 1115.68 61.6536 1066.27 100.921 1004.47C138.889 944.09 145.841 889.309 158.744 843.724C196.403 710.68 181.567 633.297 220.465 590.211C249.37 558.209 272.265 526.748 302.276 514.44C343.57 497.502 345.379 497.189 377.623 483.725C428.128 481.809 497.785 381.365 536.91 325.225C574.818 270.924 575.362 266.639 615.66 247.394C673.233 219.903 703.386 214.991 770.114 191.107C819.51 173.729 866.481 150.107 909.884 120.814" stroke="#066286" stroke-width="0.931173" stroke-miterlimit="10" stroke-linecap="round"/>
<path d="M-53.1044 1156.01C11.5164 1126.27 66.1796 1078.51 104.322 1018.47C141.923 958.531 146.935 904.794 160.909 856.904C197.675 730.862 186.741 658.907 224.822 614.847C257.661 576.876 280.901 540.307 314.034 520.795C356.754 495.633 358.21 490.564 393.14 472.375C443.043 466.602 509.819 373.456 547.326 321.586C583.585 271.47 584.82 268.027 628.914 250C689.12 225.341 717.204 220.023 779.213 198.254C828.274 181.412 874.742 157.801 917.272 128.104" stroke="#066286" stroke-width="0.931173" stroke-miterlimit="10" stroke-linecap="round"/>
<path d="M-45.5604 1165.21C17.4535 1137.02 70.7784 1090.91 107.771 1032.62C144.998 973.119 148.047 920.443 163.123 870.242C198.891 751.142 191.645 684.351 229.37 639.523C266.151 595.816 295.817 560.374 325.832 527.297C362.892 486.45 371.071 484.075 408.697 461.171C458.105 451.563 521.981 365.713 557.933 317.987C592.543 272.057 594.414 269.39 642.358 252.648C705 230.78 731.226 225.158 788.457 205.498C837.182 189.184 883.153 165.58 924.804 135.49" stroke="#066286" stroke-width="0.931173" stroke-miterlimit="10" stroke-linecap="round"/>
<path d="M-37.9196 1174.53C12.4227 1152.94 70.6173 1111.85 111.359 1046.87C148.334 987.887 149.268 936.177 165.465 883.686C200.087 771.503 196.427 709.687 233.969 664.368C274.908 614.966 306.05 573.946 337.769 533.896C375.745 485.919 380.037 470.646 424.393 450.064C470.35 428.737 534.276 358.126 568.592 314.558C601.544 272.802 604.046 270.86 655.845 255.453C720.995 236.154 745.328 230.475 797.853 212.81C830.504 201.827 878.207 183.364 932.489 142.944" stroke="#066286" stroke-width="0.931173" stroke-miterlimit="10" stroke-linecap="round"/>
<path d="M-30.1338 1184.02C21.688 1162.29 76.972 1122.2 115.072 1061.29C151.681 1002.75 150.577 952.058 167.943 897.293C201.311 792.005 201.037 735.144 238.716 689.367C283.94 634.403 316.572 587.664 349.831 540.667C388.87 485.493 392.81 464.641 440.215 439.129C485.429 414.845 546.624 350.624 579.398 311.281C610.714 273.683 613.787 272.259 669.488 258.423C737.083 241.615 759.581 236.016 807.33 220.329C839.675 209.708 886.82 191.701 940.264 150.616" stroke="#066286" stroke-width="0.931173" stroke-miterlimit="10" stroke-linecap="round"/>
<path d="M-22.2684 1193.62C31.1107 1171.78 83.4063 1132.66 118.873 1075.83C155.118 1017.73 151.944 968.059 170.51 911.012C202.537 812.582 205.647 760.605 243.539 714.487C293.203 654.037 327.263 601.484 361.981 547.55C402.18 485.119 405.888 458.992 456.124 428.306C500.696 401.077 559.106 343.289 590.281 308.127C619.877 274.717 623.607 273.76 683.209 261.515C753.279 247.101 773.938 241.711 816.896 227.961C848.953 217.703 895.555 200.216 948.118 158.39" stroke="#066286" stroke-width="0.931173" stroke-miterlimit="10" stroke-linecap="round"/>
<path d="M-14.2832 1203.36C40.5139 1181.4 89.9624 1143.24 122.786 1090.5C158.655 1032.84 153.364 984.173 173.187 924.87C203.785 833.279 205.161 781.462 248.485 739.737C309.902 680.58 338.107 615.426 374.243 554.572C415.653 484.86 412.601 440.86 472.145 417.622C521.916 398.249 571.601 336.063 601.286 305.102C629.211 275.896 633.535 275.329 697.042 264.725C769.584 252.635 788.419 247.607 826.572 235.732C858.341 225.857 904.394 208.838 956.092 166.315" stroke="#066286" stroke-width="0.931173" stroke-miterlimit="10" stroke-linecap="round"/>
<path d="M-6.03739 1213.41C50.2573 1191.34 96.7502 1154.13 127.023 1105.54C162.508 1048.33 155.04 1000.64 176.179 939.105C205.324 854.28 210.723 808.103 253.734 765.374C319.19 700.308 349.318 629.721 386.83 561.963C429.496 484.932 426.477 437.853 488.491 407.306C537.686 383.085 584.549 329.228 612.595 302.463C638.833 277.419 643.83 277.16 711.188 268.333C786.229 258.488 803.243 253.913 836.574 243.871C868.052 234.399 913.539 217.826 964.383 174.596" stroke="#066286" stroke-width="0.931173" stroke-miterlimit="10" stroke-linecap="round"/>
<path d="M2.73435 1224.1C60.5156 1201.92 104.089 1165.7 131.677 1121.1C166.787 1064.33 157.076 1017.6 179.598 953.852C207.144 875.859 216.701 835.266 259.421 791.513C328.849 720.413 360.988 644.521 399.842 569.885C443.791 485.459 441.547 435.735 505.262 397.523C553.71 368.468 597.826 322.895 624.341 300.328C648.862 279.452 654.555 279.463 725.772 272.444C803.317 264.805 818.551 260.757 847.002 252.542C878.215 243.506 923.174 227.293 973.099 183.409" stroke="#066286" stroke-width="0.931173" stroke-miterlimit="10" stroke-linecap="round"/>
<path d="M11.6458 1234.97C70.9247 1212.68 111.56 1177.42 136.525 1136.91C171.252 1080.56 159.209 1034.76 183.21 968.846C209.145 897.603 222.821 862.68 265.291 817.908C338.547 740.688 372.863 659.538 413.038 578.043C458.346 486.179 457.428 434.105 522.218 387.975C569.765 354.12 611.28 316.767 636.271 298.448C659.044 281.728 665.471 281.942 740.538 276.81C820.644 271.312 834.015 268.024 857.622 261.46C888.577 252.911 932.892 237.115 982.008 192.469" stroke="#066286" stroke-width="0.931173" stroke-miterlimit="10" stroke-linecap="round"/>
<path d="M21.3537 1246.81C82.1211 1224.4 119.742 1190.08 142.16 1153.69C176.39 1097.69 162.003 1052.84 187.61 984.807C211.885 920.299 229.71 891.059 271.959 845.261C348.911 761.848 385.557 675.515 426.979 587.204C473.557 487.973 478.636 438.018 539.917 379.43C583.594 337.69 625.467 311.65 648.955 297.562C669.996 284.949 677.174 285.388 756.051 282.159C838.736 278.804 850.219 276.224 868.969 271.359C899.694 263.399 943.401 247.865 991.652 202.52" stroke="#066286" stroke-width="0.931173" stroke-miterlimit="10" stroke-linecap="round"/>
<path d="M30.9563 1258.52C93.2104 1236.01 127.913 1202.65 147.71 1170.33C181.554 1114.77 164.537 1070.73 191.914 1000.64C214.49 942.847 236.471 919.32 278.52 872.498C359.076 782.803 398.157 691.348 440.93 596.17C488.86 489.47 494.665 435.118 557.628 370.69C601.378 325.965 639.624 306.245 661.619 296.488C680.931 287.963 688.875 288.578 771.552 287.331C856.846 286.042 866.445 284.33 880.336 281.073C910.872 273.909 953.902 258.418 1001.3 212.366" stroke="#066286" stroke-width="0.931173" stroke-miterlimit="10" stroke-linecap="round"/>
<path d="M40.578 1270.26C104.288 1247.64 136.169 1215.19 153.259 1186.99C186.685 1131.91 166.861 1088.52 196.228 1016.49C217.07 965.364 243.231 947.603 285.103 899.739C369.118 803.698 410.742 707.141 454.828 605.183C504.117 491.025 510.7 432.16 575.285 361.997C619.322 314.167 653.735 300.807 674.26 295.455C691.775 290.889 700.521 291.814 787.031 292.544C874.952 293.322 882.641 292.556 891.649 290.835C922.111 285.029 964.366 269.04 1010.91 222.281" stroke="#066286" stroke-width="0.931173" stroke-miterlimit="10" stroke-linecap="round"/>
</svg>
