<svg width="33" height="32" viewBox="0 0 33 32" fill="none" xmlns="http://www.w3.org/2000/svg">
<g clip-path="url(#clip0_417_3978)">
<path d="M16.5 0C7.66406 0 0.5 7.16406 0.5 16C0.5 24.8359 7.66406 32 16.5 32C25.3359 32 32.5 24.8359 32.5 16C32.5 7.16406 25.3359 0 16.5 0ZM24.9492 23.3457L23.668 24.6269C23.4395 24.8554 22.7696 24.9981 22.7481 24.9981C18.6953 25.0332 14.793 23.4414 11.9258 20.5742C9.05081 17.6973 7.45706 13.7812 7.5 9.71488C7.5 9.71294 7.6465 9.0625 7.875 8.83594L9.15625 7.55469C9.625 7.084 10.5254 6.87106 11.1562 7.082L11.4258 7.17188C12.0548 7.38281 12.7149 8.07812 12.8887 8.71875L13.5332 11.084C13.7071 11.7266 13.4727 12.6406 13.0039 13.1094L12.1484 13.9649C12.9883 17.0742 15.4277 19.5137 18.5371 20.3555L19.3926 19.5C19.8633 19.0293 20.7773 18.7949 21.4179 18.9688L23.7832 19.6152C24.4238 19.7911 25.1191 20.4473 25.3301 21.0762L25.4199 21.3496C25.6289 21.9785 25.418 22.8789 24.9492 23.3457Z" fill="black"/>
<path d="M24.9492 23.3457L23.668 24.6269C23.4395 24.8554 22.7696 24.9981 22.7481 24.9981C18.6953 25.0332 14.793 23.4414 11.9258 20.5742C9.05081 17.6973 7.45706 13.7812 7.5 9.71488C7.5 9.71294 7.6465 9.0625 7.875 8.83594L9.15625 7.55469C9.625 7.084 10.5254 6.87106 11.1562 7.082L11.4258 7.17188C12.0548 7.38281 12.7149 8.07812 12.8887 8.71875L13.5332 11.084C13.7071 11.7266 13.4727 12.6406 13.0039 13.1094L12.1484 13.9649C12.9883 17.0742 15.4277 19.5137 18.5371 20.3555L19.3926 19.5C19.8633 19.0293 20.7773 18.7949 21.4179 18.9688L23.7832 19.6152C24.4238 19.7911 25.1191 20.4473 25.3301 21.0762L25.4199 21.3496C25.6289 21.9785 25.418 22.8789 24.9492 23.3457Z" fill="white"/>
</g>
<defs>
<clipPath id="clip0_417_3978">
<rect width="32" height="32" fill="white" transform="translate(0.5)"/>
</clipPath>
</defs>
</svg>
