<svg width="71" height="70" viewBox="0 0 71 70" fill="none" xmlns="http://www.w3.org/2000/svg">
<g filter="url(#filter0_b_417_4428)">
<rect x="0.5" width="70" height="70" rx="35" fill="url(#paint0_linear_417_4428)"/>
<g style="mix-blend-mode:darken" clip-path="url(#clip0_417_4428)">
<path d="M34.1089 44.6055V50.3349C34.1089 50.6742 34.0084 51.0023 33.8366 51.2833H30.5312V52.1147H32.5555C32.5184 52.118 32.4817 52.1222 32.4441 52.1229V52.1244H41.5011C42.4365 52.1244 43.0727 51.2704 43.0727 50.335V44.6055H34.1089V44.6055Z" fill="#FDE1FF"/>
<path d="M33.9884 44.6055V49.813C33.9884 50.6543 33.2998 51.3369 32.4453 51.351V51.3524H40.8393C41.7062 51.3524 42.409 50.6632 42.409 49.813V44.6055H33.9884Z" fill="url(#paint1_linear_417_4428)"/>
<path d="M54.5075 46.6766H23.0437C22.1373 46.6766 21.4023 45.9416 21.4023 45.0352V23.1101C21.4023 22.2036 22.1373 21.4688 23.0437 21.4688H54.5076C55.414 21.4688 56.149 22.2036 56.149 23.1101V45.0352C56.1489 45.9416 55.414 46.6766 54.5075 46.6766Z" fill="url(#paint2_linear_417_4428)"/>
<path d="M52.5934 46.6766H21.1297C20.2232 46.6766 19.4883 45.9416 19.4883 45.0352V23.1101C19.4883 22.2036 20.2232 21.4688 21.1297 21.4688H52.5935C53.5 21.4688 54.2349 22.2036 54.2349 23.1101V45.0352C54.2348 45.9416 53.5 46.6766 52.5934 46.6766Z" fill="url(#paint3_linear_417_4428)"/>
<path d="M19.4883 42.8339V23.1101C19.4883 22.2036 20.2232 21.4688 21.1297 21.4688H52.5935C53.5 21.4688 54.2349 22.2036 54.2349 23.1101V42.8339" fill="url(#paint4_linear_417_4428)"/>
<path d="M36.7457 42.8317H32.6035L25.4258 21.4531H29.568L36.7457 42.8317Z" fill="url(#paint5_linear_417_4428)"/>
<path d="M42.1557 42.8317H38.0137L30.8359 21.4531H34.978L42.1557 42.8317Z" fill="url(#paint6_linear_417_4428)"/>
<path d="M38.7548 24.0987C38.8044 24.0987 38.8446 24.0585 38.8446 24.0089C38.8446 23.9594 38.8044 23.9192 38.7548 23.9192H36.3623V20.5094H38.7548C38.8044 20.5094 38.8446 20.4692 38.8446 20.4197C38.8446 20.3702 38.8044 20.33 38.7548 20.33H36.3623V17.9374C36.3623 17.8878 36.3221 17.8477 36.2725 17.8477C36.223 17.8477 36.1828 17.8878 36.1828 17.9374V20.33H32.7729V17.9374C32.7729 17.8878 32.7327 17.8477 32.6832 17.8477C32.6337 17.8477 32.5935 17.8878 32.5935 17.9374V20.33H29.1837V17.9374C29.1837 17.8878 29.1435 17.8477 29.0939 17.8477C29.0444 17.8477 29.0042 17.8878 29.0042 17.9374V20.33H25.5945V17.9374C25.5945 17.8878 25.5543 17.8477 25.5047 17.8477C25.4552 17.8477 25.415 17.8878 25.415 17.9374V20.33H22.0052V17.9374C22.0052 17.8878 21.965 17.8477 21.9155 17.8477C21.866 17.8477 21.8258 17.8878 21.8258 17.9374V20.33H18.4159V17.9374C18.4159 17.8878 18.3757 17.8477 18.3262 17.8477C18.2767 17.8477 18.2365 17.8878 18.2365 17.9374V20.33H16.1132C16.0636 20.33 16.0234 20.3702 16.0234 20.4197C16.0234 20.4692 16.0636 20.5094 16.1132 20.5094H18.2365V23.9192H16.1132C16.0636 23.9192 16.0234 23.9594 16.0234 24.0089C16.0234 24.0585 16.0636 24.0987 16.1132 24.0987H18.2365V27.5085H16.1132C16.0636 27.5085 16.0234 27.5487 16.0234 27.5982C16.0234 27.6477 16.0636 27.6879 16.1132 27.6879H18.2365V31.0978H16.1132C16.0636 31.0978 16.0234 31.1379 16.0234 31.1875C16.0234 31.237 16.0636 31.2772 16.1132 31.2772H18.2365V34.687H16.1132C16.0636 34.687 16.0234 34.7272 16.0234 34.7767C16.0234 34.8263 16.0636 34.8665 16.1132 34.8665H18.2365V37.259C18.2365 37.3086 18.2767 37.3488 18.3262 37.3488C18.3757 37.3488 18.4159 37.3086 18.4159 37.259V34.8665H21.8258V37.259C21.8258 37.3086 21.866 37.3488 21.9155 37.3488C21.965 37.3488 22.0052 37.3086 22.0052 37.259V34.8665H25.4151V37.259C25.4151 37.3086 25.4553 37.3488 25.5048 37.3488C25.5544 37.3488 25.5945 37.3086 25.5945 37.259V34.8665H29.0043V37.259C29.0043 37.3086 29.0445 37.3488 29.094 37.3488C29.1435 37.3488 29.1837 37.3086 29.1837 37.259V34.8665H32.5936V37.259C32.5936 37.3086 32.6338 37.3488 32.6833 37.3488C32.7328 37.3488 32.773 37.3086 32.773 37.259V34.8665H36.1829V37.259C36.1829 37.3086 36.2231 37.3488 36.2726 37.3488C36.3221 37.3488 36.3623 37.3086 36.3623 37.259V34.8665H38.7549C38.8045 34.8665 38.8446 34.8263 38.8446 34.7767C38.8446 34.7272 38.8045 34.687 38.7549 34.687H36.3623V31.2772H38.7549C38.8045 31.2772 38.8446 31.237 38.8446 31.1875C38.8446 31.1379 38.8045 31.0978 38.7549 31.0978H36.3623V27.6879H38.7549C38.8045 27.6879 38.8446 27.6477 38.8446 27.5982C38.8446 27.5487 38.8045 27.5085 38.7549 27.5085H36.3623V24.0987H38.7548ZM36.1828 20.5094V23.9192H32.7729V20.5094H36.1828ZM32.5935 20.5094V23.9192H29.1837V20.5094H32.5935ZM25.415 27.5085H22.0052V24.0987H25.4151L25.415 27.5085ZM25.5945 24.0987H29.0042V27.5085H25.5945V24.0987ZM25.415 27.6879V31.0978H22.0052V27.6879H25.415ZM25.5945 27.6879H29.0042V31.0978H25.5945V27.6879ZM29.1837 27.6879H32.5935V31.0978H29.1837V27.6879ZM29.1837 27.5085V24.0987H32.5935V27.5085H29.1837ZM29.0042 20.5094V23.9192H25.5945V20.5094H29.0042ZM25.415 20.5094V23.9192H22.0052V20.5094H25.415ZM18.4159 20.5094H21.8258V23.9192H18.4159V20.5094ZM18.4159 24.0987H21.8258V27.5085H18.4159V24.0987ZM18.4159 27.6879H21.8258V31.0978H18.4159V27.6879ZM18.4159 34.687V31.2772H21.8258V34.687H18.4159ZM22.0052 34.687V31.2772H25.4151V34.687H22.0052ZM25.5945 34.687V31.2772H29.0042V34.687H25.5945ZM29.1837 34.687V31.2772H32.5935V34.687H29.1837ZM36.1828 34.687H32.7729V31.2772H36.1828V34.687ZM36.1828 31.0978H32.7729V27.6879H36.1828V31.0978ZM36.1828 27.5085H32.7729V24.0987H36.1828V27.5085Z" fill="url(#paint7_linear_417_4428)"/>
<path d="M51.2484 40.298H35.1604C35.0071 40.298 34.8828 40.1737 34.8828 40.0205V28.4709C34.8828 28.4309 34.9153 28.3984 34.9553 28.3984H51.176C51.3694 28.3984 51.5261 28.5552 51.5261 28.7485V40.0205C51.5261 40.1738 51.4017 40.298 51.2484 40.298Z" fill="url(#paint8_linear_417_4428)"/>
<path d="M50.1 39.259H34.012C33.8586 39.259 33.7344 39.1347 33.7344 38.9814V27.7094C33.7344 27.5161 33.8911 27.3594 34.0845 27.3594H50.0276C50.2209 27.3594 50.3776 27.5161 50.3776 27.7094V38.9814C50.3775 39.1348 50.2534 39.259 50.1 39.259Z" fill="url(#paint9_linear_417_4428)"/>
<path d="M50.3775 29.2831H33.7344V27.6988C33.7344 27.5113 33.8863 27.3594 34.0739 27.3594H50.0382C50.2257 27.3594 50.3776 27.5113 50.3776 27.6988V29.2831H50.3775Z" fill="url(#paint10_linear_417_4428)"/>
<path d="M38.4249 30.8906H35.3047V32.7811H38.4249V30.8906Z" fill="url(#paint11_linear_417_4428)"/>
<path d="M38.4209 33.3594H35.3008V37.7576H38.4209V33.3594Z" fill="url(#paint12_linear_417_4428)"/>
<path d="M48.6755 30.7695H39.0938V37.6379H48.6755V30.7695Z" fill="url(#paint13_linear_417_4428)"/>
<path d="M34.7533 28.7645C34.9364 28.7645 35.0848 28.6161 35.0848 28.433C35.0848 28.25 34.9364 28.1016 34.7533 28.1016C34.5703 28.1016 34.4219 28.25 34.4219 28.433C34.4219 28.6161 34.5703 28.7645 34.7533 28.7645Z" fill="white"/>
<path d="M35.8823 28.7646C36.0654 28.7646 36.2138 28.6162 36.2138 28.4331C36.2138 28.25 36.0654 28.1016 35.8823 28.1016C35.6992 28.1016 35.5508 28.25 35.5508 28.4331C35.5508 28.6162 35.6992 28.7646 35.8823 28.7646Z" fill="white"/>
<path d="M36.9955 28.7645C37.1786 28.7645 37.327 28.6161 37.327 28.433C37.327 28.25 37.1786 28.1016 36.9955 28.1016C36.8125 28.1016 36.6641 28.25 36.6641 28.433C36.6641 28.6161 36.8125 28.7645 36.9955 28.7645Z" fill="white"/>
<path d="M45.421 35.913L45.3438 35.8356L46.9181 34.2612L45.3438 32.6867L45.421 32.6094L47.0729 34.2612L45.421 35.913Z" fill="#543254"/>
<path d="M42.3354 35.913L40.6836 34.2612L42.3354 32.6094L42.4128 32.6867L40.8383 34.2612L42.4128 35.8356L42.3354 35.913Z" fill="#543254"/>
<path d="M44.2803 32.6368L44.1797 32.5938L42.7936 35.8314L42.8942 35.8745L44.2803 32.6368Z" fill="#543254"/>
<path d="M37.9936 33.8867H35.793V33.9962H37.9936V33.8867Z" fill="url(#paint14_linear_417_4428)"/>
<path d="M37.9936 34.2148H35.793V34.3243H37.9936V34.2148Z" fill="url(#paint15_linear_417_4428)"/>
<path d="M37.9936 34.543H35.793V34.6524H37.9936V34.543Z" fill="url(#paint16_linear_417_4428)"/>
<path d="M37.9936 34.8711H35.793V34.9806H37.9936V34.8711Z" fill="url(#paint17_linear_417_4428)"/>
<path d="M37.9936 35.1992H35.793V35.3087H37.9936V35.1992Z" fill="url(#paint18_linear_417_4428)"/>
<path d="M37.9936 35.5273H35.793V35.6368H37.9936V35.5273Z" fill="url(#paint19_linear_417_4428)"/>
<path d="M37.9936 35.8555H35.793V35.965H37.9936V35.8555Z" fill="url(#paint20_linear_417_4428)"/>
<path d="M37.9936 36.1836H35.793V36.2931H37.9936V36.1836Z" fill="url(#paint21_linear_417_4428)"/>
<path d="M37.9936 36.5117H35.793V36.6211H37.9936V36.5117Z" fill="url(#paint22_linear_417_4428)"/>
<path d="M37.9936 36.8398H35.793V36.9493H37.9936V36.8398Z" fill="url(#paint23_linear_417_4428)"/>
<path d="M37.9936 37.168H35.793V37.2775H37.9936V37.168Z" fill="url(#paint24_linear_417_4428)"/>
<path d="M51.5508 21.2981C51.5508 20.838 51.9031 20.4606 52.3526 20.4198C52.2108 19.7624 51.9345 19.1551 51.5538 18.6279C51.2087 18.8816 50.7211 18.8533 50.4088 18.5409C50.1053 18.2374 50.0694 17.7681 50.3005 17.4249C49.769 17.0736 49.1638 16.8247 48.5129 16.707C48.4257 17.1027 48.0735 17.3989 47.6516 17.3989C47.2298 17.3989 46.8776 17.1027 46.7904 16.707C46.1395 16.8247 45.5343 17.0736 45.0028 17.4249C45.2338 17.7681 45.1979 18.2374 44.8945 18.5409C44.5823 18.8533 44.0947 18.8816 43.7494 18.6279C43.3689 19.155 43.0927 19.7624 42.9506 20.4198C43.4002 20.4605 43.7525 20.838 43.7525 21.2981C43.7525 21.7759 43.3725 22.164 42.8984 22.1792C43.0051 22.8711 43.2596 23.5142 43.6282 24.0757C43.6344 24.0691 43.64 24.0619 43.6465 24.0554C43.991 23.7107 44.5498 23.7107 44.8944 24.0554C45.239 24.4 45.239 24.9587 44.8944 25.3033C44.8789 25.3188 44.8625 25.3328 44.8462 25.347C45.4097 25.7523 46.0644 26.0387 46.7737 26.1695C46.7707 26.14 46.7692 26.1101 46.7692 26.0798C46.7692 25.5925 47.1642 25.1974 47.6515 25.1974C48.1389 25.1974 48.534 25.5925 48.534 26.0798C48.534 26.1101 48.5324 26.14 48.5294 26.1695C49.2388 26.0386 49.8935 25.7523 50.457 25.347C50.4406 25.3328 50.4242 25.3188 50.4087 25.3033C50.0641 24.9587 50.0641 24.4 50.4087 24.0554C50.7533 23.7107 51.3121 23.7107 51.6566 24.0554C51.6632 24.0619 51.6688 24.0691 51.6751 24.0757C52.0436 23.5142 52.298 22.8711 52.4047 22.1792C51.9308 22.164 51.5508 21.7759 51.5508 21.2981ZM47.6516 23.6327C46.4779 23.6327 45.5264 22.6812 45.5264 21.5076C45.5264 20.3339 46.478 19.3823 47.6516 19.3823C48.8254 19.3823 49.7769 20.3339 49.7769 21.5076C49.7769 22.6812 48.8254 23.6327 47.6516 23.6327Z" fill="url(#paint25_linear_417_4428)"/>
<path d="M43.128 22.6982C42.9729 22.543 42.9643 22.297 43.1021 22.1317C42.8327 21.9579 42.5349 21.8463 42.2288 21.7969C42.1979 21.9988 42.024 22.1537 41.8134 22.1537C41.6089 22.1537 41.4384 22.0075 41.4007 21.8139C41.1031 21.8746 40.8151 21.9948 40.556 22.1745C40.66 22.3373 40.6411 22.5559 40.4989 22.6981C40.3567 22.8403 40.1381 22.8592 39.9753 22.7552C39.7955 23.0144 39.6753 23.3022 39.6147 23.5998C39.8083 23.6376 39.9545 23.808 39.9545 24.0126C39.9545 24.2232 39.7997 24.3971 39.5977 24.428C39.6471 24.734 39.7588 25.0319 39.9325 25.3014C40.0977 25.1636 40.3437 25.172 40.4989 25.3272C40.66 25.4883 40.6628 25.7472 40.508 25.9121C40.7772 26.1094 41.0799 26.2405 41.3934 26.3055C41.3933 26.3011 41.3927 26.2969 41.3927 26.2924C41.3927 26.0601 41.5811 25.8718 41.8134 25.8718C42.0458 25.8718 42.2341 26.0601 42.2341 26.2924C42.2341 26.3029 42.2333 26.3132 42.2325 26.3235C42.5592 26.2702 42.8764 26.1459 43.1597 25.9509C43.1487 25.942 43.1381 25.9324 43.128 25.9222C42.9636 25.7579 42.9636 25.4916 43.128 25.3273C43.2923 25.1629 43.5587 25.1629 43.7229 25.3273C43.7331 25.3375 43.7427 25.3481 43.7517 25.359C43.9466 25.0757 44.0708 24.7585 44.1242 24.4319C44.1139 24.4326 44.1036 24.4335 44.0932 24.4335C43.8608 24.4335 43.6725 24.2451 43.6725 24.0128C43.6725 23.7805 43.8608 23.592 44.0932 23.592C44.0976 23.592 44.1018 23.5926 44.1062 23.5927C44.0412 23.2792 43.9102 22.9766 43.7128 22.7073C43.548 22.862 43.2891 22.8592 43.128 22.6982ZM42.6005 24.7997C42.2048 25.1954 41.5632 25.1954 41.1675 24.7997C40.7718 24.4041 40.7718 23.7625 41.1675 23.3667C41.5632 22.9711 42.2048 22.9711 42.6005 23.3667C42.9962 23.7625 42.9962 24.4041 42.6005 24.7997Z" fill="url(#paint26_linear_417_4428)"/>
<path d="M24.3984 30.7578H26.5635V47.5278C26.5635 48.1257 26.0788 48.6104 25.4809 48.6104C24.8831 48.6104 24.3984 48.1257 24.3984 47.5278V30.7578Z" fill="url(#paint27_linear_417_4428)"/>
<path d="M24.3945 30.7553L25.4782 25.8398L26.5619 30.7553H24.3945Z" fill="#FDDCFF"/>
<path d="M25.9173 27.814L25.4821 25.8398L25.0469 27.814H25.9173Z" fill="url(#paint28_linear_417_4428)"/>
<path d="M26.5603 44.8164H24.3945V45.0415H26.5603V44.8164Z" fill="url(#paint29_linear_417_4428)"/>
</g>
</g>
<defs>
<filter id="filter0_b_417_4428" x="-182.789" y="-183.289" width="436.579" height="436.579" filterUnits="userSpaceOnUse" color-interpolation-filters="sRGB">
<feFlood flood-opacity="0" result="BackgroundImageFix"/>
<feGaussianBlur in="BackgroundImageFix" stdDeviation="91.6447"/>
<feComposite in2="SourceAlpha" operator="in" result="effect1_backgroundBlur_417_4428"/>
<feBlend mode="normal" in="SourceGraphic" in2="effect1_backgroundBlur_417_4428" result="shape"/>
</filter>
<linearGradient id="paint0_linear_417_4428" x1="0.5" y1="0" x2="70.5" y2="70" gradientUnits="userSpaceOnUse">
<stop stop-color="#37CBF9" stop-opacity="0"/>
<stop offset="1" stop-color="#207893" stop-opacity="0.25"/>
</linearGradient>
<linearGradient id="paint1_linear_417_4428" x1="37.4271" y1="51.3524" x2="37.4271" y2="44.6055" gradientUnits="userSpaceOnUse">
<stop stop-color="#FD72B7"/>
<stop offset="0.157" stop-color="#FD78BB"/>
<stop offset="0.371" stop-color="#FD8AC6"/>
<stop offset="0.618" stop-color="#FDA6D9"/>
<stop offset="0.887" stop-color="#FDCEF3"/>
<stop offset="1" stop-color="#FDE1FF"/>
</linearGradient>
<linearGradient id="paint2_linear_417_4428" x1="38.7756" y1="46.6766" x2="38.7756" y2="21.4688" gradientUnits="userSpaceOnUse">
<stop stop-color="#FD72B7"/>
<stop offset="0.157" stop-color="#FD78BB"/>
<stop offset="0.371" stop-color="#FD8AC6"/>
<stop offset="0.618" stop-color="#FDA6D9"/>
<stop offset="0.887" stop-color="#FDCEF3"/>
<stop offset="1" stop-color="#FDE1FF"/>
</linearGradient>
<linearGradient id="paint3_linear_417_4428" x1="19.4883" y1="34.0727" x2="54.2348" y2="34.0727" gradientUnits="userSpaceOnUse">
<stop stop-color="#FDA1E8"/>
<stop offset="0.628" stop-color="#FDCCF8"/>
<stop offset="1" stop-color="#FDE1FF"/>
</linearGradient>
<linearGradient id="paint4_linear_417_4428" x1="19.4883" y1="32.1514" x2="54.2348" y2="32.1514" gradientUnits="userSpaceOnUse">
<stop stop-color="#7B78AB"/>
<stop offset="0.205" stop-color="#666086"/>
<stop offset="0.419" stop-color="#554C67"/>
<stop offset="0.627" stop-color="#493E50"/>
<stop offset="0.824" stop-color="#423543"/>
<stop offset="1" stop-color="#3F323E"/>
</linearGradient>
<linearGradient id="paint5_linear_417_4428" x1="36.7457" y1="32.1424" x2="25.4259" y2="32.1424" gradientUnits="userSpaceOnUse">
<stop stop-color="white" stop-opacity="0"/>
<stop offset="1" stop-color="white"/>
</linearGradient>
<linearGradient id="paint6_linear_417_4428" x1="42.1557" y1="32.1424" x2="30.8359" y2="32.1424" gradientUnits="userSpaceOnUse">
<stop stop-color="white" stop-opacity="0"/>
<stop offset="1" stop-color="white"/>
</linearGradient>
<linearGradient id="paint7_linear_417_4428" x1="16.0234" y1="27.5982" x2="38.8446" y2="27.5982" gradientUnits="userSpaceOnUse">
<stop stop-color="#C8E7DB"/>
<stop offset="0.104" stop-color="#A0EAD0"/>
<stop offset="0.213" stop-color="#7FECC7"/>
<stop offset="0.33" stop-color="#63EEBF"/>
<stop offset="0.455" stop-color="#4EF0B9"/>
<stop offset="0.594" stop-color="#3FF1B5"/>
<stop offset="0.757" stop-color="#36F2B3"/>
<stop offset="1" stop-color="#33F2B2"/>
</linearGradient>
<linearGradient id="paint8_linear_417_4428" x1="34.8827" y1="34.3482" x2="51.5261" y2="34.3482" gradientUnits="userSpaceOnUse">
<stop stop-color="#006E76"/>
<stop offset="1" stop-color="#009B76"/>
</linearGradient>
<linearGradient id="paint9_linear_417_4428" x1="33.7344" y1="33.3092" x2="50.3775" y2="33.3092" gradientUnits="userSpaceOnUse">
<stop stop-color="#FDA1E8"/>
<stop offset="0.628" stop-color="#FDCCF8"/>
<stop offset="1" stop-color="#FDE1FF"/>
</linearGradient>
<linearGradient id="paint10_linear_417_4428" x1="33.7344" y1="28.3212" x2="50.3775" y2="28.3212" gradientUnits="userSpaceOnUse">
<stop stop-color="#FF9DEA"/>
<stop offset="1" stop-color="#E46F8B"/>
</linearGradient>
<linearGradient id="paint11_linear_417_4428" x1="38.4248" y1="31.8359" x2="35.3047" y2="31.8359" gradientUnits="userSpaceOnUse">
<stop stop-color="white" stop-opacity="0"/>
<stop offset="0.146" stop-color="white" stop-opacity="0.146"/>
<stop offset="1" stop-color="white"/>
</linearGradient>
<linearGradient id="paint12_linear_417_4428" x1="38.4209" y1="35.5585" x2="35.3009" y2="35.5585" gradientUnits="userSpaceOnUse">
<stop stop-color="white" stop-opacity="0"/>
<stop offset="0.146" stop-color="white" stop-opacity="0.146"/>
<stop offset="1" stop-color="white"/>
</linearGradient>
<linearGradient id="paint13_linear_417_4428" x1="48.6755" y1="34.2038" x2="39.0938" y2="34.2038" gradientUnits="userSpaceOnUse">
<stop stop-color="white" stop-opacity="0"/>
<stop offset="0.146" stop-color="white" stop-opacity="0.146"/>
<stop offset="1" stop-color="white"/>
</linearGradient>
<linearGradient id="paint14_linear_417_4428" x1="37.9936" y1="33.9415" x2="35.793" y2="33.9415" gradientUnits="userSpaceOnUse">
<stop stop-color="white" stop-opacity="0"/>
<stop offset="0.121" stop-color="#EDEAEA" stop-opacity="0.121"/>
<stop offset="0.285" stop-color="#DAD5D5" stop-opacity="0.285"/>
<stop offset="0.467" stop-color="#CDC6C6" stop-opacity="0.467"/>
<stop offset="0.681" stop-color="#C5BDBD" stop-opacity="0.681"/>
<stop offset="1" stop-color="#C3BABA"/>
</linearGradient>
<linearGradient id="paint15_linear_417_4428" x1="37.9936" y1="34.2695" x2="35.793" y2="34.2695" gradientUnits="userSpaceOnUse">
<stop stop-color="white" stop-opacity="0"/>
<stop offset="0.121" stop-color="#EDEAEA" stop-opacity="0.121"/>
<stop offset="0.285" stop-color="#DAD5D5" stop-opacity="0.285"/>
<stop offset="0.467" stop-color="#CDC6C6" stop-opacity="0.467"/>
<stop offset="0.681" stop-color="#C5BDBD" stop-opacity="0.681"/>
<stop offset="1" stop-color="#C3BABA"/>
</linearGradient>
<linearGradient id="paint16_linear_417_4428" x1="37.9936" y1="34.5978" x2="35.793" y2="34.5978" gradientUnits="userSpaceOnUse">
<stop stop-color="white" stop-opacity="0"/>
<stop offset="0.121" stop-color="#EDEAEA" stop-opacity="0.121"/>
<stop offset="0.285" stop-color="#DAD5D5" stop-opacity="0.285"/>
<stop offset="0.467" stop-color="#CDC6C6" stop-opacity="0.467"/>
<stop offset="0.681" stop-color="#C5BDBD" stop-opacity="0.681"/>
<stop offset="1" stop-color="#C3BABA"/>
</linearGradient>
<linearGradient id="paint17_linear_417_4428" x1="37.9936" y1="34.9258" x2="35.793" y2="34.9258" gradientUnits="userSpaceOnUse">
<stop stop-color="white" stop-opacity="0"/>
<stop offset="0.121" stop-color="#EDEAEA" stop-opacity="0.121"/>
<stop offset="0.285" stop-color="#DAD5D5" stop-opacity="0.285"/>
<stop offset="0.467" stop-color="#CDC6C6" stop-opacity="0.467"/>
<stop offset="0.681" stop-color="#C5BDBD" stop-opacity="0.681"/>
<stop offset="1" stop-color="#C3BABA"/>
</linearGradient>
<linearGradient id="paint18_linear_417_4428" x1="37.9936" y1="35.2539" x2="35.793" y2="35.2539" gradientUnits="userSpaceOnUse">
<stop stop-color="white" stop-opacity="0"/>
<stop offset="0.121" stop-color="#EDEAEA" stop-opacity="0.121"/>
<stop offset="0.285" stop-color="#DAD5D5" stop-opacity="0.285"/>
<stop offset="0.467" stop-color="#CDC6C6" stop-opacity="0.467"/>
<stop offset="0.681" stop-color="#C5BDBD" stop-opacity="0.681"/>
<stop offset="1" stop-color="#C3BABA"/>
</linearGradient>
<linearGradient id="paint19_linear_417_4428" x1="37.9936" y1="35.5821" x2="35.793" y2="35.5821" gradientUnits="userSpaceOnUse">
<stop stop-color="white" stop-opacity="0"/>
<stop offset="0.121" stop-color="#EDEAEA" stop-opacity="0.121"/>
<stop offset="0.285" stop-color="#DAD5D5" stop-opacity="0.285"/>
<stop offset="0.467" stop-color="#CDC6C6" stop-opacity="0.467"/>
<stop offset="0.681" stop-color="#C5BDBD" stop-opacity="0.681"/>
<stop offset="1" stop-color="#C3BABA"/>
</linearGradient>
<linearGradient id="paint20_linear_417_4428" x1="37.9936" y1="35.9103" x2="35.793" y2="35.9103" gradientUnits="userSpaceOnUse">
<stop stop-color="white" stop-opacity="0"/>
<stop offset="0.121" stop-color="#EDEAEA" stop-opacity="0.121"/>
<stop offset="0.285" stop-color="#DAD5D5" stop-opacity="0.285"/>
<stop offset="0.467" stop-color="#CDC6C6" stop-opacity="0.467"/>
<stop offset="0.681" stop-color="#C5BDBD" stop-opacity="0.681"/>
<stop offset="1" stop-color="#C3BABA"/>
</linearGradient>
<linearGradient id="paint21_linear_417_4428" x1="37.9936" y1="36.2383" x2="35.793" y2="36.2383" gradientUnits="userSpaceOnUse">
<stop stop-color="white" stop-opacity="0"/>
<stop offset="0.121" stop-color="#EDEAEA" stop-opacity="0.121"/>
<stop offset="0.285" stop-color="#DAD5D5" stop-opacity="0.285"/>
<stop offset="0.467" stop-color="#CDC6C6" stop-opacity="0.467"/>
<stop offset="0.681" stop-color="#C5BDBD" stop-opacity="0.681"/>
<stop offset="1" stop-color="#C3BABA"/>
</linearGradient>
<linearGradient id="paint22_linear_417_4428" x1="37.9936" y1="36.5664" x2="35.793" y2="36.5664" gradientUnits="userSpaceOnUse">
<stop stop-color="white" stop-opacity="0"/>
<stop offset="0.121" stop-color="#EDEAEA" stop-opacity="0.121"/>
<stop offset="0.285" stop-color="#DAD5D5" stop-opacity="0.285"/>
<stop offset="0.467" stop-color="#CDC6C6" stop-opacity="0.467"/>
<stop offset="0.681" stop-color="#C5BDBD" stop-opacity="0.681"/>
<stop offset="1" stop-color="#C3BABA"/>
</linearGradient>
<linearGradient id="paint23_linear_417_4428" x1="37.9936" y1="36.8946" x2="35.793" y2="36.8946" gradientUnits="userSpaceOnUse">
<stop stop-color="white" stop-opacity="0"/>
<stop offset="0.121" stop-color="#EDEAEA" stop-opacity="0.121"/>
<stop offset="0.285" stop-color="#DAD5D5" stop-opacity="0.285"/>
<stop offset="0.467" stop-color="#CDC6C6" stop-opacity="0.467"/>
<stop offset="0.681" stop-color="#C5BDBD" stop-opacity="0.681"/>
<stop offset="1" stop-color="#C3BABA"/>
</linearGradient>
<linearGradient id="paint24_linear_417_4428" x1="37.9936" y1="37.2228" x2="35.793" y2="37.2228" gradientUnits="userSpaceOnUse">
<stop stop-color="white" stop-opacity="0"/>
<stop offset="0.121" stop-color="#EDEAEA" stop-opacity="0.121"/>
<stop offset="0.285" stop-color="#DAD5D5" stop-opacity="0.285"/>
<stop offset="0.467" stop-color="#CDC6C6" stop-opacity="0.467"/>
<stop offset="0.681" stop-color="#C5BDBD" stop-opacity="0.681"/>
<stop offset="1" stop-color="#C3BABA"/>
</linearGradient>
<linearGradient id="paint25_linear_417_4428" x1="42.8984" y1="21.4383" x2="52.4049" y2="21.4383" gradientUnits="userSpaceOnUse">
<stop stop-color="#C8E7DB"/>
<stop offset="0.104" stop-color="#A0EAD0"/>
<stop offset="0.213" stop-color="#7FECC7"/>
<stop offset="0.33" stop-color="#63EEBF"/>
<stop offset="0.455" stop-color="#4EF0B9"/>
<stop offset="0.594" stop-color="#3FF1B5"/>
<stop offset="0.757" stop-color="#36F2B3"/>
<stop offset="1" stop-color="#33F2B2"/>
</linearGradient>
<linearGradient id="paint26_linear_417_4428" x1="44.1243" y1="24.0602" x2="39.5977" y2="24.0602" gradientUnits="userSpaceOnUse">
<stop stop-color="#006E76"/>
<stop offset="1" stop-color="#009B76"/>
</linearGradient>
<linearGradient id="paint27_linear_417_4428" x1="24.3984" y1="39.6841" x2="26.5635" y2="39.6841" gradientUnits="userSpaceOnUse">
<stop stop-color="#006E76"/>
<stop offset="1" stop-color="#009B76"/>
</linearGradient>
<linearGradient id="paint28_linear_417_4428" x1="25.0469" y1="26.8269" x2="25.9173" y2="26.8269" gradientUnits="userSpaceOnUse">
<stop stop-color="#006E76"/>
<stop offset="1" stop-color="#009B76"/>
</linearGradient>
<linearGradient id="paint29_linear_417_4428" x1="24.3945" y1="44.9289" x2="26.5603" y2="44.9289" gradientUnits="userSpaceOnUse">
<stop stop-color="#FF9DEA"/>
<stop offset="1" stop-color="#E46F8B"/>
</linearGradient>
<clipPath id="clip0_417_4428">
<rect width="40.8333" height="40.8333" fill="white" transform="translate(15.668 14)"/>
</clipPath>
</defs>
</svg>
