<svg width="94" height="92" viewBox="0 0 94 92" fill="none" xmlns="http://www.w3.org/2000/svg">
<g filter="url(#filter0_b_554_2856)">
<rect x="12" width="70" height="70" rx="35" fill="#37CBF9"/>
<rect x="12.4605" y="0.460526" width="69.0789" height="69.0789" rx="34.5395" stroke="#847C7C" stroke-width="0.921053"/>
<g clip-path="url(#clip0_554_2856)">
<path d="M45.6089 44.6055V50.3349C45.6089 50.6742 45.5084 51.0023 45.3366 51.2833H42.0312V52.1147H44.0555C44.0184 52.118 43.9817 52.1222 43.9441 52.1229V52.1244H53.0011C53.9365 52.1244 54.5727 51.2704 54.5727 50.335V44.6055H45.6089V44.6055Z" fill="#FDE1FF"/>
<path d="M45.4884 44.6055V49.813C45.4884 50.6543 44.7998 51.3369 43.9453 51.351V51.3524H52.3393C53.2062 51.3524 53.909 50.6632 53.909 49.813V44.6055H45.4884Z" fill="url(#paint0_linear_554_2856)"/>
<path d="M66.0075 46.6766H34.5437C33.6373 46.6766 32.9023 45.9416 32.9023 45.0352V23.1101C32.9023 22.2036 33.6373 21.4688 34.5437 21.4688H66.0076C66.914 21.4688 67.649 22.2036 67.649 23.1101V45.0352C67.6489 45.9416 66.914 46.6766 66.0075 46.6766Z" fill="url(#paint1_linear_554_2856)"/>
<path d="M64.0934 46.6766H32.6297C31.7232 46.6766 30.9883 45.9416 30.9883 45.0352V23.1101C30.9883 22.2036 31.7232 21.4688 32.6297 21.4688H64.0935C65 21.4688 65.7349 22.2036 65.7349 23.1101V45.0352C65.7348 45.9416 65 46.6766 64.0934 46.6766Z" fill="url(#paint2_linear_554_2856)"/>
<path d="M30.9883 42.8339V23.1101C30.9883 22.2036 31.7232 21.4688 32.6297 21.4688H64.0935C65 21.4688 65.7349 22.2036 65.7349 23.1101V42.8339" fill="url(#paint3_linear_554_2856)"/>
<path d="M48.2457 42.8317H44.1035L36.9258 21.4531H41.068L48.2457 42.8317Z" fill="url(#paint4_linear_554_2856)"/>
<path d="M53.6557 42.8317H49.5137L42.3359 21.4531H46.478L53.6557 42.8317Z" fill="url(#paint5_linear_554_2856)"/>
<path d="M50.2548 24.0987C50.3044 24.0987 50.3446 24.0585 50.3446 24.0089C50.3446 23.9594 50.3044 23.9192 50.2548 23.9192H47.8623V20.5094H50.2548C50.3044 20.5094 50.3446 20.4692 50.3446 20.4197C50.3446 20.3702 50.3044 20.33 50.2548 20.33H47.8623V17.9374C47.8623 17.8878 47.8221 17.8477 47.7725 17.8477C47.723 17.8477 47.6828 17.8878 47.6828 17.9374V20.33H44.2729V17.9374C44.2729 17.8878 44.2327 17.8477 44.1832 17.8477C44.1337 17.8477 44.0935 17.8878 44.0935 17.9374V20.33H40.6837V17.9374C40.6837 17.8878 40.6435 17.8477 40.5939 17.8477C40.5444 17.8477 40.5042 17.8878 40.5042 17.9374V20.33H37.0945V17.9374C37.0945 17.8878 37.0543 17.8477 37.0047 17.8477C36.9552 17.8477 36.915 17.8878 36.915 17.9374V20.33H33.5052V17.9374C33.5052 17.8878 33.465 17.8477 33.4155 17.8477C33.366 17.8477 33.3258 17.8878 33.3258 17.9374V20.33H29.9159V17.9374C29.9159 17.8878 29.8757 17.8477 29.8262 17.8477C29.7767 17.8477 29.7365 17.8878 29.7365 17.9374V20.33H27.6132C27.5636 20.33 27.5234 20.3702 27.5234 20.4197C27.5234 20.4692 27.5636 20.5094 27.6132 20.5094H29.7365V23.9192H27.6132C27.5636 23.9192 27.5234 23.9594 27.5234 24.0089C27.5234 24.0585 27.5636 24.0987 27.6132 24.0987H29.7365V27.5085H27.6132C27.5636 27.5085 27.5234 27.5487 27.5234 27.5982C27.5234 27.6477 27.5636 27.6879 27.6132 27.6879H29.7365V31.0978H27.6132C27.5636 31.0978 27.5234 31.1379 27.5234 31.1875C27.5234 31.237 27.5636 31.2772 27.6132 31.2772H29.7365V34.687H27.6132C27.5636 34.687 27.5234 34.7272 27.5234 34.7767C27.5234 34.8263 27.5636 34.8665 27.6132 34.8665H29.7365V37.259C29.7365 37.3086 29.7767 37.3488 29.8262 37.3488C29.8757 37.3488 29.9159 37.3086 29.9159 37.259V34.8665H33.3258V37.259C33.3258 37.3086 33.366 37.3488 33.4155 37.3488C33.465 37.3488 33.5052 37.3086 33.5052 37.259V34.8665H36.9151V37.259C36.9151 37.3086 36.9553 37.3488 37.0048 37.3488C37.0544 37.3488 37.0945 37.3086 37.0945 37.259V34.8665H40.5043V37.259C40.5043 37.3086 40.5445 37.3488 40.594 37.3488C40.6435 37.3488 40.6837 37.3086 40.6837 37.259V34.8665H44.0936V37.259C44.0936 37.3086 44.1338 37.3488 44.1833 37.3488C44.2328 37.3488 44.273 37.3086 44.273 37.259V34.8665H47.6829V37.259C47.6829 37.3086 47.7231 37.3488 47.7726 37.3488C47.8221 37.3488 47.8623 37.3086 47.8623 37.259V34.8665H50.2549C50.3045 34.8665 50.3446 34.8263 50.3446 34.7767C50.3446 34.7272 50.3045 34.687 50.2549 34.687H47.8623V31.2772H50.2549C50.3045 31.2772 50.3446 31.237 50.3446 31.1875C50.3446 31.1379 50.3045 31.0978 50.2549 31.0978H47.8623V27.6879H50.2549C50.3045 27.6879 50.3446 27.6477 50.3446 27.5982C50.3446 27.5487 50.3045 27.5085 50.2549 27.5085H47.8623V24.0987H50.2548ZM47.6828 20.5094V23.9192H44.2729V20.5094H47.6828ZM44.0935 20.5094V23.9192H40.6837V20.5094H44.0935ZM36.915 27.5085H33.5052V24.0987H36.9151L36.915 27.5085ZM37.0945 24.0987H40.5042V27.5085H37.0945V24.0987ZM36.915 27.6879V31.0978H33.5052V27.6879H36.915ZM37.0945 27.6879H40.5042V31.0978H37.0945V27.6879ZM40.6837 27.6879H44.0935V31.0978H40.6837V27.6879ZM40.6837 27.5085V24.0987H44.0935V27.5085H40.6837ZM40.5042 20.5094V23.9192H37.0945V20.5094H40.5042ZM36.915 20.5094V23.9192H33.5052V20.5094H36.915ZM29.9159 20.5094H33.3258V23.9192H29.9159V20.5094ZM29.9159 24.0987H33.3258V27.5085H29.9159V24.0987ZM29.9159 27.6879H33.3258V31.0978H29.9159V27.6879ZM29.9159 34.687V31.2772H33.3258V34.687H29.9159ZM33.5052 34.687V31.2772H36.9151V34.687H33.5052ZM37.0945 34.687V31.2772H40.5042V34.687H37.0945ZM40.6837 34.687V31.2772H44.0935V34.687H40.6837ZM47.6828 34.687H44.2729V31.2772H47.6828V34.687ZM47.6828 31.0978H44.2729V27.6879H47.6828V31.0978ZM47.6828 27.5085H44.2729V24.0987H47.6828V27.5085Z" fill="url(#paint6_linear_554_2856)"/>
<path d="M62.7484 40.298H46.6604C46.5071 40.298 46.3828 40.1737 46.3828 40.0205V28.4709C46.3828 28.4309 46.4153 28.3984 46.4553 28.3984H62.676C62.8694 28.3984 63.0261 28.5552 63.0261 28.7485V40.0205C63.0261 40.1738 62.9017 40.298 62.7484 40.298Z" fill="url(#paint7_linear_554_2856)"/>
<path d="M61.6 39.259H45.512C45.3586 39.259 45.2344 39.1347 45.2344 38.9814V27.7094C45.2344 27.5161 45.3911 27.3594 45.5845 27.3594H61.5276C61.7209 27.3594 61.8776 27.5161 61.8776 27.7094V38.9814C61.8775 39.1348 61.7534 39.259 61.6 39.259Z" fill="url(#paint8_linear_554_2856)"/>
<path d="M61.8775 29.2831H45.2344V27.6988C45.2344 27.5113 45.3863 27.3594 45.5739 27.3594H61.5382C61.7257 27.3594 61.8776 27.5113 61.8776 27.6988V29.2831H61.8775Z" fill="url(#paint9_linear_554_2856)"/>
<path d="M49.9249 30.8906H46.8047V32.7811H49.9249V30.8906Z" fill="url(#paint10_linear_554_2856)"/>
<path d="M49.9209 33.3594H46.8008V37.7576H49.9209V33.3594Z" fill="url(#paint11_linear_554_2856)"/>
<path d="M60.1755 30.7695H50.5938V37.6379H60.1755V30.7695Z" fill="url(#paint12_linear_554_2856)"/>
<path d="M46.2533 28.7645C46.4364 28.7645 46.5848 28.6161 46.5848 28.433C46.5848 28.25 46.4364 28.1016 46.2533 28.1016C46.0703 28.1016 45.9219 28.25 45.9219 28.433C45.9219 28.6161 46.0703 28.7645 46.2533 28.7645Z" fill="white"/>
<path d="M47.3823 28.7646C47.5654 28.7646 47.7138 28.6162 47.7138 28.4331C47.7138 28.25 47.5654 28.1016 47.3823 28.1016C47.1992 28.1016 47.0508 28.25 47.0508 28.4331C47.0508 28.6162 47.1992 28.7646 47.3823 28.7646Z" fill="white"/>
<path d="M48.4955 28.7645C48.6786 28.7645 48.827 28.6161 48.827 28.433C48.827 28.25 48.6786 28.1016 48.4955 28.1016C48.3125 28.1016 48.1641 28.25 48.1641 28.433C48.1641 28.6161 48.3125 28.7645 48.4955 28.7645Z" fill="white"/>
<path d="M56.921 35.913L56.8438 35.8356L58.4181 34.2612L56.8438 32.6867L56.921 32.6094L58.5729 34.2612L56.921 35.913Z" fill="#543254"/>
<path d="M53.8354 35.913L52.1836 34.2612L53.8354 32.6094L53.9128 32.6867L52.3383 34.2612L53.9128 35.8356L53.8354 35.913Z" fill="#543254"/>
<path d="M55.7803 32.6368L55.6797 32.5938L54.2936 35.8314L54.3942 35.8745L55.7803 32.6368Z" fill="#543254"/>
<path d="M49.4936 33.8867H47.293V33.9962H49.4936V33.8867Z" fill="url(#paint13_linear_554_2856)"/>
<path d="M49.4936 34.2148H47.293V34.3243H49.4936V34.2148Z" fill="url(#paint14_linear_554_2856)"/>
<path d="M49.4936 34.543H47.293V34.6524H49.4936V34.543Z" fill="url(#paint15_linear_554_2856)"/>
<path d="M49.4936 34.8711H47.293V34.9806H49.4936V34.8711Z" fill="url(#paint16_linear_554_2856)"/>
<path d="M49.4936 35.1992H47.293V35.3087H49.4936V35.1992Z" fill="url(#paint17_linear_554_2856)"/>
<path d="M49.4936 35.5273H47.293V35.6368H49.4936V35.5273Z" fill="url(#paint18_linear_554_2856)"/>
<path d="M49.4936 35.8555H47.293V35.965H49.4936V35.8555Z" fill="url(#paint19_linear_554_2856)"/>
<path d="M49.4936 36.1836H47.293V36.2931H49.4936V36.1836Z" fill="url(#paint20_linear_554_2856)"/>
<path d="M49.4936 36.5117H47.293V36.6211H49.4936V36.5117Z" fill="url(#paint21_linear_554_2856)"/>
<path d="M49.4936 36.8398H47.293V36.9493H49.4936V36.8398Z" fill="url(#paint22_linear_554_2856)"/>
<path d="M49.4936 37.168H47.293V37.2775H49.4936V37.168Z" fill="url(#paint23_linear_554_2856)"/>
<path d="M63.0508 21.2981C63.0508 20.838 63.4031 20.4606 63.8526 20.4198C63.7108 19.7624 63.4345 19.1551 63.0538 18.6279C62.7087 18.8816 62.2211 18.8533 61.9088 18.5409C61.6053 18.2374 61.5694 17.7681 61.8005 17.4249C61.269 17.0736 60.6638 16.8247 60.0129 16.707C59.9257 17.1027 59.5735 17.3989 59.1516 17.3989C58.7298 17.3989 58.3776 17.1027 58.2904 16.707C57.6395 16.8247 57.0343 17.0736 56.5028 17.4249C56.7338 17.7681 56.6979 18.2374 56.3945 18.5409C56.0823 18.8533 55.5947 18.8816 55.2494 18.6279C54.8689 19.155 54.5927 19.7624 54.4506 20.4198C54.9002 20.4605 55.2525 20.838 55.2525 21.2981C55.2525 21.7759 54.8725 22.164 54.3984 22.1792C54.5051 22.8711 54.7596 23.5142 55.1282 24.0757C55.1344 24.0691 55.14 24.0619 55.1465 24.0554C55.491 23.7107 56.0498 23.7107 56.3944 24.0554C56.739 24.4 56.739 24.9587 56.3944 25.3033C56.3789 25.3188 56.3625 25.3328 56.3462 25.347C56.9097 25.7523 57.5644 26.0387 58.2737 26.1695C58.2707 26.14 58.2692 26.1101 58.2692 26.0798C58.2692 25.5925 58.6642 25.1974 59.1515 25.1974C59.6389 25.1974 60.034 25.5925 60.034 26.0798C60.034 26.1101 60.0324 26.14 60.0294 26.1695C60.7388 26.0386 61.3935 25.7523 61.957 25.347C61.9406 25.3328 61.9242 25.3188 61.9087 25.3033C61.5641 24.9587 61.5641 24.4 61.9087 24.0554C62.2533 23.7107 62.8121 23.7107 63.1566 24.0554C63.1632 24.0619 63.1688 24.0691 63.1751 24.0757C63.5436 23.5142 63.798 22.8711 63.9047 22.1792C63.4308 22.164 63.0508 21.7759 63.0508 21.2981ZM59.1516 23.6327C57.9779 23.6327 57.0264 22.6812 57.0264 21.5076C57.0264 20.3339 57.978 19.3823 59.1516 19.3823C60.3254 19.3823 61.2769 20.3339 61.2769 21.5076C61.2769 22.6812 60.3254 23.6327 59.1516 23.6327Z" fill="url(#paint24_linear_554_2856)"/>
<path d="M54.628 22.6982C54.4729 22.543 54.4643 22.297 54.6021 22.1317C54.3327 21.9579 54.0349 21.8463 53.7288 21.7969C53.6979 21.9988 53.524 22.1537 53.3134 22.1537C53.1089 22.1537 52.9384 22.0075 52.9007 21.8139C52.6031 21.8746 52.3151 21.9948 52.056 22.1745C52.16 22.3373 52.1411 22.5559 51.9989 22.6981C51.8567 22.8403 51.6381 22.8592 51.4753 22.7552C51.2955 23.0144 51.1753 23.3022 51.1147 23.5998C51.3083 23.6376 51.4545 23.808 51.4545 24.0126C51.4545 24.2232 51.2997 24.3971 51.0977 24.428C51.1471 24.734 51.2588 25.0319 51.4325 25.3014C51.5977 25.1636 51.8437 25.172 51.9989 25.3272C52.16 25.4883 52.1628 25.7472 52.008 25.9121C52.2772 26.1094 52.5799 26.2405 52.8934 26.3055C52.8933 26.3011 52.8927 26.2969 52.8927 26.2924C52.8927 26.0601 53.0811 25.8718 53.3134 25.8718C53.5458 25.8718 53.7341 26.0601 53.7341 26.2924C53.7341 26.3029 53.7333 26.3132 53.7325 26.3235C54.0592 26.2702 54.3764 26.1459 54.6597 25.9509C54.6487 25.942 54.6381 25.9324 54.628 25.9222C54.4636 25.7579 54.4636 25.4916 54.628 25.3273C54.7923 25.1629 55.0587 25.1629 55.2229 25.3273C55.2331 25.3375 55.2427 25.3481 55.2517 25.359C55.4466 25.0757 55.5708 24.7585 55.6242 24.4319C55.6139 24.4326 55.6036 24.4335 55.5932 24.4335C55.3608 24.4335 55.1725 24.2451 55.1725 24.0128C55.1725 23.7805 55.3608 23.592 55.5932 23.592C55.5976 23.592 55.6018 23.5926 55.6062 23.5927C55.5412 23.2792 55.4102 22.9766 55.2128 22.7073C55.048 22.862 54.7891 22.8592 54.628 22.6982ZM54.1005 24.7997C53.7048 25.1954 53.0632 25.1954 52.6675 24.7997C52.2718 24.4041 52.2718 23.7625 52.6675 23.3667C53.0632 22.9711 53.7048 22.9711 54.1005 23.3667C54.4962 23.7625 54.4962 24.4041 54.1005 24.7997Z" fill="url(#paint25_linear_554_2856)"/>
<path d="M35.8984 30.7578H38.0635V47.5278C38.0635 48.1257 37.5788 48.6104 36.9809 48.6104C36.3831 48.6104 35.8984 48.1257 35.8984 47.5278V30.7578Z" fill="url(#paint26_linear_554_2856)"/>
<path d="M35.8945 30.7553L36.9782 25.8398L38.0619 30.7553H35.8945Z" fill="#FDDCFF"/>
<path d="M37.4173 27.814L36.9821 25.8398L36.5469 27.814H37.4173Z" fill="url(#paint27_linear_554_2856)"/>
<path d="M38.0603 44.8164H35.8945V45.0415H38.0603V44.8164Z" fill="url(#paint28_linear_554_2856)"/>
</g>
</g>
<path d="M6.7749 78.6909C6.90674 78.8081 7.0752 78.9766 7.2583 79.189C7.44873 79.4014 7.63916 79.665 7.82227 79.98C8.00537 80.2949 8.15918 80.6685 8.28369 81.1006C8.4082 81.5327 8.47412 82.0308 8.47412 82.5947C8.47412 83.0122 8.4082 83.4297 8.28369 83.8472C8.15918 84.2646 8.0127 84.6528 7.82959 85.0117C7.64648 85.3706 7.45605 85.6782 7.27295 85.9419C7.08252 86.2056 6.92139 86.4033 6.78955 86.5278C6.30615 86.9819 5.75684 87.3481 5.13428 87.6118C4.51172 87.8828 3.84521 88.022 3.13477 88.0293C2.84912 88.0293 2.59277 88.0293 2.3584 88.0293C2.12402 88.0293 1.91162 88.0293 1.72119 88.0293C1.53076 88.0293 1.35498 88.0293 1.2085 88.0293C1.05469 88.0293 0.922852 88.0293 0.805664 88.0293C0.688477 88.0293 0.593262 88.0293 0.505371 88.0293C0.41748 88.0293 0.344238 88.0293 0.285645 88.0293C0.227051 88.0293 0.175781 88.0293 0.13916 88.0293C0.102539 88.0293 0.0732422 88.0293 0.0512695 88.0293C0.0366211 88.0293 0.0219727 88.0293 0.0146484 88.0293C0.00732422 88.0293 0 88.0293 0 88.0293V79.2915C0 79.2036 0.00732422 79.0864 0.0146484 78.9473C0.0292969 78.8154 0.065918 78.6616 0.124512 78.4932C0.183105 78.332 0.27832 78.1636 0.410156 77.9951C0.615234 77.7607 0.864258 77.5923 1.15723 77.4897C1.45752 77.3799 1.77979 77.314 2.12402 77.292C2.46826 77.2627 2.80518 77.248 3.13477 77.248C3.83789 77.248 4.49707 77.3799 5.11963 77.6289C5.74219 77.8853 6.2915 78.2368 6.7749 78.6909ZM3.13477 86.5718C3.84521 86.5718 4.49707 86.3887 5.09033 86.0298C5.67627 85.6636 6.14502 85.1729 6.49658 84.5723C6.84814 83.9644 7.02393 83.3052 7.02393 82.5947C7.02393 81.8843 6.84814 81.2324 6.50391 80.6465C6.15967 80.0605 5.69824 79.5991 5.11963 79.2476C4.54102 78.9033 3.89648 78.7202 3.17871 78.7056V78.6982L1.97021 78.6909C1.66992 78.6763 1.50146 78.8081 1.46484 79.0791C1.45752 79.1377 1.45752 79.5405 1.4502 80.2876C1.44287 81.0273 1.44287 81.8843 1.44287 82.8511C1.43555 83.8252 1.43555 84.6821 1.43555 85.4365C1.43555 86.1909 1.43555 86.5645 1.43555 86.5645L3.13477 86.5718ZM17.666 84.3452H16.2085L11.2646 84.3379C11.3525 84.9678 11.6162 85.4951 12.0703 85.9053C12.5317 86.3154 13.0811 86.5352 13.7402 86.5498C14.2017 86.5425 14.707 86.4546 15.2417 86.2861C15.7837 86.125 16.2158 85.9126 16.5601 85.6709H16.5674L17.3511 86.8208C16.7065 87.2676 16.0986 87.5752 15.5347 87.751C14.9707 87.9268 14.3701 88.0073 13.7329 88C12.6709 87.978 11.77 87.6191 11.0449 86.9307C10.3125 86.2495 9.90234 85.3779 9.80713 84.3306C9.7998 84.2427 9.7998 84.1548 9.7998 84.0596C9.7998 83.6421 9.86572 83.2539 9.98291 82.873C10.2466 82.0601 10.7153 81.4082 11.3892 80.9028C12.063 80.3975 12.8467 80.1411 13.7402 80.1265C14.6338 80.1411 15.4175 80.3975 16.0913 80.9028C16.7578 81.4082 17.2266 82.0674 17.4976 82.8804C17.6147 83.2539 17.6733 83.6494 17.6733 84.0669C17.6733 84.1548 17.6733 84.25 17.666 84.3452ZM11.7114 82.7339L16.0767 82.7412C15.8643 82.3457 15.564 82.0308 15.1831 81.7964C14.8022 81.562 14.3701 81.4448 13.894 81.4375C13.418 81.4375 12.9858 81.562 12.605 81.7964C12.2241 82.0308 11.9238 82.3457 11.7114 82.7339ZM24.6899 80.1265H26.2207C26.2207 80.1265 26.0962 80.4487 25.8545 81.1006C25.6055 81.7524 25.3198 82.5068 24.9902 83.3711C24.6606 84.2354 24.3604 85.0264 24.082 85.7515C23.811 86.4766 23.6353 86.938 23.5547 87.1431C23.4009 87.5093 23.1665 87.751 22.8516 87.8828C22.5366 88.0073 22.2217 88.022 21.8921 87.9194C21.5625 87.8096 21.3062 87.5825 21.123 87.2456C20.9619 86.9233 20.7349 86.396 20.4346 85.6416C20.1416 84.8945 19.8267 84.0962 19.5117 83.2539C19.1895 82.4043 18.9111 81.6719 18.6841 81.0566C18.457 80.4341 18.3398 80.1265 18.3398 80.1265H19.8706L22.3169 86.5205L24.6899 80.1265ZM34.5996 84.3452H33.1421L28.1982 84.3379C28.2861 84.9678 28.5498 85.4951 29.0039 85.9053C29.4653 86.3154 30.0146 86.5352 30.6738 86.5498C31.1353 86.5425 31.6406 86.4546 32.1753 86.2861C32.7173 86.125 33.1494 85.9126 33.4937 85.6709H33.501L34.2847 86.8208C33.6401 87.2676 33.0322 87.5752 32.4683 87.751C31.9043 87.9268 31.3037 88.0073 30.6665 88C29.6045 87.978 28.7036 87.6191 27.9785 86.9307C27.2461 86.2495 26.8359 85.3779 26.7407 84.3306C26.7334 84.2427 26.7334 84.1548 26.7334 84.0596C26.7334 83.6421 26.7993 83.2539 26.9165 82.873C27.1802 82.0601 27.6489 81.4082 28.3228 80.9028C28.9966 80.3975 29.7803 80.1411 30.6738 80.1265C31.5674 80.1411 32.3511 80.3975 33.0249 80.9028C33.6914 81.4082 34.1602 82.0674 34.4312 82.8804C34.5483 83.2539 34.6069 83.6494 34.6069 84.0669C34.6069 84.1548 34.6069 84.25 34.5996 84.3452ZM28.645 82.7339L33.0103 82.7412C32.7979 82.3457 32.4976 82.0308 32.1167 81.7964C31.7358 81.562 31.3037 81.4448 30.8276 81.4375C30.3516 81.4375 29.9194 81.562 29.5386 81.7964C29.1577 82.0308 28.8574 82.3457 28.645 82.7339ZM35.9399 88C35.9326 82.0674 35.9326 78.8008 35.9399 78.2075C35.9473 77.5923 35.9473 77.2554 35.9546 77.2041H37.4268L37.4414 88H35.9399ZM42.2607 80.1191C42.9858 80.1191 43.645 80.3022 44.2383 80.6538C44.8389 81.0054 45.3076 81.4814 45.6665 82.082C46.0181 82.6753 46.1938 83.3345 46.1938 84.0596C46.1938 84.7847 46.0181 85.4438 45.6665 86.0444C45.3076 86.6377 44.8389 87.1138 44.2383 87.4653C43.645 87.8242 42.9858 88 42.2607 88C41.5356 88 40.8691 87.8242 40.2759 87.4653C39.6826 87.1138 39.2065 86.6377 38.855 86.0444C38.4961 85.4438 38.3203 84.7847 38.3203 84.0596C38.3203 83.3345 38.4961 82.6753 38.855 82.082C39.2065 81.4814 39.6826 81.0054 40.2759 80.6538C40.8691 80.3022 41.5356 80.1191 42.2607 80.1191ZM42.2607 86.5498C42.9419 86.5498 43.5278 86.3008 44.0186 85.8174C44.502 85.334 44.7437 84.748 44.7437 84.0596C44.7437 83.3784 44.502 82.7925 44.0186 82.3018C43.5278 81.8184 42.9419 81.5767 42.2607 81.5767C41.5723 81.5767 40.9863 81.8184 40.5029 82.3018C40.0122 82.7925 39.7705 83.3784 39.7705 84.0596C39.7705 84.748 40.0122 85.334 40.5029 85.8174C40.9863 86.3008 41.5723 86.5498 42.2607 86.5498ZM51.46 80.1411C52.1851 80.1411 52.8442 80.3169 53.4448 80.6685C54.0381 81.0273 54.5142 81.5034 54.8657 82.0967C55.2246 82.6973 55.4004 83.3564 55.4004 84.0815C55.4004 84.8066 55.2246 85.4658 54.8657 86.0591C54.5142 86.6597 54.0381 87.1357 53.4448 87.4873C52.8442 87.8462 52.1851 88.022 51.46 88.022C50.9912 88.022 50.5444 87.9414 50.127 87.7876C49.7021 87.6338 49.3213 87.4141 48.9771 87.1357L48.9844 90.9297H47.5195V80.1411L48.9697 80.1338V81.0273C49.314 80.749 49.6948 80.5293 50.1196 80.3755C50.5444 80.2144 50.9912 80.1411 51.46 80.1411ZM51.46 86.5718C52.1484 86.5718 52.7344 86.3228 53.2178 85.8394C53.7085 85.356 53.9502 84.7627 53.9502 84.0815C53.9502 83.3931 53.7085 82.8071 53.2178 82.3237C52.7344 81.833 52.1484 81.5913 51.46 81.5913C51.0205 81.5913 50.6104 81.7085 50.2368 81.9429C49.856 82.1699 49.5557 82.4775 49.3286 82.8511C49.1016 83.2246 48.9844 83.6348 48.9697 84.0742C48.9697 84.0742 48.9697 84.0815 48.9697 84.0962C48.9771 84.1182 48.9771 84.1328 48.9771 84.1548C48.9771 84.1694 48.9771 84.1914 48.9771 84.2061C49.0063 84.5869 49.1382 84.9531 49.3726 85.312C49.5996 85.6709 49.8999 85.9712 50.2734 86.2129C50.6396 86.4473 51.0352 86.5718 51.46 86.5718ZM56.7334 85.7808C56.7334 85.7734 56.7334 85.7661 56.7334 85.7588V85.7808ZM65.0391 80.1045C65.5811 80.1045 66.1011 80.2437 66.5918 80.5073C67.0898 80.771 67.4927 81.1299 67.8076 81.5767C68.1152 82.0234 68.2764 82.5215 68.2764 83.0635C68.2764 83.0708 68.2764 83.1367 68.2764 83.2759C68.2764 83.6274 68.2764 84.2354 68.2764 85.0996C68.269 85.9712 68.269 86.938 68.269 88H66.8188C66.8188 87.9268 66.8188 87.6411 66.8188 87.1504C66.8188 86.6523 66.8188 86.0957 66.8188 85.4658C66.8188 84.8359 66.8188 84.2866 66.8188 83.7959C66.8262 83.3125 66.8262 83.0708 66.8262 83.0635C66.8262 82.7852 66.731 82.5361 66.5479 82.3091C66.3647 82.082 66.1377 81.8989 65.8667 81.7598C65.5884 81.6279 65.3174 81.562 65.0391 81.562C64.6362 81.562 64.2334 81.7085 63.8379 82.0015C63.4497 82.2944 63.2373 82.6313 63.208 83.0049C63.208 83.0342 63.208 83.2832 63.208 83.7593C63.2007 84.228 63.2007 84.7847 63.2007 85.4146C63.2007 86.0444 63.2007 86.6084 63.2007 87.1138C63.1934 87.6191 63.1934 87.9121 63.1934 88H61.7505C61.7505 87.2017 61.7505 86.418 61.7505 85.6416C61.7505 84.8652 61.7505 84.228 61.7578 83.7373C61.7578 83.2686 61.7578 83.0269 61.7578 83.0049C61.7212 82.5947 61.5161 82.2505 61.1426 81.9722C60.769 81.6938 60.3809 81.562 59.9707 81.562C59.707 81.562 59.4507 81.6426 59.1943 81.811C58.9453 81.9795 58.7402 82.1699 58.5718 82.397C58.4033 82.6167 58.3081 82.8218 58.2861 83.0049L58.2788 88H56.8213C56.8213 87.9927 56.8213 87.9927 56.8213 87.9927V87.9268C56.8213 87.7144 56.8213 87.2969 56.8213 86.6743C56.8213 86.0518 56.8213 85.4072 56.8286 84.7554C56.8286 84.0962 56.8286 83.6055 56.8286 83.2832C56.8286 83.1367 56.8286 83.0635 56.8286 83.0635C56.8286 83.0415 56.8286 83.0269 56.8286 83.0049C56.8286 82.9976 56.8286 82.9902 56.8286 82.9829L56.8359 80.1045L58.2861 80.1118V80.5952C58.8062 80.2729 59.3701 80.1045 59.9707 80.1045C60.4175 80.1045 60.8716 80.1997 61.3477 80.3755C61.8164 80.5586 62.1973 80.8076 62.4829 81.1226C62.7686 80.8076 63.1567 80.5586 63.6401 80.3828C64.1309 80.1997 64.5923 80.1045 65.0391 80.1045ZM77.4609 84.3452H76.0034L71.0596 84.3379C71.1475 84.9678 71.4111 85.4951 71.8652 85.9053C72.3267 86.3154 72.876 86.5352 73.5352 86.5498C73.9966 86.5425 74.502 86.4546 75.0366 86.2861C75.5786 86.125 76.0107 85.9126 76.355 85.6709H76.3623L77.146 86.8208C76.5015 87.2676 75.8936 87.5752 75.3296 87.751C74.7656 87.9268 74.165 88.0073 73.5278 88C72.4658 87.978 71.5649 87.6191 70.8398 86.9307C70.1074 86.2495 69.6973 85.3779 69.6021 84.3306C69.5947 84.2427 69.5947 84.1548 69.5947 84.0596C69.5947 83.6421 69.6606 83.2539 69.7778 82.873C70.0415 82.0601 70.5103 81.4082 71.1841 80.9028C71.8579 80.3975 72.6416 80.1411 73.5352 80.1265C74.4287 80.1411 75.2124 80.3975 75.8862 80.9028C76.5527 81.4082 77.0215 82.0674 77.2925 82.8804C77.4097 83.2539 77.4683 83.6494 77.4683 84.0669C77.4683 84.1548 77.4683 84.25 77.4609 84.3452ZM71.5063 82.7339L75.8716 82.7412C75.6592 82.3457 75.3589 82.0308 74.978 81.7964C74.5972 81.562 74.165 81.4448 73.689 81.4375C73.2129 81.4375 72.7808 81.562 72.3999 81.7964C72.019 82.0308 71.7188 82.3457 71.5063 82.7339ZM82.522 80.1045C83.2397 80.1118 83.855 80.2437 84.3823 80.4854C84.9023 80.7344 85.3345 81.0493 85.6714 81.4375C86.0083 81.8257 86.2646 82.2285 86.4258 82.6606C86.5942 83.0854 86.6748 83.481 86.6748 83.8398L86.6675 88H85.2246V84.5356C85.2612 83.8398 85.1514 83.2759 84.9097 82.8438C84.6606 82.4116 84.3457 82.0894 83.9502 81.8843C83.5547 81.6865 83.1445 81.5767 82.7197 81.5767C82.1338 81.562 81.5991 81.7671 81.1157 82.1919C80.625 82.624 80.3394 83.2832 80.2515 84.1914V84.9751C80.2588 85.3047 80.2588 85.6636 80.2588 86.0591C80.2588 86.4619 80.2515 86.8281 80.2515 87.1577V88H80.2368H78.7939V87.9927V87.978L78.8013 83.9204C78.8013 83.8838 78.8013 83.8545 78.8013 83.8179L78.8086 80.1045L80.2588 80.1118V80.9688C80.9399 80.4121 81.6943 80.1265 82.522 80.1045ZM92.5195 87.9854C92.4829 87.9854 92.4463 87.9854 92.4097 87.9854C91.8677 87.9854 91.4062 87.9561 91.0181 87.8901C90.6372 87.8242 90.2563 87.6704 89.8828 87.4287C89.5093 87.1943 89.2529 86.8062 89.1284 86.2715C89.0186 85.7588 88.9673 84.9678 88.96 83.8911C88.96 82.8145 88.9673 82.0381 88.9819 81.5693H87.9932V80.1118H88.9673C88.96 79.1157 88.96 78.1416 88.9673 77.1968H90.4395L90.4468 80.1118H92.0728V81.5693H90.4541C90.4321 82.7559 90.4321 84.0522 90.4541 85.4585C90.4614 86.2422 91.1499 86.5938 92.5195 86.5352V87.9854Z" fill="black"/>
<defs>
<filter id="filter0_b_554_2856" x="-171.289" y="-183.289" width="436.579" height="436.579" filterUnits="userSpaceOnUse" color-interpolation-filters="sRGB">
<feFlood flood-opacity="0" result="BackgroundImageFix"/>
<feGaussianBlur in="BackgroundImageFix" stdDeviation="91.6447"/>
<feComposite in2="SourceAlpha" operator="in" result="effect1_backgroundBlur_554_2856"/>
<feBlend mode="normal" in="SourceGraphic" in2="effect1_backgroundBlur_554_2856" result="shape"/>
</filter>
<linearGradient id="paint0_linear_554_2856" x1="48.9271" y1="51.3524" x2="48.9271" y2="44.6055" gradientUnits="userSpaceOnUse">
<stop stop-color="#FD72B7"/>
<stop offset="0.157" stop-color="#FD78BB"/>
<stop offset="0.371" stop-color="#FD8AC6"/>
<stop offset="0.618" stop-color="#FDA6D9"/>
<stop offset="0.887" stop-color="#FDCEF3"/>
<stop offset="1" stop-color="#FDE1FF"/>
</linearGradient>
<linearGradient id="paint1_linear_554_2856" x1="50.2756" y1="46.6766" x2="50.2756" y2="21.4688" gradientUnits="userSpaceOnUse">
<stop stop-color="#FD72B7"/>
<stop offset="0.157" stop-color="#FD78BB"/>
<stop offset="0.371" stop-color="#FD8AC6"/>
<stop offset="0.618" stop-color="#FDA6D9"/>
<stop offset="0.887" stop-color="#FDCEF3"/>
<stop offset="1" stop-color="#FDE1FF"/>
</linearGradient>
<linearGradient id="paint2_linear_554_2856" x1="30.9883" y1="34.0727" x2="65.7348" y2="34.0727" gradientUnits="userSpaceOnUse">
<stop stop-color="#FDA1E8"/>
<stop offset="0.628" stop-color="#FDCCF8"/>
<stop offset="1" stop-color="#FDE1FF"/>
</linearGradient>
<linearGradient id="paint3_linear_554_2856" x1="30.9883" y1="32.1514" x2="65.7348" y2="32.1514" gradientUnits="userSpaceOnUse">
<stop stop-color="#7B78AB"/>
<stop offset="0.205" stop-color="#666086"/>
<stop offset="0.419" stop-color="#554C67"/>
<stop offset="0.627" stop-color="#493E50"/>
<stop offset="0.824" stop-color="#423543"/>
<stop offset="1" stop-color="#3F323E"/>
</linearGradient>
<linearGradient id="paint4_linear_554_2856" x1="48.2457" y1="32.1424" x2="36.9259" y2="32.1424" gradientUnits="userSpaceOnUse">
<stop stop-color="white" stop-opacity="0"/>
<stop offset="1" stop-color="white"/>
</linearGradient>
<linearGradient id="paint5_linear_554_2856" x1="53.6557" y1="32.1424" x2="42.3359" y2="32.1424" gradientUnits="userSpaceOnUse">
<stop stop-color="white" stop-opacity="0"/>
<stop offset="1" stop-color="white"/>
</linearGradient>
<linearGradient id="paint6_linear_554_2856" x1="27.5234" y1="27.5982" x2="50.3446" y2="27.5982" gradientUnits="userSpaceOnUse">
<stop stop-color="#C8E7DB"/>
<stop offset="0.104" stop-color="#A0EAD0"/>
<stop offset="0.213" stop-color="#7FECC7"/>
<stop offset="0.33" stop-color="#63EEBF"/>
<stop offset="0.455" stop-color="#4EF0B9"/>
<stop offset="0.594" stop-color="#3FF1B5"/>
<stop offset="0.757" stop-color="#36F2B3"/>
<stop offset="1" stop-color="#33F2B2"/>
</linearGradient>
<linearGradient id="paint7_linear_554_2856" x1="46.3827" y1="34.3482" x2="63.0261" y2="34.3482" gradientUnits="userSpaceOnUse">
<stop stop-color="#006E76"/>
<stop offset="1" stop-color="#009B76"/>
</linearGradient>
<linearGradient id="paint8_linear_554_2856" x1="45.2344" y1="33.3092" x2="61.8775" y2="33.3092" gradientUnits="userSpaceOnUse">
<stop stop-color="#FDA1E8"/>
<stop offset="0.628" stop-color="#FDCCF8"/>
<stop offset="1" stop-color="#FDE1FF"/>
</linearGradient>
<linearGradient id="paint9_linear_554_2856" x1="45.2344" y1="28.3212" x2="61.8775" y2="28.3212" gradientUnits="userSpaceOnUse">
<stop stop-color="#FF9DEA"/>
<stop offset="1" stop-color="#E46F8B"/>
</linearGradient>
<linearGradient id="paint10_linear_554_2856" x1="49.9248" y1="31.8359" x2="46.8047" y2="31.8359" gradientUnits="userSpaceOnUse">
<stop stop-color="white" stop-opacity="0"/>
<stop offset="0.146" stop-color="white" stop-opacity="0.146"/>
<stop offset="1" stop-color="white"/>
</linearGradient>
<linearGradient id="paint11_linear_554_2856" x1="49.9209" y1="35.5585" x2="46.8009" y2="35.5585" gradientUnits="userSpaceOnUse">
<stop stop-color="white" stop-opacity="0"/>
<stop offset="0.146" stop-color="white" stop-opacity="0.146"/>
<stop offset="1" stop-color="white"/>
</linearGradient>
<linearGradient id="paint12_linear_554_2856" x1="60.1755" y1="34.2038" x2="50.5938" y2="34.2038" gradientUnits="userSpaceOnUse">
<stop stop-color="white" stop-opacity="0"/>
<stop offset="0.146" stop-color="white" stop-opacity="0.146"/>
<stop offset="1" stop-color="white"/>
</linearGradient>
<linearGradient id="paint13_linear_554_2856" x1="49.4936" y1="33.9415" x2="47.293" y2="33.9415" gradientUnits="userSpaceOnUse">
<stop stop-color="white" stop-opacity="0"/>
<stop offset="0.121" stop-color="#EDEAEA" stop-opacity="0.121"/>
<stop offset="0.285" stop-color="#DAD5D5" stop-opacity="0.285"/>
<stop offset="0.467" stop-color="#CDC6C6" stop-opacity="0.467"/>
<stop offset="0.681" stop-color="#C5BDBD" stop-opacity="0.681"/>
<stop offset="1" stop-color="#C3BABA"/>
</linearGradient>
<linearGradient id="paint14_linear_554_2856" x1="49.4936" y1="34.2695" x2="47.293" y2="34.2695" gradientUnits="userSpaceOnUse">
<stop stop-color="white" stop-opacity="0"/>
<stop offset="0.121" stop-color="#EDEAEA" stop-opacity="0.121"/>
<stop offset="0.285" stop-color="#DAD5D5" stop-opacity="0.285"/>
<stop offset="0.467" stop-color="#CDC6C6" stop-opacity="0.467"/>
<stop offset="0.681" stop-color="#C5BDBD" stop-opacity="0.681"/>
<stop offset="1" stop-color="#C3BABA"/>
</linearGradient>
<linearGradient id="paint15_linear_554_2856" x1="49.4936" y1="34.5978" x2="47.293" y2="34.5978" gradientUnits="userSpaceOnUse">
<stop stop-color="white" stop-opacity="0"/>
<stop offset="0.121" stop-color="#EDEAEA" stop-opacity="0.121"/>
<stop offset="0.285" stop-color="#DAD5D5" stop-opacity="0.285"/>
<stop offset="0.467" stop-color="#CDC6C6" stop-opacity="0.467"/>
<stop offset="0.681" stop-color="#C5BDBD" stop-opacity="0.681"/>
<stop offset="1" stop-color="#C3BABA"/>
</linearGradient>
<linearGradient id="paint16_linear_554_2856" x1="49.4936" y1="34.9258" x2="47.293" y2="34.9258" gradientUnits="userSpaceOnUse">
<stop stop-color="white" stop-opacity="0"/>
<stop offset="0.121" stop-color="#EDEAEA" stop-opacity="0.121"/>
<stop offset="0.285" stop-color="#DAD5D5" stop-opacity="0.285"/>
<stop offset="0.467" stop-color="#CDC6C6" stop-opacity="0.467"/>
<stop offset="0.681" stop-color="#C5BDBD" stop-opacity="0.681"/>
<stop offset="1" stop-color="#C3BABA"/>
</linearGradient>
<linearGradient id="paint17_linear_554_2856" x1="49.4936" y1="35.2539" x2="47.293" y2="35.2539" gradientUnits="userSpaceOnUse">
<stop stop-color="white" stop-opacity="0"/>
<stop offset="0.121" stop-color="#EDEAEA" stop-opacity="0.121"/>
<stop offset="0.285" stop-color="#DAD5D5" stop-opacity="0.285"/>
<stop offset="0.467" stop-color="#CDC6C6" stop-opacity="0.467"/>
<stop offset="0.681" stop-color="#C5BDBD" stop-opacity="0.681"/>
<stop offset="1" stop-color="#C3BABA"/>
</linearGradient>
<linearGradient id="paint18_linear_554_2856" x1="49.4936" y1="35.5821" x2="47.293" y2="35.5821" gradientUnits="userSpaceOnUse">
<stop stop-color="white" stop-opacity="0"/>
<stop offset="0.121" stop-color="#EDEAEA" stop-opacity="0.121"/>
<stop offset="0.285" stop-color="#DAD5D5" stop-opacity="0.285"/>
<stop offset="0.467" stop-color="#CDC6C6" stop-opacity="0.467"/>
<stop offset="0.681" stop-color="#C5BDBD" stop-opacity="0.681"/>
<stop offset="1" stop-color="#C3BABA"/>
</linearGradient>
<linearGradient id="paint19_linear_554_2856" x1="49.4936" y1="35.9103" x2="47.293" y2="35.9103" gradientUnits="userSpaceOnUse">
<stop stop-color="white" stop-opacity="0"/>
<stop offset="0.121" stop-color="#EDEAEA" stop-opacity="0.121"/>
<stop offset="0.285" stop-color="#DAD5D5" stop-opacity="0.285"/>
<stop offset="0.467" stop-color="#CDC6C6" stop-opacity="0.467"/>
<stop offset="0.681" stop-color="#C5BDBD" stop-opacity="0.681"/>
<stop offset="1" stop-color="#C3BABA"/>
</linearGradient>
<linearGradient id="paint20_linear_554_2856" x1="49.4936" y1="36.2383" x2="47.293" y2="36.2383" gradientUnits="userSpaceOnUse">
<stop stop-color="white" stop-opacity="0"/>
<stop offset="0.121" stop-color="#EDEAEA" stop-opacity="0.121"/>
<stop offset="0.285" stop-color="#DAD5D5" stop-opacity="0.285"/>
<stop offset="0.467" stop-color="#CDC6C6" stop-opacity="0.467"/>
<stop offset="0.681" stop-color="#C5BDBD" stop-opacity="0.681"/>
<stop offset="1" stop-color="#C3BABA"/>
</linearGradient>
<linearGradient id="paint21_linear_554_2856" x1="49.4936" y1="36.5664" x2="47.293" y2="36.5664" gradientUnits="userSpaceOnUse">
<stop stop-color="white" stop-opacity="0"/>
<stop offset="0.121" stop-color="#EDEAEA" stop-opacity="0.121"/>
<stop offset="0.285" stop-color="#DAD5D5" stop-opacity="0.285"/>
<stop offset="0.467" stop-color="#CDC6C6" stop-opacity="0.467"/>
<stop offset="0.681" stop-color="#C5BDBD" stop-opacity="0.681"/>
<stop offset="1" stop-color="#C3BABA"/>
</linearGradient>
<linearGradient id="paint22_linear_554_2856" x1="49.4936" y1="36.8946" x2="47.293" y2="36.8946" gradientUnits="userSpaceOnUse">
<stop stop-color="white" stop-opacity="0"/>
<stop offset="0.121" stop-color="#EDEAEA" stop-opacity="0.121"/>
<stop offset="0.285" stop-color="#DAD5D5" stop-opacity="0.285"/>
<stop offset="0.467" stop-color="#CDC6C6" stop-opacity="0.467"/>
<stop offset="0.681" stop-color="#C5BDBD" stop-opacity="0.681"/>
<stop offset="1" stop-color="#C3BABA"/>
</linearGradient>
<linearGradient id="paint23_linear_554_2856" x1="49.4936" y1="37.2228" x2="47.293" y2="37.2228" gradientUnits="userSpaceOnUse">
<stop stop-color="white" stop-opacity="0"/>
<stop offset="0.121" stop-color="#EDEAEA" stop-opacity="0.121"/>
<stop offset="0.285" stop-color="#DAD5D5" stop-opacity="0.285"/>
<stop offset="0.467" stop-color="#CDC6C6" stop-opacity="0.467"/>
<stop offset="0.681" stop-color="#C5BDBD" stop-opacity="0.681"/>
<stop offset="1" stop-color="#C3BABA"/>
</linearGradient>
<linearGradient id="paint24_linear_554_2856" x1="54.3984" y1="21.4383" x2="63.9049" y2="21.4383" gradientUnits="userSpaceOnUse">
<stop stop-color="#C8E7DB"/>
<stop offset="0.104" stop-color="#A0EAD0"/>
<stop offset="0.213" stop-color="#7FECC7"/>
<stop offset="0.33" stop-color="#63EEBF"/>
<stop offset="0.455" stop-color="#4EF0B9"/>
<stop offset="0.594" stop-color="#3FF1B5"/>
<stop offset="0.757" stop-color="#36F2B3"/>
<stop offset="1" stop-color="#33F2B2"/>
</linearGradient>
<linearGradient id="paint25_linear_554_2856" x1="55.6243" y1="24.0602" x2="51.0977" y2="24.0602" gradientUnits="userSpaceOnUse">
<stop stop-color="#006E76"/>
<stop offset="1" stop-color="#009B76"/>
</linearGradient>
<linearGradient id="paint26_linear_554_2856" x1="35.8984" y1="39.6841" x2="38.0635" y2="39.6841" gradientUnits="userSpaceOnUse">
<stop stop-color="#006E76"/>
<stop offset="1" stop-color="#009B76"/>
</linearGradient>
<linearGradient id="paint27_linear_554_2856" x1="36.5469" y1="26.8269" x2="37.4173" y2="26.8269" gradientUnits="userSpaceOnUse">
<stop stop-color="#006E76"/>
<stop offset="1" stop-color="#009B76"/>
</linearGradient>
<linearGradient id="paint28_linear_554_2856" x1="35.8945" y1="44.9289" x2="38.0603" y2="44.9289" gradientUnits="userSpaceOnUse">
<stop stop-color="#FF9DEA"/>
<stop offset="1" stop-color="#E46F8B"/>
</linearGradient>
<clipPath id="clip0_554_2856">
<rect width="40.8333" height="40.8333" fill="white" transform="translate(27.168 14)"/>
</clipPath>
</defs>
</svg>
