<svg width="70" height="92" viewBox="0 0 70 92" fill="none" xmlns="http://www.w3.org/2000/svg">
<g filter="url(#filter0_b_554_1470)">
<rect width="70" height="70" rx="35" fill="url(#paint0_linear_554_1470)"/>
<g style="mix-blend-mode:darken" clip-path="url(#clip0_554_1470)">
<path d="M32.8304 27.1134C32.8255 27.177 32.8024 27.2378 32.7637 27.2885C32.7251 27.3392 32.6726 27.3777 32.6126 27.3993L31.7892 27.7327C31.7071 28.0504 31.5811 28.355 31.4148 28.6379L31.7619 29.4477C31.7882 29.5075 31.7976 29.5733 31.7893 29.6381C31.7809 29.7029 31.7549 29.7641 31.7143 29.8152C31.4919 30.0818 31.2459 30.3278 30.9793 30.5502C30.9282 30.5909 30.8669 30.6168 30.8022 30.6252C30.7374 30.6336 30.6716 30.6241 30.6118 30.5979L29.8019 30.2508C29.515 30.4152 29.2086 30.5433 28.89 30.6319L28.5633 31.4486C28.5417 31.5085 28.5033 31.561 28.4526 31.5997C28.4018 31.6383 28.341 31.6614 28.2775 31.6663C27.9291 31.7038 27.5778 31.7038 27.2294 31.6663C27.1659 31.6614 27.1051 31.6383 27.0544 31.5997C27.0036 31.561 26.9652 31.5085 26.9436 31.4486L26.6169 30.6319C26.2983 30.5433 25.9919 30.4152 25.705 30.2508L24.8951 30.5979C24.8353 30.6241 24.7695 30.6336 24.7047 30.6252C24.64 30.6168 24.5787 30.5909 24.5276 30.5502C24.261 30.3278 24.015 30.0818 23.7926 29.8152C23.752 29.7641 23.7261 29.7029 23.7177 29.6381C23.7093 29.5733 23.7187 29.5075 23.745 29.4477L24.0921 28.6379C23.9258 28.355 23.7998 28.0504 23.7178 27.7327L22.8943 27.3993C22.8343 27.3777 22.7818 27.3392 22.7432 27.2885C22.7046 27.2378 22.6814 27.177 22.6765 27.1134C22.6391 26.7651 22.6391 26.4137 22.6765 26.0654C22.6814 26.0018 22.7046 25.941 22.7432 25.8903C22.7818 25.8396 22.8343 25.8011 22.8943 25.7795L23.7178 25.4461C23.7998 25.1284 23.9258 24.8238 24.0921 24.5409L23.745 23.7311C23.7187 23.6713 23.7093 23.6054 23.7177 23.5407C23.7261 23.4759 23.752 23.4147 23.7926 23.3636C24.015 23.0969 24.261 22.8509 24.5276 22.6286C24.5787 22.5879 24.64 22.562 24.7047 22.5536C24.7695 22.5452 24.8353 22.5547 24.8951 22.5809L25.705 22.928C25.9878 22.7618 26.2925 22.6358 26.6101 22.5537L26.9436 21.7302C26.9652 21.6702 27.0036 21.6178 27.0544 21.5791C27.1051 21.5405 27.1659 21.5173 27.2294 21.5124C27.5778 21.475 27.9291 21.475 28.2775 21.5124C28.341 21.5173 28.4018 21.5405 28.4526 21.5791C28.5033 21.6178 28.5417 21.6702 28.5633 21.7302L28.8968 22.5537C29.2144 22.6358 29.5191 22.7618 29.8019 22.928L30.6118 22.5809C30.6716 22.5547 30.7374 22.5452 30.8022 22.5536C30.8669 22.562 30.9282 22.5879 30.9793 22.6286C31.2459 22.8509 31.4919 23.0969 31.7143 23.3636C31.7549 23.4147 31.7809 23.4759 31.7893 23.5407C31.7976 23.6054 31.7882 23.6713 31.7619 23.7311L31.4148 24.5409C31.5811 24.8238 31.7071 25.1284 31.7892 25.4461L32.6126 25.7795C32.6726 25.8011 32.7251 25.8396 32.7637 25.8903C32.8024 25.941 32.8255 26.0018 32.8304 26.0654C32.8678 26.4137 32.8678 26.7651 32.8304 27.1134ZM48.4832 42.7662C48.4783 42.8298 48.4551 42.8906 48.4165 42.9413C48.3779 42.992 48.3254 43.0304 48.2654 43.052L47.4419 43.3855C47.3598 43.7031 47.2339 44.0078 47.0676 44.2906L47.4147 45.1005C47.441 45.1603 47.4504 45.2261 47.442 45.2909C47.4336 45.3556 47.4077 45.4169 47.3671 45.468C47.1447 45.7346 46.8987 45.9806 46.6321 46.203C46.581 46.2436 46.5197 46.2696 46.4549 46.278C46.3902 46.2864 46.3244 46.2769 46.2646 46.2506L45.4547 45.9036C45.1678 46.068 44.8614 46.196 44.5428 46.2847L44.2161 47.1013C44.1945 47.1613 44.156 47.2138 44.1053 47.2524C44.0546 47.2911 43.9938 47.3142 43.9303 47.3191C43.5819 47.3565 43.2306 47.3565 42.8822 47.3191C42.8186 47.3142 42.7578 47.2911 42.7071 47.2524C42.6564 47.2138 42.618 47.1613 42.5964 47.1013L42.2697 46.2847C41.9511 46.196 41.6447 46.068 41.3578 45.9036L40.5479 46.2506C40.4881 46.2769 40.4223 46.2864 40.3575 46.278C40.2928 46.2696 40.2315 46.2436 40.1804 46.203C39.9138 45.9806 39.6678 45.7346 39.4454 45.468C39.4048 45.4169 39.3788 45.3556 39.3704 45.2909C39.362 45.2261 39.3715 45.1603 39.3978 45.1005L39.7448 44.2906C39.5786 44.0078 39.4526 43.7031 39.3705 43.3855L38.5471 43.052C38.4871 43.0304 38.4346 42.992 38.396 42.9413C38.3573 42.8906 38.3342 42.8298 38.3293 42.7662C38.2919 42.4178 38.2919 42.0665 38.3293 41.7181C38.3342 41.6546 38.3573 41.5938 38.396 41.5431C38.4346 41.4924 38.4871 41.4539 38.5471 41.4323L39.3705 41.0988C39.4526 40.7812 39.5786 40.4765 39.7448 40.1937L39.3978 39.3838C39.3715 39.324 39.362 39.2582 39.3704 39.1935C39.3788 39.1287 39.4048 39.0674 39.4454 39.0163C39.6678 38.7497 39.9138 38.5037 40.1804 38.2813C40.2315 38.2407 40.2928 38.2148 40.3575 38.2064C40.4223 38.198 40.4881 38.2074 40.5479 38.2337L41.3578 38.5808C41.6406 38.4145 41.9453 38.2886 42.2629 38.2065L42.5964 37.383C42.618 37.323 42.6564 37.2705 42.7071 37.2319C42.7578 37.1933 42.8186 37.1701 42.8822 37.1652C43.2306 37.1278 43.5819 37.1278 43.9303 37.1652C43.9938 37.1701 44.0546 37.1933 44.1053 37.2319C44.156 37.2705 44.1945 37.323 44.2161 37.383L44.5496 38.2065C44.8672 38.2886 45.1719 38.4145 45.4547 38.5808L46.2646 38.2337C46.3244 38.2074 46.3902 38.198 46.4549 38.2064C46.5197 38.2148 46.581 38.2407 46.6321 38.2813C46.8987 38.5037 47.1447 38.7497 47.3671 39.0163C47.4077 39.0674 47.4336 39.1287 47.442 39.1935C47.4504 39.2582 47.441 39.324 47.4147 39.3838L47.0676 40.1937C47.2339 40.4765 47.3598 40.7812 47.4419 41.0988L48.2654 41.4323C48.3254 41.4539 48.3779 41.4924 48.4165 41.5431C48.4551 41.5938 48.4783 41.6546 48.4832 41.7181C48.5206 42.0665 48.5206 42.4178 48.4832 42.7662Z" fill="#49508E"/>
<path d="M51.8538 33.9582C47.7092 29.8136 43.2515 29.9429 38.93 31.0727C40.0597 26.7511 40.1959 22.3003 36.0513 18.1489C33.86 15.9575 30.8964 14.7134 27.7975 14.6841C24.6986 14.6549 21.712 15.8427 19.4797 17.9924C19.4198 18.041 19.363 18.0933 19.3096 18.1489C17.0904 20.3695 15.8438 23.3804 15.8438 26.5198C15.8438 29.6591 17.0904 32.67 19.3096 34.8906C23.461 39.0284 27.9118 38.9059 32.2334 37.7693C31.1036 42.0909 30.9743 46.5485 35.1189 50.6931C37.3093 52.8836 40.2717 54.1272 43.3693 54.1565C46.4669 54.1857 49.4523 52.9984 51.6836 50.8496C51.7435 50.801 51.8004 50.7487 51.8538 50.6931C54.0729 48.4739 55.3196 45.464 55.3196 42.3257C55.3196 39.1873 54.0729 36.1774 51.8538 33.9582ZM33.8463 32.6924C29.4091 34.1896 25.3189 35.3125 22.0999 32.0935C20.6452 30.6391 19.8163 28.6739 19.7898 26.6171C19.7634 24.5602 20.5415 22.5744 21.9583 21.083C23.3751 19.5917 25.3184 18.7128 27.3739 18.6338C29.4294 18.5548 31.4345 19.282 32.9615 20.6602C33.0568 20.7486 33.1589 20.8439 33.2542 20.9392C36.48 24.1582 35.3367 28.2552 33.8463 32.6924ZM37.9092 47.9028C34.6902 44.6838 35.8199 40.5936 37.3171 36.1564C41.7475 34.6592 45.8445 33.5295 49.0635 36.7485C50.5182 38.2029 51.3471 40.1681 51.3735 42.2249C51.4 44.2818 50.6219 46.2676 49.2051 47.759C47.7883 49.2503 45.845 50.1292 43.7895 50.2082C41.7339 50.2872 39.7289 49.56 38.2018 48.1818C38.1066 48.0934 38.0045 47.9981 37.9092 47.9028Z" fill="#66CAA4"/>
<path d="M51.8538 50.687C51.8004 50.7427 51.7435 50.795 51.6836 50.8435C49.6896 52.5858 43.9729 53.7291 38.2018 48.1758C39.7289 49.554 41.7339 50.2811 43.7895 50.2021C45.845 50.1231 47.7883 49.2442 49.2051 47.7529C50.6219 46.2615 51.4 44.2757 51.3735 42.2189C51.3471 40.162 50.5182 38.1969 49.0635 36.7424C45.8445 33.5234 41.7475 34.6531 37.3171 36.1503C37.8752 34.4966 38.4809 32.7884 38.93 31.0666C43.2515 29.9369 47.7092 29.8076 51.8538 33.9522C54.0729 36.1714 55.3196 39.1812 55.3196 42.3196C55.3196 45.458 54.0729 48.4678 51.8538 50.687ZM33.8463 32.6863C33.2882 34.3401 32.6825 36.0415 32.2334 37.7633C27.9118 38.8998 23.461 39.0223 19.3096 34.8845C17.0904 32.664 15.8438 29.6531 15.8438 26.5137C15.8437 23.3743 17.0904 20.3634 19.3096 18.1428C19.363 18.0872 19.4198 18.0349 19.4797 17.9863C21.4806 16.2373 27.1972 15.1008 32.9615 20.6541C31.4345 19.2759 29.4294 18.5488 27.3739 18.6278C25.3184 18.7068 23.3751 19.5856 21.9583 21.077C20.5415 22.5683 19.7634 24.5541 19.7898 26.611C19.8163 28.6679 20.6452 30.633 22.0999 32.0874C25.3189 35.3065 29.4091 34.1835 33.8463 32.6863Z" fill="#56B38F"/>
</g>
</g>
<path d="M12.7749 78.6909C12.9067 78.8081 13.0752 78.9766 13.2583 79.189C13.4487 79.4014 13.6392 79.665 13.8223 79.98C14.0054 80.2949 14.1592 80.6685 14.2837 81.1006C14.4082 81.5327 14.4741 82.0308 14.4741 82.5947C14.4741 83.0122 14.4082 83.4297 14.2837 83.8472C14.1592 84.2646 14.0127 84.6528 13.8296 85.0117C13.6465 85.3706 13.4561 85.6782 13.2729 85.9419C13.0825 86.2056 12.9214 86.4033 12.7896 86.5278C12.3062 86.9819 11.7568 87.3481 11.1343 87.6118C10.5117 87.8828 9.84521 88.022 9.13477 88.0293C8.84912 88.0293 8.59277 88.0293 8.3584 88.0293C8.12402 88.0293 7.91162 88.0293 7.72119 88.0293C7.53076 88.0293 7.35498 88.0293 7.2085 88.0293C7.05469 88.0293 6.92285 88.0293 6.80566 88.0293C6.68848 88.0293 6.59326 88.0293 6.50537 88.0293C6.41748 88.0293 6.34424 88.0293 6.28564 88.0293C6.22705 88.0293 6.17578 88.0293 6.13916 88.0293C6.10254 88.0293 6.07324 88.0293 6.05127 88.0293C6.03662 88.0293 6.02197 88.0293 6.01465 88.0293C6.00732 88.0293 6 88.0293 6 88.0293V79.2915C6 79.2036 6.00732 79.0864 6.01465 78.9473C6.0293 78.8154 6.06592 78.6616 6.12451 78.4932C6.18311 78.332 6.27832 78.1636 6.41016 77.9951C6.61523 77.7607 6.86426 77.5923 7.15723 77.4897C7.45752 77.3799 7.77979 77.314 8.12402 77.292C8.46826 77.2627 8.80518 77.248 9.13477 77.248C9.83789 77.248 10.4971 77.3799 11.1196 77.6289C11.7422 77.8853 12.2915 78.2368 12.7749 78.6909ZM9.13477 86.5718C9.84521 86.5718 10.4971 86.3887 11.0903 86.0298C11.6763 85.6636 12.145 85.1729 12.4966 84.5723C12.8481 83.9644 13.0239 83.3052 13.0239 82.5947C13.0239 81.8843 12.8481 81.2324 12.5039 80.6465C12.1597 80.0605 11.6982 79.5991 11.1196 79.2476C10.541 78.9033 9.89648 78.7202 9.17871 78.7056V78.6982L7.97021 78.6909C7.66992 78.6763 7.50146 78.8081 7.46484 79.0791C7.45752 79.1377 7.45752 79.5405 7.4502 80.2876C7.44287 81.0273 7.44287 81.8843 7.44287 82.8511C7.43555 83.8252 7.43555 84.6821 7.43555 85.4365C7.43555 86.1909 7.43555 86.5645 7.43555 86.5645L9.13477 86.5718ZM23.666 84.3452H22.2085L17.2646 84.3379C17.3525 84.9678 17.6162 85.4951 18.0703 85.9053C18.5317 86.3154 19.0811 86.5352 19.7402 86.5498C20.2017 86.5425 20.707 86.4546 21.2417 86.2861C21.7837 86.125 22.2158 85.9126 22.5601 85.6709H22.5674L23.3511 86.8208C22.7065 87.2676 22.0986 87.5752 21.5347 87.751C20.9707 87.9268 20.3701 88.0073 19.7329 88C18.6709 87.978 17.77 87.6191 17.0449 86.9307C16.3125 86.2495 15.9023 85.3779 15.8071 84.3306C15.7998 84.2427 15.7998 84.1548 15.7998 84.0596C15.7998 83.6421 15.8657 83.2539 15.9829 82.873C16.2466 82.0601 16.7153 81.4082 17.3892 80.9028C18.063 80.3975 18.8467 80.1411 19.7402 80.1265C20.6338 80.1411 21.4175 80.3975 22.0913 80.9028C22.7578 81.4082 23.2266 82.0674 23.4976 82.8804C23.6147 83.2539 23.6733 83.6494 23.6733 84.0669C23.6733 84.1548 23.6733 84.25 23.666 84.3452ZM17.7114 82.7339L22.0767 82.7412C21.8643 82.3457 21.564 82.0308 21.1831 81.7964C20.8022 81.562 20.3701 81.4448 19.894 81.4375C19.418 81.4375 18.9858 81.562 18.605 81.7964C18.2241 82.0308 17.9238 82.3457 17.7114 82.7339ZM30.6899 80.1265H32.2207C32.2207 80.1265 32.0962 80.4487 31.8545 81.1006C31.6055 81.7524 31.3198 82.5068 30.9902 83.3711C30.6606 84.2354 30.3604 85.0264 30.082 85.7515C29.811 86.4766 29.6353 86.938 29.5547 87.1431C29.4009 87.5093 29.1665 87.751 28.8516 87.8828C28.5366 88.0073 28.2217 88.022 27.8921 87.9194C27.5625 87.8096 27.3062 87.5825 27.123 87.2456C26.9619 86.9233 26.7349 86.396 26.4346 85.6416C26.1416 84.8945 25.8267 84.0962 25.5117 83.2539C25.1895 82.4043 24.9111 81.6719 24.6841 81.0566C24.457 80.4341 24.3398 80.1265 24.3398 80.1265H25.8706L28.3169 86.5205L30.6899 80.1265ZM38.9297 77.2188C39.9185 77.2188 40.8193 77.4604 41.6396 77.9438C42.4526 78.4272 43.1045 79.0791 43.5879 79.8921C44.0713 80.7124 44.313 81.6133 44.313 82.6094C44.313 83.5981 44.0713 84.499 43.5879 85.3193C43.1045 86.1323 42.4526 86.7842 41.6396 87.2676C40.8193 87.751 39.9185 87.9927 38.9297 87.9927C37.9336 87.9927 37.0327 87.751 36.2197 87.2676C35.3994 86.7842 34.7476 86.1323 34.2642 85.3193C33.7808 84.499 33.5391 83.5981 33.5391 82.6094C33.5391 81.6133 33.7808 80.7124 34.2642 79.8921C34.7476 79.0791 35.3994 78.4272 36.2197 77.9438C37.0327 77.4604 37.9336 77.2188 38.9297 77.2188ZM38.9297 86.5425C39.6475 86.5425 40.3066 86.3667 40.9072 86.0078C41.5005 85.6562 41.9766 85.1802 42.3281 84.5869C42.687 83.9863 42.8628 83.3271 42.8628 82.6094C42.8628 81.8843 42.687 81.2251 42.3281 80.6245C41.9766 80.0312 41.5005 79.5552 40.9072 79.2036C40.3066 78.8447 39.6475 78.6689 38.9297 78.6689C38.2046 78.6689 37.5454 78.8447 36.9448 79.2036C36.3516 79.5552 35.8755 80.0312 35.5239 80.6245C35.165 81.2251 34.9893 81.8843 34.9893 82.6094C34.9893 83.3271 35.165 83.9863 35.5239 84.5869C35.8755 85.1802 36.3516 85.6562 36.9448 86.0078C37.5454 86.3667 38.2046 86.5425 38.9297 86.5425ZM49.5791 80.1411C50.3042 80.1411 50.9634 80.3169 51.564 80.6685C52.1572 81.0273 52.6333 81.5034 52.9849 82.0967C53.3438 82.6973 53.5195 83.3564 53.5195 84.0815C53.5195 84.8066 53.3438 85.4658 52.9849 86.0591C52.6333 86.6597 52.1572 87.1357 51.564 87.4873C50.9634 87.8462 50.3042 88.022 49.5791 88.022C49.1104 88.022 48.6636 87.9414 48.2461 87.7876C47.8213 87.6338 47.4404 87.4141 47.0962 87.1357L47.1035 90.9297H45.6387V80.1411L47.0889 80.1338V81.0273C47.4331 80.749 47.814 80.5293 48.2388 80.3755C48.6636 80.2144 49.1104 80.1411 49.5791 80.1411ZM49.5791 86.5718C50.2676 86.5718 50.8535 86.3228 51.3369 85.8394C51.8276 85.356 52.0693 84.7627 52.0693 84.0815C52.0693 83.3931 51.8276 82.8071 51.3369 82.3237C50.8535 81.833 50.2676 81.5913 49.5791 81.5913C49.1396 81.5913 48.7295 81.7085 48.356 81.9429C47.9751 82.1699 47.6748 82.4775 47.4478 82.8511C47.2207 83.2246 47.1035 83.6348 47.0889 84.0742C47.0889 84.0742 47.0889 84.0815 47.0889 84.0962C47.0962 84.1182 47.0962 84.1328 47.0962 84.1548C47.0962 84.1694 47.0962 84.1914 47.0962 84.2061C47.1255 84.5869 47.2573 84.9531 47.4917 85.312C47.7188 85.6709 48.019 85.9712 48.3926 86.2129C48.7588 86.4473 49.1543 86.5718 49.5791 86.5718ZM58.5879 83.3345C58.9761 83.4297 59.3789 83.5396 59.7817 83.6641C60.1846 83.7959 60.5508 83.9497 60.895 84.1328C61.2319 84.3232 61.5103 84.5576 61.7153 84.8286C61.9204 85.1069 62.0156 85.4512 62.0083 85.854C61.9937 86.2129 61.8765 86.5571 61.6421 86.894C61.415 87.231 61.0488 87.502 60.5435 87.707C60.0381 87.9121 59.3716 88.0146 58.5366 88C57.8774 87.9854 57.3208 87.8975 56.8813 87.7363C56.4346 87.5825 56.0757 87.3848 55.7974 87.165C55.5264 86.938 55.314 86.7183 55.1675 86.4912C55.0283 86.2642 54.9258 86.0737 54.8745 85.9199L54.8013 85.7222L56.3467 85.356L56.4199 85.5317C56.4712 85.6929 56.5737 85.8467 56.7202 86.0005C56.874 86.1616 57.1011 86.2935 57.416 86.4033C57.731 86.5132 58.1704 86.5718 58.7344 86.5864H58.749C58.8882 86.5864 59.0786 86.5718 59.3276 86.5352C59.584 86.4985 59.811 86.4326 60.0234 86.3447C60.2358 86.2642 60.353 86.147 60.375 86.0078C60.3896 85.6855 60.2065 85.4365 59.8184 85.2534C59.4375 85.0703 58.8955 84.8945 58.1924 84.7261C57.8115 84.6235 57.4746 84.521 57.1963 84.4111C56.9253 84.2939 56.625 84.1548 56.3174 83.979C55.585 83.5762 55.2334 83.0049 55.2554 82.2871C55.2773 81.6426 55.585 81.1152 56.1782 80.6978C56.8301 80.2803 57.5918 80.0825 58.4707 80.0972C60.2578 80.1411 61.4077 80.8442 61.9131 82.2065L61.9863 82.4116L60.4409 82.7778L60.3677 82.5947C60.3164 82.4263 60.2212 82.2651 60.0747 82.104C59.9355 81.9429 59.6938 81.8037 59.3569 81.6938C59.02 81.5767 58.6904 81.5181 58.3682 81.5107C58.3242 81.5034 58.2803 81.5034 58.2363 81.5034C57.7749 81.5107 57.438 81.5913 57.2183 81.7451C56.9985 81.9062 56.874 82.0967 56.8594 82.3237C56.874 82.5654 57.0278 82.7559 57.3281 82.9097C57.6284 83.0635 58.0459 83.2026 58.5879 83.3345Z" fill="black"/>
<defs>
<filter id="filter0_b_554_1470" x="-183.289" y="-183.289" width="436.579" height="436.579" filterUnits="userSpaceOnUse" color-interpolation-filters="sRGB">
<feFlood flood-opacity="0" result="BackgroundImageFix"/>
<feGaussianBlur in="BackgroundImageFix" stdDeviation="91.6447"/>
<feComposite in2="SourceAlpha" operator="in" result="effect1_backgroundBlur_554_1470"/>
<feBlend mode="normal" in="SourceGraphic" in2="effect1_backgroundBlur_554_1470" result="shape"/>
</filter>
<linearGradient id="paint0_linear_554_1470" x1="0" y1="0" x2="70" y2="70" gradientUnits="userSpaceOnUse">
<stop stop-color="#37CBF9" stop-opacity="0"/>
<stop offset="1" stop-color="#207893" stop-opacity="0.25"/>
</linearGradient>
<clipPath id="clip0_554_1470">
<rect width="40.8333" height="40.8333" fill="white" transform="translate(15.1641 14)"/>
</clipPath>
</defs>
</svg>
