<svg width="71" height="70" viewBox="0 0 71 70" fill="none" xmlns="http://www.w3.org/2000/svg">
<g filter="url(#filter0_b_417_4412)">
<rect x="0.5" width="70" height="70" rx="35" fill="url(#paint0_linear_417_4412)"/>
<g style="mix-blend-mode:darken" clip-path="url(#clip0_417_4412)">
<path d="M33.3304 27.1134C33.3255 27.177 33.3024 27.2378 33.2637 27.2885C33.2251 27.3392 33.1726 27.3777 33.1126 27.3993L32.2892 27.7327C32.2071 28.0504 32.0811 28.355 31.9148 28.6379L32.2619 29.4477C32.2882 29.5075 32.2976 29.5733 32.2893 29.6381C32.2809 29.7029 32.2549 29.7641 32.2143 29.8152C31.9919 30.0818 31.7459 30.3278 31.4793 30.5502C31.4282 30.5909 31.3669 30.6168 31.3022 30.6252C31.2374 30.6336 31.1716 30.6241 31.1118 30.5979L30.3019 30.2508C30.015 30.4152 29.7086 30.5433 29.39 30.6319L29.0633 31.4486C29.0417 31.5085 29.0033 31.561 28.9526 31.5997C28.9018 31.6383 28.841 31.6614 28.7775 31.6663C28.4291 31.7038 28.0778 31.7038 27.7294 31.6663C27.6659 31.6614 27.6051 31.6383 27.5544 31.5997C27.5036 31.561 27.4652 31.5085 27.4436 31.4486L27.1169 30.6319C26.7983 30.5433 26.4919 30.4152 26.205 30.2508L25.3951 30.5979C25.3353 30.6241 25.2695 30.6336 25.2047 30.6252C25.14 30.6168 25.0787 30.5909 25.0276 30.5502C24.761 30.3278 24.515 30.0818 24.2926 29.8152C24.252 29.7641 24.2261 29.7029 24.2177 29.6381C24.2093 29.5733 24.2187 29.5075 24.245 29.4477L24.5921 28.6379C24.4258 28.355 24.2998 28.0504 24.2178 27.7327L23.3943 27.3993C23.3343 27.3777 23.2818 27.3392 23.2432 27.2885C23.2046 27.2378 23.1814 27.177 23.1765 27.1134C23.1391 26.7651 23.1391 26.4137 23.1765 26.0654C23.1814 26.0018 23.2046 25.941 23.2432 25.8903C23.2818 25.8396 23.3343 25.8011 23.3943 25.7795L24.2178 25.4461C24.2998 25.1284 24.4258 24.8238 24.5921 24.5409L24.245 23.7311C24.2187 23.6713 24.2093 23.6054 24.2177 23.5407C24.2261 23.4759 24.252 23.4147 24.2926 23.3636C24.515 23.0969 24.761 22.8509 25.0276 22.6286C25.0787 22.5879 25.14 22.562 25.2047 22.5536C25.2695 22.5452 25.3353 22.5547 25.3951 22.5809L26.205 22.928C26.4878 22.7618 26.7925 22.6358 27.1101 22.5537L27.4436 21.7302C27.4652 21.6702 27.5036 21.6178 27.5544 21.5791C27.6051 21.5405 27.6659 21.5173 27.7294 21.5124C28.0778 21.475 28.4291 21.475 28.7775 21.5124C28.841 21.5173 28.9018 21.5405 28.9526 21.5791C29.0033 21.6178 29.0417 21.6702 29.0633 21.7302L29.3968 22.5537C29.7144 22.6358 30.0191 22.7618 30.3019 22.928L31.1118 22.5809C31.1716 22.5547 31.2374 22.5452 31.3022 22.5536C31.3669 22.562 31.4282 22.5879 31.4793 22.6286C31.7459 22.8509 31.9919 23.0969 32.2143 23.3636C32.2549 23.4147 32.2809 23.4759 32.2893 23.5407C32.2976 23.6054 32.2882 23.6713 32.2619 23.7311L31.9148 24.5409C32.0811 24.8238 32.2071 25.1284 32.2892 25.4461L33.1126 25.7795C33.1726 25.8011 33.2251 25.8396 33.2637 25.8903C33.3024 25.941 33.3255 26.0018 33.3304 26.0654C33.3678 26.4137 33.3678 26.7651 33.3304 27.1134ZM48.9832 42.7662C48.9783 42.8298 48.9551 42.8906 48.9165 42.9413C48.8779 42.992 48.8254 43.0304 48.7654 43.052L47.9419 43.3855C47.8598 43.7031 47.7339 44.0078 47.5676 44.2906L47.9147 45.1005C47.941 45.1603 47.9504 45.2261 47.942 45.2909C47.9336 45.3556 47.9077 45.4169 47.8671 45.468C47.6447 45.7346 47.3987 45.9806 47.1321 46.203C47.081 46.2436 47.0197 46.2696 46.9549 46.278C46.8902 46.2864 46.8244 46.2769 46.7646 46.2506L45.9547 45.9036C45.6678 46.068 45.3614 46.196 45.0428 46.2847L44.7161 47.1013C44.6945 47.1613 44.656 47.2138 44.6053 47.2524C44.5546 47.2911 44.4938 47.3142 44.4303 47.3191C44.0819 47.3565 43.7306 47.3565 43.3822 47.3191C43.3186 47.3142 43.2578 47.2911 43.2071 47.2524C43.1564 47.2138 43.118 47.1613 43.0964 47.1013L42.7697 46.2847C42.4511 46.196 42.1447 46.068 41.8578 45.9036L41.0479 46.2506C40.9881 46.2769 40.9223 46.2864 40.8575 46.278C40.7928 46.2696 40.7315 46.2436 40.6804 46.203C40.4138 45.9806 40.1678 45.7346 39.9454 45.468C39.9048 45.4169 39.8788 45.3556 39.8704 45.2909C39.862 45.2261 39.8715 45.1603 39.8978 45.1005L40.2448 44.2906C40.0786 44.0078 39.9526 43.7031 39.8705 43.3855L39.0471 43.052C38.9871 43.0304 38.9346 42.992 38.896 42.9413C38.8573 42.8906 38.8342 42.8298 38.8293 42.7662C38.7919 42.4178 38.7919 42.0665 38.8293 41.7181C38.8342 41.6546 38.8573 41.5938 38.896 41.5431C38.9346 41.4924 38.9871 41.4539 39.0471 41.4323L39.8705 41.0988C39.9526 40.7812 40.0786 40.4765 40.2448 40.1937L39.8978 39.3838C39.8715 39.324 39.862 39.2582 39.8704 39.1935C39.8788 39.1287 39.9048 39.0674 39.9454 39.0163C40.1678 38.7497 40.4138 38.5037 40.6804 38.2813C40.7315 38.2407 40.7928 38.2148 40.8575 38.2064C40.9223 38.198 40.9881 38.2074 41.0479 38.2337L41.8578 38.5808C42.1406 38.4145 42.4453 38.2886 42.7629 38.2065L43.0964 37.383C43.118 37.323 43.1564 37.2705 43.2071 37.2319C43.2578 37.1933 43.3186 37.1701 43.3822 37.1652C43.7306 37.1278 44.0819 37.1278 44.4303 37.1652C44.4938 37.1701 44.5546 37.1933 44.6053 37.2319C44.656 37.2705 44.6945 37.323 44.7161 37.383L45.0496 38.2065C45.3672 38.2886 45.6719 38.4145 45.9547 38.5808L46.7646 38.2337C46.8244 38.2074 46.8902 38.198 46.9549 38.2064C47.0197 38.2148 47.081 38.2407 47.1321 38.2813C47.3987 38.5037 47.6447 38.7497 47.8671 39.0163C47.9077 39.0674 47.9336 39.1287 47.942 39.1935C47.9504 39.2582 47.941 39.324 47.9147 39.3838L47.5676 40.1937C47.7339 40.4765 47.8598 40.7812 47.9419 41.0988L48.7654 41.4323C48.8254 41.4539 48.8779 41.4924 48.9165 41.5431C48.9551 41.5938 48.9783 41.6546 48.9832 41.7181C49.0206 42.0665 49.0206 42.4178 48.9832 42.7662Z" fill="#49508E"/>
<path d="M52.3538 33.9582C48.2092 29.8136 43.7515 29.9429 39.43 31.0727C40.5597 26.7511 40.6959 22.3003 36.5513 18.1489C34.36 15.9575 31.3964 14.7134 28.2975 14.6841C25.1986 14.6549 22.212 15.8427 19.9797 17.9924C19.9198 18.041 19.863 18.0933 19.8096 18.1489C17.5904 20.3695 16.3438 23.3804 16.3438 26.5198C16.3438 29.6591 17.5904 32.67 19.8096 34.8906C23.961 39.0284 28.4118 38.9059 32.7334 37.7693C31.6036 42.0909 31.4743 46.5485 35.6189 50.6931C37.8093 52.8836 40.7717 54.1272 43.8693 54.1565C46.9669 54.1857 49.9523 52.9984 52.1836 50.8496C52.2435 50.801 52.3004 50.7487 52.3538 50.6931C54.5729 48.4739 55.8196 45.464 55.8196 42.3257C55.8196 39.1873 54.5729 36.1774 52.3538 33.9582ZM34.3463 32.6924C29.9091 34.1896 25.8189 35.3125 22.5999 32.0935C21.1452 30.6391 20.3163 28.6739 20.2898 26.6171C20.2634 24.5602 21.0415 22.5744 22.4583 21.083C23.8751 19.5917 25.8184 18.7128 27.8739 18.6338C29.9294 18.5548 31.9345 19.282 33.4615 20.6602C33.5568 20.7486 33.6589 20.8439 33.7542 20.9392C36.98 24.1582 35.8367 28.2552 34.3463 32.6924ZM38.4092 47.9028C35.1902 44.6838 36.3199 40.5936 37.8171 36.1564C42.2475 34.6592 46.3445 33.5295 49.5635 36.7485C51.0182 38.2029 51.8471 40.1681 51.8735 42.2249C51.9 44.2818 51.1219 46.2676 49.7051 47.759C48.2883 49.2503 46.345 50.1292 44.2895 50.2082C42.2339 50.2872 40.2289 49.56 38.7018 48.1818C38.6066 48.0934 38.5045 47.9981 38.4092 47.9028Z" fill="#66CAA4"/>
<path d="M52.3538 50.687C52.3004 50.7427 52.2435 50.795 52.1836 50.8435C50.1896 52.5858 44.4729 53.7291 38.7018 48.1758C40.2289 49.554 42.2339 50.2811 44.2895 50.2021C46.345 50.1231 48.2883 49.2442 49.7051 47.7529C51.1219 46.2615 51.9 44.2757 51.8735 42.2189C51.8471 40.162 51.0182 38.1969 49.5635 36.7424C46.3445 33.5234 42.2475 34.6531 37.8171 36.1503C38.3752 34.4966 38.9809 32.7884 39.43 31.0666C43.7515 29.9369 48.2092 29.8076 52.3538 33.9522C54.5729 36.1714 55.8196 39.1812 55.8196 42.3196C55.8196 45.458 54.5729 48.4678 52.3538 50.687ZM34.3463 32.6863C33.7882 34.3401 33.1825 36.0415 32.7334 37.7633C28.4118 38.8998 23.961 39.0223 19.8096 34.8845C17.5904 32.664 16.3438 29.6531 16.3438 26.5137C16.3438 23.3743 17.5904 20.3634 19.8096 18.1428C19.863 18.0872 19.9198 18.0349 19.9797 17.9863C21.9806 16.2373 27.6972 15.1008 33.4615 20.6541C31.9345 19.2759 29.9294 18.5488 27.8739 18.6278C25.8184 18.7068 23.8751 19.5856 22.4583 21.077C21.0415 22.5683 20.2634 24.5541 20.2898 26.611C20.3163 28.6679 21.1452 30.633 22.5999 32.0874C25.8189 35.3065 29.9091 34.1835 34.3463 32.6863Z" fill="#56B38F"/>
</g>
</g>
<defs>
<filter id="filter0_b_417_4412" x="-182.789" y="-183.289" width="436.579" height="436.579" filterUnits="userSpaceOnUse" color-interpolation-filters="sRGB">
<feFlood flood-opacity="0" result="BackgroundImageFix"/>
<feGaussianBlur in="BackgroundImageFix" stdDeviation="91.6447"/>
<feComposite in2="SourceAlpha" operator="in" result="effect1_backgroundBlur_417_4412"/>
<feBlend mode="normal" in="SourceGraphic" in2="effect1_backgroundBlur_417_4412" result="shape"/>
</filter>
<linearGradient id="paint0_linear_417_4412" x1="0.5" y1="0" x2="70.5" y2="70" gradientUnits="userSpaceOnUse">
<stop stop-color="#37CBF9" stop-opacity="0"/>
<stop offset="1" stop-color="#207893" stop-opacity="0.25"/>
</linearGradient>
<clipPath id="clip0_417_4412">
<rect width="40.8333" height="40.8333" fill="white" transform="translate(15.6641 14)"/>
</clipPath>
</defs>
</svg>
