<svg width="78" height="93" viewBox="0 0 78 93" fill="none" xmlns="http://www.w3.org/2000/svg">
<g filter="url(#filter0_b_554_3063)">
<rect x="4" y="1" width="70" height="70" rx="35" fill="url(#paint0_linear_554_3063)"/>
<rect x="4" y="1" width="70" height="70" rx="35" stroke="#FDFDFD"/>
<g style="mix-blend-mode:darken">
<path d="M44.2117 44.1889H31.7747C30.3654 44.1889 29.2227 43.0462 29.2227 41.6368V29.2005C29.2227 27.7911 30.3654 26.6484 31.7747 26.6484H44.2117C45.6211 26.6484 46.7638 27.7911 46.7638 29.2005V41.6375C46.7638 43.0469 45.6211 44.1889 44.2117 44.1889Z" fill="#FAF5F5"/>
<path d="M44.2143 44.5079H31.7773C30.1944 44.5079 28.9062 43.2197 28.9062 41.6368V29.1992C28.9062 27.6163 30.1944 26.3281 31.7773 26.3281H44.2143C45.7972 26.3281 47.0854 27.6163 47.0854 29.1992V41.6362C47.0854 43.2197 45.7979 44.5079 44.2143 44.5079ZM31.7773 26.9661C30.546 26.9661 29.5443 27.9678 29.5443 29.1992V41.6362C29.5443 42.8675 30.546 43.8692 31.7773 43.8692H44.2143C45.4457 43.8692 46.4474 42.8675 46.4474 41.6362V29.1992C46.4474 27.9678 45.4457 26.9661 44.2143 26.9661H31.7773Z" fill="#63312D"/>
<path d="M47.3916 26.6484H44.2188C45.6281 26.6484 46.7708 27.7911 46.7708 29.2005V41.6375C46.7708 43.0468 45.6281 44.1895 44.2188 44.1895H47.3916C48.801 44.1895 49.9437 43.0468 49.9437 41.6375V29.2005C49.9437 27.7911 48.801 26.6484 47.3916 26.6484Z" fill="#52BADB"/>
<path d="M47.3903 44.5079H44.2174C44.0414 44.5079 43.8984 44.365 43.8984 44.1889C43.8984 44.0128 44.0414 43.8699 44.2174 43.8699C45.4488 43.8699 46.4505 42.8682 46.4505 41.6368V29.1992C46.4505 27.9678 45.4488 26.9661 44.2174 26.9661C44.0414 26.9661 43.8984 26.8232 43.8984 26.6471C43.8984 26.471 44.0414 26.3281 44.2174 26.3281H47.3903C48.9733 26.3281 50.2614 27.6163 50.2614 29.1992V41.6362C50.2614 43.2197 48.9733 44.5079 47.3903 44.5079ZM46.0199 43.8699H47.3897C48.6211 43.8699 49.6228 42.8682 49.6228 41.6368V29.1992C49.6228 27.9678 48.6211 26.9661 47.3897 26.9661H46.0199C46.6713 27.4932 47.0885 28.2983 47.0885 29.1992V41.6362C47.0885 42.5377 46.6719 43.3429 46.0199 43.8699Z" fill="#63312D"/>
<path d="M42.9145 30.5H33.0781V40.3364H42.9145V30.5Z" fill="#84DBFF"/>
<path d="M34.7591 22.0898H34.1211V25.4395H34.7591V22.0898Z" fill="#63312D"/>
<path d="M37.0365 21.3984H36.3984V25.439H37.0365V21.3984Z" fill="#63312D"/>
<path d="M39.3099 20.4961H38.6719V25.4408H39.3099V20.4961Z" fill="#63312D"/>
<path d="M41.5794 22.0898H40.9414V25.4395H41.5794V22.0898Z" fill="#63312D"/>
<path d="M43.8529 19H43.2148V25.4332H43.8529V19Z" fill="#63312D"/>
<path d="M38.9878 20.4951C39.4945 20.4951 39.9053 20.0843 39.9053 19.5776C39.9053 19.0709 39.4945 18.6602 38.9878 18.6602C38.4811 18.6602 38.0703 19.0709 38.0703 19.5776C38.0703 20.0843 38.4811 20.4951 38.9878 20.4951Z" fill="#F9DD9D"/>
<path d="M22.0073 36.706C22.514 36.706 22.9248 36.2953 22.9248 35.7886C22.9248 35.2819 22.514 34.8711 22.0073 34.8711C21.5006 34.8711 21.0898 35.2819 21.0898 35.7886C21.0898 36.2953 21.5006 36.706 22.0073 36.706Z" fill="#F9DD9D"/>
<path d="M57.1558 36.706C57.6625 36.706 58.0732 36.2953 58.0732 35.7886C58.0732 35.2819 57.6625 34.8711 57.1558 34.8711C56.649 34.8711 56.2383 35.2819 56.2383 35.7886C56.2383 36.2953 56.649 36.706 57.1558 36.706Z" fill="#F9DD9D"/>
<path d="M38.9878 52.1709C39.4945 52.1709 39.9053 51.7601 39.9053 51.2534C39.9053 50.7467 39.4945 50.3359 38.9878 50.3359C38.4811 50.3359 38.0703 50.7467 38.0703 51.2534C38.0703 51.7601 38.4811 52.1709 38.9878 52.1709Z" fill="#F9DD9D"/>
<path d="M38.9865 20.8128C38.3051 20.8128 37.75 20.2584 37.75 19.5763C37.75 18.8943 38.3044 18.3398 38.9865 18.3398C39.6685 18.3398 40.223 18.8943 40.223 19.5763C40.223 20.2584 39.6679 20.8128 38.9865 20.8128ZM38.9865 18.9785C38.6566 18.9785 38.388 19.2465 38.388 19.577C38.388 19.9075 38.6566 20.1754 38.9865 20.1754C39.3163 20.1754 39.5849 19.9075 39.5849 19.577C39.5849 19.2465 39.3163 18.9785 38.9865 18.9785Z" fill="#63312D"/>
<path d="M27.8652 40.0156H24.5156V40.6536H27.8652V40.0156Z" fill="#63312D"/>
<path d="M27.8687 37.7422H23.8281V38.3802H27.8687V37.7422Z" fill="#63312D"/>
<path d="M27.8665 35.4688H22.9219V36.1068H27.8665V35.4688Z" fill="#63312D"/>
<path d="M27.8652 33.1953H24.5156V33.8333H27.8652V33.1953Z" fill="#63312D"/>
<path d="M27.8668 30.9219H21.4336V31.5599H27.8668V30.9219Z" fill="#63312D"/>
<path d="M22.006 37.0237C21.3246 37.0237 20.7695 36.4693 20.7695 35.7873C20.7695 35.1052 21.324 34.5508 22.006 34.5508C22.6881 34.5508 23.2425 35.1052 23.2425 35.7873C23.2425 36.4693 22.6874 37.0237 22.006 37.0237ZM22.006 35.1894C21.6762 35.1894 21.4076 35.4574 21.4076 35.7879C21.4076 36.1184 21.6762 36.3864 22.006 36.3864C22.3359 36.3864 22.6045 36.1184 22.6045 35.7879C22.6045 35.4574 22.3352 35.1894 22.006 35.1894Z" fill="#63312D"/>
<path d="M54.6465 30.9219H51.2969V31.5599H54.6465V30.9219Z" fill="#63312D"/>
<path d="M55.3375 33.1953H51.2969V33.8333H55.3375V33.1953Z" fill="#63312D"/>
<path d="M56.2415 35.4688H51.2969V36.1068H56.2415V35.4688Z" fill="#63312D"/>
<path d="M54.6465 37.7422H51.2969V38.3802H54.6465V37.7422Z" fill="#63312D"/>
<path d="M57.73 40.0156H51.2969V40.6536H57.73V40.0156Z" fill="#63312D"/>
<path d="M57.1584 37.0237C56.477 37.0237 55.9219 36.4693 55.9219 35.7873C55.9219 35.1052 56.4763 34.5508 57.1584 34.5508C57.8404 34.5508 58.3948 35.1052 58.3948 35.7873C58.3948 36.4693 57.8404 37.0237 57.1584 37.0237ZM57.1584 35.1894C56.8285 35.1894 56.5599 35.4574 56.5599 35.7879C56.5599 36.1184 56.8285 36.3864 57.1584 36.3864C57.4882 36.3864 57.7568 36.1184 57.7568 35.7879C57.7568 35.4574 57.4882 35.1894 57.1584 35.1894Z" fill="#63312D"/>
<path d="M34.7591 45.3906H34.1211V48.7402H34.7591V45.3906Z" fill="#63312D"/>
<path d="M37.0365 45.3906H36.3984V49.4312H37.0365V45.3906Z" fill="#63312D"/>
<path d="M39.3099 45.3906H38.6719V50.3353H39.3099V45.3906Z" fill="#63312D"/>
<path d="M41.5794 45.3906H40.9414V48.7402H41.5794V45.3906Z" fill="#63312D"/>
<path d="M43.8529 45.3906H43.2148V51.8238H43.8529V45.3906Z" fill="#63312D"/>
<path d="M38.9865 52.4925C38.3051 52.4925 37.75 51.9381 37.75 51.256C37.75 50.574 38.3044 50.0195 38.9865 50.0195C39.6685 50.0195 40.223 50.574 40.223 51.256C40.223 51.9381 39.6679 52.4925 38.9865 52.4925ZM38.9865 50.6582C38.6566 50.6582 38.388 50.9262 38.388 51.2567C38.388 51.5871 38.6566 51.8551 38.9865 51.8551C39.3163 51.8551 39.5849 51.5871 39.5849 51.2567C39.5849 50.9262 39.3163 50.6582 38.9865 50.6582Z" fill="#63312D"/>
</g>
</g>
<path d="M7.12842 87.5791C7.14307 87.5791 7.15771 87.5791 7.16504 87.5718V89H0.5V80.3647C0.5 79.7788 0.712402 79.2734 1.13721 78.856C1.56934 78.4385 2.07471 78.2261 2.66797 78.2261C2.66797 78.2261 2.8877 78.2261 3.3125 78.2261C3.74463 78.2261 4.23535 78.2261 4.79199 78.2261C5.34131 78.2261 5.83203 78.2261 6.25684 78.2261C6.68164 78.2261 6.90869 78.2261 6.93799 78.2261V79.6689C6.91602 79.6689 6.68896 79.6689 6.26416 79.6763C5.84668 79.6763 5.35596 79.6763 4.79932 79.6763C4.24268 79.6763 3.75195 79.6763 3.31982 79.6763C2.8877 79.6763 2.66797 79.6836 2.66797 79.6836C2.47754 79.6836 2.30908 79.7495 2.16992 79.8813C2.03809 80.0132 1.96484 80.1743 1.96484 80.3647V82.8623H6.57178V84.2686L1.96484 84.2759L1.93555 87.5425L7.12842 87.5791ZM8.49805 86.7808C8.49805 86.7734 8.49805 86.7661 8.49805 86.7588V86.7808ZM16.8037 81.1045C17.3457 81.1045 17.8657 81.2437 18.3564 81.5073C18.8545 81.771 19.2573 82.1299 19.5723 82.5767C19.8799 83.0234 20.041 83.5215 20.041 84.0635C20.041 84.0708 20.041 84.1367 20.041 84.2759C20.041 84.6274 20.041 85.2354 20.041 86.0996C20.0337 86.9712 20.0337 87.938 20.0337 89H18.5835C18.5835 88.9268 18.5835 88.6411 18.5835 88.1504C18.5835 87.6523 18.5835 87.0957 18.5835 86.4658C18.5835 85.8359 18.5835 85.2866 18.5835 84.7959C18.5908 84.3125 18.5908 84.0708 18.5908 84.0635C18.5908 83.7852 18.4956 83.5361 18.3125 83.3091C18.1294 83.082 17.9023 82.8989 17.6313 82.7598C17.353 82.6279 17.082 82.562 16.8037 82.562C16.4009 82.562 15.998 82.7085 15.6025 83.0015C15.2144 83.2944 15.002 83.6313 14.9727 84.0049C14.9727 84.0342 14.9727 84.2832 14.9727 84.7593C14.9653 85.228 14.9653 85.7847 14.9653 86.4146C14.9653 87.0444 14.9653 87.6084 14.9653 88.1138C14.958 88.6191 14.958 88.9121 14.958 89H13.5151C13.5151 88.2017 13.5151 87.418 13.5151 86.6416C13.5151 85.8652 13.5151 85.228 13.5225 84.7373C13.5225 84.2686 13.5225 84.0269 13.5225 84.0049C13.4858 83.5947 13.2808 83.2505 12.9072 82.9722C12.5337 82.6938 12.1455 82.562 11.7354 82.562C11.4717 82.562 11.2153 82.6426 10.959 82.811C10.71 82.9795 10.5049 83.1699 10.3364 83.397C10.168 83.6167 10.0728 83.8218 10.0508 84.0049L10.0435 89H8.58594C8.58594 88.9927 8.58594 88.9927 8.58594 88.9927V88.9268C8.58594 88.7144 8.58594 88.2969 8.58594 87.6743C8.58594 87.0518 8.58594 86.4072 8.59326 85.7554C8.59326 85.0962 8.59326 84.6055 8.59326 84.2832C8.59326 84.1367 8.59326 84.0635 8.59326 84.0635C8.59326 84.0415 8.59326 84.0269 8.59326 84.0049C8.59326 83.9976 8.59326 83.9902 8.59326 83.9829L8.60059 81.1045L10.0508 81.1118V81.5952C10.5708 81.2729 11.1348 81.1045 11.7354 81.1045C12.1821 81.1045 12.6362 81.1997 13.1123 81.3755C13.5811 81.5586 13.9619 81.8076 14.2476 82.1226C14.5332 81.8076 14.9214 81.5586 15.4048 81.3828C15.8955 81.1997 16.3569 81.1045 16.8037 81.1045ZM25.3145 81.1191C26.0396 81.1191 26.6987 81.2949 27.292 81.6465C27.8926 82.0054 28.3687 82.4814 28.7202 83.0747C29.0791 83.6753 29.2549 84.3345 29.2549 85.0596C29.2549 85.7773 29.0791 86.4438 28.7202 87.0371C28.3687 87.6377 27.8926 88.1064 27.292 88.4653C26.6987 88.8169 26.0396 89 25.3145 89C24.8384 89 24.3916 88.9194 23.9741 88.7656C23.5493 88.6045 23.1685 88.3921 22.8242 88.1064V89H21.3594V78.2188H22.8096L22.8169 82.0127C23.1611 81.7271 23.542 81.5073 23.9668 81.3535C24.3916 81.1924 24.8384 81.1191 25.3145 81.1191ZM25.3145 87.5425C26.0029 87.5425 26.5889 87.3008 27.0723 86.8174C27.563 86.3267 27.8047 85.7407 27.8047 85.0596C27.8047 84.3711 27.563 83.7852 27.0723 83.2944C26.5889 82.811 26.0029 82.5693 25.3145 82.5693C24.626 82.5693 24.04 82.811 23.5566 83.2944C23.0659 83.7852 22.8242 84.3711 22.8242 85.0596C22.8242 85.7407 23.0659 86.3267 23.5566 86.8174C24.04 87.3008 24.626 87.5425 25.3145 87.5425ZM38.4395 85.3452H36.9819L32.0381 85.3379C32.126 85.9678 32.3896 86.4951 32.8438 86.9053C33.3052 87.3154 33.8545 87.5352 34.5137 87.5498C34.9751 87.5425 35.4805 87.4546 36.0151 87.2861C36.5571 87.125 36.9893 86.9126 37.3335 86.6709H37.3408L38.1245 87.8208C37.48 88.2676 36.8721 88.5752 36.3081 88.751C35.7441 88.9268 35.1436 89.0073 34.5063 89C33.4443 88.978 32.5435 88.6191 31.8184 87.9307C31.0859 87.2495 30.6758 86.3779 30.5806 85.3306C30.5732 85.2427 30.5732 85.1548 30.5732 85.0596C30.5732 84.6421 30.6392 84.2539 30.7563 83.873C31.02 83.0601 31.4888 82.4082 32.1626 81.9028C32.8364 81.3975 33.6201 81.1411 34.5137 81.1265C35.4072 81.1411 36.1909 81.3975 36.8647 81.9028C37.5312 82.4082 38 83.0674 38.271 83.8804C38.3882 84.2539 38.4468 84.6494 38.4468 85.0669C38.4468 85.1548 38.4468 85.25 38.4395 85.3452ZM32.4849 83.7339L36.8501 83.7412C36.6377 83.3457 36.3374 83.0308 35.9565 82.7964C35.5757 82.562 35.1436 82.4448 34.6675 82.4375C34.1914 82.4375 33.7593 82.562 33.3784 82.7964C32.9976 83.0308 32.6973 83.3457 32.4849 83.7339ZM47.6387 78.2114L47.6533 89.0073H46.2031V88.1211C45.8589 88.3994 45.478 88.6118 45.0532 88.7729C44.6284 88.9268 44.1816 89.0073 43.7129 89.0073C42.9878 89.0073 42.3286 88.8242 41.7354 88.4727C41.1348 88.1138 40.6587 87.645 40.3071 87.0444C39.9482 86.4512 39.7725 85.7847 39.7725 85.0669C39.7725 84.3418 39.9482 83.6826 40.3071 83.082C40.6587 82.4888 41.1348 82.0127 41.7354 81.6538C42.3286 81.3022 42.9878 81.1265 43.7129 81.1265C44.1816 81.1265 44.6284 81.1997 45.0532 81.3535C45.4707 81.5073 45.8516 81.7271 46.1958 82.0054L46.1885 78.2114H47.6387ZM46.2031 85.0815C46.2031 85.0742 46.2031 85.0742 46.2031 85.0742C46.2031 85.0669 46.2031 85.0669 46.2031 85.0669C46.2031 85.0156 46.2031 84.9644 46.1958 84.9131C46.1445 84.2466 45.8809 83.6899 45.4121 83.2432C44.9434 82.7964 44.3721 82.5767 43.7129 82.5767C43.0244 82.5767 42.4385 82.8184 41.9551 83.3018C41.4644 83.7925 41.2227 84.3784 41.2227 85.0669C41.2227 85.748 41.4644 86.334 41.9551 86.8247C42.4385 87.3081 43.0244 87.5498 43.7129 87.5498C44.3721 87.5498 44.9434 87.3301 45.4121 86.8833C45.8809 86.4365 46.1445 85.8799 46.1958 85.2134V84.9424C46.2031 84.9863 46.2031 85.0303 46.2031 85.0815ZM56.8525 78.2114L56.8672 89.0073H55.417V88.1211C55.0728 88.3994 54.6919 88.6118 54.2671 88.7729C53.8423 88.9268 53.3955 89.0073 52.9268 89.0073C52.2017 89.0073 51.5425 88.8242 50.9492 88.4727C50.3486 88.1138 49.8726 87.645 49.521 87.0444C49.1621 86.4512 48.9863 85.7847 48.9863 85.0669C48.9863 84.3418 49.1621 83.6826 49.521 83.082C49.8726 82.4888 50.3486 82.0127 50.9492 81.6538C51.5425 81.3022 52.2017 81.1265 52.9268 81.1265C53.3955 81.1265 53.8423 81.1997 54.2671 81.3535C54.6846 81.5073 55.0654 81.7271 55.4097 82.0054L55.4023 78.2114H56.8525ZM55.417 85.0815C55.417 85.0742 55.417 85.0742 55.417 85.0742C55.417 85.0669 55.417 85.0669 55.417 85.0669C55.417 85.0156 55.417 84.9644 55.4097 84.9131C55.3584 84.2466 55.0947 83.6899 54.626 83.2432C54.1572 82.7964 53.5859 82.5767 52.9268 82.5767C52.2383 82.5767 51.6523 82.8184 51.1689 83.3018C50.6782 83.7925 50.4365 84.3784 50.4365 85.0669C50.4365 85.748 50.6782 86.334 51.1689 86.8247C51.6523 87.3081 52.2383 87.5498 52.9268 87.5498C53.5859 87.5498 54.1572 87.3301 54.626 86.8833C55.0947 86.4365 55.3584 85.8799 55.4097 85.2134V84.9424C55.417 84.9863 55.417 85.0303 55.417 85.0815ZM66.0664 85.3452H64.6089L59.665 85.3379C59.7529 85.9678 60.0166 86.4951 60.4707 86.9053C60.9321 87.3154 61.4814 87.5352 62.1406 87.5498C62.6021 87.5425 63.1074 87.4546 63.6421 87.2861C64.1841 87.125 64.6162 86.9126 64.9604 86.6709H64.9678L65.7515 87.8208C65.1069 88.2676 64.499 88.5752 63.9351 88.751C63.3711 88.9268 62.7705 89.0073 62.1333 89C61.0713 88.978 60.1704 88.6191 59.4453 87.9307C58.7129 87.2495 58.3027 86.3779 58.2075 85.3306C58.2002 85.2427 58.2002 85.1548 58.2002 85.0596C58.2002 84.6421 58.2661 84.2539 58.3833 83.873C58.647 83.0601 59.1157 82.4082 59.7896 81.9028C60.4634 81.3975 61.2471 81.1411 62.1406 81.1265C63.0342 81.1411 63.8179 81.3975 64.4917 81.9028C65.1582 82.4082 65.627 83.0674 65.8979 83.8804C66.0151 84.2539 66.0737 84.6494 66.0737 85.0669C66.0737 85.1548 66.0737 85.25 66.0664 85.3452ZM60.1118 83.7339L64.4771 83.7412C64.2646 83.3457 63.9644 83.0308 63.5835 82.7964C63.2026 82.562 62.7705 82.4448 62.2944 82.4375C61.8184 82.4375 61.3862 82.562 61.0054 82.7964C60.6245 83.0308 60.3242 83.3457 60.1118 83.7339ZM75.2656 78.2114L75.2803 89.0073H73.8301V88.1211C73.4858 88.3994 73.105 88.6118 72.6802 88.7729C72.2554 88.9268 71.8086 89.0073 71.3398 89.0073C70.6147 89.0073 69.9556 88.8242 69.3623 88.4727C68.7617 88.1138 68.2856 87.645 67.9341 87.0444C67.5752 86.4512 67.3994 85.7847 67.3994 85.0669C67.3994 84.3418 67.5752 83.6826 67.9341 83.082C68.2856 82.4888 68.7617 82.0127 69.3623 81.6538C69.9556 81.3022 70.6147 81.1265 71.3398 81.1265C71.8086 81.1265 72.2554 81.1997 72.6802 81.3535C73.0977 81.5073 73.4785 81.7271 73.8228 82.0054L73.8154 78.2114H75.2656ZM73.8301 85.0815C73.8301 85.0742 73.8301 85.0742 73.8301 85.0742C73.8301 85.0669 73.8301 85.0669 73.8301 85.0669C73.8301 85.0156 73.8301 84.9644 73.8228 84.9131C73.7715 84.2466 73.5078 83.6899 73.0391 83.2432C72.5703 82.7964 71.999 82.5767 71.3398 82.5767C70.6514 82.5767 70.0654 82.8184 69.582 83.3018C69.0913 83.7925 68.8496 84.3784 68.8496 85.0669C68.8496 85.748 69.0913 86.334 69.582 86.8247C70.0654 87.3081 70.6514 87.5498 71.3398 87.5498C71.999 87.5498 72.5703 87.3301 73.0391 86.8833C73.5078 86.4365 73.7715 85.8799 73.8228 85.2134V84.9424C73.8301 84.9863 73.8301 85.0303 73.8301 85.0815Z" fill="black"/>
<defs>
<filter id="filter0_b_554_3063" x="-179.789" y="-182.789" width="437.579" height="437.579" filterUnits="userSpaceOnUse" color-interpolation-filters="sRGB">
<feFlood flood-opacity="0" result="BackgroundImageFix"/>
<feGaussianBlur in="BackgroundImageFix" stdDeviation="91.6447"/>
<feComposite in2="SourceAlpha" operator="in" result="effect1_backgroundBlur_554_3063"/>
<feBlend mode="normal" in="SourceGraphic" in2="effect1_backgroundBlur_554_3063" result="shape"/>
</filter>
<linearGradient id="paint0_linear_554_3063" x1="4" y1="1" x2="74" y2="71" gradientUnits="userSpaceOnUse">
<stop stop-color="#37CBF9" stop-opacity="0"/>
<stop offset="1" stop-color="#207893" stop-opacity="0.25"/>
</linearGradient>
</defs>
</svg>
