<svg width="427" height="396" viewBox="0 0 427 396" fill="none" xmlns="http://www.w3.org/2000/svg">
<g clip-path="url(#clip0_372_10160)">
<path d="M195.811 37.1645C191.394 37.5297 186.991 38.071 182.616 38.7847C182.272 38.8412 181.964 39.032 181.76 39.3152C181.557 39.5985 181.474 39.9511 181.53 40.2954C181.586 40.6397 181.777 40.9476 182.061 41.1513C182.344 41.3549 182.696 41.4377 183.04 41.3815C187.346 40.6777 191.681 40.1461 196.029 39.7867C196.201 39.7724 196.369 39.7245 196.523 39.6453C196.676 39.5662 196.813 39.4574 196.925 39.3254C197.036 39.1935 197.121 39.041 197.174 38.8764C197.226 38.7118 197.246 38.5382 197.232 38.3659C197.203 38.0181 197.038 37.6959 196.771 37.4703C196.505 37.2447 196.159 37.1342 195.811 37.163L195.811 37.1645ZM209.095 36.5966C208.922 36.5969 208.751 36.6312 208.591 36.6977C208.432 36.7642 208.287 36.8617 208.165 36.9843C208.043 37.1069 207.946 37.2524 207.88 37.4124C207.815 37.5723 207.781 37.7435 207.782 37.9164C207.783 38.2654 207.923 38.5995 208.17 38.8455C208.418 39.0916 208.752 39.2295 209.101 39.2286C213.463 39.2168 217.828 39.38 222.176 39.7216C222.524 39.7489 222.869 39.6368 223.134 39.4101C223.399 39.1834 223.564 38.8606 223.591 38.5126C223.605 38.3402 223.584 38.1671 223.531 38.0027C223.478 37.8384 223.392 37.6859 223.28 37.5545C223.168 37.4231 223.031 37.315 222.877 37.2366C222.723 37.1581 222.555 37.1107 222.382 37.0972C217.963 36.7499 213.528 36.5845 209.095 36.5966ZM169.591 41.4471C165.286 42.5086 161.024 43.7435 156.82 45.1502C156.656 45.205 156.504 45.2916 156.374 45.405C156.243 45.5184 156.137 45.6564 156.059 45.8111C155.982 45.9658 155.936 46.1343 155.924 46.3067C155.912 46.4792 155.934 46.6521 155.989 46.816C156.1 47.1471 156.338 47.4205 156.65 47.5763C156.962 47.732 157.324 47.7574 157.655 47.6467C161.791 46.2627 165.984 45.0486 170.22 44.0041C170.388 43.9627 170.547 43.8886 170.686 43.7861C170.826 43.6836 170.943 43.5546 171.032 43.4066C171.122 43.2585 171.181 43.0943 171.207 42.9233C171.233 42.7523 171.225 42.578 171.183 42.4101C171.1 42.0713 170.885 41.7796 170.587 41.599C170.288 41.4185 169.93 41.3637 169.591 41.4471ZM235.584 38.67C235.239 38.6147 234.887 38.6988 234.604 38.9034C234.321 39.108 234.131 39.4164 234.076 39.7611C234.021 40.1058 234.105 40.4585 234.31 40.7412C234.514 41.0239 234.823 41.2136 235.167 41.2688C239.473 41.9592 243.753 42.827 247.989 43.8661C248.157 43.9074 248.332 43.9151 248.503 43.889C248.673 43.8628 248.837 43.8033 248.985 43.7137C249.133 43.6241 249.262 43.5063 249.364 43.3669C249.467 43.2275 249.54 43.0691 249.582 42.9011C249.623 42.7332 249.631 42.559 249.605 42.3881C249.578 42.2172 249.519 42.0531 249.429 41.9052C249.34 41.7574 249.221 41.6287 249.082 41.5265C248.942 41.4242 248.785 41.3501 248.617 41.309C244.311 40.2528 239.962 39.3718 235.584 38.67ZM144.391 49.8747C140.314 51.6154 136.306 53.523 132.384 55.5897C132.231 55.6702 132.095 55.78 131.985 55.9129C131.874 56.0459 131.791 56.1993 131.74 56.3644C131.689 56.5296 131.671 56.7032 131.687 56.8754C131.703 57.0475 131.753 57.215 131.833 57.368C131.914 57.521 132.023 57.6565 132.156 57.767C132.289 57.8776 132.443 57.961 132.608 58.0122C132.774 58.0633 132.947 58.0814 133.119 58.0654C133.291 58.0495 133.459 57.9998 133.612 57.9191C137.471 55.8855 141.412 54.0079 145.424 52.2955C145.745 52.1585 145.999 51.8996 146.129 51.5758C146.259 51.2519 146.255 50.8897 146.118 50.5687C145.981 50.2476 145.723 49.9938 145.399 49.8637C145.075 49.7336 144.712 49.7377 144.391 49.8747ZM260.388 45.0694C260.076 45.2255 259.838 45.4992 259.728 45.8303C259.618 46.1614 259.644 46.5226 259.8 46.8346C259.956 47.1467 260.23 47.3842 260.561 47.4945C264.7 48.8726 268.783 50.418 272.796 52.1271C273.117 52.2638 273.479 52.2674 273.803 52.1371C274.127 52.0067 274.386 51.7531 274.523 51.432C274.659 51.1108 274.663 50.7484 274.532 50.4246C274.402 50.1008 274.149 49.8421 273.827 49.7054C269.748 47.9681 265.598 46.398 261.392 44.9975C261.061 44.8874 260.7 44.9131 260.388 45.0694ZM120.882 62.2599C117.14 64.6367 113.492 67.1649 109.955 69.8377C109.677 70.0481 109.494 70.3608 109.445 70.7065C109.397 71.0522 109.488 71.4027 109.699 71.6812C109.803 71.8193 109.933 71.9356 110.082 72.0233C110.231 72.1109 110.396 72.1682 110.568 72.192C110.739 72.2158 110.913 72.2056 111.081 72.162C111.248 72.1184 111.406 72.0422 111.544 71.9378C115.024 69.3081 118.611 66.8205 122.293 64.4816C122.587 64.2944 122.796 63.9982 122.872 63.6576C122.948 63.317 122.885 62.96 122.698 62.6653C122.511 62.3707 122.215 62.1627 121.874 62.0867C121.533 62.0107 121.177 62.0728 120.882 62.2599ZM100.629 77.9386C100.456 77.9286 100.283 77.9527 100.12 78.0095C99.9566 78.0664 99.806 78.1548 99.6769 78.2699C96.3646 81.2166 93.1707 84.2965 90.1065 87.5005C89.987 87.6255 89.8941 87.7729 89.8315 87.934C89.769 88.0952 89.7385 88.267 89.7424 88.4398C89.7463 88.6126 89.7841 88.783 89.8539 88.9412C89.9236 89.0993 90.0243 89.2421 90.1493 89.3616C90.4016 89.6025 90.7387 89.7336 91.0875 89.7258C91.4363 89.7179 91.7678 89.5718 92.009 89.3197C95.0238 86.167 98.1668 83.1354 101.426 80.2356C101.687 80.0035 101.845 79.6777 101.865 79.3294C101.885 78.9811 101.766 78.6387 101.534 78.378C101.303 78.1173 100.977 77.9593 100.629 77.9386ZM285.842 55.3985C285.533 55.2368 285.172 55.2045 284.839 55.3087C284.506 55.4129 284.228 55.6451 284.066 55.9543C283.904 56.2633 283.871 56.6242 283.975 56.9573C284.079 57.2904 284.311 57.5683 284.62 57.7305C288.485 59.7548 292.268 61.9358 295.957 64.2649C296.103 64.3572 296.266 64.4201 296.436 64.4494C296.606 64.4787 296.781 64.474 296.95 64.4359C297.118 64.3977 297.278 64.3268 297.42 64.2269C297.561 64.1271 297.68 64.0002 297.772 63.8539C297.865 63.7077 297.927 63.5451 297.957 63.3747C297.986 63.2043 297.982 63.0295 297.943 62.8609C297.905 62.6923 297.834 62.5329 297.735 62.3917C297.635 62.2505 297.508 62.1303 297.362 62.0381C293.613 59.6713 289.769 57.4558 285.842 55.3985ZM307.334 69.3302C307.163 69.3548 306.999 69.4129 306.85 69.5012C306.702 69.5895 306.572 69.7062 306.468 69.8448C306.364 69.9831 306.289 70.1407 306.246 70.3081C306.203 70.4756 306.193 70.65 306.218 70.8211C306.242 70.9922 306.301 71.1565 306.389 71.3052C306.477 71.4539 306.594 71.5838 306.732 71.6875C310.223 74.3024 313.609 77.059 316.881 79.9462C317.142 80.1771 317.486 80.2948 317.834 80.273C318.183 80.2511 318.508 80.0915 318.739 79.8297C318.853 79.7 318.941 79.5493 318.997 79.3857C319.053 79.2222 319.076 79.0492 319.065 78.8766C319.054 78.7041 319.01 78.5355 318.934 78.3803C318.858 78.2251 318.752 78.0861 318.622 77.9718C315.299 75.0383 311.858 72.2365 308.31 69.579C308.171 69.4754 308.014 69.4003 307.847 69.3576C307.679 69.3149 307.506 69.3055 307.334 69.3302ZM81.3093 97.4677C78.5099 100.905 75.8479 104.456 73.3341 108.107C73.236 108.249 73.1674 108.41 73.1313 108.579C73.0952 108.748 73.0926 108.922 73.1239 109.092C73.1553 109.262 73.2199 109.425 73.314 109.57C73.408 109.715 73.5295 109.84 73.6719 109.938C73.8143 110.036 73.9742 110.105 74.1432 110.141C74.3123 110.177 74.4874 110.18 74.6573 110.148C74.8273 110.117 74.989 110.052 75.134 109.958C75.279 109.864 75.4046 109.742 75.5026 109.6C77.9777 106.007 80.5953 102.512 83.3504 99.13C83.4595 98.9959 83.541 98.8417 83.5905 98.6761C83.6401 98.5105 83.657 98.337 83.6394 98.165C83.6218 97.993 83.5702 97.8262 83.4881 97.6741C83.406 97.5219 83.2945 97.3873 83.1605 97.2782C82.8899 97.0579 82.5434 96.954 82.1963 96.9895C81.8492 97.0249 81.5305 97.1968 81.31 97.4672L81.3093 97.4677ZM327.305 86.7614C326.956 86.7553 326.619 86.888 326.368 87.1305C326.244 87.2505 326.144 87.3942 326.075 87.5527C326.006 87.7112 325.969 87.8818 325.966 88.0546C325.963 88.2275 325.994 88.399 326.058 88.5599C326.121 88.7208 326.215 88.8676 326.335 88.992C329.366 92.1303 332.268 95.392 335.034 98.765C335.256 99.0345 335.575 99.2054 335.922 99.2396C336.27 99.2738 336.617 99.1684 336.886 98.9473C337.156 98.726 337.327 98.4066 337.362 98.0593C337.396 97.7119 337.291 97.3651 337.07 97.0951C334.259 93.6677 331.308 90.3532 328.23 87.1633C328.11 87.0389 327.966 86.9394 327.808 86.8704C327.649 86.8015 327.478 86.7644 327.305 86.7614ZM68.0358 118.867C67.7335 118.693 67.3744 118.646 67.0374 118.737C66.7004 118.827 66.4134 119.047 66.239 119.349C64.0235 123.19 61.9637 127.12 60.0655 131.126C59.916 131.441 59.898 131.803 60.015 132.132C60.1321 132.461 60.3753 132.729 60.6904 132.879C60.8467 132.953 61.0155 132.996 61.1883 133.005C61.3611 133.014 61.5338 132.989 61.6967 132.93C61.8597 132.872 62.0096 132.783 62.1379 132.667C62.2662 132.551 62.3707 132.41 62.4448 132.254C64.3131 128.311 66.3378 124.444 68.518 120.666C68.6044 120.516 68.6611 120.351 68.6836 120.179C68.7062 120.008 68.6942 119.834 68.6494 119.667C68.6046 119.5 68.5278 119.343 68.4225 119.206C68.3171 119.069 68.1856 118.954 68.0358 118.867ZM344.234 107.161C343.89 107.099 343.537 107.176 343.25 107.376C342.963 107.574 342.767 107.879 342.705 108.223C342.643 108.566 342.72 108.919 342.918 109.206C345.405 112.79 347.747 116.475 349.933 120.249C350.02 120.399 350.135 120.53 350.272 120.635C350.41 120.74 350.566 120.817 350.733 120.862C350.9 120.906 351.075 120.918 351.246 120.895C351.417 120.872 351.583 120.815 351.732 120.729C351.882 120.642 352.013 120.527 352.118 120.39C352.223 120.253 352.3 120.096 352.345 119.929C352.389 119.762 352.401 119.587 352.378 119.416C352.355 119.245 352.298 119.079 352.212 118.93C349.988 115.093 347.609 111.348 345.082 107.706C344.983 107.564 344.858 107.443 344.712 107.349C344.567 107.256 344.404 107.191 344.234 107.161ZM56.5577 142.596C56.2313 142.472 55.8688 142.484 55.5506 142.627C55.2323 142.771 54.9838 143.035 54.8602 143.361C53.2898 147.507 51.8876 151.716 50.659 155.976C50.6111 156.142 50.5961 156.316 50.6154 156.488C50.6348 156.66 50.6881 156.827 50.7717 156.978C50.8554 157.129 50.9681 157.263 51.1033 157.37C51.2385 157.478 51.3933 157.558 51.5595 157.606C51.8947 157.702 52.2543 157.661 52.5595 157.493C52.8647 157.324 53.0908 157.041 53.1875 156.705C54.3961 152.514 55.7757 148.373 57.3212 144.294C57.3825 144.132 57.4118 143.96 57.4066 143.787C57.4014 143.615 57.3618 143.445 57.2908 143.287C57.2199 143.129 57.1187 142.987 56.9928 142.869C56.8669 142.75 56.7194 142.657 56.5577 142.596ZM356.655 130.071C356.339 130.221 356.097 130.491 355.98 130.82C355.863 131.149 355.883 131.511 356.033 131.826C357.909 135.764 359.624 139.779 361.172 143.857C361.234 144.018 361.327 144.166 361.445 144.292C361.564 144.418 361.706 144.519 361.864 144.59C362.021 144.66 362.192 144.699 362.365 144.704C362.537 144.709 362.709 144.68 362.871 144.619C363.197 144.494 363.46 144.246 363.603 143.928C363.746 143.61 363.757 143.248 363.633 142.922C362.059 138.777 360.316 134.695 358.409 130.693C358.335 130.537 358.23 130.397 358.102 130.281C357.973 130.165 357.824 130.076 357.661 130.018C357.498 129.961 357.325 129.936 357.152 129.945C356.98 129.954 356.811 129.997 356.655 130.071ZM49.0435 167.861C48.7016 167.793 48.3456 167.862 48.0549 168.055C47.7642 168.248 47.5623 168.548 47.493 168.89C46.6116 173.236 45.9082 177.617 45.3842 182.02C45.3431 182.366 45.4414 182.715 45.6574 182.989C45.8733 183.263 46.1892 183.44 46.5358 183.482C46.8822 183.523 47.2311 183.424 47.5051 183.208C47.7792 182.993 47.9566 182.677 47.9978 182.33C48.514 177.999 49.2051 173.688 50.0725 169.414C50.107 169.244 50.1079 169.069 50.0748 168.9C50.0417 168.73 49.9755 168.568 49.8798 168.424C49.7842 168.28 49.6607 168.156 49.5172 168.06C49.3737 167.963 49.2131 167.896 49.0435 167.861ZM366.218 154.635C365.883 154.732 365.6 154.959 365.432 155.264C365.264 155.57 365.224 155.929 365.321 156.264C366.537 160.454 367.582 164.693 368.455 168.967C368.525 169.309 368.728 169.609 369.019 169.802C369.31 169.994 369.665 170.064 370.007 169.994C370.176 169.96 370.338 169.892 370.481 169.795C370.624 169.698 370.747 169.574 370.842 169.43C370.938 169.286 371.004 169.124 371.036 168.954C371.069 168.785 371.068 168.61 371.034 168.441C370.147 164.097 369.085 159.789 367.849 155.531C367.801 155.365 367.721 155.21 367.613 155.075C367.505 154.94 367.371 154.828 367.219 154.745C367.068 154.662 366.901 154.609 366.729 154.59C366.558 154.571 366.384 154.586 366.218 154.635ZM45.711 194.01C45.3625 193.997 45.023 194.123 44.7672 194.36C44.5115 194.597 44.36 194.926 44.3465 195.274C44.1785 199.704 44.1888 204.141 44.38 208.57C44.3874 208.743 44.4286 208.913 44.5015 209.07C44.5745 209.227 44.6776 209.367 44.805 209.484C44.9324 209.601 45.0821 209.692 45.2445 209.751C45.4069 209.81 45.5791 209.837 45.7519 209.829C45.9246 209.822 46.0941 209.78 46.2509 209.707C46.4076 209.634 46.5483 209.531 46.6651 209.404C46.782 209.277 46.8729 209.128 46.9321 208.965C46.9913 208.803 47.0182 208.63 47.0107 208.457C46.8229 204.099 46.8114 199.733 46.9769 195.374C46.9899 195.025 46.8634 194.686 46.626 194.43C46.3886 194.174 46.0598 194.023 45.711 194.01ZM371.707 180.416C371.698 180.426 371.689 180.437 371.68 180.447C371.348 180.498 371.048 180.675 370.842 180.941C370.635 181.206 370.538 181.541 370.571 181.876C370.569 181.879 370.567 181.882 370.565 181.886L370.566 181.897L370.567 181.905C371.099 186.234 371.461 190.584 371.645 194.941C371.66 195.289 371.812 195.618 372.069 195.854C372.326 196.09 372.667 196.214 373.015 196.2C373.364 196.185 373.693 196.032 373.929 195.775C374.165 195.518 374.289 195.178 374.274 194.829C374.087 190.4 373.718 185.979 373.179 181.58L373.177 181.565C373.177 181.562 373.177 181.56 373.176 181.557C373.128 181.219 372.95 180.913 372.68 180.704C372.41 180.495 372.07 180.398 371.73 180.435C371.725 180.43 371.719 180.425 371.714 180.419L371.707 180.416ZM46.6227 220.353C46.2763 220.396 45.9608 220.574 45.746 220.849C45.5312 221.124 45.4343 221.474 45.4768 221.82C46.0169 226.219 46.729 230.598 47.6194 234.941C47.6895 235.283 47.8924 235.583 48.1836 235.775C48.4748 235.967 48.8307 236.036 49.1726 235.966C49.342 235.932 49.5026 235.864 49.6459 235.767C49.7892 235.671 49.9117 235.546 50.0071 235.402C50.1024 235.258 50.1684 235.096 50.2013 234.927C50.2341 234.757 50.2338 234.582 50.1991 234.413C49.3233 230.14 48.6218 225.83 48.0893 221.499C48.0467 221.153 47.8683 220.837 47.5932 220.622C47.3181 220.407 46.9691 220.311 46.6227 220.353ZM373.042 206.756C372.869 206.75 372.697 206.777 372.535 206.837C372.373 206.897 372.224 206.989 372.098 207.107C371.971 207.224 371.868 207.365 371.796 207.522C371.724 207.68 371.684 207.85 371.678 208.022C371.515 212.381 371.174 216.734 370.657 221.065C370.616 221.411 370.714 221.76 370.929 222.034C371.145 222.308 371.461 222.486 371.807 222.527C371.979 222.548 372.152 222.534 372.319 222.488C372.485 222.441 372.641 222.362 372.777 222.255C372.913 222.148 373.026 222.016 373.111 221.865C373.196 221.714 373.25 221.549 373.271 221.377C373.796 216.975 374.142 212.551 374.308 208.121C374.321 207.772 374.195 207.432 373.958 207.176C373.72 206.92 373.391 206.769 373.042 206.756ZM51.7016 246.219C51.3664 246.316 51.0839 246.543 50.9154 246.848C50.747 247.154 50.7064 247.514 50.8034 247.849C52.036 252.108 53.4428 256.317 55.0185 260.461C55.1426 260.787 55.3913 261.05 55.7097 261.193C56.0281 261.336 56.3907 261.347 56.717 261.223C57.043 261.099 57.3064 260.85 57.4493 260.532C57.5922 260.214 57.603 259.852 57.4792 259.526C55.929 255.448 54.5446 251.308 53.3317 247.118C53.2346 246.782 53.0084 246.499 52.7028 246.331C52.3972 246.163 52.0368 246.123 51.7016 246.219ZM370.133 232.954C369.963 232.92 369.788 232.919 369.619 232.952C369.449 232.985 369.287 233.052 369.143 233.147C368.999 233.243 368.875 233.366 368.779 233.509C368.682 233.653 368.615 233.814 368.581 233.983C367.716 238.259 366.677 242.498 365.465 246.688C365.369 247.024 365.409 247.384 365.577 247.689C365.746 247.995 366.029 248.221 366.364 248.318C366.7 248.415 367.06 248.374 367.365 248.206C367.671 248.037 367.897 247.754 367.994 247.419C369.225 243.16 370.282 238.85 371.162 234.505C371.231 234.163 371.161 233.807 370.968 233.516C370.775 233.226 370.475 233.023 370.133 232.954ZM60.8653 270.935C60.7091 271.009 60.5695 271.114 60.4537 271.242C60.3379 271.37 60.2478 271.52 60.19 271.683C60.1321 271.846 60.1076 272.019 60.1166 272.192C60.1256 272.365 60.168 272.534 60.2424 272.69C62.1466 276.694 64.2151 280.619 66.44 284.454C66.6151 284.756 66.9032 284.976 67.2404 285.066C67.5777 285.155 67.9368 285.107 68.2387 284.932C68.5406 284.757 68.76 284.469 68.8497 284.132C68.9394 283.795 68.8919 283.435 68.7168 283.133C66.5281 279.36 64.4932 275.497 62.6188 271.558C62.4688 271.243 62.1995 271.001 61.8707 270.884C61.542 270.767 61.1805 270.785 60.8653 270.935ZM74.8854 293.633C74.5422 293.571 74.1879 293.647 73.9013 293.846C73.6143 294.044 73.4181 294.349 73.3555 294.692C73.2929 295.036 73.3696 295.39 73.5681 295.677C76.0943 299.32 78.7686 302.862 81.5801 306.289C81.6898 306.423 81.8245 306.534 81.977 306.615C82.1296 306.697 82.2967 306.748 82.4689 306.764C82.6411 306.781 82.8148 306.764 82.9803 306.714C83.1458 306.663 83.3 306.581 83.4336 306.471C83.7033 306.25 83.874 305.93 83.9082 305.583C83.9424 305.236 83.8372 304.889 83.6159 304.619C80.8486 301.247 78.2164 297.763 75.7313 294.178C75.5325 293.891 75.2286 293.695 74.8854 293.633ZM363.027 258.339C362.7 258.215 362.338 258.226 362.02 258.37C361.702 258.513 361.454 258.777 361.331 259.103C359.787 263.183 358.076 267.201 356.207 271.143C356.058 271.459 356.04 271.82 356.157 272.149C356.275 272.478 356.517 272.746 356.833 272.896C357.148 273.045 357.51 273.064 357.839 272.947C358.168 272.829 358.437 272.586 358.586 272.271C360.485 268.265 362.224 264.182 363.793 260.036C363.854 259.874 363.883 259.702 363.878 259.529C363.872 259.356 363.833 259.186 363.762 259.029C363.691 258.871 363.589 258.729 363.463 258.61C363.337 258.492 363.189 258.4 363.027 258.339ZM350.931 282.118C350.594 282.209 350.307 282.429 350.132 282.731C347.955 286.511 345.624 290.202 343.149 293.796C343.051 293.938 342.982 294.098 342.946 294.267C342.909 294.436 342.907 294.611 342.938 294.781C342.97 294.951 343.034 295.113 343.128 295.258C343.221 295.403 343.343 295.528 343.486 295.626C343.628 295.724 343.789 295.793 343.958 295.83C344.127 295.866 344.301 295.868 344.471 295.837C344.641 295.806 344.803 295.741 344.948 295.647C345.093 295.553 345.218 295.431 345.316 295.289C347.831 291.638 350.2 287.888 352.413 284.046C352.499 283.896 352.555 283.731 352.578 283.56C352.6 283.388 352.588 283.214 352.543 283.047C352.499 282.88 352.421 282.724 352.316 282.587C352.21 282.45 352.079 282.334 351.929 282.248C351.627 282.074 351.268 282.028 350.931 282.118ZM91.3922 313.993C91.2193 313.99 91.0474 314.02 90.8864 314.083C90.7254 314.147 90.5781 314.241 90.4535 314.361C90.329 314.481 90.2294 314.624 90.1603 314.783C90.0911 314.941 90.054 315.111 90.0508 315.284C90.0476 315.457 90.0783 315.629 90.1415 315.79C90.2048 315.951 90.2993 316.098 90.4193 316.223C93.496 319.415 96.7039 322.48 100.026 325.414C100.156 325.529 100.306 325.617 100.47 325.673C100.633 325.729 100.807 325.752 100.979 325.742C101.152 325.731 101.321 325.687 101.476 325.611C101.632 325.535 101.77 325.429 101.884 325.299C101.999 325.17 102.087 325.019 102.143 324.855C102.199 324.692 102.222 324.519 102.212 324.346C102.201 324.174 102.157 324.005 102.081 323.85C102.005 323.694 101.899 323.555 101.769 323.441C98.4985 320.554 95.3427 317.536 92.3152 314.395C92.073 314.144 91.741 313.999 91.3922 313.993ZM336.187 303.789C336.015 303.806 335.848 303.858 335.696 303.94C335.544 304.022 335.409 304.133 335.3 304.267C332.547 307.651 329.658 310.925 326.641 314.076C326.522 314.201 326.428 314.348 326.366 314.51C326.303 314.671 326.273 314.842 326.277 315.015C326.28 315.188 326.318 315.359 326.387 315.517C326.457 315.675 326.557 315.818 326.682 315.938C326.807 316.057 326.954 316.151 327.115 316.214C327.276 316.276 327.448 316.307 327.621 316.303C327.794 316.299 327.965 316.261 328.123 316.192C328.281 316.122 328.424 316.022 328.543 315.897C331.608 312.694 334.545 309.367 337.342 305.929C337.562 305.658 337.666 305.311 337.63 304.964C337.595 304.617 337.423 304.299 337.153 304.078C336.882 303.857 336.534 303.753 336.187 303.789ZM110.942 331.452C110.771 331.477 110.606 331.535 110.457 331.623C110.308 331.711 110.178 331.827 110.074 331.966C109.971 332.104 109.895 332.262 109.852 332.429C109.809 332.597 109.8 332.771 109.824 332.942C109.849 333.113 109.907 333.278 109.995 333.426C110.083 333.575 110.2 333.705 110.338 333.809C113.884 336.468 117.538 338.985 121.287 341.351C121.433 341.443 121.596 341.506 121.766 341.535C121.937 341.565 122.112 341.56 122.28 341.522C122.449 341.484 122.608 341.413 122.749 341.313C122.891 341.213 123.011 341.086 123.103 340.94C123.195 340.794 123.258 340.631 123.287 340.461C123.316 340.29 123.312 340.115 123.274 339.947C123.236 339.778 123.165 339.619 123.065 339.478C122.965 339.336 122.838 339.216 122.692 339.124C119.002 336.796 115.407 334.32 111.916 331.703C111.637 331.494 111.287 331.404 110.942 331.452ZM318.175 322.831C318.002 322.821 317.829 322.845 317.666 322.902C317.503 322.959 317.352 323.047 317.223 323.162C313.964 326.063 310.589 328.832 307.107 331.46C306.828 331.67 306.645 331.983 306.597 332.328C306.549 332.674 306.64 333.025 306.85 333.303C307.06 333.581 307.373 333.764 307.718 333.813C308.063 333.861 308.414 333.77 308.692 333.56C312.232 330.89 315.662 328.075 318.974 325.128C319.234 324.895 319.392 324.57 319.412 324.221C319.432 323.873 319.314 323.531 319.082 323.27C318.967 323.141 318.827 323.036 318.672 322.96C318.516 322.885 318.347 322.841 318.175 322.831ZM134.029 345.66C133.876 345.579 133.709 345.53 133.537 345.514C133.364 345.499 133.191 345.517 133.026 345.569C132.861 345.62 132.707 345.704 132.574 345.815C132.441 345.925 132.332 346.061 132.252 346.214C132.09 346.523 132.057 346.884 132.161 347.217C132.265 347.55 132.497 347.828 132.806 347.99C136.732 350.049 140.742 351.951 144.822 353.685C144.981 353.753 145.152 353.789 145.325 353.79C145.498 353.792 145.669 353.759 145.829 353.695C145.989 353.63 146.136 353.534 146.259 353.413C146.383 353.292 146.481 353.148 146.549 352.989C146.616 352.83 146.652 352.659 146.654 352.486C146.655 352.313 146.622 352.142 146.558 351.981C146.493 351.821 146.398 351.675 146.277 351.551C146.156 351.428 146.011 351.33 145.852 351.262C141.838 349.556 137.893 347.686 134.029 345.66ZM296.356 338.916C292.675 341.255 288.897 343.445 285.037 345.477C284.884 345.558 284.749 345.668 284.638 345.801C284.527 345.934 284.444 346.087 284.393 346.253C284.342 346.418 284.324 346.591 284.34 346.763C284.356 346.936 284.405 347.103 284.486 347.256C284.566 347.409 284.676 347.545 284.809 347.655C284.942 347.766 285.096 347.849 285.261 347.9C285.427 347.951 285.6 347.969 285.772 347.953C285.944 347.937 286.112 347.888 286.265 347.807C290.187 345.741 294.025 343.515 297.767 341.138C297.913 341.045 298.04 340.925 298.139 340.783C298.238 340.641 298.309 340.482 298.346 340.313C298.384 340.144 298.388 339.969 298.358 339.799C298.328 339.629 298.264 339.466 298.171 339.32C297.984 339.026 297.688 338.818 297.347 338.743C297.007 338.667 296.651 338.729 296.356 338.916ZM158.088 355.893C157.924 355.838 157.751 355.817 157.578 355.829C157.406 355.841 157.238 355.887 157.083 355.965C156.929 356.042 156.79 356.149 156.677 356.28C156.564 356.41 156.477 356.562 156.423 356.726C156.313 357.057 156.339 357.419 156.495 357.731C156.651 358.043 156.925 358.28 157.256 358.39C161.461 359.792 165.725 361.023 170.031 362.079C170.199 362.12 170.373 362.128 170.544 362.101C170.715 362.075 170.879 362.016 171.027 361.926C171.175 361.837 171.304 361.719 171.406 361.579C171.508 361.44 171.582 361.282 171.623 361.114C171.664 360.946 171.672 360.771 171.646 360.6C171.62 360.429 171.56 360.265 171.47 360.117C171.38 359.97 171.262 359.841 171.123 359.739C170.983 359.636 170.825 359.563 170.657 359.522C166.421 358.483 162.227 357.272 158.088 355.893ZM273.223 351.098C269.212 352.813 265.131 354.362 260.993 355.744C260.662 355.854 260.389 356.092 260.233 356.405C260.077 356.717 260.052 357.078 260.163 357.409C260.273 357.74 260.511 358.014 260.823 358.169C261.135 358.325 261.496 358.351 261.827 358.24C266.032 356.836 270.181 355.261 274.259 353.519C274.417 353.451 274.562 353.352 274.683 353.228C274.803 353.105 274.899 352.959 274.963 352.798C275.027 352.638 275.059 352.466 275.057 352.293C275.055 352.12 275.019 351.95 274.951 351.791C274.883 351.632 274.785 351.488 274.661 351.367C274.537 351.246 274.391 351.151 274.23 351.087C274.07 351.022 273.898 350.99 273.725 350.992C273.552 350.994 273.382 351.03 273.223 351.098ZM183.48 362.117C183.136 362.062 182.784 362.146 182.501 362.351C182.218 362.556 182.028 362.864 181.973 363.208C181.917 363.553 182.002 363.905 182.206 364.188C182.41 364.471 182.718 364.661 183.062 364.716C187.439 365.42 191.845 365.947 196.266 366.292C196.438 366.305 196.611 366.285 196.776 366.231C196.94 366.178 197.092 366.092 197.224 365.98C197.355 365.868 197.463 365.73 197.542 365.576C197.62 365.422 197.667 365.254 197.681 365.081C197.694 364.909 197.673 364.736 197.62 364.571C197.566 364.407 197.481 364.254 197.369 364.123C197.256 363.992 197.12 363.884 196.965 363.805C196.811 363.727 196.643 363.68 196.47 363.666C192.122 363.327 187.787 362.81 183.48 362.117ZM248.426 359.385C244.191 360.43 239.913 361.305 235.607 362.006C235.437 362.034 235.274 362.095 235.127 362.186C234.979 362.277 234.851 362.396 234.75 362.536C234.649 362.676 234.577 362.835 234.538 363.003C234.498 363.172 234.492 363.346 234.52 363.517C234.548 363.687 234.608 363.851 234.699 363.998C234.79 364.145 234.909 364.273 235.049 364.374C235.19 364.475 235.349 364.547 235.517 364.587C235.685 364.626 235.86 364.632 236.031 364.604C240.407 363.892 244.753 363.003 249.057 361.942C249.225 361.9 249.383 361.826 249.522 361.724C249.662 361.621 249.779 361.492 249.869 361.344C249.958 361.196 250.018 361.032 250.043 360.861C250.069 360.69 250.062 360.516 250.02 360.348C249.979 360.18 249.905 360.022 249.802 359.883C249.7 359.743 249.571 359.626 249.423 359.536C249.275 359.447 249.11 359.387 248.939 359.361C248.768 359.335 248.594 359.344 248.426 359.385ZM209.545 364.159C209.196 364.16 208.862 364.3 208.616 364.547C208.37 364.795 208.232 365.13 208.233 365.479C208.234 365.828 208.373 366.162 208.621 366.408C208.868 366.654 209.204 366.792 209.553 366.791C213.986 366.78 218.419 366.59 222.836 366.223C223.009 366.209 223.176 366.161 223.33 366.082C223.484 366.002 223.62 365.894 223.732 365.762C223.844 365.63 223.929 365.477 223.981 365.313C224.034 365.148 224.054 364.974 224.039 364.802C224.01 364.455 223.844 364.133 223.578 363.908C223.311 363.682 222.966 363.572 222.619 363.601C218.271 363.962 213.908 364.148 209.545 364.159Z" fill="#A7A9AC"/>
<path d="M68.705 88.6962L59.4433 89.8334C57.8184 90.0329 56.5588 91.3501 56.4322 92.9824L55.7285 102.092L75.2753 99.6923L72.3878 91.0233C71.8708 89.47 70.3307 88.4966 68.705 88.6962Z" fill="#231F20"/>
<path d="M95.1529 101.264L93.1559 101.509C91.8264 101.672 90.8804 102.883 91.0437 104.213L91.671 109.321L98.4836 108.485L97.8563 103.376C97.6931 102.046 96.4823 101.101 95.1529 101.264Z" fill="#FF8828"/>
<path d="M40.1709 108.92L37.293 109.273L37.6462 112.151L40.5242 111.797L40.1709 108.92Z" fill="#FF8828"/>
<path d="M42.7142 108.6L34.7588 109.577C34.507 109.608 34.278 109.429 34.2471 109.177L33.9193 106.507C33.8883 106.255 34.0671 106.026 34.319 105.995L42.2744 105.018C42.5269 104.987 42.7558 105.166 42.7868 105.418L43.1146 108.088C43.1455 108.34 42.9668 108.569 42.7142 108.6Z" fill="#FF8828"/>
<path d="M78.3709 94.6239L51.4979 97.9235C50.2307 98.0791 49.1812 98.9806 48.8367 100.21L45.3896 112.503L87.8255 107.293L81.5068 96.1984C80.8744 95.0892 79.6381 94.4683 78.3709 94.6239Z" fill="#FF8828"/>
<path d="M336.037 244.01C330.21 244.883 324.708 247.972 320.927 253.063C317.146 258.155 315.779 264.315 316.627 270.145C316.657 270.353 316.769 270.539 316.937 270.664C317.104 270.789 317.315 270.842 317.522 270.812C317.73 270.782 317.916 270.671 318.042 270.504C318.167 270.336 318.221 270.125 318.191 269.918C317.399 264.483 318.669 258.754 322.196 254.005C325.722 249.258 330.84 246.385 336.271 245.571C336.478 245.54 336.664 245.428 336.789 245.259C336.913 245.091 336.966 244.88 336.935 244.673C336.903 244.466 336.791 244.28 336.623 244.156C336.455 244.031 336.244 243.979 336.037 244.01ZM337.131 251.32C333.172 251.914 329.433 254.015 326.865 257.473C324.296 260.932 323.368 265.119 323.944 269.08C323.974 269.287 324.085 269.473 324.253 269.599C324.42 269.724 324.631 269.778 324.838 269.748C324.94 269.733 325.039 269.698 325.128 269.645C325.217 269.592 325.296 269.522 325.358 269.439C325.42 269.356 325.465 269.261 325.49 269.161C325.516 269.06 325.521 268.955 325.506 268.853C324.988 265.287 325.819 261.53 328.133 258.414C330.447 255.299 333.802 253.418 337.366 252.883C337.468 252.868 337.567 252.832 337.656 252.779C337.745 252.726 337.823 252.655 337.885 252.572C337.946 252.488 337.991 252.393 338.016 252.293C338.041 252.192 338.046 252.087 338.031 251.985C338.015 251.882 337.98 251.783 337.927 251.694C337.873 251.605 337.802 251.528 337.719 251.466C337.635 251.404 337.541 251.359 337.44 251.334C337.339 251.309 337.234 251.304 337.131 251.32ZM338.229 258.631C336.137 258.945 334.16 260.058 332.804 261.884C331.448 263.709 330.953 265.924 331.259 268.017C331.29 268.224 331.401 268.41 331.569 268.535C331.737 268.66 331.948 268.714 332.155 268.684C332.257 268.669 332.356 268.633 332.445 268.58C332.534 268.527 332.612 268.457 332.674 268.373C332.736 268.29 332.78 268.196 332.806 268.095C332.831 267.994 332.837 267.89 332.821 267.787C332.576 266.092 332.97 264.307 334.071 262.825C335.172 261.342 336.766 260.447 338.461 260.193C338.564 260.178 338.663 260.142 338.752 260.089C338.841 260.036 338.919 259.965 338.981 259.882C339.042 259.798 339.087 259.704 339.112 259.603C339.137 259.502 339.142 259.397 339.126 259.295C339.095 259.088 338.983 258.902 338.815 258.777C338.646 258.653 338.436 258.6 338.229 258.631Z" fill="#231F20"/>
<path d="M95.012 202.094C93.5668 202.405 92.1556 202.853 90.8002 203.429C90.6076 203.511 90.4557 203.666 90.3774 203.86C90.299 204.055 90.3008 204.272 90.3825 204.464C90.4231 204.56 90.4821 204.646 90.5562 204.719C90.6303 204.792 90.7178 204.849 90.8141 204.888C90.9104 204.927 91.0139 204.946 91.1178 204.945C91.2216 204.944 91.3236 204.923 91.4191 204.882C96.4728 202.733 102.337 202.502 107.827 204.703C113.317 206.903 117.397 211.121 119.567 216.165C119.608 216.261 119.667 216.347 119.742 216.419C119.816 216.492 119.904 216.549 120 216.587C120.096 216.625 120.2 216.644 120.303 216.643C120.407 216.641 120.509 216.619 120.605 216.578C120.797 216.496 120.949 216.34 121.026 216.145C121.104 215.951 121.1 215.733 121.018 215.541C118.689 210.129 114.3 205.596 108.413 203.237C103.999 201.467 99.3484 201.163 95.012 202.094Z" fill="#231F20"/>
<path d="M96.5534 209.32C95.5712 209.531 94.6123 209.835 93.6913 210.227C93.4987 210.309 93.3461 210.464 93.2677 210.658C93.1894 210.852 93.1911 211.069 93.2729 211.262C93.3135 211.357 93.3732 211.444 93.4473 211.517C93.5214 211.589 93.6089 211.647 93.7052 211.686C93.8015 211.724 93.9043 211.744 94.0081 211.743C94.1119 211.742 94.2147 211.72 94.3102 211.679C97.627 210.27 101.472 210.118 105.074 211.562C108.675 213.006 111.35 215.772 112.775 219.081C112.858 219.274 113.014 219.425 113.208 219.502C113.403 219.58 113.62 219.577 113.812 219.494C114.005 219.412 114.156 219.256 114.234 219.061C114.311 218.867 114.308 218.649 114.225 218.457C112.642 214.78 109.66 211.699 105.662 210.096C102.663 208.894 99.5011 208.688 96.5534 209.32Z" fill="#231F20"/>
<path d="M99.6867 216.375C98.6125 216.395 97.5592 216.624 96.5861 217.038C96.3936 217.12 96.2413 217.276 96.1634 217.47C96.0855 217.664 96.0878 217.882 96.17 218.074C96.252 218.267 96.4068 218.419 96.6008 218.497C96.7948 218.575 97.0125 218.573 97.2051 218.492C98.7819 217.821 100.609 217.747 102.323 218.435C104.037 219.122 105.309 220.436 105.986 222.011C106.069 222.203 106.225 222.355 106.42 222.432C106.614 222.51 106.832 222.507 107.024 222.424C107.216 222.341 107.368 222.185 107.445 221.991C107.522 221.796 107.52 221.579 107.437 221.387C106.601 219.444 105.022 217.815 102.911 216.969C101.856 216.546 100.761 216.355 99.6867 216.375Z" fill="#231F20"/>
<path d="M308.573 57.8937C303.098 60.0677 298.442 64.3278 295.918 70.1447C293.392 75.9624 293.46 82.271 295.612 87.7558C295.65 87.8524 295.706 87.9404 295.778 88.0152C295.85 88.0899 295.936 88.15 296.031 88.1915C296.126 88.233 296.228 88.2554 296.332 88.2573C296.436 88.2593 296.539 88.2407 296.636 88.2028C296.732 88.1649 296.82 88.1082 296.895 88.0362C296.97 87.9643 297.029 87.8784 297.071 87.7833C297.112 87.6883 297.136 87.586 297.138 87.4822C297.139 87.3785 297.121 87.2753 297.083 87.1788C295.078 82.066 295.011 76.1989 297.366 70.773C299.72 65.348 304.052 61.3874 309.156 59.361C309.35 59.2837 309.505 59.1325 309.588 58.9404C309.671 58.7482 309.675 58.5307 309.598 58.3361C309.521 58.1415 309.369 57.9858 309.177 57.9028C308.985 57.8198 308.768 57.8165 308.573 57.8937ZM311.604 64.7081C311.5 64.7066 311.397 64.7256 311.301 64.7641C307.581 66.2422 304.417 69.1377 302.702 73.0887C300.987 77.0407 301.033 81.3299 302.494 85.0565C302.571 85.2513 302.722 85.4077 302.913 85.4915C303.105 85.5753 303.322 85.5798 303.517 85.5037C303.712 85.4273 303.868 85.2763 303.952 85.0846C304.036 84.8928 304.04 84.6757 303.964 84.4807C302.648 81.1259 302.606 77.2784 304.151 73.7185C305.696 70.1592 308.536 67.5633 311.885 66.2327C311.981 66.1944 312.069 66.1378 312.143 66.0655C312.218 65.9932 312.277 65.9066 312.318 65.8113C312.359 65.716 312.381 65.6135 312.383 65.5097C312.384 65.4059 312.365 65.3031 312.327 65.2067C312.269 65.0615 312.17 64.9366 312.041 64.8479C311.913 64.7592 311.76 64.7103 311.604 64.7081ZM314.272 71.5815C314.189 71.5869 314.108 71.6054 314.031 71.636C312.066 72.4162 310.392 73.9478 309.486 76.0339C308.581 78.1198 308.605 80.3901 309.377 82.3584C309.415 82.455 309.471 82.543 309.543 82.6177C309.616 82.6923 309.702 82.7519 309.797 82.7932C309.892 82.8346 309.994 82.8569 310.098 82.8587C310.202 82.8605 310.305 82.8419 310.401 82.8038C310.595 82.727 310.751 82.5761 310.835 82.3846C310.918 82.193 310.923 81.9764 310.847 81.7818C310.221 80.1863 310.2 78.3574 310.935 76.6636C311.67 74.9693 313.02 73.736 314.614 73.1033C314.808 73.026 314.964 72.8748 315.047 72.6826C315.13 72.4905 315.133 72.273 315.056 72.0784C314.995 71.9235 314.886 71.7921 314.745 71.7029C314.604 71.6137 314.438 71.5709 314.272 71.5815Z" fill="#231F20"/>
<path d="M23.1959 93.8978C17.7198 96.0719 13.065 100.33 10.5404 106.147C8.01441 111.965 8.08381 118.275 10.2346 123.76C10.2724 123.857 10.3289 123.945 10.4008 124.02C10.4728 124.094 10.5586 124.154 10.6537 124.196C10.7488 124.237 10.851 124.26 10.9547 124.261C11.0585 124.263 11.162 124.245 11.2586 124.207C11.4534 124.13 11.6095 123.979 11.6931 123.787C11.7767 123.595 11.7807 123.378 11.7041 123.183C9.699 118.07 9.63386 112.203 11.9892 106.777C14.3438 101.352 18.6758 97.3914 23.7799 95.3649C23.9743 95.2875 24.1306 95.1361 24.2135 94.9439C24.2963 94.7516 24.2988 94.5343 24.2215 94.3397C24.1441 94.1451 23.9928 93.9894 23.8005 93.9065C23.6081 93.8236 23.3905 93.8204 23.1959 93.8978ZM26.2279 100.712C26.1242 100.711 26.0213 100.73 25.9249 100.768C22.2045 102.246 19.0401 105.141 17.3247 109.092C15.6094 113.044 15.6545 117.334 17.1158 121.06C17.1536 121.157 17.2101 121.245 17.282 121.32C17.354 121.395 17.4398 121.454 17.5349 121.496C17.63 121.537 17.7322 121.56 17.8359 121.562C17.9397 121.564 18.0432 121.545 18.1398 121.507C18.2364 121.469 18.3243 121.413 18.3991 121.341C18.4739 121.269 18.5336 121.183 18.5751 121.088C18.6166 120.993 18.6396 120.89 18.6416 120.786C18.6436 120.683 18.6247 120.58 18.5868 120.483C17.2719 117.129 17.2286 113.28 18.7733 109.72C20.3188 106.161 23.1575 103.566 26.5067 102.235C26.7012 102.158 26.8573 102.007 26.9403 101.814C27.0232 101.622 27.0269 101.405 26.9498 101.21C26.8921 101.065 26.7927 100.941 26.6642 100.852C26.5357 100.763 26.384 100.715 26.2279 100.712ZM28.8946 107.584C28.812 107.59 28.7308 107.608 28.6539 107.639C26.689 108.419 25.0152 109.952 24.109 112.038C23.2036 114.124 23.2276 116.393 24 118.361C24.0764 118.556 24.2273 118.712 24.419 118.796C24.6107 118.88 24.8277 118.884 25.0225 118.808C25.1192 118.77 25.2078 118.714 25.2826 118.642C25.3574 118.57 25.417 118.484 25.4585 118.389C25.5001 118.293 25.5224 118.191 25.5243 118.087C25.5263 117.983 25.5074 117.88 25.4694 117.784C24.8427 116.188 24.8221 114.36 25.5577 112.666C26.2931 110.972 27.6437 109.74 29.2366 109.107C29.333 109.069 29.4205 109.012 29.495 108.94C29.5694 108.868 29.629 108.781 29.6701 108.686C29.7112 108.591 29.733 108.488 29.7344 108.384C29.7359 108.281 29.7172 108.178 29.6788 108.081C29.6172 107.926 29.5078 107.795 29.3669 107.706C29.2261 107.616 29.061 107.574 28.8946 107.584Z" fill="#231F20"/>
<path d="M171.225 26.9599C165.749 29.134 161.093 33.3925 158.568 39.2097C156.043 45.0272 156.11 51.3373 158.262 56.8222C158.3 56.9189 158.357 57.0071 158.429 57.0818C158.501 57.1566 158.587 57.2163 158.682 57.2578C158.777 57.2993 158.879 57.3217 158.983 57.3237C159.087 57.3256 159.189 57.3071 159.286 57.2692C159.481 57.1926 159.637 57.0417 159.721 56.8497C159.805 56.6578 159.809 56.4405 159.733 56.2455C157.728 51.1328 157.662 45.2653 160.016 39.8394C162.372 34.414 166.703 30.4537 171.807 28.4272C172.002 28.3499 172.158 28.1988 172.241 28.0065C172.324 27.8143 172.327 27.5969 172.25 27.4023C172.172 27.2079 172.021 27.052 171.829 26.9691C171.636 26.8862 171.419 26.8828 171.225 26.9599ZM174.255 33.7744C174.152 33.773 174.049 33.7923 173.952 33.8307C170.232 35.3087 167.068 38.2039 165.354 42.155C163.638 46.1069 163.684 50.3963 165.145 54.123C165.182 54.2196 165.239 54.3079 165.311 54.3826C165.383 54.4574 165.469 54.5171 165.564 54.5586C165.659 54.6001 165.761 54.6225 165.865 54.6245C165.969 54.6264 166.072 54.6078 166.169 54.5699C166.265 54.5321 166.353 54.4757 166.428 54.4037C166.503 54.3317 166.563 54.2455 166.605 54.1504C166.646 54.0552 166.668 53.9528 166.67 53.849C166.672 53.7452 166.653 53.6421 166.616 53.5455C165.301 50.191 165.257 46.3433 166.802 42.7832C168.347 39.2241 171.187 36.6283 174.536 35.2979C174.731 35.2204 174.886 35.069 174.969 34.8769C175.052 34.6848 175.056 34.4674 174.979 34.2729C174.921 34.1277 174.821 34.0029 174.692 33.9142C174.564 33.8255 174.411 33.7766 174.255 33.7744ZM176.923 40.6464C176.84 40.6517 176.758 40.6702 176.681 40.701C174.716 41.4812 173.043 43.0136 172.138 45.0997C171.232 47.1857 171.255 49.4551 172.027 51.4233C172.065 51.5199 172.122 51.6082 172.194 51.683C172.266 51.7577 172.351 51.8175 172.446 51.859C172.542 51.9005 172.644 51.9228 172.748 51.9247C172.852 51.9267 172.955 51.9082 173.051 51.8702C173.148 51.8324 173.237 51.7759 173.311 51.704C173.386 51.632 173.446 51.5458 173.487 51.4507C173.529 51.3556 173.551 51.2531 173.553 51.1493C173.555 51.0456 173.536 50.9425 173.498 50.8459C172.872 49.2503 172.851 47.4223 173.586 45.7284C174.322 44.0341 175.671 42.8024 177.264 42.1698C177.36 42.1315 177.448 42.0745 177.522 42.0022C177.597 41.9299 177.656 41.8437 177.697 41.7483C177.739 41.653 177.76 41.5506 177.762 41.4468C177.763 41.343 177.745 41.2398 177.706 41.1434C177.645 40.9885 177.536 40.8571 177.395 40.7679C177.254 40.6787 177.089 40.6359 176.923 40.6464ZM178.025 48.0526L178.267 50.0232L179.66 49.2865L178.025 48.0526Z" fill="#231F20"/>
<path d="M103.91 108.19L108.516 145.703C108.539 145.894 108.555 146.082 108.548 146.269C108.558 148.636 106.794 150.688 104.388 150.983L39.8865 158.903C37.4801 159.199 35.2727 157.635 34.7092 155.335C34.6645 155.155 34.6268 154.969 34.6034 154.778L29.9974 117.266C29.6785 114.669 31.5253 112.304 34.1227 111.985L98.6232 104.065C101.22 103.747 103.585 105.594 103.904 108.191" fill="#FF8828"/>
<path d="M108.548 146.266C108.557 148.633 106.794 150.685 104.387 150.98L39.887 158.9C37.4806 159.195 35.2725 157.631 34.709 155.332L108.548 146.266Z" fill="#231F20"/>
<path d="M103.91 108.187L105.395 120.282L31.4883 129.357L30.0033 117.262C29.6844 114.665 31.5326 112.3 34.1293 111.981L98.6298 104.061C101.227 103.742 103.591 105.59 103.91 108.187Z" fill="#231F20"/>
<path d="M88.0958 137.697C89.3905 148.241 81.892 157.839 71.3482 159.133C60.8037 160.428 51.2053 152.93 49.9106 142.385C48.616 131.841 56.1151 122.243 66.6597 120.949C77.2035 119.654 86.8011 127.152 88.0958 137.697Z" fill="#FBD44F"/>
<path d="M84.0657 138.187C85.087 146.505 79.1715 154.076 70.8533 155.097C62.5351 156.119 54.9643 150.203 53.943 141.885C52.9217 133.567 58.8366 125.996 67.1547 124.975C75.4729 123.954 83.0444 129.869 84.0657 138.187Z" fill="#FF8828"/>
<path d="M76.2241 139.156C76.7139 143.145 73.8773 146.776 69.8882 147.265C65.8999 147.755 62.2692 144.918 61.7794 140.929C61.2896 136.94 64.1262 133.31 68.1146 132.82C72.1037 132.33 75.7343 135.167 76.2241 139.156Z" fill="white"/>
<path d="M47.8088 118.168L36.7679 119.524L36.3496 116.117L47.3906 114.762L47.8088 118.168Z" fill="white"/>
<path d="M95.2952 116.511C95.4784 118.003 94.4178 119.361 92.9254 119.544C91.4338 119.727 90.0754 118.666 89.8922 117.174C89.7091 115.682 90.7704 114.324 92.262 114.141C93.7544 113.958 95.112 115.019 95.2952 116.511Z" fill="white"/>
<path d="M371.994 105.831L353.492 119.596C350.334 121.945 345.869 121.29 343.521 118.132L316.87 82.3085C314.52 79.151 315.175 74.6871 318.333 72.338L336.836 58.5732C339.993 56.2238 344.457 56.8792 346.807 60.0367L373.458 95.8604C375.807 99.018 375.151 103.482 371.994 105.831Z" fill="#FF8828"/>
<path d="M365.35 96.5442L346.495 110.571C345.167 111.558 343.289 111.283 342.302 109.955L319.548 79.3695C318.56 78.0416 318.836 76.1643 320.163 75.1765L339.018 61.1501C340.346 60.1619 342.223 60.4377 343.211 61.7656L365.965 92.3506C366.953 93.6786 366.677 95.5563 365.35 96.5442Z" fill="#FBD44F"/>
<path d="M361.415 106.734C362.242 107.847 362.012 109.419 360.9 110.247C359.787 111.074 358.215 110.843 357.387 109.731C356.56 108.619 356.791 107.046 357.903 106.219C359.015 105.391 360.587 105.622 361.415 106.734Z" fill="#FBD44F"/>
<path d="M331.317 65.2918L326.343 68.9915C326.163 69.1253 325.91 69.0883 325.776 68.908C325.642 68.7283 325.678 68.4745 325.859 68.3406L330.832 64.6409C331.012 64.5072 331.266 64.544 331.4 64.7243C331.534 64.9041 331.498 65.1578 331.317 65.2918Z" fill="#FBD44F"/>
<path d="M119.786 257.669L73.1605 298.661C71.0067 300.555 67.7262 300.344 65.8326 298.19L41.5885 270.615C39.6957 268.461 39.9065 265.18 42.0602 263.287L88.6854 222.295C90.8384 220.402 94.1196 220.613 96.0125 222.766L120.257 250.341C122.15 252.495 121.939 255.775 119.786 257.669Z" fill="#FF8828"/>
<path d="M71.6653 295.89C70.8224 295.994 69.9851 295.676 69.4259 295.04L45.1824 267.465C44.7307 266.951 44.5062 266.293 44.5502 265.61C44.5942 264.928 44.9014 264.303 45.4143 263.852L90.4266 224.278C90.8154 223.936 91.2897 223.723 91.8 223.66C92.6428 223.556 93.4795 223.875 94.0387 224.511L118.283 252.086C119.214 253.146 119.11 254.766 118.05 255.698L73.0387 295.272C72.6499 295.614 72.1748 295.828 71.6653 295.89Z" fill="white"/>
<path d="M51.8534 278.796L51.2637 279.321L56.976 285.733L57.5665 285.209L51.8534 278.796Z" fill="white"/>
<path d="M117.473 266.927L115.508 272.451L115.509 272.458L73.8926 309.047C72.4934 310.277 68.725 305.991 70.1242 304.761L111.741 268.172L111.748 268.171L117.473 266.927Z" fill="#FBD44F"/>
<path d="M117.471 266.925L115.505 272.449L111.741 268.167L117.471 266.925Z" fill="#FF8828"/>
<path d="M147.729 86.6315C145.309 85.9583 143.183 84.1208 141.86 81.5575L139.403 76.7985L138.567 82.1432C138.117 85.0221 136.681 87.4923 134.605 88.9653L130.75 91.7L135.245 92.9502C137.666 93.6234 139.791 95.4605 141.115 98.0236L143.572 102.783L144.408 97.438C144.858 94.5594 146.292 92.0891 148.369 90.6159L152.224 87.8809L147.729 86.6315Z" fill="#FBD44F"/>
<path d="M155.566 170.619C153.145 169.946 151.019 168.109 149.696 165.546L147.238 160.787L146.403 166.131C145.953 169.01 144.518 171.48 142.442 172.954L138.586 175.688L143.082 176.938C145.502 177.611 147.627 179.449 148.951 182.012L151.408 186.771L152.245 181.426C152.694 178.547 154.129 176.077 156.205 174.604L160.061 171.869L155.566 170.619Z" fill="#FBD44F"/>
<path d="M268.262 113.178C265.842 112.505 263.716 110.668 262.392 108.105L259.936 103.345L259.099 108.69C258.649 111.569 257.215 114.039 255.139 115.512L251.283 118.247L255.778 119.497C258.199 120.17 260.325 122.007 261.648 124.57L264.106 129.329L264.941 123.984C265.391 121.106 266.826 118.635 268.902 117.162L272.758 114.428L268.262 113.178Z" fill="#FBD44F"/>
<path d="M297.714 181.824C295.627 181.243 293.795 179.66 292.655 177.45L290.537 173.349L289.816 177.956C289.428 180.437 288.192 182.566 286.402 183.835L283.08 186.193L286.953 187.27C289.039 187.85 290.872 189.434 292.013 191.643L294.13 195.745L294.851 191.138C295.239 188.657 296.475 186.528 298.265 185.258L301.588 182.901L297.714 181.824Z" fill="#FBD44F"/>
<path d="M171.664 241.613C169.577 241.032 167.745 239.449 166.605 237.239L164.486 233.138L163.766 237.744C163.378 240.225 162.141 242.355 160.352 243.624L157.029 245.981L160.903 247.059C162.989 247.639 164.821 249.223 165.962 251.432L168.08 255.534L168.801 250.927C169.189 248.446 170.425 246.316 172.215 245.047L175.537 242.69L171.664 241.613Z" fill="#FBD44F"/>
<path d="M350.618 209.663C348.531 209.083 346.7 207.5 345.559 205.29L343.441 201.188L342.72 205.795C342.333 208.276 341.096 210.405 339.306 211.675L335.984 214.032L339.858 215.11C341.944 215.69 343.775 217.274 344.916 219.483L347.035 223.585L347.755 218.978C348.143 216.497 349.379 214.367 351.169 213.098L354.492 210.741L350.618 209.663Z" fill="#FBD44F"/>
<path d="M235.094 43.332C234.955 43.3492 234.83 43.4203 234.744 43.5303C234.658 43.6403 234.619 43.7799 234.636 43.9184L235.916 54.3496C235.934 54.488 236.005 54.6138 236.115 54.6997C236.225 54.7855 236.364 54.8246 236.503 54.8077C236.641 54.7906 236.767 54.719 236.853 54.6091C236.939 54.4992 236.978 54.3598 236.961 54.2214L235.68 43.7901C235.663 43.6516 235.592 43.5256 235.482 43.4396C235.372 43.3537 235.232 43.3151 235.094 43.332ZM228.945 57.3171C228.876 57.3256 228.81 57.3478 228.749 57.3819C228.689 57.416 228.637 57.4616 228.594 57.5162C228.552 57.5708 228.52 57.633 228.502 57.6997C228.484 57.7664 228.478 57.8363 228.487 57.9049C228.504 58.0434 228.576 58.1694 228.686 58.2553C228.795 58.3413 228.935 58.3799 229.073 58.363L234.229 57.73C234.367 57.7129 234.494 57.6416 234.58 57.5316C234.665 57.4217 234.704 57.2822 234.687 57.1437C234.679 57.075 234.656 57.0085 234.623 56.9482C234.589 56.8879 234.543 56.8351 234.489 56.7924C234.434 56.7498 234.372 56.7182 234.306 56.6997C234.239 56.6811 234.169 56.6757 234.1 56.6841L228.945 57.3171ZM239.288 56.0472C239.219 56.0555 239.153 56.0775 239.092 56.1116C239.032 56.1456 238.979 56.191 238.936 56.2456C238.894 56.3003 238.862 56.3627 238.844 56.4295C238.825 56.4964 238.82 56.5664 238.828 56.6351C238.837 56.7038 238.859 56.77 238.893 56.8302C238.927 56.8905 238.973 56.9434 239.027 56.9859C239.082 57.0285 239.144 57.0598 239.211 57.0782C239.278 57.0966 239.348 57.1016 239.416 57.0931L244.572 56.46C244.71 56.4429 244.837 56.3717 244.923 56.2617C245.008 56.1517 245.047 56.0122 245.03 55.8737C245.022 55.805 245 55.7384 244.966 55.6781C244.932 55.6179 244.886 55.5651 244.832 55.5225C244.777 55.4798 244.715 55.4483 244.649 55.4297C244.582 55.4111 244.512 55.4058 244.443 55.4142L239.288 56.0472ZM237.014 58.9695C236.945 58.978 236.879 58.9997 236.818 59.0339C236.758 59.068 236.706 59.114 236.663 59.1686C236.621 59.2232 236.589 59.2853 236.571 59.352C236.553 59.4187 236.547 59.4886 236.556 59.5573L237.837 69.987C237.854 70.1255 237.925 70.2516 238.035 70.3375C238.145 70.4233 238.284 70.462 238.423 70.4451C238.561 70.428 238.687 70.3568 238.773 70.2469C238.859 70.137 238.898 69.9973 238.881 69.8588L237.6 59.429C237.592 59.3603 237.571 59.2938 237.537 59.2335C237.503 59.1732 237.457 59.1205 237.402 59.0778C237.348 59.0351 237.286 59.0032 237.219 58.9847C237.152 58.9661 237.082 58.9611 237.014 58.9695Z" fill="#FF8828"/>
<path d="M202.64 117.195C202.502 117.212 202.375 117.284 202.289 117.394C202.203 117.503 202.165 117.643 202.182 117.781L203.463 128.213C203.48 128.351 203.551 128.477 203.661 128.563C203.771 128.649 203.911 128.688 204.049 128.671C204.118 128.662 204.184 128.641 204.244 128.607C204.304 128.573 204.357 128.527 204.4 128.472C204.443 128.418 204.474 128.356 204.492 128.289C204.511 128.223 204.516 128.153 204.507 128.084L203.226 117.653C203.209 117.515 203.138 117.389 203.028 117.303C202.918 117.217 202.779 117.178 202.64 117.195ZM196.491 131.182C196.423 131.19 196.357 131.212 196.297 131.246C196.236 131.28 196.183 131.325 196.14 131.38C196.098 131.434 196.066 131.496 196.048 131.563C196.029 131.63 196.023 131.7 196.032 131.768C196.04 131.837 196.063 131.903 196.097 131.963C196.131 132.023 196.177 132.076 196.231 132.119C196.286 132.161 196.348 132.193 196.415 132.211C196.482 132.23 196.551 132.235 196.62 132.226L201.775 131.593C201.914 131.576 202.04 131.505 202.126 131.395C202.212 131.285 202.25 131.145 202.233 131.007C202.216 130.868 202.145 130.742 202.035 130.656C201.925 130.57 201.785 130.532 201.647 130.549L196.491 131.182ZM206.834 129.912C206.696 129.929 206.569 130 206.484 130.11C206.398 130.22 206.359 130.36 206.376 130.498C206.393 130.637 206.464 130.763 206.574 130.849C206.684 130.935 206.824 130.973 206.963 130.956L212.118 130.323C212.257 130.306 212.382 130.235 212.468 130.125C212.554 130.015 212.593 129.875 212.576 129.737C212.559 129.598 212.487 129.472 212.378 129.386C212.268 129.301 212.128 129.262 211.99 129.279L206.834 129.912ZM204.56 132.834C204.422 132.851 204.295 132.922 204.21 133.032C204.124 133.142 204.085 133.282 204.102 133.42L205.383 143.852C205.4 143.99 205.471 144.116 205.581 144.202C205.691 144.288 205.831 144.327 205.969 144.31C206.108 144.293 206.233 144.221 206.319 144.111C206.406 144.001 206.444 143.862 206.427 143.723L205.147 133.292C205.138 133.223 205.116 133.157 205.082 133.097C205.048 133.037 205.003 132.984 204.949 132.942C204.894 132.899 204.832 132.868 204.765 132.849C204.698 132.831 204.629 132.826 204.56 132.834Z" fill="#FF8828"/>
<path d="M103.353 162.734C103.284 162.743 103.219 162.764 103.158 162.798C103.098 162.832 103.045 162.878 103.002 162.932C102.959 162.987 102.928 163.049 102.909 163.115C102.891 163.182 102.885 163.252 102.893 163.32L104.174 173.752C104.183 173.821 104.205 173.887 104.239 173.947C104.274 174.008 104.319 174.06 104.374 174.103C104.428 174.145 104.491 174.177 104.558 174.195C104.624 174.213 104.693 174.218 104.762 174.21C104.9 174.193 105.027 174.121 105.113 174.012C105.199 173.902 105.237 173.762 105.22 173.624L103.939 163.192C103.922 163.054 103.851 162.928 103.741 162.842C103.631 162.756 103.491 162.717 103.353 162.734ZM97.2042 176.721C97.1355 176.729 97.069 176.751 97.0087 176.785C96.9484 176.819 96.8961 176.864 96.8534 176.919C96.8107 176.973 96.7792 177.036 96.7607 177.102C96.7421 177.169 96.7363 177.239 96.7447 177.307C96.7532 177.376 96.7756 177.442 96.8098 177.502C96.8439 177.562 96.8896 177.615 96.9441 177.658C96.9987 177.7 97.0613 177.732 97.128 177.75C97.1947 177.769 97.2638 177.774 97.3325 177.765L102.488 177.132C102.626 177.115 102.753 177.044 102.839 176.934C102.925 176.824 102.963 176.684 102.946 176.546C102.929 176.407 102.858 176.281 102.748 176.195C102.638 176.109 102.498 176.071 102.36 176.088L97.2042 176.721ZM107.546 175.451C107.477 175.459 107.411 175.481 107.351 175.515C107.291 175.549 107.238 175.594 107.195 175.649C107.152 175.703 107.121 175.766 107.103 175.832C107.084 175.899 107.079 175.969 107.087 176.037C107.104 176.176 107.176 176.302 107.286 176.388C107.396 176.474 107.535 176.513 107.674 176.495L112.83 175.862C112.968 175.845 113.095 175.774 113.18 175.664C113.266 175.554 113.305 175.414 113.288 175.276C113.271 175.138 113.2 175.011 113.09 174.926C112.98 174.84 112.84 174.801 112.701 174.818L107.546 175.451ZM105.273 178.373C105.205 178.381 105.139 178.403 105.078 178.437C105.018 178.471 104.965 178.517 104.922 178.571C104.88 178.626 104.848 178.688 104.83 178.755C104.811 178.821 104.805 178.891 104.814 178.96L106.094 189.391C106.103 189.46 106.125 189.526 106.16 189.586C106.194 189.646 106.239 189.699 106.294 189.742C106.349 189.784 106.411 189.815 106.478 189.833C106.544 189.852 106.614 189.857 106.682 189.849C106.821 189.832 106.947 189.76 107.033 189.65C107.119 189.54 107.157 189.401 107.14 189.262L105.86 178.831C105.842 178.693 105.772 178.567 105.662 178.481C105.552 178.395 105.412 178.356 105.273 178.373Z" fill="#FF8828"/>
<path d="M321.255 125.652C321.187 125.66 321.12 125.682 321.06 125.716C321 125.75 320.946 125.796 320.904 125.85C320.861 125.905 320.83 125.967 320.811 126.034C320.792 126.1 320.787 126.17 320.796 126.239L322.077 136.67C322.085 136.739 322.107 136.805 322.141 136.865C322.175 136.925 322.221 136.978 322.275 137.021C322.33 137.063 322.392 137.095 322.459 137.113C322.526 137.131 322.596 137.136 322.664 137.128C322.803 137.111 322.929 137.04 323.014 136.93C323.1 136.82 323.139 136.68 323.122 136.542L321.842 126.11C321.825 125.972 321.753 125.846 321.643 125.76C321.533 125.674 321.394 125.635 321.255 125.652ZM315.105 139.637C315.036 139.646 314.97 139.668 314.909 139.702C314.849 139.736 314.797 139.782 314.754 139.836C314.712 139.891 314.68 139.953 314.662 140.02C314.643 140.087 314.638 140.157 314.647 140.225C314.664 140.364 314.735 140.49 314.845 140.576C314.955 140.662 315.095 140.7 315.233 140.683L320.39 140.05C320.529 140.033 320.655 139.962 320.74 139.852C320.826 139.742 320.865 139.602 320.848 139.464C320.84 139.395 320.818 139.329 320.784 139.268C320.75 139.208 320.705 139.155 320.65 139.112C320.596 139.07 320.534 139.038 320.467 139.019C320.401 139.001 320.331 138.996 320.262 139.004L315.105 139.637ZM325.449 138.367C325.381 138.376 325.314 138.397 325.254 138.431C325.194 138.465 325.141 138.511 325.098 138.566C325.055 138.62 325.024 138.683 325.005 138.75C324.987 138.816 324.981 138.886 324.99 138.955C324.998 139.024 325.02 139.09 325.054 139.15C325.088 139.211 325.134 139.263 325.189 139.306C325.243 139.349 325.306 139.38 325.373 139.398C325.439 139.417 325.509 139.422 325.578 139.413L330.733 138.78C330.872 138.763 330.998 138.692 331.084 138.582C331.17 138.472 331.208 138.332 331.191 138.194C331.183 138.125 331.162 138.059 331.128 137.998C331.094 137.938 331.048 137.885 330.993 137.842C330.939 137.8 330.877 137.768 330.81 137.749C330.744 137.731 330.674 137.726 330.605 137.734L325.449 138.367ZM323.175 141.29C323.107 141.298 323.04 141.32 322.98 141.354C322.92 141.388 322.866 141.433 322.824 141.488C322.781 141.542 322.75 141.605 322.731 141.671C322.713 141.738 322.707 141.807 322.716 141.876L323.997 152.307C324.005 152.376 324.027 152.442 324.061 152.502C324.095 152.563 324.141 152.616 324.195 152.658C324.25 152.701 324.313 152.732 324.379 152.75C324.446 152.769 324.516 152.774 324.584 152.765C324.723 152.748 324.849 152.677 324.935 152.567C325.02 152.457 325.059 152.317 325.043 152.179L323.762 141.748C323.745 141.609 323.673 141.483 323.563 141.397C323.453 141.311 323.314 141.273 323.175 141.29Z" fill="#FF8828"/>
<path d="M289.406 224.734C289.268 224.751 289.141 224.823 289.055 224.933C288.97 225.043 288.931 225.182 288.948 225.321L290.229 235.752C290.246 235.89 290.317 236.017 290.427 236.102C290.537 236.188 290.677 236.227 290.815 236.21C290.954 236.193 291.08 236.122 291.165 236.012C291.251 235.902 291.29 235.762 291.273 235.624L289.993 225.192C289.975 225.054 289.904 224.928 289.794 224.842C289.684 224.757 289.545 224.717 289.406 224.734ZM283.257 238.721C283.119 238.738 282.993 238.809 282.907 238.919C282.821 239.029 282.783 239.169 282.799 239.307C282.816 239.446 282.887 239.572 282.997 239.658C283.107 239.744 283.247 239.782 283.386 239.765L288.541 239.132C288.61 239.124 288.677 239.102 288.737 239.068C288.797 239.034 288.849 238.989 288.892 238.934C288.935 238.88 288.966 238.817 288.985 238.751C289.003 238.684 289.009 238.615 289.001 238.546C288.992 238.477 288.97 238.411 288.936 238.35C288.902 238.29 288.856 238.238 288.801 238.195C288.747 238.153 288.684 238.121 288.618 238.103C288.551 238.084 288.482 238.079 288.413 238.088L283.257 238.721ZM293.6 237.451C293.462 237.468 293.336 237.539 293.25 237.649C293.165 237.759 293.126 237.899 293.142 238.037C293.159 238.176 293.23 238.302 293.34 238.388C293.45 238.474 293.59 238.512 293.729 238.495L298.884 237.862C299.023 237.845 299.149 237.774 299.234 237.664C299.32 237.554 299.359 237.415 299.342 237.276C299.325 237.138 299.254 237.011 299.144 236.926C299.034 236.84 298.894 236.801 298.756 236.818L293.6 237.451ZM291.326 240.373C291.188 240.39 291.062 240.462 290.976 240.572C290.89 240.682 290.852 240.821 290.868 240.96L292.149 251.389C292.157 251.458 292.179 251.525 292.213 251.585C292.247 251.645 292.293 251.698 292.347 251.741C292.402 251.783 292.464 251.815 292.53 251.833C292.597 251.852 292.667 251.857 292.736 251.849C292.804 251.84 292.87 251.818 292.93 251.784C292.99 251.75 293.044 251.704 293.086 251.65C293.129 251.595 293.16 251.533 293.178 251.466C293.197 251.4 293.202 251.33 293.193 251.261L291.913 240.831C291.896 240.693 291.824 240.567 291.714 240.481C291.604 240.395 291.465 240.356 291.326 240.373Z" fill="#FF8828"/>
<path d="M223.083 261.822C208.979 263.554 195.62 268.002 183.376 275.042C171.56 281.836 161.282 290.744 152.827 301.518L169.395 314.519C183.331 296.759 203.309 285.468 225.649 282.725C247.99 279.982 270.107 286.105 287.923 299.966L300.854 283.343C290.045 274.935 277.918 268.777 264.808 265.044C251.225 261.175 237.186 260.091 223.083 261.822ZM226.933 293.177C207.366 295.579 189.869 305.463 177.667 321.008L194.232 334.012C202.972 322.877 215.497 315.798 229.499 314.079C243.499 312.36 257.364 316.199 268.539 324.888L281.466 308.263C265.865 296.132 246.498 290.774 226.933 293.177ZM230.782 324.53C219.545 325.91 209.503 331.584 202.506 340.506L219.077 353.502C222.612 348.995 227.68 346.129 233.349 345.433C239.016 344.737 244.628 346.292 249.15 349.811L262.083 333.189C253.133 326.226 242.017 323.151 230.782 324.53ZM234.311 353.271C229.201 353.899 225.566 358.55 226.194 363.661C226.821 368.771 231.473 372.405 236.584 371.777C241.694 371.15 245.328 366.498 244.701 361.388C244.073 356.278 239.422 352.644 234.311 353.271Z" fill="#231F20"/>
<path d="M178.696 63.29L178.317 60.207L188.094 51.0407L188.472 54.1237L178.696 63.29Z" fill="#231F20"/>
<path d="M185.684 58.7538L208.55 37.3276C210.638 35.37 211.574 32.4574 210.956 29.6623C210.656 28.3072 210.1 27.0089 209.101 26.2282L180.986 51.2039L185.684 58.7538Z" fill="#231F20"/>
<path d="M188.089 51.0344L178.312 60.2008L173.21 54.7578L182.986 45.5914L188.089 51.0344Z" fill="#FF8828"/>
<path d="M210.499 29.2143C210.699 30.8472 210.145 32.5491 208.854 33.7605L201.043 41.0849L197.92 44.0119L185.322 55.8254L178.025 48.0432L190.623 36.2298L193.748 33.3L201.556 25.9784C203.706 23.9639 207.08 24.072 209.098 26.222C209.9 27.0783 210.366 28.1326 210.499 29.2143Z" fill="#FBD44F"/>
<path d="M178.692 63.2916L178.314 60.2086L173.211 54.7656L173.589 57.8486L178.692 63.2916Z" fill="#FBD44F"/>
<path d="M184.221 54.6602L185.317 55.8298L185.676 58.7522L184.612 57.731L184.221 54.6602Z" fill="#FBD44F"/>
<path d="M205.159 31.8886L200.023 36.704L198.061 34.611L203.196 29.7956L205.159 31.8886Z" fill="#FF8828"/>
<path d="M201.047 41.09L197.924 44.017L190.626 36.2349L193.751 33.3051L201.047 41.09Z" fill="#FF8828"/>
<path d="M200.555 184.727C200.416 184.744 200.29 184.815 200.205 184.925C200.119 185.035 200.08 185.174 200.097 185.313L201.377 195.744C201.394 195.882 201.466 196.008 201.576 196.094C201.686 196.18 201.825 196.219 201.964 196.202C202.102 196.185 202.228 196.114 202.314 196.004C202.4 195.894 202.439 195.754 202.422 195.616L201.141 185.184C201.124 185.046 201.052 184.92 200.942 184.834C200.832 184.748 200.693 184.71 200.555 184.727ZM194.406 198.713C194.267 198.73 194.142 198.801 194.056 198.911C193.97 199.021 193.931 199.161 193.948 199.299C193.965 199.438 194.036 199.564 194.146 199.65C194.256 199.736 194.396 199.774 194.534 199.757L199.69 199.124C199.758 199.116 199.825 199.094 199.885 199.06C199.946 199.026 199.999 198.981 200.041 198.926C200.084 198.872 200.115 198.809 200.134 198.743C200.153 198.676 200.158 198.606 200.149 198.538C200.141 198.469 200.119 198.403 200.085 198.343C200.051 198.282 200.005 198.229 199.951 198.187C199.896 198.144 199.833 198.113 199.767 198.095C199.7 198.076 199.63 198.071 199.561 198.08L194.406 198.713ZM204.749 197.443C204.61 197.46 204.485 197.531 204.399 197.641C204.313 197.751 204.274 197.891 204.291 198.029C204.308 198.168 204.38 198.294 204.489 198.38C204.599 198.465 204.739 198.504 204.877 198.487L210.033 197.854C210.171 197.837 210.298 197.766 210.384 197.656C210.469 197.546 210.508 197.406 210.491 197.268C210.474 197.129 210.402 197.003 210.292 196.917C210.182 196.832 210.043 196.793 209.904 196.81L204.749 197.443ZM202.475 200.365C202.336 200.382 202.211 200.453 202.125 200.563C202.039 200.673 202 200.813 202.017 200.951L203.297 211.381C203.306 211.45 203.328 211.516 203.362 211.577C203.396 211.637 203.441 211.69 203.495 211.733C203.55 211.775 203.612 211.807 203.679 211.826C203.745 211.844 203.815 211.849 203.884 211.841C203.953 211.832 204.019 211.811 204.079 211.776C204.14 211.742 204.192 211.697 204.235 211.642C204.277 211.587 204.308 211.525 204.327 211.458C204.345 211.392 204.35 211.322 204.342 211.253L203.061 200.823C203.044 200.685 202.972 200.559 202.863 200.473C202.753 200.387 202.613 200.348 202.475 200.365Z" fill="#FF8828"/>
<path d="M245.078 158.563C244.94 158.58 244.814 158.651 244.728 158.761C244.642 158.871 244.603 159.01 244.62 159.149L245.901 169.58C245.918 169.719 245.99 169.845 246.1 169.93C246.209 170.016 246.349 170.055 246.487 170.038C246.626 170.021 246.751 169.95 246.837 169.84C246.923 169.73 246.962 169.59 246.945 169.452L245.664 159.021C245.647 158.882 245.576 158.756 245.466 158.671C245.356 158.585 245.217 158.546 245.078 158.563ZM238.929 172.549C238.791 172.566 238.665 172.637 238.579 172.747C238.493 172.857 238.454 172.997 238.471 173.135C238.488 173.274 238.559 173.4 238.669 173.486C238.779 173.572 238.919 173.61 239.058 173.593L244.213 172.96C244.282 172.952 244.348 172.93 244.409 172.896C244.469 172.862 244.522 172.817 244.565 172.762C244.607 172.708 244.639 172.646 244.657 172.579C244.676 172.512 244.681 172.443 244.673 172.374C244.664 172.305 244.642 172.239 244.608 172.178C244.574 172.118 244.529 172.066 244.474 172.023C244.419 171.981 244.357 171.949 244.29 171.931C244.223 171.912 244.154 171.907 244.085 171.916L238.929 172.549ZM249.272 171.279C249.134 171.296 249.008 171.367 248.922 171.477C248.836 171.587 248.797 171.727 248.814 171.865C248.831 172.004 248.903 172.13 249.013 172.216C249.123 172.302 249.262 172.34 249.401 172.324L254.556 171.691C254.695 171.673 254.821 171.602 254.907 171.492C254.993 171.382 255.031 171.243 255.014 171.104C254.997 170.966 254.926 170.84 254.816 170.754C254.706 170.668 254.566 170.629 254.428 170.646L249.272 171.279ZM246.998 174.201C246.86 174.219 246.734 174.29 246.648 174.4C246.562 174.51 246.523 174.649 246.54 174.788L247.821 185.218C247.829 185.286 247.851 185.353 247.885 185.413C247.919 185.473 247.964 185.526 248.019 185.569C248.073 185.611 248.135 185.643 248.202 185.662C248.269 185.68 248.339 185.685 248.407 185.677C248.476 185.669 248.543 185.646 248.603 185.612C248.663 185.578 248.716 185.533 248.758 185.478C248.801 185.423 248.832 185.361 248.85 185.295C248.868 185.228 248.874 185.158 248.865 185.089L247.585 174.659C247.568 174.521 247.496 174.395 247.386 174.309C247.276 174.223 247.137 174.185 246.998 174.201Z" fill="#FF8828"/>
<path d="M257.509 223.75C255.422 223.169 253.59 221.585 252.45 219.376L250.332 215.274L249.611 219.881C249.223 222.362 247.987 224.492 246.197 225.761L242.875 228.118L246.749 229.196C248.835 229.776 250.667 231.36 251.808 233.569L253.925 237.671L254.647 233.064C255.034 230.583 256.27 228.454 258.06 227.184L261.383 224.827L257.509 223.75Z" fill="#FBD44F"/>
<path d="M382.998 259.132L338.325 264.617L338.869 269.049L383.542 263.564L405.25 246.117L404.706 241.685L382.998 259.132Z" fill="#FBD44F"/>
<path d="M364.7 211.906L409.373 206.42L404.707 241.699L382.999 259.146L338.326 264.631L360.033 247.184L364.7 211.906Z" fill="#FF8828"/>
<path d="M363.084 244.148L367.036 214.262L406.312 209.439L402.358 239.326L363.084 244.148Z" fill="#FBD44F"/>
<path d="M361.256 250.084L358.612 252.209L361.934 251.801L364.578 249.676L361.256 250.084ZM366.065 249.494L363.421 251.619L366.743 251.211L369.387 249.086L366.065 249.494ZM370.876 248.903L368.231 251.028L371.554 250.62L374.197 248.495L370.876 248.903ZM375.686 248.313L373.041 250.437L376.363 250.03L379.007 247.905L375.686 248.313ZM380.494 247.722L377.85 249.847L381.171 249.439L383.815 247.314L380.494 247.722ZM385.304 247.132L382.66 249.256L385.982 248.849L388.626 246.724L385.304 247.132ZM390.114 246.541L387.47 248.666L391.877 248.125L394.521 246L390.114 246.541ZM357.443 253.149L355.794 254.474L359.115 254.067L360.764 252.741L357.443 253.149ZM362.252 252.558L360.602 253.884L363.924 253.476L365.573 252.15L362.252 252.558ZM367.063 251.967L365.413 253.293L368.735 252.885L370.384 251.56L367.063 251.967ZM371.873 251.377L370.223 252.703L373.545 252.295L375.194 250.969L371.873 251.377ZM376.681 250.786L375.031 252.112L378.353 251.704L380.002 250.379L376.681 250.786ZM381.492 250.196L379.842 251.522L383.163 251.114L384.812 249.788L381.492 250.196ZM386.301 249.605L384.651 250.931L389.058 250.39L390.708 249.064L386.301 249.605ZM354.624 255.414L352.161 257.393L355.482 256.985L357.946 255.006L354.624 255.414ZM359.433 254.824L356.97 256.803L360.292 256.395L362.755 254.416L359.433 254.824ZM364.243 254.233L361.781 256.212L365.101 255.804L367.565 253.825L364.243 254.233ZM369.053 253.643L366.591 255.621L369.911 255.214L372.375 253.235L369.053 253.643ZM373.862 253.052L371.399 255.031L374.72 254.623L377.184 252.644L373.862 253.052ZM378.672 252.461L376.209 254.44L379.53 254.033L381.994 252.054L378.672 252.461ZM383.482 251.871L381.019 253.85L385.426 253.309L387.889 251.33L383.482 251.871Z" fill="#FBD44F"/>
</g>
<defs>
<clipPath id="clip0_372_10160">
<rect width="386.823" height="350.241" fill="white" transform="translate(0.0761719 47.8906) rotate(-7)"/>
</clipPath>
</defs>
</svg>
