<svg width="32" height="32" viewBox="0 0 32 32" fill="none" xmlns="http://www.w3.org/2000/svg">
<path d="M17.594 14.1537H17.6007H17.6186V14.1171V14.1152L17.6116 14.1262L17.594 14.1537ZM17.594 14.1537H17.6007H17.6186V14.1171V14.1152L17.6116 14.1262L17.594 14.1537ZM17.594 14.1537H17.6007H17.6186V14.1171V14.1152L17.6116 14.1262L17.594 14.1537ZM17.594 14.1537H17.6007H17.6186V14.1171V14.1152L17.6116 14.1262L17.594 14.1537ZM17.594 14.1537H17.6007H17.6186V14.1171V14.1152L17.6116 14.1262L17.594 14.1537ZM17.594 14.1537H17.6007H17.6186V14.1171V14.1152L17.6116 14.1262L17.594 14.1537ZM17.594 14.1537H17.6007H17.6186V14.1171V14.1152L17.6116 14.1262L17.594 14.1537ZM17.594 14.1537H17.6007H17.6186V14.1171V14.1152L17.6116 14.1262L17.594 14.1537ZM17.594 14.1537H17.6007H17.6186V14.1171V14.1152L17.6116 14.1262L17.594 14.1537ZM17.594 14.1537H17.6007H17.6186V14.1171V14.1152L17.6116 14.1262L17.594 14.1537ZM17.594 14.1537H17.6007H17.6186V14.1171V14.1152L17.6116 14.1262L17.594 14.1537ZM17.594 14.1537H17.6007H17.6186V14.1171V14.1152L17.6116 14.1262L17.594 14.1537ZM17.594 14.1537H17.6007H17.6186V14.1171V14.1152L17.6116 14.1262L17.594 14.1537ZM17.594 14.1537H17.6007H17.6186V14.1171V14.1152L17.6116 14.1262L17.594 14.1537ZM17.594 14.1537H17.6007H17.6186V14.1171V14.1152L17.6116 14.1262L17.594 14.1537ZM17.594 14.1537H17.6007H17.6186V14.1171V14.1152L17.6116 14.1262L17.594 14.1537ZM16 0C12.8355 0 9.74207 0.938383 7.11088 2.69649C4.4797 4.45459 2.42894 6.95345 1.21793 9.87706C0.00693236 12.8007 -0.309921 16.0177 0.307443 19.1214C0.924806 22.2251 2.44866 25.0761 4.6863 27.3137C6.92394 29.5513 9.77486 31.0752 12.8786 31.6926C15.9823 32.3099 19.1993 31.9931 22.1229 30.7821C25.0466 29.5711 27.5454 27.5203 29.3035 24.8891C31.0616 22.2579 32 19.1645 32 16C31.9954 11.758 30.3082 7.69099 27.3086 4.69141C24.309 1.69183 20.242 0.00463662 16 0ZM11.9991 23.203C11.9982 23.2739 11.9694 23.3416 11.9189 23.3915C11.8684 23.4413 11.8003 23.4692 11.7294 23.4692H8.64638C8.57577 23.4692 8.50804 23.4412 8.45811 23.3912C8.40818 23.3413 8.38012 23.2736 8.38012 23.203V12.8434C8.37966 12.8082 8.3862 12.7732 8.39938 12.7405C8.41255 12.7078 8.43209 12.678 8.45686 12.6529C8.48163 12.6278 8.51114 12.6079 8.54367 12.5943C8.57621 12.5807 8.61112 12.5737 8.64638 12.5737H11.7294C11.7648 12.5737 11.7999 12.5807 11.8326 12.5942C11.8653 12.6078 11.8951 12.6276 11.9201 12.6527C11.9452 12.6777 11.965 12.7075 11.9786 12.7402C11.9922 12.7729 11.9991 12.808 11.9991 12.8434V23.203ZM10.0793 11.1898C9.69609 11.1898 9.32152 11.0762 9.00292 10.8633C8.68432 10.6504 8.436 10.3479 8.28937 9.99386C8.14273 9.63985 8.10436 9.25031 8.17912 8.8745C8.25387 8.49868 8.43839 8.15348 8.70934 7.88253C8.98028 7.61158 9.32549 7.42707 9.70131 7.35231C10.0771 7.27756 10.4667 7.31592 10.8207 7.46256C11.1747 7.60919 11.4773 7.85751 11.6901 8.17611C11.903 8.49471 12.0166 8.86928 12.0166 9.25246C12.0171 9.50701 11.9673 9.75915 11.8701 9.99441C11.7729 10.2297 11.6302 10.4434 11.4502 10.6234C11.2702 10.8034 11.0565 10.9461 10.8212 11.0433C10.586 11.1405 10.3338 11.1903 10.0793 11.1898ZM25.0458 23.203C25.0448 23.2739 25.016 23.3416 24.9655 23.3915C24.915 23.4413 24.8469 23.4692 24.776 23.4692H21.693C21.6581 23.4692 21.6234 23.4623 21.5911 23.449C21.5588 23.4356 21.5295 23.416 21.5047 23.3912C21.48 23.3665 21.4604 23.3372 21.447 23.3049C21.4336 23.2726 21.4268 23.2379 21.4268 23.203V17.6361C21.4268 16.1717 20.9048 15.1837 19.5945 15.1837C19.1862 15.186 18.7886 15.3145 18.4562 15.5516C18.1238 15.7886 17.8728 16.1227 17.7377 16.508C17.6453 16.7927 17.605 17.0918 17.6186 17.3908V23.203C17.6186 23.2745 17.5902 23.3431 17.5396 23.3937C17.489 23.4443 17.4204 23.4727 17.3488 23.4727H14.2658C14.2306 23.4727 14.1957 23.4657 14.1631 23.4521C14.1306 23.4385 14.1011 23.4186 14.0763 23.3935C14.0515 23.3684 14.032 23.3387 14.0188 23.3059C14.0056 23.2732 13.9991 23.2382 13.9996 23.203C13.9996 21.7245 14.0381 14.5461 13.9996 12.8575C13.9991 12.8222 14.0056 12.7872 14.0188 12.7545C14.032 12.7218 14.0515 12.692 14.0763 12.6669C14.1011 12.6418 14.1306 12.6219 14.1631 12.6083C14.1957 12.5947 14.2306 12.5877 14.2658 12.5877H17.3418C17.3774 12.5872 17.4127 12.5939 17.4456 12.6073C17.4785 12.6207 17.5085 12.6405 17.5336 12.6657C17.5587 12.6908 17.5786 12.7207 17.592 12.7537C17.6054 12.7866 17.612 12.8219 17.6116 12.8575V14.1262V14.1292C17.6139 14.1251 17.6162 14.1211 17.6186 14.1171C17.9461 13.5537 18.4206 13.0898 18.9915 12.7752C19.5665 12.4584 20.2173 12.3051 20.8732 12.3319C23.252 12.3319 25.0388 13.8875 25.0388 17.2367L25.0458 23.203ZM17.6186 14.1642V14.1257L17.6007 14.1537L17.594 14.1642H17.6186ZM17.594 14.1642H17.6186V14.1257L17.6007 14.1537L17.594 14.1642ZM17.594 14.1642H17.6186V14.1257L17.6007 14.1537L17.594 14.1642ZM17.594 14.1642H17.6186V14.1257L17.6007 14.1537L17.594 14.1642ZM17.594 14.1642H17.6186V14.1257L17.6007 14.1537L17.594 14.1642ZM17.594 14.1642H17.6186V14.1257L17.6007 14.1537L17.594 14.1642ZM17.594 14.1642H17.6186V14.1257L17.6007 14.1537L17.594 14.1642ZM17.594 14.1642H17.6186V14.1257L17.6007 14.1537L17.594 14.1642ZM17.594 14.1642H17.6186V14.1257L17.6007 14.1537L17.594 14.1642ZM17.594 14.1642H17.6186V14.1257L17.6007 14.1537L17.594 14.1642ZM17.594 14.1642H17.6186V14.1257L17.6007 14.1537L17.594 14.1642ZM17.594 14.1642H17.6186V14.1257L17.6007 14.1537L17.594 14.1642ZM17.594 14.1642H17.6186V14.1257L17.6007 14.1537L17.594 14.1642ZM17.594 14.1642H17.6186V14.1257L17.6007 14.1537L17.594 14.1642ZM17.594 14.1642H17.6186V14.1257L17.6007 14.1537L17.594 14.1642Z" fill="black"/>
<path d="M11.9991 23.203C11.9982 23.2739 11.9694 23.3416 11.9189 23.3915C11.8684 23.4413 11.8003 23.4692 11.7294 23.4692H8.64638C8.57577 23.4692 8.50804 23.4412 8.45811 23.3912C8.40818 23.3413 8.38012 23.2736 8.38012 23.203V12.8434C8.37966 12.8082 8.3862 12.7732 8.39938 12.7405C8.41255 12.7078 8.43209 12.678 8.45686 12.6529C8.48163 12.6278 8.51114 12.6079 8.54367 12.5943C8.57621 12.5807 8.61112 12.5737 8.64638 12.5737H11.7294C11.7648 12.5737 11.7999 12.5807 11.8326 12.5942C11.8653 12.6078 11.8951 12.6276 11.9201 12.6527C11.9452 12.6777 11.965 12.7075 11.9786 12.7402C11.9922 12.7729 11.9991 12.808 11.9991 12.8434V23.203Z" fill="white"/>
<path d="M17.6007 14.1537H17.594L17.6116 14.1262V12.8575C17.612 12.8219 17.6054 12.7866 17.592 12.7537C17.5786 12.7207 17.5587 12.6908 17.5336 12.6657C17.5085 12.6405 17.4785 12.6207 17.4456 12.6073C17.4127 12.5939 17.3774 12.5872 17.3418 12.5877H14.2658C14.2306 12.5877 14.1957 12.5947 14.1631 12.6083C14.1306 12.6219 14.1011 12.6418 14.0763 12.6669C14.0515 12.692 14.032 12.7218 14.0188 12.7545C14.0056 12.7872 13.9991 12.8222 13.9996 12.8575C14.0381 14.5461 13.9996 21.7245 13.9996 23.203C13.9991 23.2382 14.0056 23.2732 14.0188 23.3059C14.032 23.3387 14.0515 23.3684 14.0763 23.3935C14.1011 23.4186 14.1306 23.4385 14.1631 23.4521C14.1957 23.4657 14.2306 23.4727 14.2658 23.4727H17.3488C17.4204 23.4727 17.489 23.4443 17.5396 23.3937C17.5902 23.3431 17.6186 23.2745 17.6186 23.203V17.3908C17.605 17.0918 17.6453 16.7927 17.7377 16.508C17.8728 16.1227 18.1238 15.7886 18.4562 15.5516C18.7886 15.3145 19.1862 15.186 19.5945 15.1837C20.9048 15.1837 21.4268 16.1717 21.4268 17.6361V23.203C21.4268 23.2379 21.4336 23.2726 21.447 23.3049C21.4604 23.3372 21.48 23.3665 21.5047 23.3912C21.5295 23.416 21.5588 23.4356 21.5911 23.449C21.6234 23.4623 21.6581 23.4692 21.693 23.4692H24.776C24.8469 23.4692 24.915 23.4413 24.9655 23.3915C25.016 23.3416 25.0448 23.2739 25.0458 23.203L25.0388 17.2367C25.0388 13.8875 23.252 12.3319 20.8732 12.3319C20.2173 12.3051 19.5665 12.4584 18.9915 12.7752C18.4206 13.0898 17.9461 13.5537 17.6186 14.1171V14.1257V14.1537V14.1642H17.594L17.6007 14.1537Z" fill="white"/>
<path d="M10.0793 11.1898C9.69609 11.1898 9.32152 11.0762 9.00292 10.8633C8.68432 10.6504 8.436 10.3479 8.28937 9.99386C8.14273 9.63985 8.10436 9.25031 8.17912 8.8745C8.25387 8.49868 8.43839 8.15348 8.70934 7.88253C8.98028 7.61158 9.32549 7.42707 9.70131 7.35231C10.0771 7.27756 10.4667 7.31592 10.8207 7.46256C11.1747 7.60919 11.4773 7.85751 11.6901 8.17611C11.903 8.49471 12.0166 8.86928 12.0166 9.25246C12.0171 9.50701 11.9673 9.75915 11.8701 9.99441C11.7729 10.2297 11.6302 10.4434 11.4502 10.6234C11.2702 10.8034 11.0565 10.9461 10.8212 11.0433C10.586 11.1405 10.3338 11.1903 10.0793 11.1898Z" fill="white"/>
</svg>
