<svg width="33" height="32" viewBox="0 0 33 32" fill="none" xmlns="http://www.w3.org/2000/svg">
<rect x="0.5" width="32" height="32" rx="16" fill="black"/>
<path d="M27.936 10.38C27.7536 10.2747 27.5466 10.2192 27.336 10.2192C27.1254 10.2192 26.9184 10.2747 26.736 10.38L22.5 12.468C22.4658 11.5363 22.0715 10.6542 21.4 10.0073C20.7286 9.36049 19.8323 8.99937 18.9 9H8.1C7.14522 9 6.22955 9.37929 5.55442 10.0544C4.87928 10.7295 4.5 11.6452 4.5 12.6V19.8C4.5 20.7548 4.87928 21.6705 5.55442 22.3456C6.22955 23.0207 7.14522 23.4 8.1 23.4H18.9C19.8323 23.4006 20.7286 23.0395 21.4 22.3927C22.0715 21.7458 22.4658 20.8637 22.5 19.932L26.772 22.068C26.9356 22.1519 27.1162 22.197 27.3 22.2C27.5247 22.2007 27.745 22.1384 27.936 22.02C28.1089 21.9119 28.2515 21.7615 28.3502 21.5831C28.4488 21.4046 28.5004 21.2039 28.5 21V11.4C28.5004 11.1961 28.4488 10.9954 28.3502 10.8169C28.2515 10.6385 28.1089 10.4881 27.936 10.38ZM20.1 19.8C20.1 20.1183 19.9736 20.4235 19.7485 20.6485C19.5235 20.8736 19.2183 21 18.9 21H8.1C7.78174 21 7.47652 20.8736 7.25147 20.6485C7.02643 20.4235 6.9 20.1183 6.9 19.8V12.6C6.9 12.2817 7.02643 11.9765 7.25147 11.7515C7.47652 11.5264 7.78174 11.4 8.1 11.4H18.9C19.2183 11.4 19.5235 11.5264 19.7485 11.7515C19.9736 11.9765 20.1 12.2817 20.1 12.6V19.8ZM26.1 19.056L22.5 17.256V15.144L26.1 13.344V19.056Z" fill="white"/>
</svg>
