<svg width="479" height="466" viewBox="0 0 479 466" fill="none" xmlns="http://www.w3.org/2000/svg">
<path d="M201.801 171.13L199.656 172.369V133.656L201.8 132.418L201.801 171.13Z" fill="#F3B378"/>
<path d="M197.508 171.13L199.653 172.369V133.656L197.508 132.418L197.508 171.13Z" fill="#D3D8F2"/>
<path d="M197.508 132.414L199.653 133.653L201.797 132.415L199.653 131.176L197.508 132.414Z" fill="#F7F7FC"/>
<path d="M210.192 147.495L208.047 148.734V113.117L210.191 111.879L210.192 147.495Z" fill="#F48A71"/>
<path d="M205.91 147.495L208.055 148.734V113.117L205.911 111.879L205.91 147.495Z" fill="#D3D8F2"/>
<path d="M205.91 111.887L208.055 113.125L210.199 111.887L208.055 110.648L205.91 111.887Z" fill="#F7F7FC"/>
<path d="M217.519 152.143L215.375 153.381V119.13L217.519 117.891L217.519 152.143Z" fill="#EC6675"/>
<path d="M213.23 152.143L215.376 153.381V119.13L213.231 117.891L213.23 152.143Z" fill="#D3D8F2"/>
<path d="M213.23 117.891L215.376 119.13L217.519 117.891L215.376 116.652L213.23 117.891Z" fill="#F7F7FC"/>
<path d="M226.997 162.562L224.852 163.8L224.852 139.97L226.996 138.73L226.997 162.562Z" fill="#F3B378"/>
<path d="M222.707 162.562L224.852 163.8L224.851 139.97L222.708 138.73L222.707 162.562Z" fill="#D3D8F2"/>
<path d="M222.707 138.731L224.851 139.97L226.996 138.731L224.851 137.492L222.707 138.731Z" fill="#F7F7FC"/>
<path d="M235.391 152.326L233.246 153.565L233.247 113.742L235.392 112.504L235.391 152.326Z" fill="#F48A71"/>
<path d="M231.102 152.326L233.246 153.565L233.247 113.742L231.103 112.504L231.102 152.326Z" fill="#D3D8F2"/>
<path d="M231.109 112.504L233.254 113.743L235.398 112.504L233.254 111.266L231.109 112.504Z" fill="#F7F7FC"/>
<path d="M243.797 132.643L241.652 133.882L241.653 94.4455L243.798 93.207L243.797 132.643Z" fill="#EC6675"/>
<path d="M239.504 132.643L241.649 133.882L241.65 94.4455L239.506 93.207L239.504 132.643Z" fill="#D3D8F2"/>
<path d="M239.504 93.2072L241.648 94.4462L243.793 93.2078L241.648 91.9688L239.504 93.2072Z" fill="#F7F7FC"/>
<path d="M252.196 119.122L250.051 120.361L250.053 99.0672L252.196 97.8281L252.196 119.122Z" fill="#F48A71"/>
<path d="M247.898 119.122L250.043 120.361L250.045 99.0672L247.9 97.8281L247.898 119.122Z" fill="#D3D8F2"/>
<path d="M247.906 97.8283L250.051 99.0674L252.195 97.8283L250.051 96.5898L247.906 97.8283Z" fill="#F7F7FC"/>
<path d="M260.59 130.309L258.445 131.547L258.446 106.551L260.59 105.312L260.59 130.309Z" fill="#EC6675"/>
<path d="M256.301 130.309L258.446 131.547L258.447 106.551L256.303 105.312L256.301 130.309Z" fill="#D3D8F2"/>
<path d="M256.301 105.32L258.446 106.559L260.59 105.32L258.446 104.082L256.301 105.32Z" fill="#F7F7FC"/>
<path d="M64.2319 332.482C73.9417 326.268 77.4387 309.082 88.8102 304.02C99.3875 299.312 102.569 310.713 110.392 306.196C126.515 296.887 126.203 256.582 153.681 244.057C157.986 242.094 163.024 243.266 167.476 245.649C162.643 242.637 156.842 240.857 151.979 243.074C124.5 255.599 124.812 295.904 108.688 305.213C100.865 309.729 97.6844 298.328 87.1071 303.037C75.7356 308.099 72.2386 325.284 62.5294 331.499C57.366 334.804 51.7332 334.883 47.7773 333.047C51.6843 335.816 58.2714 336.298 64.2319 332.482Z" fill="url(#paint0_linear_389_3378)"/>
<path d="M46.7545 372.134L178.847 295.87V256.588C176.862 251.16 163.392 239.623 153.672 244.054C126.193 256.58 126.506 296.885 110.382 306.194C102.559 310.711 99.3772 299.309 88.8005 304.018C77.429 309.08 73.9319 326.266 64.2228 332.48C57.7149 336.645 50.4507 335.698 46.7539 332.233L46.7545 372.134Z" fill="#7F7FF4"/>
<path opacity="0.8" d="M46.7539 372.135L178.847 295.871H246.885C256.287 297.017 276.268 304.794 268.593 310.406C246.899 326.271 177.089 326.09 160.965 335.399C153.142 339.917 172.89 341.753 164.734 347.86C155.965 354.425 126.2 356.444 115.436 362.049C108.221 365.807 109.862 370.001 115.864 372.135H46.7539Z" fill="url(#paint1_linear_389_3378)"/>
<path d="M45.0547 371.155L46.7578 372.138V332.237L45.0547 331.254V371.155Z" fill="#4141AA"/>
<path opacity="0.8" d="M64.1562 378.549L196.249 302.284V246.793C193.258 252.657 189.179 262.855 181.179 267.473C168.104 275.022 162.218 250.293 148.361 259.03C131.4 269.725 135.798 303.682 111.635 317.053C101.109 322.878 88.0707 288.43 78.0868 294.193C68.4737 299.743 64.1562 319.196 64.1562 337.42V378.549Z" fill="#F3B378"/>
<path opacity="0.8" d="M64.1562 378.549L196.249 302.285H292.363C282.206 304.012 264.544 306.367 256.544 310.986C243.469 318.535 286.301 321.932 271.167 329.934C252.644 339.726 193.828 337.186 170.668 351.138C160.579 357.215 220.247 364.742 210.263 370.506C200.65 376.057 166.959 378.549 135.391 378.549H64.1562Z" fill="url(#paint2_linear_389_3378)"/>
<path d="M181.177 267.472C189.177 262.854 193.256 252.656 196.247 246.792L194.544 245.809C191.553 251.673 187.474 261.87 179.474 266.489C175.923 268.539 172.903 268.205 170.109 266.811C173.382 268.954 176.894 269.945 181.177 267.472Z" fill="url(#paint3_linear_389_3378)"/>
<path d="M111.637 317.053C135.801 303.682 131.402 269.724 148.363 259.031C152.612 256.352 156.11 256.821 159.297 258.539V258.537L158.391 258.013C158.146 257.863 157.899 257.721 157.649 257.585L157.595 257.553L157.594 257.555C154.407 255.837 150.909 255.368 146.66 258.047C129.699 268.741 134.098 302.699 109.934 316.07C108.21 317.024 106.419 316.895 104.586 316.043C107.015 317.698 109.384 318.3 111.637 317.053Z" fill="url(#paint4_linear_389_3378)"/>
<path d="M64.1523 337.421C64.1523 319.196 68.4698 299.744 78.0828 294.194C79.9309 293.127 81.8844 293.44 83.906 294.619L83.9066 294.617L82.2035 293.634V293.636C80.1813 292.457 78.2284 292.144 76.3803 293.21C66.7672 298.761 62.4492 318.213 62.4492 336.438V377.566L64.1523 378.549V337.421Z" fill="url(#paint5_linear_389_3378)"/>
<path d="M247.403 185.175C243.394 185.175 240.056 183.101 237.377 181.437C236.466 180.871 235.605 180.336 234.816 179.941L235.338 178.9C236.174 179.319 237.057 179.868 237.991 180.448C241.974 182.921 246.93 185.998 253.356 182.289C261.463 177.608 266.957 161.671 272.268 146.26C277.849 130.069 283.62 113.328 292.734 108.066C301.671 102.905 307.303 108.16 311.829 112.382C315.196 115.522 317.856 118.001 321.058 116.24C325.005 114.069 327.888 109.257 329.397 102.324L330.536 102.572C328.952 109.843 325.869 114.923 321.62 117.26C317.677 119.431 314.451 116.42 311.035 113.233C306.569 109.067 301.505 104.345 293.316 109.075C284.58 114.118 278.881 130.651 273.37 146.639C267.74 162.972 262.422 178.399 253.938 183.298C251.967 184.497 249.71 185.145 247.403 185.175Z" fill="#00D6DC"/>
<path d="M232.957 180.641C232.997 179.905 233.21 179.189 233.578 178.551C233.947 177.913 234.46 177.371 235.078 176.968C236.248 176.293 237.197 176.84 237.197 178.192C237.157 178.928 236.945 179.644 236.576 180.282C236.208 180.92 235.695 181.462 235.078 181.865C233.907 182.54 232.958 181.993 232.958 180.641H232.957ZM327.848 103.669C327.887 102.933 328.1 102.217 328.468 101.579C328.836 100.941 329.35 100.399 329.967 99.9963C331.138 99.3209 332.087 99.8682 332.087 101.22C332.047 101.956 331.835 102.672 331.466 103.31C331.098 103.948 330.585 104.49 329.968 104.893C328.796 105.568 327.848 105.021 327.848 103.669ZM310.016 114.352C310.056 113.616 310.268 112.9 310.637 112.262C311.005 111.624 311.519 111.082 312.136 110.68C313.307 110.004 314.256 110.552 314.256 111.904C314.216 112.639 314.003 113.355 313.635 113.993C313.267 114.631 312.754 115.173 312.137 115.575C310.965 116.251 310.016 115.703 310.016 114.351V114.352ZM275.223 134.933C275.263 134.197 275.475 133.481 275.844 132.843C276.212 132.205 276.725 131.663 277.343 131.261C278.514 130.585 279.463 131.133 279.463 132.485C279.423 133.22 279.211 133.936 278.842 134.574C278.474 135.212 277.96 135.755 277.343 136.157C276.172 136.832 275.223 136.285 275.223 134.933Z" fill="#00D6DC"/>
<path d="M120.576 228.169L117.809 224.249C124.18 216.309 126.354 205.635 122.664 200.408L127.443 194.453C132.661 201.845 129.587 216.94 120.576 228.169Z" fill="url(#paint6_linear_389_3378)"/>
<path d="M120.576 228.169L117.809 224.249C124.18 216.309 126.354 205.635 122.664 200.408L127.443 194.453C132.661 201.845 129.587 216.94 120.576 228.169Z" fill="#00D6DC"/>
<path d="M122.662 200.409C118.972 195.182 110.815 197.382 104.443 205.321C100.525 210.204 98.2013 216.117 97.8462 221.166C97.6232 224.326 98.1664 227.149 99.5871 229.162C101.947 232.505 106.135 232.797 110.513 230.507C113.345 228.941 115.827 226.811 117.807 224.25L120.574 228.17C117.775 231.792 114.265 234.803 110.259 237.019C104.068 240.258 98.1454 239.844 94.8085 235.117C92.7986 232.271 92.0306 228.278 92.3456 223.808C92.8486 216.669 96.1337 208.306 101.675 201.401C110.686 190.173 122.222 187.062 127.441 194.454L122.662 200.409Z" fill="#BBC0E6"/>
<path d="M112.029 214.263C112.029 213.687 111.624 213.453 111.125 213.742C110.861 213.913 110.642 214.144 110.485 214.417C110.328 214.689 110.237 214.994 110.221 215.308C110.221 215.884 110.625 216.118 111.125 215.83C111.388 215.658 111.607 215.427 111.764 215.154C111.921 214.882 112.012 214.577 112.029 214.263ZM115.183 212.443C115.183 211.866 114.778 211.632 114.279 211.92C114.016 212.092 113.796 212.323 113.639 212.595C113.482 212.867 113.392 213.173 113.375 213.487C113.375 214.063 113.78 214.296 114.279 214.008C114.542 213.837 114.761 213.605 114.918 213.333C115.075 213.061 115.166 212.756 115.183 212.443ZM107.066 217.129C107.083 216.815 107.174 216.509 107.331 216.237C107.488 215.965 107.707 215.734 107.971 215.562C108.47 215.274 108.874 215.508 108.874 216.085C108.857 216.398 108.767 216.704 108.61 216.976C108.453 217.248 108.234 217.479 107.971 217.651C107.471 217.939 107.066 217.705 107.066 217.129Z" fill="#423EAF"/>
<path d="M95.882 231.961V238.337C88.5188 242.589 82.5501 252.927 82.5501 261.43L77.0273 264.619C77.0273 252.594 85.4689 237.973 95.882 231.961Z" fill="url(#paint7_linear_389_3378)"/>
<path d="M95.882 231.961V238.337C88.5188 242.589 82.5501 252.927 82.5501 261.43L77.0273 264.619C77.0273 252.594 85.4689 237.973 95.882 231.961Z" fill="#807DFB"/>
<path d="M95.8828 238.332V231.956C99.6372 229.788 103.126 229.055 106.065 229.543L103.082 236.626C101.005 236.281 98.5379 236.799 95.8828 238.332Z" fill="#5652CC"/>
<path d="M82.5501 261.43C82.5501 269.932 88.5188 273.378 95.882 269.127C100.41 266.513 104.405 261.594 106.814 256.219L111.343 257.248C107.935 264.851 102.286 271.807 95.882 275.504C85.4689 281.516 77.0273 276.643 77.0273 264.618L82.5501 261.43Z" fill="url(#paint8_linear_389_3378)"/>
<path d="M109.215 246.033C109.215 240.596 106.768 237.241 103.082 236.63L106.064 229.547C111.277 230.411 114.738 235.156 114.738 242.846C114.738 247.475 113.477 252.487 111.343 257.247L106.815 256.217C108.311 253.025 109.129 249.558 109.215 246.033Z" fill="#DAE0F5"/>
<path d="M96.1492 252.351C95.9564 252.52 95.7154 252.624 95.4601 252.65C95.2048 252.675 94.9481 252.62 94.7259 252.491C94.5037 252.363 94.3273 252.168 94.2215 251.935C94.1156 251.701 94.0856 251.44 94.1357 251.189C94.1741 250.49 94.3764 249.81 94.7261 249.204C95.0759 248.598 95.5634 248.083 96.1492 247.701C97.2595 247.06 98.1626 247.581 98.1626 248.864L99.9903 247.809C99.9903 245.727 98.7402 244.702 97.0627 245.195V243.531L95.2356 244.586V246.25C94.3745 247.005 93.6722 247.924 93.1697 248.953C92.6672 249.982 92.3745 251.1 92.3086 252.244C92.3086 253.429 92.708 254.312 93.4335 254.73C94.159 255.149 95.1232 255.054 96.1492 254.461C97.2595 253.82 98.1626 254.341 98.1626 255.624C98.1242 256.322 97.9219 257.002 97.5721 257.608C97.2223 258.214 96.7349 258.729 96.1492 259.111C95.0388 259.753 94.1357 259.231 94.1357 257.949L92.3086 259.004C92.3086 261.085 93.5581 262.11 95.2356 261.617V263.153L97.0627 262.098V260.562C97.9239 259.807 98.6263 258.889 99.1289 257.86C99.6316 256.831 99.9244 255.712 99.9903 254.569C99.9903 252.123 98.2668 251.129 96.1492 252.351V252.351Z" fill="#34318F"/>
<path d="M176.97 202.487C175.489 208.997 170.943 215.741 165.562 218.848C161.776 221.034 158.405 220.939 156.222 219.021L151.484 226.087C154.774 228.978 159.855 229.121 165.562 225.827C173.672 221.144 180.524 210.98 182.755 201.168L176.97 202.487Z" fill="#7F7FF4"/>
<path d="M153.646 211.968C153.646 204.368 158.981 195.126 165.563 191.326C172.145 187.527 177.48 190.607 177.48 198.206C177.47 199.648 177.299 201.084 176.971 202.487L182.756 201.168C183.251 199.053 183.509 196.889 183.525 194.717C183.525 183.263 175.482 178.62 165.563 184.348C155.644 190.075 147.602 204.003 147.602 215.458C147.602 220.322 149.056 223.953 151.485 226.087L156.222 219.021C154.611 217.604 153.645 215.196 153.645 211.968L153.646 211.968Z" fill="#D0D4F6"/>
<path d="M165.56 194.914C160.695 197.723 156.752 204.553 156.752 210.171C156.728 211.343 156.945 212.507 157.39 213.591L165.56 205.085V194.914Z" fill="#EC6675"/>
<path d="M165.565 194.914V205.085L157.395 213.591C158.696 216.579 161.86 217.395 165.565 215.256C170.43 212.448 174.373 205.617 174.373 200C174.373 194.382 170.43 192.105 165.565 194.914Z" fill="#5555C6"/>
<path d="M385.92 237.514C378.613 241.733 372.688 238.313 372.688 229.874C372.688 221.436 378.612 211.176 385.92 206.957C391.879 203.516 396.916 205.158 398.573 210.455L405.067 204.41C402.56 196.393 394.937 193.911 385.92 199.117C374.862 205.501 365.898 221.027 365.898 233.795C365.898 246.563 374.862 251.738 385.92 245.354C388.903 243.58 391.605 241.369 393.934 238.796L391.216 233.179C389.677 234.88 387.892 236.341 385.92 237.514Z" fill="#5555C6"/>
<path d="M365.898 233.791C365.898 221.023 374.862 205.497 385.919 199.113C391.505 195.887 396.555 195.616 400.186 197.78L400.187 197.779L397.328 196.129L397.328 196.13C393.696 193.966 388.647 194.238 383.061 197.462C372.003 203.847 363.039 219.373 363.039 232.14C363.039 238.516 365.275 242.998 368.89 245.094L368.899 245.1L368.908 245.104L371.748 246.745C368.133 244.649 365.898 240.167 365.898 233.791Z" fill="url(#paint9_linear_389_3378)"/>
<path d="M393.727 205.398C394.658 206.354 395.341 207.524 395.715 208.804L398.574 210.454C397.729 207.754 396.003 206.01 393.727 205.399V205.398ZM388.357 231.528C386.818 233.229 385.033 234.69 383.062 235.863C380.138 237.551 377.436 238.013 375.246 237.423C377.654 239.823 381.537 240.043 385.921 237.513C387.892 236.34 389.677 234.88 391.216 233.179L388.357 231.528Z" fill="#34318F"/>
<path d="M398.572 210.451L395.713 208.801C396.114 210.144 396.309 211.54 396.292 212.942C396.292 219.205 393.026 226.469 388.355 231.525L391.214 233.175C395.885 228.12 399.151 220.855 399.151 214.592C399.168 213.19 398.973 211.794 398.572 210.451Z" fill="#00B6BF"/>
<path d="M398.573 210.451C398.973 211.794 399.168 213.191 399.151 214.592C399.151 220.856 395.886 228.12 391.215 233.176L393.933 238.792C401.001 231.142 405.941 220.149 405.941 210.672C405.968 208.551 405.673 206.439 405.067 204.406L398.573 210.451Z" fill="#57ECEA"/>
<path d="M375.55 96.1275L375.552 96.1246L375.512 96.1016C375.525 96.109 375.536 96.1188 375.55 96.1275Z" fill="url(#paint10_linear_389_3378)"/>
<path d="M264.762 237.126V162.534C264.822 161.458 265.134 160.412 265.673 159.479C266.211 158.546 266.961 157.753 267.863 157.163L373.294 96.292C373.603 96.0701 373.965 95.9324 374.343 95.8924C374.721 95.8524 375.103 95.9114 375.452 96.0637L373.852 95.1403L373.85 95.1432C373.283 94.7723 372.48 94.7956 371.591 95.3085L266.16 156.179C265.258 156.77 264.508 157.563 263.969 158.496C263.431 159.429 263.119 160.475 263.058 161.551V236.143C263.03 236.492 263.081 236.843 263.209 237.169C263.337 237.495 263.537 237.788 263.795 238.025V238.026L263.805 238.032C263.91 238.114 264.027 238.181 264.15 238.231L265.498 239.009L265.498 239.009C265.24 238.772 265.04 238.479 264.912 238.153C264.784 237.826 264.733 237.475 264.762 237.126Z" fill="url(#paint11_linear_389_3378)"/>
<path d="M376.4 172.674C376.339 173.75 376.027 174.796 375.489 175.729C374.95 176.662 374.2 177.455 373.298 178.045L267.867 238.916C266.161 239.901 264.766 239.095 264.766 237.125V162.533C264.826 161.458 265.138 160.411 265.677 159.478C266.215 158.546 266.965 157.752 267.867 157.162L373.298 96.2914C375.004 95.3068 376.4 96.112 376.4 98.0818V172.674Z" fill="#F7F7FC"/>
<path d="M364.506 131.953L363.214 131.208L357.852 140.495L354.941 138.814L348.255 150.395L344.253 148.085L336.145 162.128L330.977 159.144L326.39 167.089L320.831 163.879L315.275 173.502L310.222 170.584L307.573 175.172L301.906 171.9L297.448 179.62L294.407 177.865L286.722 191.177L282.333 188.643L278.723 194.897L271.238 190.576V229.668L369.913 172.697V147.082L369.923 122.57L364.506 131.953Z" fill="#6A6AE2"/>
<path d="M272.256 217.658L271.223 218.255V177.206L272.256 176.609V217.658Z" fill="url(#paint12_linear_389_3378)"/>
<path d="M282.85 211.542L281.816 212.139V183.327L282.85 182.73V211.542Z" fill="url(#paint13_linear_389_3378)"/>
<path d="M294.924 204.571L293.891 205.168V166.444L294.924 165.848V204.571Z" fill="url(#paint14_linear_389_3378)"/>
<path d="M310.737 195.442L309.703 196.039V157.316L310.737 156.719V195.442Z" fill="url(#paint15_linear_389_3378)"/>
<path d="M321.097 189.46L320.062 190.056V142.253L321.097 141.656V189.46Z" fill="url(#paint16_linear_389_3378)"/>
<path d="M331.494 183.454L330.461 184.051V151.913L331.494 151.316V183.454Z" fill="url(#paint17_linear_389_3378)"/>
<path d="M344.772 175.791L343.738 176.388V133.956L344.772 133.359V175.791Z" fill="url(#paint18_linear_389_3378)"/>
<path d="M363.733 164.846L362.699 165.443V123.01L363.733 122.414V164.846Z" fill="url(#paint19_linear_389_3378)"/>
<path d="M369.928 160.23L368.895 160.826V111.683L369.928 111.086V160.23Z" fill="url(#paint20_linear_389_3378)"/>
<path d="M369.408 106.141C368.671 106.622 368.059 107.27 367.619 108.031C367.179 108.793 366.925 109.647 366.877 110.525C366.849 111.023 367.002 111.514 367.309 111.907L364.567 117.145C364.093 117.093 363.616 117.206 363.215 117.465C362.569 117.889 362.016 118.441 361.59 119.087C361.164 119.733 360.874 120.459 360.739 121.22L346.731 129.307C346.492 128.119 345.473 127.708 344.254 128.412C343.518 128.892 342.905 129.54 342.466 130.301C342.026 131.063 341.772 131.917 341.724 132.795C341.717 133.134 341.781 133.47 341.912 133.783L332.744 146.186C332.459 146.06 332.146 146.011 331.836 146.044C331.527 146.076 331.231 146.189 330.978 146.371C330.567 146.619 330.199 146.933 329.887 147.298L322.487 140.425C322.868 139.733 323.08 138.961 323.108 138.171C323.108 136.56 321.972 135.904 320.577 136.71C319.841 137.191 319.228 137.838 318.789 138.599C318.349 139.361 318.095 140.215 318.047 141.093C318.037 141.476 318.124 141.856 318.299 142.197L311.874 151.541C311.6 151.447 311.308 151.418 311.021 151.457C310.734 151.497 310.461 151.603 310.223 151.768C309.577 152.193 309.024 152.745 308.598 153.391C308.172 154.037 307.882 154.762 307.747 155.524L296.885 161.794C296.647 160.606 295.628 160.195 294.409 160.899C293.673 161.379 293.06 162.027 292.62 162.788C292.18 163.55 291.926 164.404 291.878 165.282C291.869 165.642 291.943 166 292.093 166.327L284.048 177.576C283.768 177.465 283.465 177.426 283.166 177.461C282.867 177.497 282.581 177.606 282.335 177.78C281.793 178.111 281.323 178.546 280.951 179.06L273.852 174.961C274.111 174.383 274.253 173.758 274.268 173.124C274.268 171.513 273.133 170.857 271.738 171.662C271.001 172.143 270.389 172.79 269.949 173.552C269.509 174.313 269.255 175.168 269.207 176.046C269.207 177.657 270.342 178.312 271.738 177.507C272.279 177.177 272.749 176.742 273.121 176.228L280.22 180.326C279.961 180.905 279.82 181.53 279.805 182.164C279.805 183.775 280.94 184.431 282.335 183.625C283.071 183.144 283.684 182.497 284.124 181.735C284.563 180.974 284.818 180.12 284.866 179.242C284.874 178.881 284.801 178.524 284.651 178.196L292.696 166.947C292.976 167.059 293.279 167.098 293.578 167.063C293.877 167.027 294.163 166.917 294.409 166.743C295.055 166.319 295.608 165.767 296.034 165.121C296.46 164.475 296.749 163.749 296.885 162.988L307.747 156.717C307.985 157.905 309.004 158.316 310.223 157.612C310.959 157.132 311.572 156.485 312.011 155.723C312.451 154.962 312.705 154.108 312.754 153.23C312.763 152.847 312.677 152.467 312.501 152.126L318.927 142.782C319.2 142.876 319.492 142.905 319.779 142.865C320.066 142.826 320.339 142.719 320.577 142.554C320.988 142.306 321.357 141.993 321.668 141.627L329.069 148.5C328.688 149.192 328.475 149.963 328.448 150.753C328.448 152.365 329.583 153.02 330.978 152.214C331.714 151.734 332.327 151.086 332.767 150.325C333.207 149.563 333.461 148.709 333.509 147.831C333.516 147.492 333.451 147.156 333.32 146.843L342.489 134.44C342.774 134.565 343.087 134.614 343.396 134.582C343.706 134.55 344.002 134.437 344.254 134.255C344.901 133.831 345.454 133.278 345.88 132.633C346.306 131.987 346.595 131.261 346.731 130.5L360.739 122.413C360.977 123.6 361.997 124.012 363.215 123.308C363.952 122.827 364.564 122.18 365.004 121.419C365.444 120.657 365.698 119.803 365.746 118.925C365.775 118.427 365.621 117.935 365.313 117.543L368.055 112.305C368.529 112.357 369.007 112.244 369.408 111.985C370.144 111.504 370.756 110.857 371.196 110.096C371.636 109.335 371.89 108.481 371.938 107.603C371.938 105.992 370.803 105.336 369.408 106.141ZM271.738 176.315C270.912 176.791 270.241 176.403 270.241 175.45C270.27 174.931 270.42 174.425 270.68 173.975C270.94 173.524 271.302 173.142 271.738 172.857C272.563 172.381 273.235 172.769 273.235 173.722C273.206 174.241 273.056 174.746 272.796 175.197C272.536 175.647 272.173 176.03 271.738 176.315H271.738ZM282.335 182.432C281.51 182.909 280.838 182.521 280.838 181.568C280.867 181.049 281.017 180.544 281.277 180.093C281.537 179.643 281.899 179.26 282.335 178.975C283.16 178.499 283.832 178.886 283.832 179.84C283.804 180.359 283.653 180.864 283.393 181.315C283.133 181.765 282.771 182.148 282.335 182.432H282.335ZM294.409 165.55C293.583 166.027 292.912 165.639 292.912 164.686C292.94 164.167 293.091 163.662 293.351 163.211C293.611 162.761 293.973 162.378 294.408 162.093C295.234 161.617 295.906 162.004 295.906 162.958C295.877 163.477 295.727 163.982 295.467 164.433C295.207 164.883 294.844 165.266 294.409 165.55ZM310.223 156.421C309.397 156.897 308.727 156.509 308.727 155.556C308.755 155.037 308.905 154.531 309.165 154.081C309.425 153.63 309.788 153.248 310.223 152.963C311.048 152.487 311.719 152.875 311.719 153.828C311.691 154.347 311.541 154.852 311.281 155.303C311.021 155.753 310.658 156.136 310.223 156.421ZM319.08 140.498C319.109 139.978 319.259 139.473 319.519 139.022C319.779 138.572 320.142 138.189 320.577 137.905C321.402 137.428 322.074 137.816 322.074 138.769C322.046 139.288 321.895 139.794 321.635 140.244C321.375 140.694 321.013 141.077 320.577 141.362C319.752 141.838 319.08 141.451 319.08 140.498ZM330.978 151.022C330.153 151.498 329.482 151.111 329.482 150.158C329.51 149.639 329.661 149.133 329.92 148.683C330.18 148.232 330.543 147.849 330.978 147.565C331.804 147.089 332.475 147.476 332.475 148.429C332.447 148.948 332.296 149.454 332.036 149.904C331.776 150.354 331.414 150.737 330.978 151.022ZM344.254 133.063C343.429 133.539 342.758 133.152 342.758 132.199C342.786 131.679 342.937 131.174 343.197 130.724C343.456 130.273 343.819 129.89 344.254 129.606C345.079 129.13 345.751 129.517 345.751 130.47C345.723 130.989 345.572 131.495 345.312 131.945C345.052 132.395 344.69 132.778 344.254 133.063ZM363.215 122.116C362.39 122.592 361.718 122.205 361.718 121.252C361.747 120.732 361.897 120.227 362.157 119.777C362.417 119.326 362.779 118.943 363.215 118.659C364.04 118.182 364.712 118.57 364.712 119.523C364.684 120.042 364.533 120.548 364.273 120.998C364.013 121.448 363.651 121.831 363.215 122.116ZM369.408 110.793C368.583 111.269 367.911 110.882 367.911 109.929C367.94 109.41 368.09 108.904 368.35 108.454C368.61 108.004 368.972 107.621 369.408 107.336C370.233 106.859 370.904 107.247 370.904 108.2C370.876 108.72 370.725 109.225 370.465 109.675C370.206 110.126 369.843 110.509 369.408 110.793Z" fill="#F48A71"/>
<path d="M280.908 156.165L271.734 161.461V159.074L280.908 153.778V156.165ZM294.406 148.372L289.048 151.466V149.078L294.406 145.985V148.372ZM309.204 139.828L297.662 146.492V144.105L309.204 137.441V139.828ZM285.086 153.753L283.019 154.947V152.56L285.086 151.366V153.753Z" fill="#D0D4F6"/>
<g style="mix-blend-mode:multiply">
<path d="M336.207 179.015L286.546 207.687C285.659 208.268 284.92 209.05 284.389 209.968C283.859 210.887 283.552 211.917 283.492 212.977V229.892L339.262 197.694V180.779C339.262 178.839 337.887 178.046 336.207 179.015Z" fill="#DCE1F4"/>
</g>
<path style="mix-blend-mode:multiply" d="M129.617 391.035L147.599 401.417L129.617 411.799L179.561 401.417L129.617 391.035Z" fill="url(#paint21_linear_389_3378)"/>
<path d="M129.615 370.027V411.803L111.633 401.421L129.615 370.027Z" fill="#F7F7FC"/>
<path d="M129.617 370.027V411.803L147.599 401.421L129.617 370.027Z" fill="#D0D4F6"/>
<path d="M407.396 156.505L405.402 157.656C405.177 155.323 403.478 154.342 401.346 155.314V153.012L400.384 153.567V155.869C399.271 156.708 398.338 157.762 397.641 158.969C396.944 160.176 396.498 161.511 396.328 162.894L394.334 164.046V165.156L396.328 164.005C396.553 166.338 398.252 167.319 400.384 166.347V168.649L401.346 168.094V165.791C402.459 164.953 403.392 163.899 404.089 162.692C404.786 161.485 405.233 160.15 405.402 158.766L407.396 157.615V156.505ZM404.43 158.217L401.346 159.998V156.436C402.947 155.761 404.215 156.493 404.43 158.217V158.217ZM400.384 156.991V160.553L397.3 162.334C397.596 160.22 398.702 158.305 400.384 156.991ZM397.3 163.444L400.384 161.663V165.225C398.783 165.9 397.515 165.168 397.3 163.444H397.3ZM401.346 164.67V161.108L404.43 159.327C404.134 161.441 403.028 163.356 401.346 164.67ZM148.405 159.088L146.909 159.952C146.74 158.201 145.466 157.466 143.866 158.195V156.467L143.145 156.884V158.611C142.309 159.24 141.609 160.031 141.086 160.937C140.564 161.843 140.229 162.844 140.102 163.882L138.605 164.746V165.579L140.102 164.715C140.27 166.465 141.545 167.201 143.145 166.472V168.2L143.867 167.783V166.055C144.702 165.427 145.402 164.636 145.925 163.73C146.447 162.824 146.782 161.823 146.909 160.785L148.405 159.921V159.088ZM146.18 160.373L143.866 161.709V159.036C145.067 158.53 146.019 159.079 146.18 160.373ZM143.145 159.453V162.126L140.831 163.461C141.053 161.876 141.883 160.439 143.145 159.453ZM140.831 164.294L143.145 162.958V165.63C141.944 166.137 140.992 165.588 140.831 164.294ZM143.866 165.214V162.542L146.18 161.206C145.958 162.791 145.128 164.229 143.866 165.214Z" fill="#D0D4F6"/>
<path style="mix-blend-mode:multiply" d="M373.124 278.718C372.458 278.364 371.712 278.185 370.957 278.2H349.336V281.738H370.957C371.711 281.753 372.457 281.575 373.123 281.22C373.385 281.132 373.612 280.963 373.773 280.739C373.934 280.515 374.021 280.245 374.021 279.969C374.021 279.693 373.934 279.424 373.773 279.199C373.612 278.975 373.386 278.807 373.124 278.718Z" fill="url(#paint22_linear_389_3378)"/>
<path style="mix-blend-mode:multiply" d="M387.557 273.968C386.891 273.614 386.145 273.435 385.391 273.45H363.77V276.988H385.391C386.145 277.002 386.891 276.824 387.557 276.47C387.819 276.381 388.046 276.213 388.206 275.988C388.367 275.764 388.454 275.495 388.454 275.219C388.454 274.943 388.367 274.674 388.206 274.449C388.046 274.225 387.819 274.057 387.557 273.968Z" fill="url(#paint23_linear_389_3378)"/>
<path d="M360.527 259.027V275.225C360.552 275.494 360.648 275.752 360.806 275.972C360.964 276.191 361.177 276.365 361.424 276.475C362.096 276.816 362.838 276.994 363.591 276.994C364.344 276.994 365.086 276.816 365.758 276.475C366.005 276.365 366.219 276.192 366.376 275.972C366.534 275.752 366.631 275.494 366.656 275.225V259.027H360.527Z" fill="url(#paint24_linear_389_3378)"/>
<path d="M361.425 257.776C362.096 257.435 362.839 257.258 363.592 257.258C364.344 257.258 365.087 257.435 365.758 257.776C366.02 257.864 366.247 258.033 366.408 258.257C366.569 258.482 366.656 258.751 366.656 259.027C366.656 259.303 366.569 259.572 366.408 259.797C366.247 260.021 366.02 260.189 365.758 260.278C365.087 260.619 364.344 260.796 363.592 260.796C362.839 260.796 362.096 260.619 361.425 260.278C361.163 260.189 360.936 260.021 360.775 259.797C360.614 259.572 360.527 259.303 360.527 259.027C360.527 258.751 360.614 258.482 360.775 258.257C360.936 258.033 361.163 257.864 361.425 257.776Z" fill="#EAEEF9"/>
<path style="mix-blend-mode:multiply" d="M370.297 284.117C369.631 283.762 368.885 283.584 368.131 283.598H356.695V287.136H368.131C368.885 287.151 369.631 286.972 370.297 286.618C370.558 286.529 370.785 286.361 370.946 286.137C371.107 285.913 371.194 285.643 371.194 285.367C371.194 285.091 371.107 284.822 370.946 284.598C370.785 284.374 370.558 284.205 370.297 284.117Z" fill="url(#paint25_linear_389_3378)"/>
<path d="M353.457 276.719V285.369C353.482 285.639 353.578 285.897 353.736 286.116C353.894 286.336 354.107 286.51 354.354 286.62C355.026 286.961 355.768 287.138 356.521 287.138C357.274 287.138 358.016 286.961 358.687 286.62C358.935 286.51 359.148 286.336 359.306 286.117C359.464 285.897 359.56 285.639 359.585 285.369V276.719H353.457Z" fill="url(#paint26_linear_389_3378)"/>
<path d="M354.354 275.467C355.025 275.127 355.767 274.949 356.52 274.949C357.273 274.949 358.015 275.127 358.687 275.467C358.948 275.556 359.175 275.724 359.336 275.949C359.497 276.173 359.584 276.442 359.584 276.718C359.584 276.994 359.497 277.263 359.336 277.488C359.175 277.712 358.948 277.88 358.687 277.969C358.015 278.309 357.273 278.487 356.52 278.487C355.767 278.487 355.025 278.309 354.354 277.969C354.092 277.88 353.865 277.712 353.704 277.488C353.544 277.263 353.457 276.994 353.457 276.718C353.457 276.442 353.544 276.173 353.704 275.949C353.865 275.724 354.092 275.556 354.354 275.467Z" fill="#F3B378"/>
<path d="M346.09 265.703V279.974C346.115 280.244 346.211 280.502 346.368 280.722C346.526 280.941 346.739 281.115 346.987 281.226C347.658 281.566 348.4 281.744 349.153 281.744C349.906 281.744 350.649 281.566 351.32 281.226C351.568 281.116 351.781 280.942 351.939 280.722C352.097 280.502 352.193 280.244 352.218 279.974V265.703H346.09Z" fill="url(#paint27_linear_389_3378)"/>
<path d="M346.987 264.452C347.658 264.111 348.4 263.934 349.153 263.934C349.906 263.934 350.648 264.111 351.32 264.452C351.581 264.54 351.808 264.709 351.969 264.933C352.13 265.157 352.216 265.426 352.216 265.702C352.216 265.979 352.13 266.248 351.969 266.472C351.808 266.696 351.581 266.865 351.32 266.953C350.648 267.294 349.906 267.471 349.153 267.471C348.4 267.471 347.658 267.294 346.987 266.953C346.725 266.865 346.498 266.696 346.337 266.472C346.176 266.248 346.09 265.979 346.09 265.702C346.09 265.426 346.176 265.157 346.337 264.933C346.498 264.709 346.725 264.54 346.987 264.452Z" fill="#7F7FF4"/>
<path style="mix-blend-mode:multiply" d="M366.049 288.867C365.383 288.512 364.638 288.334 363.883 288.348H342.262V291.887H363.883C364.637 291.901 365.383 291.723 366.049 291.369C366.311 291.28 366.538 291.112 366.699 290.887C366.86 290.663 366.947 290.394 366.947 290.118C366.947 289.841 366.86 289.572 366.699 289.348C366.538 289.123 366.311 288.955 366.049 288.867Z" fill="url(#paint28_linear_389_3378)"/>
<path d="M339.02 276.992V290.115C339.044 290.384 339.141 290.642 339.298 290.862C339.456 291.081 339.67 291.255 339.917 291.365C340.588 291.706 341.331 291.883 342.083 291.883C342.836 291.883 343.579 291.706 344.25 291.365C344.497 291.255 344.711 291.082 344.869 290.862C345.026 290.642 345.123 290.384 345.148 290.115V276.992H339.02Z" fill="url(#paint29_linear_389_3378)"/>
<path d="M339.917 275.741C340.588 275.4 341.331 275.223 342.084 275.223C342.837 275.223 343.579 275.4 344.25 275.741C344.512 275.829 344.739 275.998 344.9 276.222C345.061 276.446 345.148 276.716 345.148 276.992C345.148 277.268 345.061 277.537 344.9 277.762C344.739 277.986 344.512 278.154 344.25 278.243C343.579 278.583 342.837 278.761 342.084 278.761C341.331 278.761 340.589 278.583 339.917 278.243C339.655 278.154 339.428 277.986 339.267 277.762C339.106 277.537 339.02 277.268 339.02 276.992C339.02 276.716 339.106 276.446 339.267 276.222C339.428 275.998 339.655 275.829 339.917 275.741Z" fill="#EAEEF9"/>
<path style="mix-blend-mode:multiply" d="M245.391 323.062H212.395L223.632 329.55L212.395 336.038H245.391L256.627 329.55L245.391 323.062Z" fill="url(#paint30_linear_389_3378)"/>
<path style="mix-blend-mode:multiply" d="M224.933 336.039H193.832L205.069 342.527L193.832 349.014H224.933L236.169 342.527L224.933 336.039Z" fill="url(#paint31_linear_389_3378)"/>
<path style="mix-blend-mode:multiply" d="M202.989 349.012H175.258L186.495 355.499L175.258 361.986H202.989L214.225 355.499L202.989 349.012Z" fill="url(#paint32_linear_389_3378)"/>
<path d="M201.16 305.926L212.397 312.413V336.038L201.16 329.55V305.926Z" fill="#F48A71"/>
<path d="M223.632 305.926L212.395 312.413V336.038L223.632 329.55V305.926Z" fill="#E33C5C"/>
<path d="M212.397 299.438L201.16 305.925L212.397 312.412L223.634 305.925L212.397 299.438Z" fill="#F3B378"/>
<path d="M182.594 325.293L193.83 331.78V349.013L182.594 342.525V325.293Z" fill="#5652CC"/>
<path d="M205.069 325.293L193.832 331.78V349.013L205.069 342.525V325.293Z" fill="#423EAF"/>
<path d="M193.83 318.801L182.594 325.288L193.83 331.776L205.067 325.288L193.83 318.801Z" fill="#6B67E9"/>
<path d="M164.023 341.977L175.26 348.464V361.979L164.023 355.493V341.977Z" fill="#00D6DC"/>
<path d="M186.495 341.977L175.258 348.464V361.979L186.495 355.493V341.977Z" fill="#00B6BF"/>
<path d="M175.26 335.5L164.023 341.987L175.26 348.475L186.497 341.987L175.26 335.5Z" fill="#57ECEA"/>
<path d="M219.069 224.098V257.19L190.41 273.736C190.41 255.46 203.241 233.236 219.069 224.098Z" fill="#807DFB"/>
<path d="M213.655 220.973L233.247 232.284L205.172 282.259L184.996 270.611C184.996 252.334 197.827 230.111 213.655 220.973Z" fill="url(#paint33_linear_389_3378)"/>
<path d="M219.069 224.098V257.19L190.41 273.736C190.41 255.46 203.241 233.236 219.069 224.098Z" fill="#F48A71"/>
<path d="M190.411 273.738L219.069 257.191L193.694 287.22C191.601 283.833 190.41 279.29 190.41 273.737L190.411 273.738Z" fill="#807DFB"/>
<path d="M219.071 257.19V224.098C234.899 214.96 247.729 222.367 247.729 240.644C247.729 258.92 234.899 281.144 219.071 290.282C208.052 296.643 198.491 294.979 193.695 287.218L219.071 257.19Z" fill="#EAEEF9"/>
<path d="M213.652 220.971C221.613 216.374 228.814 215.967 234.007 219.02L239.057 221.936L239.053 221.943C233.89 219.117 226.84 219.604 219.063 224.095L213.652 220.971Z" fill="#F7F7FC"/>
<path d="M192.881 288.836C191.008 287.622 189.436 286 188.281 284.09L193.692 287.214C194.847 289.124 196.419 290.747 198.292 291.961L192.881 288.836Z" fill="#A3A9D0"/>
<path d="M188.279 284.095C186.186 280.708 184.996 276.166 184.996 270.613L190.407 273.737C190.407 279.29 191.597 283.832 193.69 287.219L188.279 284.095Z" fill="#5652CC"/>
<path style="mix-blend-mode:multiply" d="M261.293 373.038C261.097 372.702 260.871 372.383 260.617 372.087C259.697 371.174 261.817 369.647 262.773 369.095C262.791 369.095 259.985 367.475 259.985 367.475L251.741 367.483C251.292 366.854 251.049 366.102 251.047 365.329L247.09 365.327C247.09 365.973 246.826 367.415 245.735 368.045C245.488 368.186 245.216 368.279 244.935 368.319C244.375 368.429 243.823 368.56 243.289 368.714C243.266 368.713 243.242 368.709 243.219 368.703C242.684 368.549 242.136 368.418 241.577 368.308C239.811 368.042 239.448 366.097 239.452 365.318L235.496 365.316C235.495 365.961 235.232 367.404 234.14 368.033C233.893 368.174 233.622 368.267 233.34 368.307C232.78 368.417 232.229 368.548 231.695 368.703C229.872 369.095 227.487 368.016 226.536 367.463L223.731 369.084C224.681 369.636 226.782 371.163 225.852 372.074C225.595 372.37 225.365 372.689 225.166 373.027C225.059 373.226 224.892 373.388 224.69 373.49C223.598 374.119 221.109 374.267 219.991 374.267L219.984 376.558C221.329 376.558 224.687 376.773 225.139 377.798C225.334 378.136 225.56 378.455 225.815 378.75C226.735 379.661 224.616 381.19 223.66 381.742L226.447 383.362C226.544 383.306 226.663 383.242 226.793 383.174L226.467 383.362L234.706 383.371C235.146 383.997 235.382 384.744 235.383 385.51L250.931 385.521L254.805 383.368L259.895 383.373L262.703 381.754C261.749 381.201 259.65 379.673 260.579 378.762C260.735 378.578 260.882 378.386 261.019 378.187L263.627 378.19L266.432 376.57C266.435 376.57 266.448 374.28 266.448 374.28C265.005 374.336 261.746 374.064 261.293 373.038Z" fill="url(#paint34_linear_389_3378)"/>
<path d="M226.08 364.864C226.078 363.974 224.51 362.854 223.727 362.398L223.745 369.082C224.53 369.537 226.098 370.657 226.099 371.546L226.08 364.864Z" fill="#F7F7FC"/>
<path d="M251.197 369.081L251.178 362.398C250.385 362.856 248.793 363.985 248.797 364.876L248.814 371.559C248.813 370.667 250.404 369.539 251.197 369.081Z" fill="#BDC1E4"/>
<path d="M232.493 372.546C235.241 370.958 239.676 370.958 242.406 372.545C243.761 373.332 244.44 374.363 244.444 375.396L244.424 368.713C244.421 367.681 243.742 366.65 242.386 365.862C239.657 364.275 235.222 364.275 232.474 365.862C231.093 366.66 230.403 367.706 230.406 368.75L230.425 375.434C230.423 374.389 231.112 373.342 232.493 372.546Z" fill="url(#paint35_linear_389_3378)"/>
<path d="M226.444 376.683L223.656 375.062L223.675 381.745L226.463 383.365L226.444 376.683Z" fill="#D0D4F6"/>
<path d="M251.127 381.745L251.108 375.062L248.301 376.683L248.321 383.365L251.127 381.745Z" fill="#BDC1E4"/>
<path d="M231.641 382.124C232.173 382.278 232.722 382.409 233.282 382.518C235.025 382.78 235.401 384.68 235.404 385.48L235.386 378.797C235.382 377.998 235.007 376.098 233.263 375.836C232.71 375.729 232.163 375.597 231.621 375.441C230.05 374.906 227.406 376.127 226.449 376.68L226.469 383.363C227.425 382.81 230.07 381.588 231.641 382.124Z" fill="url(#paint36_linear_389_3378)"/>
<path d="M240.722 382.788C240.967 382.649 241.237 382.557 241.516 382.518C242.069 382.41 242.617 382.279 243.158 382.124C244.739 381.587 247.37 382.809 248.321 383.362L248.3 376.679C247.351 376.126 244.719 374.905 243.14 375.442C242.604 375.595 242.059 375.726 241.498 375.835C241.218 375.874 240.948 375.966 240.702 376.105C239.625 376.727 239.396 378.148 239.336 378.826L239.355 385.509C239.416 384.832 239.644 383.41 240.722 382.788Z" fill="url(#paint37_linear_389_3378)"/>
<path d="M225.815 372.068C226.735 372.979 224.616 374.507 223.66 375.059L226.447 376.68C227.403 376.127 230.048 374.905 231.62 375.441C232.152 375.595 232.701 375.726 233.261 375.835C235.026 376.1 235.39 378.046 235.383 378.827H239.336C239.397 378.149 239.626 376.728 240.702 376.106C240.948 375.966 241.218 375.875 241.498 375.835C242.051 375.728 242.599 375.597 243.14 375.443C244.72 374.905 247.351 376.127 248.301 376.68L251.108 375.059C250.157 374.507 248.055 372.979 248.985 372.068C249.241 371.771 249.471 371.452 249.672 371.115C249.78 370.916 249.946 370.755 250.148 370.653C251.238 370.023 253.729 369.875 254.841 369.876L254.854 367.585C253.409 367.642 250.151 367.368 249.698 366.343C249.502 366.007 249.276 365.689 249.023 365.393C248.103 364.48 250.222 362.953 251.179 362.401L248.391 360.781C247.434 361.333 244.789 362.555 243.219 362.02C242.684 361.866 242.136 361.734 241.577 361.625C239.811 361.359 239.448 359.414 239.452 358.635L235.496 358.633C235.495 359.279 235.232 360.721 234.14 361.351C233.893 361.492 233.622 361.585 233.34 361.624C232.78 361.734 232.229 361.865 231.695 362.02C229.872 362.412 227.487 361.333 226.536 360.781L223.731 362.401C224.681 362.953 226.782 364.481 225.852 365.392C225.595 365.687 225.365 366.006 225.166 366.344C225.059 366.543 224.892 366.705 224.69 366.807C223.598 367.437 221.109 367.584 219.991 367.584L219.984 369.876C221.329 369.875 224.687 370.091 225.139 371.116C225.334 371.453 225.561 371.772 225.815 372.068ZM232.479 365.86C235.227 364.274 239.661 364.274 242.391 365.86C245.119 367.446 245.107 370.016 242.359 371.603C239.615 373.188 235.176 373.186 232.449 371.601C229.719 370.014 229.734 367.446 232.479 365.86V365.86Z" fill="#EAEEF9"/>
<path d="M223.66 375.059C224.616 374.506 226.735 372.979 225.815 372.068C225.561 371.772 225.335 371.453 225.14 371.115C224.687 370.091 221.329 369.875 219.984 369.875L220.003 376.558C221.234 376.555 222.462 376.687 223.664 376.952L223.66 375.059Z" fill="#D0D4F6"/>
<path d="M239.352 385.507L239.332 378.824H235.379L235.398 385.507L239.352 385.507Z" fill="#BDC1E4"/>
<path d="M254.857 376.561L254.838 369.879C253.726 369.878 251.235 370.026 250.145 370.656C249.943 370.758 249.777 370.919 249.669 371.119C249.469 371.456 249.239 371.774 248.982 372.071C248.052 372.982 250.154 374.511 251.106 375.063L251.111 376.982C252.339 376.699 253.596 376.558 254.857 376.561Z" fill="url(#paint38_linear_389_3378)"/>
<path style="mix-blend-mode:multiply" d="M430.126 329.77C426.654 327.766 422.04 326.842 417.508 326.978H410.402V328.142C409.094 328.547 407.833 329.093 406.643 329.77C400.181 333.528 400.219 339.617 406.721 343.374C407.888 344.034 409.122 344.569 410.402 344.969V346.186H418.924C423.023 346.117 427.085 345.187 430.204 343.375C436.666 339.618 436.635 333.528 430.126 329.77Z" fill="url(#paint39_linear_389_3378)"/>
<path d="M394.883 332.161C394.882 329.757 396.469 327.354 399.646 325.52C402.821 323.687 406.983 322.77 411.146 322.77C415.308 322.77 419.47 323.687 422.645 325.52C425.822 327.354 427.41 329.756 427.411 332.16C427.411 334.563 425.823 336.966 422.645 338.8C419.472 340.633 415.309 341.549 411.148 341.549C406.985 341.549 402.822 340.633 399.647 338.8C396.471 336.966 394.883 334.563 394.883 332.161Z" fill="#FFC16B"/>
<path d="M422.645 338.8C419.472 340.633 415.31 341.549 411.148 341.549C406.985 341.549 402.822 340.633 399.647 338.8C396.471 336.966 394.883 334.563 394.883 332.161V336.796C394.883 339.198 396.471 341.601 399.647 343.434C402.822 345.269 406.985 346.186 411.148 346.186C415.31 346.186 419.472 345.27 422.645 343.435C425.823 341.602 427.411 339.198 427.411 336.796V332.16C427.411 334.563 425.823 336.966 422.645 338.8H422.645Z" fill="url(#paint40_linear_389_3378)"/>
<path d="M401.809 337.551C404.703 339.02 407.903 339.785 411.148 339.785C414.394 339.785 417.593 339.02 420.488 337.551C422.867 336.178 424.146 334.41 424.329 332.611C424.146 330.813 422.867 329.046 420.487 327.672C417.593 326.203 414.393 325.438 411.147 325.438C407.902 325.438 404.702 326.203 401.808 327.672C399.428 329.046 398.149 330.812 397.965 332.61C398.149 334.41 399.428 336.177 401.809 337.551Z" fill="#F9A363"/>
<path d="M401.805 327.674C404.7 326.205 407.9 325.439 411.145 325.439C414.391 325.439 417.591 326.205 420.485 327.674C422.865 329.048 424.144 330.815 424.328 332.613C424.344 332.463 424.352 332.313 424.353 332.162C424.353 330.209 423.065 328.258 420.485 326.77C417.591 325.301 414.391 324.535 411.146 324.535C407.9 324.535 404.7 325.301 401.806 326.77C399.227 328.258 397.938 330.21 397.938 332.162C397.938 332.312 397.947 332.463 397.963 332.612C398.148 330.814 399.426 329.048 401.805 327.674Z" fill="url(#paint41_linear_389_3378)"/>
<path d="M417.652 330.227L418.902 329.505V328.602L417.652 329.323V330.227Z" fill="#D14B5F"/>
<path d="M411.885 331.729C411.674 331.657 411.491 331.522 411.362 331.341C411.232 331.161 411.162 330.944 411.163 330.722C411.163 330.499 411.232 330.283 411.362 330.102C411.492 329.922 411.675 329.786 411.885 329.715C412.426 329.442 413.023 329.299 413.629 329.299C414.235 329.299 414.832 329.442 415.373 329.715C416.336 330.27 416.336 331.174 415.373 331.729L416.957 332.643C418.518 331.741 418.746 330.36 417.648 329.315L418.897 328.594L417.315 327.68L416.066 328.401C415.127 328.082 414.134 327.953 413.144 328.022C412.155 328.091 411.189 328.356 410.303 328.802C409.413 329.315 408.924 329.996 408.925 330.722C408.924 331.447 409.414 332.13 410.303 332.642C411.263 333.198 411.263 334.101 410.303 334.657C409.762 334.931 409.164 335.073 408.558 335.073C407.952 335.073 407.355 334.931 406.814 334.657C405.852 334.101 405.852 333.198 406.814 332.643L405.232 331.729C403.67 332.631 403.441 334.012 404.538 335.056L403.387 335.721L404.97 336.635L406.122 335.97C407.061 336.289 408.054 336.418 409.044 336.35C410.033 336.281 410.999 336.017 411.885 335.572C413.719 334.512 413.719 332.788 411.885 331.729Z" fill="#FFC16B"/>
<path d="M403.387 336.627L404.97 337.542V336.637L403.387 335.723V336.627Z" fill="#F48A71"/>
<path d="M404.973 337.547L406.125 336.881V335.977L404.973 336.642V337.547Z" fill="#D14B5F"/>
<path d="M415.375 332.638L416.959 333.552V332.649L415.375 331.734V332.638Z" fill="#F48A71"/>
<path d="M406.821 333.548V332.645C406.138 333.039 405.943 333.607 406.228 334.103C406.374 333.869 406.578 333.678 406.821 333.548Z" fill="#D14B5F"/>
<path d="M403.863 333.602L403.865 334.62L403.867 334.618C403.88 334.867 403.947 335.11 404.063 335.331L404.543 335.054C404.333 334.874 404.165 334.652 404.048 334.402C403.931 334.152 403.869 333.88 403.866 333.604L403.863 333.602Z" fill="#F48A71"/>
<path d="M410.307 333.547C410.55 333.677 410.754 333.869 410.9 334.102C411.185 333.606 410.989 333.037 410.307 332.643C409.418 332.131 408.929 331.448 408.93 330.723V331.627C408.929 332.352 409.419 333.034 410.307 333.547Z" fill="#EC6675"/>
<path d="M418.33 330.723C418.294 331.136 418.148 331.532 417.907 331.87C417.667 332.208 417.34 332.475 416.961 332.644V333.548C417.902 333.005 418.354 332.287 418.329 331.574L418.332 331.577V330.723H418.33Z" fill="#D14B5F"/>
<path d="M411.892 335.573C411.006 336.018 410.04 336.283 409.051 336.351C408.061 336.419 407.068 336.29 406.129 335.971V336.876C407.068 337.195 408.061 337.324 409.051 337.255C410.04 337.187 411.006 336.922 411.892 336.476C412.268 336.308 412.594 336.043 412.835 335.709C413.077 335.374 413.226 334.982 413.267 334.572V334.574V333.656C413.228 334.069 413.08 334.464 412.839 334.8C412.597 335.137 412.27 335.404 411.892 335.573Z" fill="url(#paint42_linear_389_3378)"/>
<path d="M415.379 329.713C414.838 329.439 414.241 329.297 413.635 329.297C413.029 329.297 412.432 329.439 411.891 329.713C411.692 329.802 411.52 329.942 411.393 330.119C411.266 330.295 411.188 330.503 411.168 330.72C411.17 330.879 411.214 331.035 411.296 331.172C411.443 330.938 411.648 330.747 411.891 330.617C412.432 330.343 413.029 330.2 413.635 330.2C414.241 330.2 414.838 330.343 415.379 330.617C415.622 330.747 415.826 330.938 415.972 331.172C416.259 330.677 416.061 330.107 415.379 329.713Z" fill="url(#paint43_linear_389_3378)"/>
<path d="M349.789 228.742C349.73 229.801 349.423 230.832 348.892 231.75C348.361 232.669 347.623 233.451 346.735 234.032L297.073 262.703C295.394 263.673 294.02 262.88 294.02 260.94V215.883C294.079 214.824 294.386 213.794 294.917 212.875C295.447 211.956 296.186 211.175 297.073 210.594L346.735 181.922C348.415 180.952 349.789 181.745 349.789 183.685L349.789 228.742Z" fill="#F7F7FC"/>
<path d="M294.018 260.939V215.882C294.077 214.823 294.385 213.792 294.915 212.874C295.445 211.955 296.184 211.174 297.072 210.593L346.733 181.92C347.041 181.698 347.403 181.561 347.781 181.523C348.159 181.486 348.54 181.55 348.886 181.709L347.207 180.74C346.86 180.576 346.477 180.509 346.095 180.544C345.714 180.58 345.35 180.718 345.04 180.943L295.378 209.614C294.49 210.195 293.752 210.977 293.221 211.896C292.691 212.814 292.384 213.845 292.325 214.904V259.96C292.283 260.345 292.348 260.734 292.512 261.085C292.677 261.436 292.934 261.735 293.256 261.949L294.884 262.889C294.583 262.666 294.345 262.37 294.193 262.028C294.041 261.686 293.981 261.311 294.018 260.939Z" fill="url(#paint44_linear_389_3378)"/>
<g style="mix-blend-mode:multiply">
<path d="M301.722 231.218L299.414 232.55V229.885L301.722 228.553V231.218ZM306.55 228.43L304.242 229.763V227.098L306.55 225.765V228.43ZM311.377 225.643L309.069 226.976V224.311L311.377 222.979V225.643ZM316.205 222.856L313.897 224.189V221.524L316.205 220.191V222.856Z" fill="#EAEEF9"/>
<path d="M321.03 220.071L318.723 221.403V218.738L321.03 217.406V220.071Z" fill="#BDC1E4"/>
<path d="M325.858 217.284L323.551 218.617V215.952L325.858 214.619V217.284ZM330.686 214.497L328.378 215.829V213.165L330.686 211.832V214.497Z" fill="#F48A71"/>
<path d="M301.722 236.794L299.414 238.126V235.461L301.722 234.129V236.794Z" fill="#BDC1E4"/>
<path d="M306.55 234.009L304.242 235.341V232.676L306.55 231.344V234.009Z" fill="#7F7FF4"/>
<path d="M311.378 231.219L309.07 232.552V229.887L311.378 228.554V231.219ZM316.206 228.432L313.898 229.764V227.1L316.206 225.767V228.432ZM321.033 225.645L318.726 226.977V224.313L321.033 222.98V225.645Z" fill="#BDC1E4"/>
<path d="M325.858 222.858L323.551 224.191V221.526L325.858 220.194V222.858ZM330.686 220.071L328.378 221.403V218.738L330.686 217.406V220.071Z" fill="#F48A71"/>
<path d="M301.722 242.37L299.414 243.703V241.038L301.722 239.706V242.37ZM306.55 239.583L304.242 240.915V238.25L306.55 236.918V239.583ZM311.377 236.795L309.069 238.128V235.463L311.377 234.131V236.795ZM316.205 234.009L313.897 235.341V232.676L316.205 231.344V234.009Z" fill="#BDC1E4"/>
<path d="M321.03 231.22L318.723 232.552V229.887L321.03 228.555V231.22Z" fill="#7F7FF4"/>
<path d="M325.858 228.432L323.551 229.764V227.1L325.858 225.767V228.432ZM330.686 225.645L328.378 226.977V224.313L330.686 222.98V225.645Z" fill="#F48A71"/>
<path d="M301.722 247.942L299.414 249.275V246.61L301.722 245.277V247.942ZM306.55 245.155L304.242 246.487V243.823L306.55 242.49V245.155ZM311.377 242.368L309.069 243.701V241.036L311.377 239.703V242.368ZM316.205 239.581L313.897 240.913V238.248L316.205 236.916V239.581ZM321.032 236.793L318.725 238.126V235.461L321.032 234.129V236.793Z" fill="#BDC1E4"/>
<path d="M325.858 234.007L323.551 235.339V232.674L325.858 231.342V234.007ZM330.686 231.22L328.378 232.552V229.887L330.686 228.555V231.22Z" fill="#F48A71"/>
<path d="M301.722 253.516L299.414 254.849V252.184L301.722 250.852V253.516Z" fill="#7F7FF4"/>
<path d="M306.55 250.728L304.242 252.06V249.395L306.55 248.063V250.728ZM311.378 247.941L309.07 249.273V246.608L311.378 245.276V247.941ZM316.205 245.153L313.898 246.485V243.821L316.205 242.488V245.153Z" fill="#BDC1E4"/>
<path d="M321.03 242.368L318.723 243.701V241.036L321.03 239.703V242.368ZM325.858 239.581L323.55 240.913V238.248L325.858 236.916V239.581ZM330.685 236.793L328.378 238.126V235.461L330.685 234.129V236.793Z" fill="#EAEEF9"/>
</g>
<path d="M311.377 210.688L299.414 217.594V220.966L311.377 214.059V210.688Z" fill="#D0D4F6"/>
<path d="M345.346 216.113L335.691 221.688V225.834L345.346 220.26V216.113ZM345.346 223.326L335.691 228.9V233.047L345.346 227.473V223.326Z" fill="#BDC1E4"/>
<g style="mix-blend-mode:multiply">
<path d="M343.562 199.436C343.863 199.942 344.011 200.524 343.988 201.113C343.923 202.317 343.575 203.488 342.972 204.532C342.369 205.576 341.529 206.463 340.519 207.122C338.603 208.228 337.05 207.331 337.05 205.119C337.115 203.915 337.463 202.744 338.066 201.699C338.668 200.655 339.509 199.768 340.519 199.11V196.617C337.41 198.412 334.891 202.776 334.891 206.365C334.891 209.954 337.41 211.409 340.519 209.615C343.627 207.82 346.147 203.456 346.147 199.867C346.185 198.912 345.945 197.967 345.456 197.146L343.562 199.436Z" fill="#57ECEA"/>
<path d="M343.563 199.439L345.457 197.149C344.501 195.687 342.649 195.39 340.52 196.62V199.113C341.832 198.355 342.974 198.538 343.563 199.439V199.439Z" fill="#4141AA"/>
</g>
<path d="M252.752 321.155C251.046 320.169 251.046 318.558 252.752 317.574L299.536 290.563C300.498 290.077 301.56 289.824 302.637 289.824C303.715 289.824 304.777 290.077 305.738 290.563L327.082 302.885C328.787 303.87 328.787 305.481 327.082 306.466L280.297 333.477C279.336 333.963 278.273 334.216 277.196 334.216C276.119 334.216 275.057 333.963 274.095 333.477L252.752 321.155Z" fill="#F7F7FC"/>
<path d="M319.23 304.922C319.23 304.933 319.232 304.942 319.232 304.953L319.23 304.922ZM300.726 298.178L302.728 297.023L300.726 295.867L298.725 297.023L300.726 298.178ZM297.357 300.124L299.358 298.969L297.357 297.813L295.356 298.969L297.357 300.124ZM293.987 302.069L295.987 300.914L293.987 299.759L291.985 300.914L293.987 302.069ZM290.617 304.015L292.618 302.861L290.617 301.704L288.616 302.861L290.617 304.015ZM287.246 305.961L289.248 304.806L287.246 303.651L285.246 304.806L287.246 305.961ZM283.877 307.907L285.878 306.751L283.877 305.596L281.876 306.751L283.877 307.907ZM280.507 309.853L282.507 308.697L280.507 307.541L278.506 308.697L280.507 309.853ZM277.137 311.798L279.138 310.643L277.137 309.488L275.136 310.643L277.137 311.798ZM273.767 313.744L275.768 312.588L273.767 311.433L271.767 312.588L273.767 313.744ZM270.397 315.689L272.398 314.534L270.397 313.379L268.396 314.534L270.397 315.689ZM267.028 317.635L269.028 316.48L267.028 315.325L265.026 316.48L267.028 317.635ZM263.657 319.581L265.658 318.425L263.657 317.27L261.656 318.425L263.657 319.581ZM302.5 301.045L306.098 298.969L304.097 297.813L300.499 299.891L302.5 301.045ZM304.361 303.701L309.327 300.833L307.326 299.678L302.36 302.546L304.361 303.701ZM306.361 306.437L312.697 302.779L310.696 301.623L304.361 305.282L306.361 306.437ZM313.178 307.211L316.775 305.134L314.066 303.569L310.469 305.647L313.178 307.211ZM308.212 310.078L311.808 308.001L309.1 306.437L305.503 308.514L308.212 310.078ZM303.245 312.945L306.842 310.868L304.134 309.304L300.537 311.381L303.245 312.945ZM286.122 322.832L289.719 320.755L287.009 319.191L283.412 321.268L286.122 322.832ZM277.705 327.69L284.761 323.618L282.052 322.053L274.996 326.127L277.705 327.69ZM291.079 319.969L301.876 313.736L299.166 312.172L288.37 318.405L291.079 319.969ZM298.187 303.536L301.131 301.836L299.13 300.681L296.186 302.381L298.187 303.536ZM300.048 306.191L302.992 304.492L300.991 303.336L298.047 305.036L300.048 306.191ZM301.957 308.874L304.901 307.174L302.9 306.019L299.956 307.718L301.957 308.874ZM297.643 311.364L300.588 309.664L298.587 308.509L295.643 310.209L297.643 311.364ZM293.33 313.854L296.274 312.155L294.274 310.999L291.33 312.699L293.33 313.854ZM289.018 316.344L291.962 314.644L289.961 313.489L287.017 315.189L289.018 316.344ZM284.705 318.834L287.649 317.135L285.648 315.98L282.704 317.679L284.705 318.834ZM280.392 321.324L283.335 319.624L281.335 318.469L278.391 320.169L280.392 321.324ZM273.534 325.283L279.023 322.115L277.022 320.96L271.534 324.128L273.534 325.283ZM295.735 308.682L298.679 306.982L296.678 305.827L293.734 307.526L295.735 308.682ZM291.422 311.171L294.366 309.472L292.365 308.316L289.421 310.016L291.422 311.171ZM287.109 313.662L290.053 311.962L288.052 310.806L285.108 312.506L287.109 313.662ZM282.796 316.151L285.74 314.452L283.739 313.296L280.796 314.996L282.796 316.151ZM278.483 318.642L281.427 316.942L279.426 315.786L276.482 317.486L278.483 318.642ZM270.257 323.39L277.114 319.432L275.113 318.277L268.256 322.235L270.257 323.39ZM293.874 306.026L296.818 304.326L294.817 303.172L291.873 304.871L293.874 306.026ZM289.562 308.516L292.505 306.816L290.504 305.661L287.56 307.361L289.562 308.516ZM285.248 311.006L288.192 309.307L286.191 308.151L283.247 309.851L285.248 311.006ZM280.935 313.497L283.879 311.797L281.878 310.641L278.935 312.341L280.935 313.497ZM276.622 315.986L279.566 314.287L277.565 313.132L274.622 314.831L276.622 315.986ZM272.309 318.476L275.253 316.777L273.252 315.621L270.309 317.321L272.309 318.476ZM267.027 321.526L270.94 319.267L268.939 318.112L265.026 320.371L267.027 321.526Z" fill="#D0D4F6"/>
<path d="M327.081 306.466L280.297 333.477C279.335 333.963 278.273 334.216 277.196 334.216C276.118 334.216 275.056 333.963 274.095 333.477L252.751 321.155C252.398 320.997 252.094 320.748 251.869 320.434C251.645 320.119 251.508 319.75 251.473 319.366V320.719C251.506 321.106 251.641 321.477 251.866 321.793C252.091 322.109 252.397 322.359 252.751 322.517L274.095 334.84C275.056 335.326 276.118 335.579 277.196 335.579C278.273 335.579 279.335 335.326 280.297 334.84L327.081 307.829C327.441 307.67 327.749 307.416 327.974 307.093C328.199 306.771 328.332 306.393 328.357 306.001H328.36V304.676C328.326 305.061 328.189 305.43 327.964 305.745C327.739 306.059 327.434 306.308 327.081 306.466Z" fill="#BDC1E4"/>
<path d="M249.645 275.056C249.705 273.981 250.017 272.934 250.556 272.001C251.094 271.069 251.844 270.275 252.746 269.685L299.531 242.674C301.237 241.689 302.632 242.495 302.632 244.464V285.189C302.571 286.264 302.259 287.311 301.721 288.244C301.182 289.176 300.432 289.97 299.531 290.56L252.746 317.571C251.04 318.555 249.645 317.75 249.645 315.78L249.645 275.056Z" fill="url(#paint45_linear_389_3378)"/>
<path style="mix-blend-mode:screen" d="M252.745 317.574L299.53 290.563C300.431 289.973 301.182 289.179 301.72 288.246C302.259 287.313 302.571 286.267 302.631 285.191V247.617C298.441 250.036 300.25 260.866 297.063 262.706C294.824 263.999 294.307 258.149 291.033 260.038C287.588 262.028 286.21 278.389 282.334 280.627C279.233 282.418 278.802 277.289 275.716 279.071C271.582 281.458 271.653 292.682 267.604 295.019C263.383 297.456 260.111 281.55 256.14 283.842C253.908 285.131 251.324 293.388 249.645 297.911V315.783C249.645 317.753 251.04 318.558 252.745 317.574Z" fill="url(#paint46_linear_389_3378)"/>
<g style="mix-blend-mode:screen">
<path d="M276.237 301.203L275.203 301.799V279.37L276.237 278.773V301.203Z" fill="#00D6DC"/>
</g>
<path d="M276.746 279.662C277.313 278.68 277.313 277.62 276.746 277.292C276.179 276.965 275.261 277.496 274.694 278.477C274.127 279.458 274.127 280.519 274.694 280.846C275.261 281.174 276.18 280.643 276.746 279.662Z" fill="white"/>
<path d="M260.373 270.538L254.559 273.895V271.642L260.373 268.285V270.538ZM259.826 273.771L254.559 276.812V275.372L259.826 272.33V273.771Z" fill="#4141AA"/>
<path d="M249.648 315.781V275.057C249.708 273.981 250.02 272.935 250.559 272.002C251.097 271.069 251.848 270.276 252.749 269.686L299.534 242.675C299.844 242.451 300.208 242.313 300.589 242.274C300.97 242.235 301.354 242.296 301.703 242.452L300.081 241.515L300.078 241.519C299.512 241.156 298.714 241.181 297.831 241.692L251.046 268.703C250.145 269.293 249.395 270.086 248.856 271.019C248.318 271.952 248.006 272.998 247.945 274.074V314.798C247.945 315.829 248.33 316.536 248.938 316.84L250.485 317.732C250.194 317.503 249.965 317.204 249.818 316.863C249.672 316.523 249.614 316.151 249.648 315.782L249.648 315.781Z" fill="url(#paint47_linear_389_3378)"/>
<path d="M308.636 362.14C308.636 357.127 305.46 356.984 305.46 356.984C303.897 356.87 302.368 356.476 300.944 355.822C298.188 354.677 294.302 355.119 296.474 359.126C296.494 359.177 296.518 359.227 296.547 359.273C296.728 359.534 296.97 359.747 297.251 359.893L304.193 363.965C305.251 364.568 308.613 363.172 308.636 362.14Z" fill="url(#paint48_linear_389_3378)"/>
<path d="M308.619 361.688V361.685C308.558 362.718 305.243 364.087 304.193 363.488L297.252 359.415C296.904 359.21 296.576 358.971 296.273 358.703C296.339 358.842 296.393 358.974 296.474 359.123C296.494 359.174 296.519 359.224 296.548 359.27C296.729 359.531 296.97 359.743 297.252 359.89L304.193 363.961C305.184 364.527 308.195 363.337 308.593 362.337C308.61 362.27 308.62 362.202 308.624 362.133C308.631 361.985 308.63 361.836 308.619 361.688Z" fill="#20196F"/>
<path d="M307.35 356.324C306.103 356.488 304.868 356.732 303.653 357.055C303.631 357.321 303.543 357.577 303.397 357.8C303.367 357.832 303.343 357.864 303.317 357.898L303.315 357.897C302.748 358.294 302.17 358.918 303.517 359.764C303.876 360.03 304.318 360.158 304.763 360.127C305.208 360.095 305.627 359.906 305.945 359.592C306.12 359.23 306.391 358.923 306.728 358.704C306.954 358.549 307.209 358.441 307.478 358.386C307.479 358.363 307.482 358.34 307.487 358.317C307.487 358.317 307.695 356.324 307.35 356.324Z" fill="white"/>
<path d="M334.409 348.947C333.12 344.288 332.548 339.358 331.287 333.888C328.276 333.289 304.242 321.616 300.998 327.898C300.884 328.128 300.83 328.384 300.84 328.64C299.689 334.49 303.54 357.358 303.54 357.358H303.545C303.589 357.491 303.659 357.614 303.751 357.72C303.843 357.826 303.955 357.912 304.081 357.974C304.505 358.189 304.973 358.301 305.449 358.301C305.924 358.301 306.392 358.189 306.816 357.974C307.159 357.776 307.443 357.521 307.474 357.262H307.482C307.482 357.262 309.155 343.658 308.643 337.64C316.903 344.048 329.422 350.609 334.409 348.947Z" fill="#20196F"/>
<path d="M298.782 368.878C298.782 363.865 295.605 363.721 295.605 363.721C294.043 363.607 292.514 363.214 291.09 362.561C288.333 361.415 284.446 361.858 286.618 365.864C286.639 365.915 286.664 365.965 286.693 366.012C286.875 366.272 287.116 366.484 287.398 366.63L294.338 370.702C295.396 371.306 298.757 369.91 298.782 368.878Z" fill="url(#paint49_linear_389_3378)"/>
<path d="M298.762 368.434V368.431C298.702 369.463 295.388 370.833 294.338 370.234L287.397 366.163C287.049 365.956 286.721 365.718 286.418 365.449C286.482 365.587 286.537 365.719 286.618 365.869C286.639 365.92 286.664 365.97 286.693 366.017C286.874 366.277 287.116 366.489 287.397 366.635L294.338 370.707C295.328 371.273 298.34 370.084 298.737 369.083C298.754 369.016 298.764 368.947 298.768 368.879C298.776 368.73 298.775 368.582 298.762 368.434Z" fill="#20196F"/>
<path d="M297.491 363.059C296.245 363.222 295.01 363.467 293.794 363.79C293.771 364.056 293.683 364.312 293.537 364.536C293.508 364.568 293.483 364.6 293.457 364.634L293.455 364.632C292.888 365.028 292.311 365.654 293.658 366.5C294.017 366.765 294.459 366.894 294.904 366.862C295.349 366.831 295.768 366.641 296.085 366.327C296.261 365.966 296.531 365.658 296.868 365.438C297.094 365.283 297.35 365.175 297.619 365.122C297.619 365.098 297.622 365.075 297.627 365.053C297.627 365.053 297.835 363.059 297.491 363.059Z" fill="white"/>
<path d="M290.984 335.375C289.833 341.225 293.686 364.093 293.686 364.093H293.69C293.734 364.226 293.804 364.349 293.896 364.454C293.988 364.56 294.1 364.646 294.226 364.708C294.65 364.923 295.118 365.035 295.593 365.035C296.068 365.035 296.537 364.923 296.961 364.708C297.304 364.51 297.587 364.256 297.62 363.998H297.626C297.626 363.998 299.299 350.393 298.787 344.374C296.008 342.316 290.985 338.905 290.985 335.375H290.984Z" fill="url(#paint50_linear_389_3378)"/>
<path style="mix-blend-mode:multiply" d="M367.077 357.617H330.883L366.382 378.113L330.883 398.61H367.077L402.574 378.113L367.077 357.617Z" fill="url(#paint51_linear_389_3378)"/>
<path d="M330.883 398.605L366.382 378.107V351.582L330.883 372.079V398.605Z" fill="#BBC0E6"/>
<path d="M330.876 398.606L295.379 378.111V351.586L330.876 372.08V398.606Z" fill="#CED3F8"/>
<path d="M330.876 372.082L295.379 351.588L330.876 331.094L366.375 351.585L330.876 372.082Z" fill="#F1F1F6"/>
<path style="mix-blend-mode:multiply" d="M313.371 315.747C312.559 315.052 312.651 315.168 311.735 314.462C311.678 314.292 311.648 314.115 311.646 313.936C311.47 313.849 311.28 313.792 311.085 313.768C310.522 313.823 309.953 313.776 309.406 313.628C308.791 313.471 307.455 309.78 304.293 309.964C305.172 310.669 306.348 312.13 306.102 311.976C305.884 311.827 305.622 311.759 305.36 311.781C305.097 311.803 304.851 311.916 304.662 312.099C305.784 312.978 307.053 313.651 308.411 314.084C308.958 314.231 309.526 314.279 310.089 314.224C310.284 314.248 310.474 314.304 310.65 314.391C310.653 314.57 310.683 314.748 310.739 314.917C311.312 315.364 311.876 315.822 312.429 316.293C312.575 316.208 313.217 315.838 313.371 315.747Z" fill="url(#paint52_linear_389_3378)"/>
<path style="mix-blend-mode:multiply" d="M296.961 320.084C296.917 319.949 296.89 319.808 296.88 319.666C293.903 319.848 293.105 317.841 292.204 316.935C291.301 316.029 291.094 315.71 290.083 315.71C289.072 315.71 288.301 314.905 289.266 314.299C289.503 314.15 289.769 314.01 290.017 313.887C289.954 313.909 289.892 313.934 289.831 313.962C289.296 314.195 288.774 314.459 288.27 314.754C287.305 315.361 288.077 316.166 289.087 316.166C290.099 316.166 290.305 316.485 291.209 317.391C292.11 318.296 292.907 320.304 295.884 320.122C295.894 320.264 295.922 320.405 295.966 320.54C297.764 321.928 298.158 322.452 299.718 323.623L300.781 323.029C299.252 321.869 298.725 321.445 296.961 320.084Z" fill="url(#paint53_linear_389_3378)"/>
<path d="M320.891 320.633C321.84 320.848 322.817 320.911 323.786 320.819C324.032 320.797 324.274 320.75 324.51 320.678C323.991 321.008 323.402 321.213 322.791 321.276C321.941 321.353 321.085 321.312 320.246 321.155C320.459 320.984 320.673 320.813 320.891 320.633Z" fill="url(#paint54_linear_389_3378)"/>
<path d="M321.436 340.622C318.424 340.023 294.391 328.351 291.147 334.632C291.033 334.862 290.979 335.118 290.99 335.374H290.989C290.989 338.905 296.012 342.315 298.791 344.374C307.052 350.782 319.572 357.344 324.558 355.681C332.632 352.987 336.695 350.86 339.264 345.368C340.108 343.566 340.284 338.516 340.284 336.356C331.354 331.932 324.374 335.919 321.436 340.622Z" fill="url(#paint55_linear_389_3378)"/>
<path d="M304.427 308.841C304.93 308.546 305.451 308.281 305.987 308.049C306.486 307.875 307.016 307.805 307.543 307.842C308.071 307.878 308.585 308.022 309.056 308.264C309.503 308.574 312.28 310.279 312.808 311.38C312.808 311.38 313.851 311.919 314.256 312.127L312.731 314.46C312.209 314.165 311.654 313.933 311.078 313.769C310.514 313.824 309.946 313.777 309.399 313.629C308.041 313.195 306.772 312.524 305.65 311.644C306.392 310.974 307.213 311.717 307.769 312.014C307.656 311.82 307.52 311.64 307.365 311.478C306.462 310.571 306.254 310.252 305.244 310.252C304.233 310.252 303.461 309.447 304.427 308.841Z" fill="#FCD1A9"/>
<path d="M311.726 314.459C311.19 312.863 313.087 311.458 314.208 311.564C319.447 313.848 321.988 315.207 323.779 314.678C331.314 311.156 328.243 320.422 323.779 320.813C318.555 321.272 315.904 317.682 311.726 314.459Z" fill="url(#paint56_linear_389_3378)"/>
<path d="M333.543 302.688C337.332 303.517 342.081 305.939 338.922 312.544C336.765 317.053 333.543 302.688 333.543 302.688Z" fill="#D14B5F"/>
<path d="M332.85 346.804C325.429 350.969 315.35 349.448 313.961 343.596C319.014 326.642 320.151 315.371 320.031 308.477C323.305 305.95 326.094 303.703 328.492 303.165C330.997 302.605 334.311 302.171 335.772 303.571C340.328 309.716 339.14 320.341 340.279 336.355C339.495 341.481 336.505 344.755 332.849 346.804H332.85Z" fill="url(#paint57_linear_389_3378)"/>
<path d="M331.952 302.99C330.688 301.798 330.304 299.872 330.094 297.691C330.229 296.423 330.137 295.142 329.821 293.907C328.639 289.232 324.714 286.193 321.054 287.119C317.395 288.044 315.386 292.583 316.567 297.256C317.069 299.14 318.132 300.827 319.616 302.092C321.1 303.356 322.934 304.139 324.873 304.335C325.043 304.705 324.402 305.236 323.807 305.62C326.603 306.363 329.195 304.897 330.571 304.148C331.139 303.913 331.621 303.509 331.952 302.99ZM299.295 317.441C298.889 317.232 298.227 316.886 298.227 316.886C298.215 316.65 297.388 314.027 295.153 313.369C294.693 314.066 295.484 314.631 296.129 315.284C295.353 314.663 294.343 314.042 293.896 313.731C293.426 313.489 292.911 313.345 292.384 313.308C291.856 313.271 291.327 313.342 290.828 313.515C290.292 313.748 289.77 314.012 289.267 314.308C288.301 314.914 289.073 315.719 290.083 315.719C291.094 315.719 291.302 316.038 292.205 316.944C293.107 317.851 293.905 319.865 296.896 319.674C297.141 319.691 297.376 319.778 297.571 319.927L299.295 317.441Z" fill="#FCD1A9"/>
<path d="M296.964 320.09C296.429 318.494 298.326 317.088 299.446 317.195C304.685 319.478 307.227 320.837 309.018 320.308C316.552 316.787 318.164 310.207 320.033 308.477C324.237 305.486 329.298 312.105 323.785 318.07C317.967 323.519 313.481 326.053 309.018 326.444C303.793 326.902 301.142 323.313 296.964 320.09Z" fill="url(#paint58_linear_389_3378)"/>
<path d="M330.764 292.999C330.764 292.995 330.77 292.997 330.768 292.991C329.983 290.655 328.839 288.639 326.89 287.345C321.774 283.948 319.673 284.284 319.184 285.063C313.69 284.393 312.466 287.308 316.226 291.469C317.297 292.895 316.814 296.839 318.718 297.415C318.497 296.52 319.872 293.974 320.876 297.946C320.984 298.373 320.687 298.537 321.11 299.032C321.536 299.526 323.698 300.496 325.19 301.384C327.271 302.626 327.871 300.888 330.691 300.493C330.448 299.609 330.479 298.673 330.779 297.807C331.076 296.218 331.071 294.586 330.764 292.999Z" fill="#20196F"/>
<defs>
<linearGradient id="paint0_linear_389_3378" x1="73.7198" y1="348.076" x2="141.52" y2="230.643" gradientUnits="userSpaceOnUse">
<stop stop-color="#6A6AE2"/>
<stop offset="0.245" stop-color="#4141AA"/>
<stop offset="0.347" stop-color="#6A6AE2"/>
<stop offset="0.412" stop-color="#4141AA"/>
<stop offset="0.438" stop-color="#4343AD"/>
<stop offset="1" stop-color="#6A6AE2"/>
</linearGradient>
<linearGradient id="paint1_linear_389_3378" x1="46.7533" y1="334.003" x2="270.311" y2="334.003" gradientUnits="userSpaceOnUse">
<stop stop-color="#D3D8F2"/>
<stop offset="0.317" stop-color="#E0E4F6"/>
<stop offset="0.834" stop-color="white"/>
</linearGradient>
<linearGradient id="paint2_linear_389_3378" x1="64.1562" y1="340.417" x2="292.363" y2="340.417" gradientUnits="userSpaceOnUse">
<stop stop-color="#E5CEBE"/>
<stop offset="0.029" stop-color="#E7D1C2"/>
<stop offset="0.282" stop-color="#F4EAE3"/>
<stop offset="0.492" stop-color="#FCF9F8"/>
<stop offset="0.633" stop-color="white"/>
</linearGradient>
<linearGradient id="paint3_linear_389_3378" x1="175.792" y1="270.127" x2="191.01" y2="243.768" gradientUnits="userSpaceOnUse">
<stop stop-color="#F3B378"/>
<stop offset="1" stop-color="#EC6675"/>
</linearGradient>
<linearGradient id="paint4_linear_389_3378" x1="112.633" y1="320.735" x2="151.234" y2="253.875" gradientUnits="userSpaceOnUse">
<stop stop-color="#F3B378"/>
<stop offset="0.509" stop-color="#EC6675"/>
<stop offset="1" stop-color="#F3B378"/>
</linearGradient>
<linearGradient id="paint5_linear_389_3378" x1="49.3356" y1="369.995" x2="90.6177" y2="298.492" gradientUnits="userSpaceOnUse">
<stop stop-color="#EC6675"/>
<stop offset="1" stop-color="#F3B378"/>
</linearGradient>
<linearGradient id="paint6_linear_389_3378" x1="101.126" y1="241.976" x2="141.482" y2="218.58" gradientUnits="userSpaceOnUse">
<stop stop-color="#FFAF6D"/>
<stop offset="1" stop-color="#FF826A"/>
</linearGradient>
<linearGradient id="paint7_linear_389_3378" x1="114.737" y1="231.96" x2="77.027" y2="231.96" gradientUnits="userSpaceOnUse">
<stop stop-color="#FFAF6D"/>
<stop offset="1" stop-color="#FF826A"/>
</linearGradient>
<linearGradient id="paint8_linear_389_3378" x1="111.343" y1="255.691" x2="77.027" y2="255.691" gradientUnits="userSpaceOnUse">
<stop stop-color="#FFAF6D"/>
<stop offset="1" stop-color="#FF826A"/>
</linearGradient>
<linearGradient id="paint9_linear_389_3378" x1="363.31" y1="241.873" x2="391.623" y2="192.835" gradientUnits="userSpaceOnUse">
<stop stop-color="#34318F"/>
<stop offset="1" stop-color="#7F7FF4"/>
</linearGradient>
<linearGradient id="paint10_linear_389_3378" x1="375.53" y1="96.1159" x2="375.532" y2="96.1125" gradientUnits="userSpaceOnUse">
<stop offset="0.363" stop-color="#5555C6"/>
<stop offset="0.409" stop-color="#7F7FF4"/>
</linearGradient>
<linearGradient id="paint11_linear_389_3378" x1="257.77" y1="234.564" x2="347.163" y2="79.7314" gradientUnits="userSpaceOnUse">
<stop offset="0.363" stop-color="#5555C6"/>
<stop offset="0.409" stop-color="#7F7FF4"/>
</linearGradient>
<linearGradient id="paint12_linear_389_3378" x1="271.74" y1="217.956" x2="253.965" y2="187.17" gradientUnits="userSpaceOnUse">
<stop stop-color="#6A6AE2"/>
<stop offset="0.059" stop-color="#776AD7"/>
<stop offset="0.267" stop-color="#A168B4"/>
<stop offset="0.47" stop-color="#C26799"/>
<stop offset="0.664" stop-color="#D96785"/>
<stop offset="0.845" stop-color="#E76679"/>
<stop offset="1" stop-color="#EC6675"/>
</linearGradient>
<linearGradient id="paint13_linear_389_3378" x1="282.334" y1="211.84" x2="269.857" y2="190.232" gradientUnits="userSpaceOnUse">
<stop stop-color="#6A6AE2"/>
<stop offset="0.059" stop-color="#776AD7"/>
<stop offset="0.267" stop-color="#A168B4"/>
<stop offset="0.47" stop-color="#C26799"/>
<stop offset="0.664" stop-color="#D96785"/>
<stop offset="0.845" stop-color="#E76679"/>
<stop offset="1" stop-color="#EC6675"/>
</linearGradient>
<linearGradient id="paint14_linear_389_3378" x1="294.408" y1="204.869" x2="277.64" y2="175.827" gradientUnits="userSpaceOnUse">
<stop stop-color="#6A6AE2"/>
<stop offset="0.059" stop-color="#776AD7"/>
<stop offset="0.267" stop-color="#A168B4"/>
<stop offset="0.47" stop-color="#C26799"/>
<stop offset="0.664" stop-color="#D96785"/>
<stop offset="0.845" stop-color="#E76679"/>
<stop offset="1" stop-color="#EC6675"/>
</linearGradient>
<linearGradient id="paint15_linear_389_3378" x1="310.22" y1="195.74" x2="293.452" y2="166.699" gradientUnits="userSpaceOnUse">
<stop stop-color="#6A6AE2"/>
<stop offset="0.059" stop-color="#776AD7"/>
<stop offset="0.267" stop-color="#A168B4"/>
<stop offset="0.47" stop-color="#C26799"/>
<stop offset="0.664" stop-color="#D96785"/>
<stop offset="0.845" stop-color="#E76679"/>
<stop offset="1" stop-color="#EC6675"/>
</linearGradient>
<linearGradient id="paint16_linear_389_3378" x1="320.58" y1="189.758" x2="299.88" y2="153.906" gradientUnits="userSpaceOnUse">
<stop stop-color="#6A6AE2"/>
<stop offset="0.059" stop-color="#776AD7"/>
<stop offset="0.267" stop-color="#A168B4"/>
<stop offset="0.47" stop-color="#C26799"/>
<stop offset="0.664" stop-color="#D96785"/>
<stop offset="0.845" stop-color="#E76679"/>
<stop offset="1" stop-color="#EC6675"/>
</linearGradient>
<linearGradient id="paint17_linear_389_3378" x1="330.978" y1="183.752" x2="317.061" y2="159.649" gradientUnits="userSpaceOnUse">
<stop stop-color="#6A6AE2"/>
<stop offset="0.059" stop-color="#776AD7"/>
<stop offset="0.267" stop-color="#A168B4"/>
<stop offset="0.47" stop-color="#C26799"/>
<stop offset="0.664" stop-color="#D96785"/>
<stop offset="0.845" stop-color="#E76679"/>
<stop offset="1" stop-color="#EC6675"/>
</linearGradient>
<linearGradient id="paint18_linear_389_3378" x1="344.256" y1="176.09" x2="325.881" y2="144.266" gradientUnits="userSpaceOnUse">
<stop stop-color="#6A6AE2"/>
<stop offset="0.059" stop-color="#776AD7"/>
<stop offset="0.267" stop-color="#A168B4"/>
<stop offset="0.47" stop-color="#C26799"/>
<stop offset="0.664" stop-color="#D96785"/>
<stop offset="0.845" stop-color="#E76679"/>
<stop offset="1" stop-color="#EC6675"/>
</linearGradient>
<linearGradient id="paint19_linear_389_3378" x1="363.216" y1="165.144" x2="344.842" y2="133.321" gradientUnits="userSpaceOnUse">
<stop stop-color="#6A6AE2"/>
<stop offset="0.059" stop-color="#776AD7"/>
<stop offset="0.267" stop-color="#A168B4"/>
<stop offset="0.47" stop-color="#C26799"/>
<stop offset="0.664" stop-color="#D96785"/>
<stop offset="0.845" stop-color="#E76679"/>
<stop offset="1" stop-color="#EC6675"/>
</linearGradient>
<linearGradient id="paint20_linear_389_3378" x1="369.412" y1="160.528" x2="348.131" y2="123.671" gradientUnits="userSpaceOnUse">
<stop stop-color="#6A6AE2"/>
<stop offset="0.059" stop-color="#776AD7"/>
<stop offset="0.267" stop-color="#A168B4"/>
<stop offset="0.47" stop-color="#C26799"/>
<stop offset="0.664" stop-color="#D96785"/>
<stop offset="0.845" stop-color="#E76679"/>
<stop offset="1" stop-color="#EC6675"/>
</linearGradient>
<linearGradient id="paint21_linear_389_3378" x1="129.617" y1="401.417" x2="179.562" y2="401.417" gradientUnits="userSpaceOnUse">
<stop stop-color="#D3D8F2"/>
<stop offset="0.142" stop-color="#DDE1F5"/>
<stop offset="0.562" stop-color="#F6F7FC"/>
<stop offset="0.817" stop-color="white"/>
</linearGradient>
<linearGradient id="paint22_linear_389_3378" x1="349.336" y1="279.969" x2="374.021" y2="279.969" gradientUnits="userSpaceOnUse">
<stop stop-color="#C4C9E5"/>
<stop offset="0.241" stop-color="#DDE0F0"/>
<stop offset="0.539" stop-color="#F6F7FB"/>
<stop offset="0.719" stop-color="white"/>
</linearGradient>
<linearGradient id="paint23_linear_389_3378" x1="363.77" y1="275.219" x2="388.455" y2="275.219" gradientUnits="userSpaceOnUse">
<stop stop-color="#C4C9E5"/>
<stop offset="0.241" stop-color="#DDE0F0"/>
<stop offset="0.539" stop-color="#F6F7FB"/>
<stop offset="0.719" stop-color="white"/>
</linearGradient>
<linearGradient id="paint24_linear_389_3378" x1="360.527" y1="268.01" x2="366.656" y2="268.01" gradientUnits="userSpaceOnUse">
<stop stop-color="#CED3F8"/>
<stop offset="1" stop-color="#A3A9D0"/>
</linearGradient>
<linearGradient id="paint25_linear_389_3378" x1="356.695" y1="285.367" x2="371.195" y2="285.367" gradientUnits="userSpaceOnUse">
<stop stop-color="#C4C9E5"/>
<stop offset="0.241" stop-color="#DDE0F0"/>
<stop offset="0.539" stop-color="#F6F7FB"/>
<stop offset="0.719" stop-color="white"/>
</linearGradient>
<linearGradient id="paint26_linear_389_3378" x1="353.457" y1="281.929" x2="359.585" y2="281.929" gradientUnits="userSpaceOnUse">
<stop stop-color="#F48A71"/>
<stop offset="1" stop-color="#E33C5C"/>
</linearGradient>
<linearGradient id="paint27_linear_389_3378" x1="346.09" y1="273.723" x2="352.218" y2="273.723" gradientUnits="userSpaceOnUse">
<stop stop-color="#6A6AE2"/>
<stop offset="1" stop-color="#4141AA"/>
</linearGradient>
<linearGradient id="paint28_linear_389_3378" x1="342.262" y1="290.118" x2="366.947" y2="290.118" gradientUnits="userSpaceOnUse">
<stop stop-color="#C4C9E5"/>
<stop offset="0.241" stop-color="#DDE0F0"/>
<stop offset="0.539" stop-color="#F6F7FB"/>
<stop offset="0.719" stop-color="white"/>
</linearGradient>
<linearGradient id="paint29_linear_389_3378" x1="339.02" y1="284.438" x2="345.148" y2="284.438" gradientUnits="userSpaceOnUse">
<stop stop-color="#CED3F8"/>
<stop offset="1" stop-color="#A3A9D0"/>
</linearGradient>
<linearGradient id="paint30_linear_389_3378" x1="212.395" y1="329.55" x2="256.627" y2="329.55" gradientUnits="userSpaceOnUse">
<stop stop-color="#C4C9E5"/>
<stop offset="0.241" stop-color="#DDE0F0"/>
<stop offset="0.539" stop-color="#F6F7FB"/>
<stop offset="0.719" stop-color="white"/>
</linearGradient>
<linearGradient id="paint31_linear_389_3378" x1="193.832" y1="342.527" x2="236.17" y2="342.527" gradientUnits="userSpaceOnUse">
<stop stop-color="#C4C9E5"/>
<stop offset="0.241" stop-color="#DDE0F0"/>
<stop offset="0.539" stop-color="#F6F7FB"/>
<stop offset="0.719" stop-color="white"/>
</linearGradient>
<linearGradient id="paint32_linear_389_3378" x1="175.258" y1="355.499" x2="214.225" y2="355.499" gradientUnits="userSpaceOnUse">
<stop stop-color="#C4C9E5"/>
<stop offset="0.241" stop-color="#DDE0F0"/>
<stop offset="0.539" stop-color="#F6F7FB"/>
<stop offset="0.719" stop-color="white"/>
</linearGradient>
<linearGradient id="paint33_linear_389_3378" x1="226.442" y1="214.953" x2="186.256" y2="285.022" gradientUnits="userSpaceOnUse">
<stop stop-color="#F48A71"/>
<stop offset="0.305" stop-color="#F07973"/>
<stop offset="0.679" stop-color="#ED6B74"/>
<stop offset="1" stop-color="#EC6675"/>
</linearGradient>
<linearGradient id="paint34_linear_389_3378" x1="219.984" y1="375.419" x2="266.448" y2="375.419" gradientUnits="userSpaceOnUse">
<stop offset="0.331" stop-color="#C6CBE7"/>
<stop offset="0.592" stop-color="#D9DDEF"/>
<stop offset="1" stop-color="white"/>
</linearGradient>
<linearGradient id="paint35_linear_389_3378" x1="230.406" y1="370.053" x2="244.444" y2="370.053" gradientUnits="userSpaceOnUse">
<stop stop-color="#BDC1E4"/>
<stop offset="1" stop-color="#DEE2F9"/>
</linearGradient>
<linearGradient id="paint36_linear_389_3378" x1="226.449" y1="380.394" x2="235.404" y2="380.394" gradientUnits="userSpaceOnUse">
<stop stop-color="#BDC1E4"/>
<stop offset="1" stop-color="#D0D4F6"/>
</linearGradient>
<linearGradient id="paint37_linear_389_3378" x1="247.878" y1="380.314" x2="239.276" y2="380.446" gradientUnits="userSpaceOnUse">
<stop stop-color="#D0D4F6"/>
<stop offset="1" stop-color="#BDC1E4"/>
</linearGradient>
<linearGradient id="paint38_linear_389_3378" x1="248.75" y1="373.431" x2="254.857" y2="373.431" gradientUnits="userSpaceOnUse">
<stop offset="0.404" stop-color="#BDC1E4"/>
<stop offset="1" stop-color="#D0D4F6"/>
</linearGradient>
<linearGradient id="paint39_linear_389_3378" x1="401.82" y1="336.575" x2="435.029" y2="336.575" gradientUnits="userSpaceOnUse">
<stop offset="0.365" stop-color="#C4C9E4"/>
<stop offset="1" stop-color="white"/>
</linearGradient>
<linearGradient id="paint40_linear_389_3378" x1="394.883" y1="339.173" x2="427.411" y2="339.173" gradientUnits="userSpaceOnUse">
<stop stop-color="#FB944B"/>
<stop offset="1" stop-color="#D14B5F"/>
</linearGradient>
<linearGradient id="paint41_linear_389_3378" x1="397.938" y1="328.574" x2="424.353" y2="328.574" gradientUnits="userSpaceOnUse">
<stop stop-color="#D14B5F"/>
<stop offset="1" stop-color="#F48A71"/>
</linearGradient>
<linearGradient id="paint42_linear_389_3378" x1="406.129" y1="335.462" x2="413.268" y2="335.462" gradientUnits="userSpaceOnUse">
<stop stop-color="#F48A71"/>
<stop offset="1" stop-color="#D14B5F"/>
</linearGradient>
<linearGradient id="paint43_linear_389_3378" x1="411.168" y1="330.234" x2="416.099" y2="330.234" gradientUnits="userSpaceOnUse">
<stop stop-color="#D14B5F"/>
<stop offset="1" stop-color="#EC6675"/>
</linearGradient>
<linearGradient id="paint44_linear_389_3378" x1="285.894" y1="257.7" x2="334.547" y2="173.431" gradientUnits="userSpaceOnUse">
<stop offset="0.4" stop-color="#009AAA"/>
<stop offset="0.484" stop-color="#00D6DC"/>
</linearGradient>
<linearGradient id="paint45_linear_389_3378" x1="302.787" y1="288.316" x2="248.927" y2="271.756" gradientUnits="userSpaceOnUse">
<stop stop-color="#34318F"/>
<stop offset="1" stop-color="#6A6AE2"/>
</linearGradient>
<linearGradient id="paint46_linear_389_3378" x1="276.138" y1="304.069" x2="258.317" y2="273.203" gradientUnits="userSpaceOnUse">
<stop/>
<stop offset="0.096" stop-color="#001415"/>
<stop offset="0.54" stop-color="#006A70"/>
<stop offset="0.851" stop-color="#00A1A9"/>
<stop offset="1" stop-color="#00B6BF"/>
</linearGradient>
<linearGradient id="paint47_linear_389_3378" x1="242.667" y1="313.222" x2="288.07" y2="234.581" gradientUnits="userSpaceOnUse">
<stop offset="0.396" stop-color="#34318F"/>
<stop offset="0.479" stop-color="#4141AA"/>
</linearGradient>
<linearGradient id="paint48_linear_389_3378" x1="295.84" y1="359.692" x2="308.636" y2="359.692" gradientUnits="userSpaceOnUse">
<stop stop-color="#362E94"/>
<stop offset="1" stop-color="#362E94"/>
</linearGradient>
<linearGradient id="paint49_linear_389_3378" x1="285.985" y1="366.43" x2="298.782" y2="366.43" gradientUnits="userSpaceOnUse">
<stop stop-color="#423EAF"/>
<stop offset="0.375" stop-color="#3D37A3"/>
<stop offset="1" stop-color="#362E94"/>
</linearGradient>
<linearGradient id="paint50_linear_389_3378" x1="290.77" y1="350.205" x2="340.28" y2="350.205" gradientUnits="userSpaceOnUse">
<stop stop-color="#5652CC"/>
<stop offset="0.087" stop-color="#4E49BE"/>
<stop offset="0.265" stop-color="#413AA7"/>
<stop offset="0.432" stop-color="#393199"/>
<stop offset="0.576" stop-color="#362E94"/>
</linearGradient>
<linearGradient id="paint51_linear_389_3378" x1="330.883" y1="378.114" x2="402.574" y2="378.114" gradientUnits="userSpaceOnUse">
<stop stop-color="#D3D8F2"/>
<stop offset="0.547" stop-color="#EEF0FA"/>
<stop offset="1" stop-color="white"/>
</linearGradient>
<linearGradient id="paint52_linear_389_3378" x1="307.927" y1="315.026" x2="309.075" y2="312.272" gradientUnits="userSpaceOnUse">
<stop stop-color="#C4CAE9"/>
<stop offset="0.292" stop-color="#D1D6EE"/>
<stop offset="0.83" stop-color="#F3F4FA"/>
<stop offset="1" stop-color="white"/>
</linearGradient>
<linearGradient id="paint53_linear_389_3378" x1="293.149" y1="321.924" x2="295.102" y2="317.236" gradientUnits="userSpaceOnUse">
<stop stop-color="#C4CAE9"/>
<stop offset="1" stop-color="white"/>
</linearGradient>
<linearGradient id="paint54_linear_389_3378" x1="322.735" y1="321.773" x2="322.181" y2="320.444" gradientUnits="userSpaceOnUse">
<stop stop-color="#E19100"/>
<stop offset="0.584" stop-color="#F3AC04"/>
<stop offset="1" stop-color="#FCBA06"/>
</linearGradient>
<linearGradient id="paint55_linear_389_3378" x1="290.774" y1="344.362" x2="340.284" y2="344.362" gradientUnits="userSpaceOnUse">
<stop stop-color="#5652CC"/>
<stop offset="0.087" stop-color="#4E49BE"/>
<stop offset="0.265" stop-color="#413AA7"/>
<stop offset="0.432" stop-color="#393199"/>
<stop offset="0.576" stop-color="#362E94"/>
</linearGradient>
<linearGradient id="paint56_linear_389_3378" x1="316.75" y1="319.297" x2="320.463" y2="314.606" gradientUnits="userSpaceOnUse">
<stop stop-color="#EC6675"/>
<stop offset="0.595" stop-color="#F07A73"/>
<stop offset="1" stop-color="#F48A71"/>
</linearGradient>
<linearGradient id="paint57_linear_389_3378" x1="313.961" y1="325.898" x2="340.278" y2="325.898" gradientUnits="userSpaceOnUse">
<stop stop-color="#F3B378"/>
<stop offset="0.243" stop-color="#F09777"/>
<stop offset="0.538" stop-color="#EE7C76"/>
<stop offset="0.8" stop-color="#ED6C75"/>
<stop offset="1" stop-color="#EC6675"/>
</linearGradient>
<linearGradient id="paint58_linear_389_3378" x1="325.475" y1="314.482" x2="296.545" y2="322.291" gradientUnits="userSpaceOnUse">
<stop stop-color="#EC6675"/>
<stop offset="0.284" stop-color="#EE8076"/>
<stop offset="0.752" stop-color="#F2A577"/>
<stop offset="1" stop-color="#F3B378"/>
</linearGradient>
</defs>
</svg>
