<svg width="71" height="70" viewBox="0 0 71 70" fill="none" xmlns="http://www.w3.org/2000/svg">
<g filter="url(#filter0_b_413_3893)">
<rect x="0.960526" y="0.460526" width="69.0789" height="69.0789" rx="34.5395" stroke="#847C7C" stroke-width="0.921053"/>
<path d="M41.0246 50.1352C48.4164 50.1352 54.4086 44.143 54.4086 36.7512C54.4086 29.3594 48.4164 23.3672 41.0246 23.3672C33.6328 23.3672 27.6406 29.3594 27.6406 36.7512C27.6406 44.143 33.6328 50.1352 41.0246 50.1352Z" fill="#ECF7FF"/>
<path d="M28.7397 52.788C34.1943 52.788 38.6161 48.3662 38.6161 42.9116C38.6161 37.457 34.1943 33.0352 28.7397 33.0352C23.2851 33.0352 18.8633 37.457 18.8633 42.9116C18.8633 48.3662 23.2851 52.788 28.7397 52.788Z" fill="#ECF7FF"/>
<path d="M28.7416 37.9911C34.8035 37.9911 39.7176 33.0769 39.7176 27.0151C39.7176 20.9532 34.8035 16.0391 28.7416 16.0391C22.6797 16.0391 17.7656 20.9532 17.7656 27.0151C17.7656 33.0769 22.6797 37.9911 28.7416 37.9911Z" fill="#ECF7FF"/>
<path d="M50.8818 31.2006V49.7185H21.2578V31.2006C21.2578 30.598 21.7548 30.1016 22.3574 30.1016H49.7828C50.3854 30.1016 50.8818 30.598 50.8818 31.2006Z" fill="#D3E5F1"/>
<path d="M50.8818 31.2006V48.5961H21.2578V31.2011C21.2578 30.598 21.7548 30.1016 22.3574 30.1016H49.7828C50.3854 30.1016 50.8818 30.598 50.8818 31.2006Z" fill="#E8F1F6"/>
<path d="M32.8203 49.7188H39.3181V50.8393H32.8203V49.7188Z" fill="#B1C6D7"/>
<path d="M50.8818 31.2006V32.8467C50.8803 32.5557 50.764 32.2771 50.5582 32.0713C50.3525 31.8655 50.0738 31.7493 49.7828 31.7477H22.3574C21.7548 31.7477 21.2578 31.9513 21.2578 32.5539V31.2006C21.2578 30.598 21.7548 30.1016 22.3574 30.1016H49.7828C50.3854 30.1016 50.8818 30.598 50.8818 31.2006Z" fill="#D3E5F1"/>
<path d="M44.6144 21.0345V37.2442C44.6139 37.6666 44.4459 38.0715 44.1473 38.3702C43.8486 38.6688 43.4437 38.8368 43.0213 38.8373H29.0814C28.6591 38.8368 28.2542 38.6689 27.9556 38.3704C27.657 38.0718 27.4889 37.667 27.4883 37.2448V18.5495C27.4887 18.1273 27.6567 17.7225 27.9552 17.424C28.2538 17.1254 28.6586 16.9575 29.0808 16.957H40.5433V19.4409C40.5427 19.6497 40.5834 19.8566 40.6628 20.0497C40.7423 20.2428 40.8591 20.4183 41.0064 20.5663C41.1538 20.7142 41.3289 20.8317 41.5216 20.9119C41.7144 20.9922 41.9211 21.0336 42.1299 21.0339H44.6144V21.0345Z" fill="#F4F9FE"/>
<path d="M42.9962 21.0334V35.6249C42.9956 36.0472 42.8274 36.4521 42.5287 36.7507C42.2299 37.0492 41.8249 37.2171 41.4025 37.2174H27.4883V18.5495C27.4887 18.1273 27.6567 17.7225 27.9552 17.424C28.2538 17.1254 28.6586 16.9575 29.0808 16.957H40.5433V19.4409C40.5427 19.6497 40.5834 19.8566 40.6628 20.0497C40.7423 20.2428 40.8591 20.4183 41.0064 20.5663C41.1538 20.7142 41.3289 20.8317 41.5216 20.9119C41.7144 20.9922 41.9211 21.0336 42.1299 21.0339L42.9962 21.0334Z" fill="white"/>
<path d="M44.6173 21.0328H42.134C41.7117 21.0328 41.3066 20.865 41.008 20.5663C40.7093 20.2677 40.5415 19.8626 40.5415 19.4403V16.957L44.6173 21.0328ZM29.5469 45.6203H31.5273V49.717H29.5469V45.6203Z" fill="#CBA6C2"/>
<path d="M33.2305 43.918H35.2109V49.7181H33.2305V43.918Z" fill="#FC938E"/>
<path d="M36.9297 44.8906H38.9101V49.7177H36.9297V44.8906Z" fill="#FDE5CA"/>
<path d="M40.6172 45.8633H42.5976V49.7168H40.6172V45.8633Z" fill="#77D3E3"/>
<path d="M34.9766 33.5312H36.4886V35.5787H34.9766V33.5312Z" fill="#9AB7CF"/>
<path d="M37.2231 35.5781V41.1315C37.2231 41.9481 36.5581 42.6131 35.7414 42.6131C35.3272 42.6131 34.9597 42.4498 34.6914 42.1815C34.5397 42.0298 34.4172 41.849 34.3472 41.6448C34.2831 41.4815 34.2539 41.3123 34.2539 41.1315V35.5781H37.2231Z" fill="#B1C6D7"/>
<path d="M36.3481 35.5781V40.2565C36.3476 40.4956 36.2894 40.7311 36.1783 40.943C36.0672 41.1548 35.9066 41.3366 35.7101 41.4729C35.5136 41.6093 35.287 41.6961 35.0497 41.726C34.8124 41.756 34.5714 41.7281 34.3472 41.6448C34.2831 41.4815 34.2539 41.3123 34.2539 41.1315V35.5781H36.3481Z" fill="#9AB7CF"/>
<path d="M41.3603 28.7726C41.3619 29.1244 41.3277 29.4754 41.2582 29.8203C41.1135 30.5999 40.8039 31.3397 40.3501 31.99C39.8962 32.6403 39.3087 33.1861 38.6268 33.5909C37.755 34.1211 36.7539 34.4009 35.7335 34.3994C34.7131 34.4009 33.712 34.1211 32.8401 33.5909C31.2109 32.6109 30.1055 30.823 30.1055 28.7726C30.1055 25.6739 32.6348 23.1562 35.7329 23.1562C38.8432 23.1562 41.3603 25.6739 41.3603 28.7726Z" fill="#F4F9FE"/>
<path d="M39.8984 28.766C39.8984 29.0408 39.8751 29.2974 39.8226 29.5424C39.7155 30.1193 39.4862 30.6665 39.1501 31.1475C38.8141 31.6284 38.3791 32.0319 37.8742 32.3308C37.2304 32.7238 36.4906 32.9318 35.7363 32.9318C34.982 32.9318 34.2422 32.7238 33.5984 32.3308C32.9815 31.9625 32.4708 31.4405 32.116 30.8158C31.7612 30.1911 31.5745 29.485 31.5742 28.7666C31.5742 26.4799 33.4467 24.6133 35.7392 24.6133C38.0376 24.6133 39.8984 26.4794 39.8984 28.766Z" fill="#FE9594"/>
<path d="M37.8725 32.3364C37.2278 32.7286 36.4874 32.9355 35.7328 32.9344C34.9494 32.9344 34.2167 32.7156 33.5938 32.3364L35.7328 28.7734L37.8725 32.3364Z" fill="#FDE5CA"/>
<path d="M39.8195 29.5493C39.7124 30.1258 39.4835 30.6729 39.1478 31.1538C38.8122 31.6347 38.3777 32.0383 37.8735 32.3376L35.7344 28.7734L39.82 29.5487L39.8195 29.5493Z" fill="#77D3E3"/>
<path d="M19.2911 41.9715C19.0057 41.9712 18.7322 41.8577 18.5304 41.656C18.3286 41.4542 18.2152 41.1806 18.2148 40.8953C18.2148 40.302 18.6978 39.819 19.2911 39.819C19.8843 39.819 20.3679 40.302 20.3679 40.8953C20.3675 41.1807 20.2538 41.4543 20.052 41.656C19.8501 41.8578 19.5765 41.9712 19.2911 41.9715ZM19.2911 40.4024C19.2249 40.4002 19.1589 40.4113 19.0971 40.4352C19.0353 40.459 18.979 40.495 18.9314 40.5411C18.8838 40.5872 18.846 40.6424 18.8202 40.7034C18.7944 40.7644 18.7811 40.83 18.7812 40.8962C18.7813 40.9624 18.7947 41.028 18.8207 41.0889C18.8466 41.1498 18.8845 41.2049 18.9322 41.2509C18.9799 41.2969 19.0364 41.3328 19.0982 41.3565C19.1601 41.3801 19.2261 41.3911 19.2923 41.3888C19.4188 41.3825 19.5381 41.3277 19.6254 41.2359C19.7127 41.144 19.7613 41.022 19.7612 40.8953C19.761 40.7686 19.7121 40.6468 19.6246 40.5551C19.5371 40.4634 19.4177 40.4084 19.2911 40.4024ZM48.8136 19.438H46.5713C46.0521 19.438 45.6292 19.0156 45.6292 18.4965C45.6292 18.175 45.7983 17.8764 46.0626 17.7072C46.0836 17.1606 46.6238 16.7447 47.1575 16.859C47.2635 16.7144 47.4019 16.5967 47.5617 16.5154C47.7215 16.434 47.8981 16.3913 48.0774 16.3906C48.7051 16.3906 49.2161 16.9016 49.2161 17.5293V17.534C49.3926 17.6112 49.5427 17.7383 49.6481 17.8996C49.7535 18.061 49.8095 18.2495 49.8093 18.4422C49.8089 18.7063 49.7037 18.9593 49.517 19.146C49.3302 19.3327 49.0776 19.4376 48.8136 19.438ZM46.965 17.4225C46.9172 17.4227 46.8701 17.4335 46.827 17.4542C46.7839 17.4749 46.746 17.505 46.716 17.5422C46.686 17.5795 46.6648 17.6229 46.6538 17.6694C46.6427 17.7159 46.6423 17.7643 46.6523 17.811C46.6641 17.867 46.6592 17.9253 46.6381 17.9785C46.6171 18.0317 46.5808 18.0775 46.5339 18.1103C46.5147 18.1237 46.4581 18.1599 46.4359 18.1686C46.3702 18.1947 46.3137 18.2398 46.2739 18.2982C46.2341 18.3567 46.2127 18.4257 46.2125 18.4965C46.2125 18.6942 46.3735 18.8546 46.5713 18.8546H48.813C49.0405 18.8546 49.226 18.6697 49.226 18.4422C49.2263 18.3417 49.1893 18.2446 49.1222 18.1697C49.0551 18.0948 48.9626 18.0475 48.8626 18.0368C48.8201 18.032 48.7792 18.018 48.7428 17.9957C48.7063 17.9733 48.6752 17.9433 48.6517 17.9076C48.6282 17.8719 48.6127 17.8315 48.6065 17.7892C48.6003 17.7469 48.6035 17.7038 48.6158 17.6629C48.6359 17.5812 48.6371 17.4959 48.6194 17.4137C48.6018 17.3314 48.5656 17.2542 48.5138 17.188C48.462 17.1217 48.3957 17.068 48.3202 17.0311C48.2446 16.9941 48.1616 16.9748 48.0774 16.9745C47.966 16.9747 47.8573 17.0083 47.7652 17.071C47.6732 17.1338 47.6021 17.2227 47.5612 17.3263C47.5456 17.366 47.5215 17.4019 47.4906 17.4314C47.4597 17.4609 47.4227 17.4833 47.3823 17.497C47.3419 17.5107 47.2989 17.5154 47.2565 17.5108C47.214 17.5062 47.1731 17.4924 47.1365 17.4704C47.0848 17.4389 47.0255 17.4224 46.965 17.4225ZM23.8108 19.6625H24.3941V20.3025H23.8108V19.6625ZM23.8108 21.349H24.3941V21.9889H23.8108V21.349ZM24.6257 20.534H25.2656V21.1174H24.6257V20.534ZM22.9393 20.534H23.5792V21.1174H22.9393V20.534ZM48.5908 25.3885H49.1741V26.0285H48.5908V25.3885ZM48.5908 27.075H49.1741V27.7149H48.5908V27.075ZM49.4051 26.26H50.045V26.8434H49.4051V26.26ZM47.7193 26.26H48.3592V26.8434H47.7193V26.26ZM18.7649 26.4123H19.3483V28.5047H18.7649V26.4123Z" fill="#A0AFC5"/>
<path d="M18.0156 27.1641H20.108V27.7474H18.0156V27.1641ZM53.1294 37.3018C52.844 37.3015 52.5705 37.188 52.3687 36.9862C52.1669 36.7845 52.0534 36.5109 52.0531 36.2256C52.0531 35.6323 52.5361 35.1493 53.1294 35.1493V35.7326C53.0317 35.7326 52.9363 35.7616 52.8551 35.8159C52.774 35.8701 52.7107 35.9472 52.6734 36.0374C52.6361 36.1276 52.6263 36.2269 52.6454 36.3226C52.6645 36.4184 52.7116 36.5063 52.7806 36.5753C52.8497 36.6443 52.9377 36.6913 53.0335 36.7102C53.1292 36.7292 53.2285 36.7194 53.3186 36.6819C53.4088 36.6445 53.4858 36.5811 53.54 36.4999C53.5942 36.4187 53.623 36.3232 53.6229 36.2256H54.2062C54.2057 36.511 54.0921 36.7845 53.8903 36.9863C53.6884 37.188 53.4148 37.3015 53.1294 37.3018Z" fill="#A0AFC5"/>
<path d="M52.9296 49.7148V50.129C52.9296 51.0973 52.1479 51.879 51.1796 51.879H20.9687C20.2454 51.879 19.6271 51.4473 19.3587 50.8232C19.2671 50.6032 19.2195 50.3673 19.2188 50.129V49.7148H52.9296Z" fill="#E8F1F6"/>
<path d="M51.9554 49.7148C51.8502 50.0788 51.6294 50.3987 51.3263 50.626C51.0232 50.8533 50.6543 50.9758 50.2754 50.9748H20.0646C19.8137 50.9748 19.5746 50.9223 19.3587 50.8232C19.2671 50.6032 19.2195 50.3673 19.2188 50.129V49.7148H51.9554Z" fill="#F4F9FE"/>
<path d="M33.2539 49.7148H38.8889V50.8348H33.2539V49.7148Z" fill="#9AB7CF"/>
<path d="M20.9693 42.1821H21.5527V43.2863H20.9693V42.1821ZM50.5927 48.6028H51.1761V45.5298C51.1761 44.7132 51.4322 43.9356 51.9169 43.2793L52.1911 42.9072L51.7215 42.5607L51.4473 42.9328C50.8903 43.6839 50.5906 44.5947 50.5927 45.5298V48.6028ZM20.9693 44.3842H21.5527V48.6022H20.9693V44.3842ZM45.6338 29.1988C46.6863 29.9745 47.96 30.3916 49.2674 30.3888H50.0642C50.192 30.3888 50.5933 30.7242 50.5933 31.1967V41.6232H51.1767V31.1962C51.1767 30.4472 50.5653 29.8055 50.0642 29.8055H49.2674C48.084 29.8081 46.9311 29.4304 45.9786 28.7281L45.6338 29.1988ZM21.5521 31.1967C21.5521 30.7517 21.9143 30.3894 22.36 30.3894H22.7788C24.1222 30.3894 25.4523 30.0452 26.6259 29.3948L26.343 28.8844C25.252 29.4881 24.0257 29.8052 22.7788 29.8061H22.36C21.9912 29.8064 21.6376 29.953 21.3768 30.2137C21.116 30.4744 20.9692 30.828 20.9688 31.1967V41.0819H21.5521V31.1962V31.1967ZM27.1947 24.0352H27.778V25.2071H27.1947V24.0352Z" fill="#62809E"/>
<path d="M44.3212 37.2402C44.3212 37.9577 43.7378 38.541 43.0203 38.541H37.5078V35.5777C37.5078 35.4143 37.3795 35.286 37.2162 35.286H36.7845V34.586C39.5915 34.0989 41.6553 31.6244 41.6553 28.7702C41.6553 25.5093 38.9953 22.861 35.7345 22.861C32.4678 22.861 29.8137 25.5093 29.8137 28.7702C29.8137 31.6617 31.9469 34.1112 34.6845 34.586V35.286C34.5142 35.3163 33.9612 35.1617 33.9612 35.5777V38.541H29.0787C28.3612 38.541 27.7778 37.9577 27.7778 37.2402V26.3785H27.1945V37.2402C27.1945 38.2785 28.0403 39.1243 29.0787 39.1243H33.9612V41.1252C33.9612 42.1052 34.7545 42.8985 35.7345 42.8985C36.7145 42.8985 37.5078 42.1052 37.5078 41.1252V39.1243H43.0203C44.0645 39.1243 44.9045 38.2785 44.9045 37.2402V27.971C44.9045 26.7577 45.2603 25.5852 45.937 24.5702L46.0478 24.4068L45.5637 24.086L45.4528 24.2493C44.7141 25.3498 44.3201 26.6455 44.3212 27.971V37.2402ZM30.397 28.7702C30.397 25.8302 32.7945 23.4443 35.7345 23.4443C38.6745 23.4443 41.072 25.8302 41.072 28.7702C41.072 31.835 38.4365 34.3655 35.2678 34.0668C32.6837 33.9152 30.397 31.6069 30.397 28.7702ZM35.2678 34.6677C35.5785 34.6914 35.8905 34.6914 36.2012 34.6677V35.286H35.2678V34.6677ZM36.9245 41.1252C36.9245 41.7843 36.3878 42.3152 35.7345 42.3152C35.0753 42.3152 34.5445 41.7843 34.5445 41.1252V35.8693H36.9245V41.1252ZM40.246 19.4392C40.2465 19.939 40.4452 20.4183 40.7987 20.7718C41.1522 21.1252 41.6314 21.324 42.1313 21.3245H44.3235V23.5406H44.9068V21.0322C44.8999 20.9564 44.8706 20.8844 44.8228 20.8252L40.7453 16.7477C40.6889 16.693 40.6139 16.6617 40.5353 16.6602C40.5312 16.6602 40.526 16.6631 40.5219 16.6631H38.7562V17.2464H40.246V19.4392ZM40.8328 17.6577L43.9128 20.7377H42.1337C41.4272 20.7377 40.8328 20.1718 40.8328 19.4368V17.6577ZM26.8381 23.3119C27.4528 22.1141 27.7741 20.7873 27.7755 19.4409V18.5484C27.7758 18.2032 27.9131 17.8722 28.1572 17.6281C28.4013 17.384 28.7323 17.2467 29.0775 17.2464H37.5848V16.6631H29.0775C28.5776 16.6635 28.0983 16.8623 27.7449 17.2158C27.3914 17.5693 27.1926 18.0485 27.1922 18.5484V19.4409C27.1922 20.6892 26.8906 21.9347 26.3195 23.0442L26.2227 23.232L26.7412 23.5003L26.8381 23.3119Z" fill="#62809E"/>
<path d="M29.2368 18.8242H29.8691V19.4566H29.2368V18.8242ZM29.2368 20.38H29.8691V21.0123H29.2368V20.38ZM30.6595 18.8481H34.1169V19.4315H30.6595V18.8481ZM30.6595 20.4045H34.1169V20.9878H30.6595V20.4045ZM29.2368 21.9363H29.8691V22.5686H29.2368V21.9363ZM30.6595 21.9608H34.1169V22.5441H30.6595V21.9608ZM42.8868 49.4236V45.8623C42.8868 45.699 42.7584 45.5706 42.5951 45.5706H40.6176C40.4543 45.5706 40.326 45.699 40.326 45.8623V49.4236H39.2001V44.8881C39.2001 44.7248 39.066 44.5965 38.9084 44.5965H36.9251C36.7676 44.5965 36.6334 44.7248 36.6334 44.8881V49.4236H35.5076V43.914C35.5076 43.7565 35.3793 43.6223 35.2159 43.6223H33.2385C33.0751 43.6223 32.9468 43.7565 32.9468 43.914V49.4236H31.8151V45.6173C31.8151 45.4598 31.6868 45.3256 31.5234 45.3256H29.5459C29.3826 45.3256 29.2543 45.4598 29.2543 45.6173V49.4236H18.9258V50.1294C18.9258 51.2552 19.8416 52.1711 20.9674 52.1711H21.8541V51.5877H20.9674C20.5808 51.5873 20.2102 51.4335 19.9368 51.1601C19.6634 50.8867 19.5096 50.516 19.5091 50.1294V50.0069C36.0723 50.0069 36.4608 50.011 52.6366 50.0069V50.1294C52.6366 50.9332 51.9833 51.5877 51.1783 51.5877H25.3541V52.1711H51.1783C52.3041 52.1711 53.22 51.2552 53.22 50.1294V49.4236H42.8868ZM40.9093 46.154H42.3034V49.4236H40.9093V46.154ZM37.2168 45.1798H38.6168V49.4236H37.2168V45.1798ZM33.5301 44.2056H34.9243V49.4236H33.5301V44.2056ZM29.8376 45.909H31.2318V49.4236H29.8376V45.909Z" fill="#62809E"/>
<path d="M23.0234 51.5938H24.1901V52.1771H23.0234V51.5938Z" fill="#62809E"/>
<path d="M39.8974 28.7666C39.8974 29.0414 39.8741 29.298 39.8216 29.543L35.7383 28.7672V24.6133C38.0366 24.6133 39.8974 26.4799 39.8974 28.7666Z" fill="#CBA6C2"/>
</g>
<defs>
<filter id="filter0_b_413_3893" x="-182.789" y="-183.289" width="436.579" height="436.579" filterUnits="userSpaceOnUse" color-interpolation-filters="sRGB">
<feFlood flood-opacity="0" result="BackgroundImageFix"/>
<feGaussianBlur in="BackgroundImageFix" stdDeviation="91.6447"/>
<feComposite in2="SourceAlpha" operator="in" result="effect1_backgroundBlur_413_3893"/>
<feBlend mode="normal" in="SourceGraphic" in2="effect1_backgroundBlur_413_3893" result="shape"/>
</filter>
</defs>
</svg>
