<svg width="71" height="70" viewBox="0 0 71 70" fill="none" xmlns="http://www.w3.org/2000/svg">
<g filter="url(#filter0_b_417_4417)">
<rect x="0.5" width="70" height="70" rx="35" fill="url(#paint0_linear_417_4417)"/>
<g style="mix-blend-mode:darken" clip-path="url(#clip0_417_4417)">
<path d="M42.889 52.279H29.2812L30.9774 43.7798L41.1896 43.7773L42.889 52.279Z" fill="#CCD1D9"/>
<path d="M56.4959 44.6205C56.4959 45.0914 56.1146 45.4701 55.6449 45.4701H16.5222C16.0525 45.4701 15.6719 45.0914 15.6719 44.6205V17.4043C15.6719 16.9346 16.0525 16.5547 16.5222 16.5547H55.6449C56.1146 16.5547 56.4959 16.9346 56.4959 17.4043V44.6205ZM42.8875 52.2749H29.2797C28.81 52.2749 28.4294 51.8938 28.4294 51.4253C28.4294 50.9544 28.81 50.5731 29.2797 50.5731H42.8875C43.3572 50.5731 43.7384 50.9543 43.7384 51.4253C43.7384 51.8938 43.3571 52.2749 42.8875 52.2749Z" fill="#E6E9ED"/>
<path d="M55.6449 16.5547H16.5222C16.0525 16.5547 15.6719 16.9346 15.6719 17.4043V40.3671H56.4959V17.4043C56.4959 16.9346 56.1146 16.5547 55.6449 16.5547Z" fill="#ED5564"/>
<path d="M55.6424 16.5547H47.9879V40.3671H56.4933V17.4043C56.4934 16.9346 56.1121 16.5547 55.6424 16.5547ZM36.9317 42.9187C36.9317 43.3896 36.5511 43.7708 36.0813 43.7708C35.6116 43.7708 35.2305 43.3897 35.2305 42.9187C35.2305 42.4502 35.6117 42.0691 36.0813 42.0691C36.551 42.0691 36.9317 42.4502 36.9317 42.9187Z" fill="#434A54"/>
<path d="M47.9922 26.7617H56.3793V28.4623H47.9922V26.7617Z" fill="#656D78"/>
<path d="M35.9158 40.368L36.9305 35.8331L32.6778 31.8633L28.4258 35.8331L29.4399 40.368H35.9158Z" fill="#FFCE54"/>
<path d="M32.6827 30.165C30.5655 30.165 28.711 29.7775 27.1718 29.0138C25.9122 28.3884 24.8639 27.5151 24.0565 26.4163C22.6823 24.5474 22.4886 22.6713 22.4805 22.5915L24.1742 22.4295C24.1755 22.4407 24.3473 23.9769 25.4729 25.4707C26.9692 27.4565 29.3949 28.4644 32.6827 28.4644C35.9711 28.4644 38.3974 27.4565 39.8924 25.4707C41.0186 23.9769 41.1905 22.4407 41.1918 22.4258L42.8849 22.5915C42.8774 22.6713 42.6831 24.5474 41.3089 26.4163C40.5015 27.5151 39.4538 28.3885 38.1943 29.0138C36.6546 29.7775 34.8001 30.165 32.6827 30.165Z" fill="#E6E9ED"/>
<path d="M30.9806 29.3128C30.9806 28.3734 31.7419 27.6122 32.6812 27.6122C33.6206 27.6122 34.3824 28.3734 34.3824 29.3128C34.3824 30.2534 33.6206 31.0146 32.6812 31.0146C31.7419 31.0146 30.9806 30.2534 30.9806 29.3128ZM21.625 22.5092C21.625 21.5698 22.3862 20.8086 23.3262 20.8086C24.2655 20.8086 25.0268 21.5698 25.0268 22.5092C25.0268 23.4486 24.2655 24.211 23.3262 24.211C22.3862 24.211 21.625 23.4486 21.625 22.5092ZM40.3357 22.5092C40.3357 21.5698 41.0969 20.8086 42.0362 20.8086C42.9756 20.8086 43.7381 21.5698 43.7381 22.5092C43.7381 23.4486 42.9756 24.211 42.0362 24.211C41.0969 24.211 40.3357 23.4486 40.3357 22.5092Z" fill="#F5F7FA"/>
<path d="M33.5332 37.8184C33.5332 37.35 33.152 36.9688 32.6824 36.9688C32.2127 36.9688 31.832 37.35 31.832 37.8184V40.3699H33.5332V37.8184Z" fill="#F6BB42"/>
</g>
</g>
<defs>
<filter id="filter0_b_417_4417" x="-182.789" y="-183.289" width="436.579" height="436.579" filterUnits="userSpaceOnUse" color-interpolation-filters="sRGB">
<feFlood flood-opacity="0" result="BackgroundImageFix"/>
<feGaussianBlur in="BackgroundImageFix" stdDeviation="91.6447"/>
<feComposite in2="SourceAlpha" operator="in" result="effect1_backgroundBlur_417_4417"/>
<feBlend mode="normal" in="SourceGraphic" in2="effect1_backgroundBlur_417_4417" result="shape"/>
</filter>
<linearGradient id="paint0_linear_417_4417" x1="0.5" y1="0" x2="70.5" y2="70" gradientUnits="userSpaceOnUse">
<stop stop-color="#37CBF9" stop-opacity="0"/>
<stop offset="1" stop-color="#207893" stop-opacity="0.25"/>
</linearGradient>
<clipPath id="clip0_417_4417">
<rect width="40.8333" height="40.8333" fill="white" transform="translate(15.668 14)"/>
</clipPath>
</defs>
</svg>
