<svg width="72" height="72" viewBox="0 0 72 72" fill="none" xmlns="http://www.w3.org/2000/svg">
<g filter="url(#filter0_b_417_4344)">
<rect x="1" y="1" width="70" height="70" rx="35" fill="url(#paint0_linear_417_4344)"/>
<rect x="1" y="1" width="70" height="70" rx="35" stroke="#FDFDFD"/>
<g style="mix-blend-mode:darken">
<path d="M41.2117 44.1889H28.7747C27.3654 44.1889 26.2227 43.0462 26.2227 41.6368V29.2005C26.2227 27.7911 27.3654 26.6484 28.7747 26.6484H41.2117C42.6211 26.6484 43.7638 27.7911 43.7638 29.2005V41.6375C43.7638 43.0469 42.6211 44.1889 41.2117 44.1889Z" fill="#FAF5F5"/>
<path d="M41.2143 44.5079H28.7773C27.1944 44.5079 25.9062 43.2197 25.9062 41.6368V29.1992C25.9062 27.6163 27.1944 26.3281 28.7773 26.3281H41.2143C42.7972 26.3281 44.0854 27.6163 44.0854 29.1992V41.6362C44.0854 43.2197 42.7979 44.5079 41.2143 44.5079ZM28.7773 26.9661C27.546 26.9661 26.5443 27.9678 26.5443 29.1992V41.6362C26.5443 42.8675 27.546 43.8692 28.7773 43.8692H41.2143C42.4457 43.8692 43.4474 42.8675 43.4474 41.6362V29.1992C43.4474 27.9678 42.4457 26.9661 41.2143 26.9661H28.7773Z" fill="#63312D"/>
<path d="M44.3916 26.6484H41.2188C42.6281 26.6484 43.7708 27.7911 43.7708 29.2005V41.6375C43.7708 43.0468 42.6281 44.1895 41.2188 44.1895H44.3916C45.801 44.1895 46.9437 43.0468 46.9437 41.6375V29.2005C46.9437 27.7911 45.801 26.6484 44.3916 26.6484Z" fill="#52BADB"/>
<path d="M44.3903 44.5079H41.2174C41.0414 44.5079 40.8984 44.365 40.8984 44.1889C40.8984 44.0128 41.0414 43.8699 41.2174 43.8699C42.4488 43.8699 43.4505 42.8682 43.4505 41.6368V29.1992C43.4505 27.9678 42.4488 26.9661 41.2174 26.9661C41.0414 26.9661 40.8984 26.8232 40.8984 26.6471C40.8984 26.471 41.0414 26.3281 41.2174 26.3281H44.3903C45.9733 26.3281 47.2614 27.6163 47.2614 29.1992V41.6362C47.2614 43.2197 45.9733 44.5079 44.3903 44.5079ZM43.0199 43.8699H44.3897C45.6211 43.8699 46.6228 42.8682 46.6228 41.6368V29.1992C46.6228 27.9678 45.6211 26.9661 44.3897 26.9661H43.0199C43.6713 27.4932 44.0885 28.2983 44.0885 29.1992V41.6362C44.0885 42.5377 43.6719 43.3429 43.0199 43.8699Z" fill="#63312D"/>
<path d="M39.9145 30.5H30.0781V40.3364H39.9145V30.5Z" fill="#84DBFF"/>
<path d="M31.7591 22.0898H31.1211V25.4395H31.7591V22.0898Z" fill="#63312D"/>
<path d="M34.0365 21.3984H33.3984V25.439H34.0365V21.3984Z" fill="#63312D"/>
<path d="M36.3099 20.4961H35.6719V25.4408H36.3099V20.4961Z" fill="#63312D"/>
<path d="M38.5794 22.0898H37.9414V25.4395H38.5794V22.0898Z" fill="#63312D"/>
<path d="M40.8529 19H40.2148V25.4332H40.8529V19Z" fill="#63312D"/>
<path d="M35.9878 20.4951C36.4945 20.4951 36.9053 20.0843 36.9053 19.5776C36.9053 19.0709 36.4945 18.6602 35.9878 18.6602C35.4811 18.6602 35.0703 19.0709 35.0703 19.5776C35.0703 20.0843 35.4811 20.4951 35.9878 20.4951Z" fill="#F9DD9D"/>
<path d="M19.0073 36.706C19.514 36.706 19.9248 36.2953 19.9248 35.7886C19.9248 35.2819 19.514 34.8711 19.0073 34.8711C18.5006 34.8711 18.0898 35.2819 18.0898 35.7886C18.0898 36.2953 18.5006 36.706 19.0073 36.706Z" fill="#F9DD9D"/>
<path d="M54.1558 36.706C54.6625 36.706 55.0732 36.2953 55.0732 35.7886C55.0732 35.2819 54.6625 34.8711 54.1558 34.8711C53.649 34.8711 53.2383 35.2819 53.2383 35.7886C53.2383 36.2953 53.649 36.706 54.1558 36.706Z" fill="#F9DD9D"/>
<path d="M35.9878 52.1709C36.4945 52.1709 36.9053 51.7601 36.9053 51.2534C36.9053 50.7467 36.4945 50.3359 35.9878 50.3359C35.4811 50.3359 35.0703 50.7467 35.0703 51.2534C35.0703 51.7601 35.4811 52.1709 35.9878 52.1709Z" fill="#F9DD9D"/>
<path d="M35.9865 20.8128C35.3051 20.8128 34.75 20.2584 34.75 19.5763C34.75 18.8943 35.3044 18.3398 35.9865 18.3398C36.6685 18.3398 37.223 18.8943 37.223 19.5763C37.223 20.2584 36.6679 20.8128 35.9865 20.8128ZM35.9865 18.9785C35.6566 18.9785 35.388 19.2465 35.388 19.577C35.388 19.9075 35.6566 20.1754 35.9865 20.1754C36.3163 20.1754 36.5849 19.9075 36.5849 19.577C36.5849 19.2465 36.3163 18.9785 35.9865 18.9785Z" fill="#63312D"/>
<path d="M24.8652 40.0156H21.5156V40.6536H24.8652V40.0156Z" fill="#63312D"/>
<path d="M24.8687 37.7422H20.8281V38.3802H24.8687V37.7422Z" fill="#63312D"/>
<path d="M24.8665 35.4688H19.9219V36.1068H24.8665V35.4688Z" fill="#63312D"/>
<path d="M24.8652 33.1953H21.5156V33.8333H24.8652V33.1953Z" fill="#63312D"/>
<path d="M24.8668 30.9219H18.4336V31.5599H24.8668V30.9219Z" fill="#63312D"/>
<path d="M19.006 37.0237C18.3246 37.0237 17.7695 36.4693 17.7695 35.7873C17.7695 35.1052 18.324 34.5508 19.006 34.5508C19.6881 34.5508 20.2425 35.1052 20.2425 35.7873C20.2425 36.4693 19.6874 37.0237 19.006 37.0237ZM19.006 35.1894C18.6762 35.1894 18.4076 35.4574 18.4076 35.7879C18.4076 36.1184 18.6762 36.3864 19.006 36.3864C19.3359 36.3864 19.6045 36.1184 19.6045 35.7879C19.6045 35.4574 19.3352 35.1894 19.006 35.1894Z" fill="#63312D"/>
<path d="M51.6465 30.9219H48.2969V31.5599H51.6465V30.9219Z" fill="#63312D"/>
<path d="M52.3375 33.1953H48.2969V33.8333H52.3375V33.1953Z" fill="#63312D"/>
<path d="M53.2415 35.4688H48.2969V36.1068H53.2415V35.4688Z" fill="#63312D"/>
<path d="M51.6465 37.7422H48.2969V38.3802H51.6465V37.7422Z" fill="#63312D"/>
<path d="M54.73 40.0156H48.2969V40.6536H54.73V40.0156Z" fill="#63312D"/>
<path d="M54.1584 37.0237C53.477 37.0237 52.9219 36.4693 52.9219 35.7873C52.9219 35.1052 53.4763 34.5508 54.1584 34.5508C54.8404 34.5508 55.3948 35.1052 55.3948 35.7873C55.3948 36.4693 54.8404 37.0237 54.1584 37.0237ZM54.1584 35.1894C53.8285 35.1894 53.5599 35.4574 53.5599 35.7879C53.5599 36.1184 53.8285 36.3864 54.1584 36.3864C54.4882 36.3864 54.7568 36.1184 54.7568 35.7879C54.7568 35.4574 54.4882 35.1894 54.1584 35.1894Z" fill="#63312D"/>
<path d="M31.7591 45.3906H31.1211V48.7402H31.7591V45.3906Z" fill="#63312D"/>
<path d="M34.0365 45.3906H33.3984V49.4312H34.0365V45.3906Z" fill="#63312D"/>
<path d="M36.3099 45.3906H35.6719V50.3353H36.3099V45.3906Z" fill="#63312D"/>
<path d="M38.5794 45.3906H37.9414V48.7402H38.5794V45.3906Z" fill="#63312D"/>
<path d="M40.8529 45.3906H40.2148V51.8238H40.8529V45.3906Z" fill="#63312D"/>
<path d="M35.9865 52.4925C35.3051 52.4925 34.75 51.9381 34.75 51.256C34.75 50.574 35.3044 50.0195 35.9865 50.0195C36.6685 50.0195 37.223 50.574 37.223 51.256C37.223 51.9381 36.6679 52.4925 35.9865 52.4925ZM35.9865 50.6582C35.6566 50.6582 35.388 50.9262 35.388 51.2567C35.388 51.5871 35.6566 51.8551 35.9865 51.8551C36.3163 51.8551 36.5849 51.5871 36.5849 51.2567C36.5849 50.9262 36.3163 50.6582 35.9865 50.6582Z" fill="#63312D"/>
</g>
</g>
<defs>
<filter id="filter0_b_417_4344" x="-182.789" y="-182.789" width="437.579" height="437.579" filterUnits="userSpaceOnUse" color-interpolation-filters="sRGB">
<feFlood flood-opacity="0" result="BackgroundImageFix"/>
<feGaussianBlur in="BackgroundImageFix" stdDeviation="91.6447"/>
<feComposite in2="SourceAlpha" operator="in" result="effect1_backgroundBlur_417_4344"/>
<feBlend mode="normal" in="SourceGraphic" in2="effect1_backgroundBlur_417_4344" result="shape"/>
</filter>
<linearGradient id="paint0_linear_417_4344" x1="1" y1="1" x2="71" y2="71" gradientUnits="userSpaceOnUse">
<stop stop-color="#37CBF9" stop-opacity="0"/>
<stop offset="1" stop-color="#207893" stop-opacity="0.25"/>
</linearGradient>
</defs>
</svg>
