<svg width="32" height="32" viewBox="0 0 32 32" fill="none" xmlns="http://www.w3.org/2000/svg">
<path d="M16 0C7.17729 0 0 7.17758 0 16C0 24.8227 7.17729 32.0006 16 32.0006C24.8221 32.0006 32 24.8227 32 16C32 7.17758 24.8221 0 16 0ZM20.522 10.1005C20.522 10.1762 20.492 10.2489 20.4384 10.3025C20.3848 10.356 20.3121 10.3861 20.2364 10.3861L18.4176 10.3873C17.2175 10.3873 16.9981 10.8546 16.9981 11.775V13.6844H20.1176C20.1995 13.6844 20.2778 13.7198 20.3318 13.7815C20.3858 13.8432 20.4109 13.9252 20.4009 14.0066L19.9567 17.444C19.9478 17.5129 19.9142 17.5762 19.862 17.622C19.8099 17.6679 19.7428 17.6931 19.6733 17.6931H16.9981V26.2285C16.9981 26.3042 16.968 26.3769 16.9144 26.4305C16.8609 26.484 16.7882 26.5141 16.7124 26.5141H13.1634C13.0876 26.5141 13.0149 26.484 12.9614 26.4305C12.9078 26.3769 12.8777 26.3042 12.8777 26.2285V17.6931H10.1939C10.1181 17.6931 10.0455 17.663 9.9919 17.6095C9.93833 17.5559 9.90823 17.4832 9.90823 17.4075V13.9701C9.90823 13.8943 9.93833 13.8217 9.9919 13.7681C10.0455 13.7145 10.1181 13.6844 10.1939 13.6844H12.8777V11.4348C12.8777 8.45535 14.6808 6.60482 17.584 6.60482C18.8321 6.60482 19.935 6.69766 20.2738 6.74251C20.3425 6.75158 20.4055 6.78529 20.4512 6.83737C20.4968 6.88945 20.522 6.95634 20.522 7.0256V10.1005Z" fill="black"/>
<path d="M20.522 10.1005C20.522 10.1762 20.492 10.2489 20.4384 10.3025C20.3848 10.356 20.3121 10.3861 20.2364 10.3861L18.4176 10.3873C17.2175 10.3873 16.9981 10.8546 16.9981 11.775V13.6844H20.1176C20.1995 13.6844 20.2778 13.7198 20.3318 13.7815C20.3858 13.8432 20.4109 13.9252 20.4009 14.0066L19.9567 17.444C19.9478 17.5129 19.9142 17.5762 19.862 17.622C19.8099 17.6679 19.7428 17.6931 19.6733 17.6931H16.9981V26.2285C16.9981 26.3042 16.968 26.3769 16.9144 26.4305C16.8609 26.484 16.7882 26.5141 16.7124 26.5141H13.1634C13.0876 26.5141 13.0149 26.484 12.9614 26.4305C12.9078 26.3769 12.8777 26.3042 12.8777 26.2285V17.6931H10.1939C10.1181 17.6931 10.0455 17.663 9.9919 17.6095C9.93833 17.5559 9.90823 17.4832 9.90823 17.4075V13.9701C9.90823 13.8943 9.93833 13.8217 9.9919 13.7681C10.0455 13.7145 10.1181 13.6844 10.1939 13.6844H12.8777V11.4348C12.8777 8.45535 14.6808 6.60482 17.584 6.60482C18.8321 6.60482 19.935 6.69766 20.2738 6.74251C20.3425 6.75158 20.4055 6.78529 20.4512 6.83737C20.4968 6.88945 20.522 6.95634 20.522 7.0256V10.1005Z" fill="white"/>
</svg>
