<svg width="71" height="70" viewBox="0 0 71 70" fill="none" xmlns="http://www.w3.org/2000/svg">
<g filter="url(#filter0_b_417_4379)">
<rect x="0.5" width="70" height="70" rx="35" fill="url(#paint0_linear_417_4379)"/>
<g style="mix-blend-mode:darken" clip-path="url(#clip0_417_4379)">
<path d="M54.6883 46.1888C54.6883 47.6537 53.5032 48.8388 52.0383 48.8388C50.5763 48.8388 49.3911 47.6537 49.3911 46.1888C49.3911 44.7267 50.5763 43.5415 52.0383 43.5415C53.5032 43.5415 54.6883 44.7267 54.6883 46.1888ZM22.3402 45.9988C22.3402 47.4637 21.155 48.6488 19.6901 48.6488C18.2281 48.6488 17.043 47.4637 17.043 45.9988C17.043 44.5367 18.2281 43.3516 19.6901 43.3516C21.155 43.3516 22.3402 44.5367 22.3402 45.9988Z" fill="#FB961D"/>
<path d="M22.3402 26.9636C22.3402 28.4285 21.155 29.6137 19.6901 29.6137C18.2281 29.6137 17.043 28.4285 17.043 26.9636C17.043 25.5015 18.2281 24.3164 19.6901 24.3164C21.155 24.3164 22.3402 25.5015 22.3402 26.9636ZM55.1228 26.9636C55.1228 28.4285 53.9377 29.6137 52.4728 29.6137C51.0108 29.6137 49.8256 28.4285 49.8256 26.9636C49.8256 25.5015 51.0108 24.3164 52.4728 24.3164C53.9377 24.3164 55.1228 25.5015 55.1228 26.9636Z" fill="#A2E55A"/>
<path d="M24.731 42.123C22.649 41.9559 21.0273 40.5665 21.0273 38.4234C21.0273 36.1377 22.8771 34.2879 25.1588 34.2879C25.3381 34.2879 25.5092 34.3001 25.6803 34.3245C26.0674 32.434 27.7338 31.0243 29.7303 31.0243C30.044 31.0243 30.3578 31.0609 30.6511 31.1302C31.3397 29.8142 32.7168 28.9219 34.3018 28.9219C35.8582 28.9219 37.215 29.7816 37.9158 31.0609C38.0869 31.0365 38.258 31.0243 38.4332 31.0243C40.4175 31.0243 42.0758 32.4218 42.475 34.2879H42.5647C44.8504 34.2879 46.6961 36.1377 46.6961 38.4234C46.6961 40.6521 44.9441 42.0659 42.7399 42.1352L24.731 42.123Z" fill="white"/>
<path d="M24.731 42.123C22.649 41.9559 21.0273 40.5665 21.0273 38.4234C21.0273 36.1377 22.8771 34.2879 25.1588 34.2879C25.3381 34.2879 25.5092 34.3001 25.6803 34.3245C26.0674 32.434 27.7338 31.0243 29.7303 31.0243C30.044 31.0243 30.3578 31.0609 30.6511 31.1302C31.3397 29.8142 32.7168 28.9219 34.3018 28.9219C35.8582 28.9219 37.215 29.7816 37.9158 31.0609C38.0869 31.0365 38.258 31.0243 38.4332 31.0243C40.4175 31.0243 42.0758 32.4218 42.475 34.2879H42.5647C44.8504 34.2879 46.6961 36.1377 46.6961 38.4234C46.6961 40.6521 44.9441 42.0659 42.7399 42.1352L24.731 42.123Z" fill="#5B58CF"/>
<path d="M26.8482 42.123C24.7662 41.9559 23.1445 40.5665 23.1445 38.4234C23.1445 36.1377 24.9943 34.2879 27.276 34.2879C27.4553 34.2879 27.6264 34.3001 27.7975 34.3245C28.1846 32.434 29.851 31.0243 31.8475 31.0243C32.1612 31.0243 32.4749 31.0609 32.7683 31.1302C33.4569 29.8142 34.834 28.9219 36.419 28.9219C37.9754 28.9219 39.3322 29.7816 40.033 31.0609C40.2041 31.0365 40.3752 31.0243 40.5504 31.0243C42.5347 31.0243 44.1929 32.4218 44.5922 34.2879H44.6819C46.9676 34.2879 48.8133 36.1377 48.8133 38.4234C48.8133 40.6521 47.0613 42.0659 44.8571 42.1352L26.8482 42.123Z" fill="white"/>
<path d="M26.8482 42.123C24.7662 41.9559 23.1445 40.5665 23.1445 38.4234C23.1445 36.1377 24.9943 34.2879 27.276 34.2879C27.4553 34.2879 27.6264 34.3001 27.7975 34.3245C28.1846 32.434 29.851 31.0243 31.8475 31.0243C32.1612 31.0243 32.4749 31.0609 32.7683 31.1302C33.4569 29.8142 34.834 28.9219 36.419 28.9219C37.9754 28.9219 39.3322 29.7816 40.033 31.0609C40.2041 31.0365 40.3752 31.0243 40.5504 31.0243C42.5347 31.0243 44.1929 32.4218 44.5922 34.2879H44.6819C46.9676 34.2879 48.8133 36.1377 48.8133 38.4234C48.8133 40.6521 47.0613 42.0659 44.8571 42.1352L26.8482 42.123Z" fill="white"/>
<path d="M48.8121 38.4254C48.8121 40.6516 47.0608 42.0672 44.8558 42.1367H44.8165C44.5079 36.6317 39.9406 32.2611 34.3601 32.2611C29.2181 32.2611 24.9442 35.9633 24.0519 40.8452C23.4833 40.2252 23.1445 39.4055 23.1445 38.4254C23.1445 36.1387 24.9956 34.2876 27.2763 34.2876C27.4547 34.2876 27.6271 34.2997 27.7965 34.3239C28.1837 32.4335 29.8503 31.0239 31.8466 31.0239C32.1611 31.0239 32.4757 31.0603 32.7691 31.1298C33.4557 29.8141 34.835 28.9219 36.4199 28.9219C37.9746 28.9219 39.3327 29.7808 40.0314 31.0603C40.2038 31.0361 40.3762 31.0239 40.5516 31.0239C42.5358 31.0239 44.1934 32.4214 44.5926 34.2876H44.6803C46.967 34.2876 48.8121 36.1387 48.8121 38.4254Z" fill="#E2F2FF"/>
<path d="M38.6254 17.7058C38.6254 19.1707 37.4402 20.3559 35.9753 20.3559C34.5133 20.3559 33.3281 19.1707 33.3281 17.7058C33.3281 16.2437 34.5133 15.0586 35.9753 15.0586C37.4402 15.0586 38.6254 16.2437 38.6254 17.7058Z" fill="#FB961D"/>
<path d="M34.1097 51.9129C34.1097 50.8848 34.9452 50.052 35.9732 50.052C37.0013 50.052 37.8342 50.8848 37.8342 51.9129C37.8342 52.941 37.0013 53.7738 35.9732 53.7738C34.9452 53.7738 34.1097 52.941 34.1097 51.9129ZM40.5124 47.7984C40.5124 46.7703 41.3478 45.9375 42.3759 45.9375C43.404 45.9375 44.2368 46.7703 44.2368 47.7984C44.2368 48.8265 43.404 49.6593 42.3759 49.6593C41.3478 49.6593 40.5124 48.8265 40.5124 47.7984ZM31.4315 47.7984C31.4315 46.7703 30.5961 45.9375 29.568 45.9375C28.5399 45.9375 27.707 46.7703 27.707 47.7984C27.707 48.8265 28.5399 49.6593 29.568 49.6593C30.5961 49.6593 31.4315 48.8265 31.4315 47.7984Z" fill="#FAD014"/>
<path d="M52.7784 43.3382V29.9086C54.2635 29.7543 55.425 28.4961 55.425 26.9685C55.425 25.3442 54.1002 24.0195 52.4729 24.0195C51.4929 24.0195 50.6248 24.5003 50.0894 25.2354L38.7559 18.696C38.8648 18.3874 38.9253 18.0547 38.9253 17.7069C38.9253 16.0796 37.6035 14.7578 35.9732 14.7578C34.3489 14.7578 33.0241 16.0796 33.0241 17.7069C33.0241 18.0547 33.0846 18.3874 33.1935 18.696L22.0142 25.1508C21.4728 24.4641 20.632 24.0195 19.6913 24.0195C18.064 24.0195 16.7422 25.3442 16.7422 26.9685C16.7422 28.4234 17.7948 29.6333 19.1771 29.8783V43.0992C17.7948 43.3442 16.7422 44.5541 16.7422 46.003C16.7422 47.6332 18.064 48.955 19.6913 48.955C21.3185 48.955 22.6434 47.6332 22.6434 46.003C22.6434 45.5372 22.5345 45.0925 22.3409 44.6993L26.2821 42.4277C34.9582 42.436 31.9652 42.4331 32.6127 42.4337V45.6763C32.6127 45.8517 32.5129 46.0151 32.3587 46.0967L31.3817 46.614C30.9945 46.0272 30.3291 45.637 29.5729 45.637C28.3812 45.637 27.4103 46.6079 27.4103 47.7996C27.4103 48.9913 28.3812 49.9622 29.5729 49.9622C30.7677 49.9622 31.7386 48.9913 31.7386 47.7996C31.7386 47.5757 31.7053 47.361 31.6418 47.1614L32.64 46.6321C32.9969 46.4446 33.2177 46.0786 33.2177 45.6763V42.4337H35.6737C35.6768 43.5287 35.6737 47.3973 35.6737 49.7747C34.6242 49.9198 33.8135 50.8243 33.8135 51.9162C33.8135 53.1079 34.7845 54.0788 35.9792 54.0788C37.171 54.0788 38.1419 53.1079 38.1419 51.9162C38.1419 50.8243 37.3282 49.9169 36.2787 49.7747C36.2787 47.4004 36.2817 43.55 36.2787 42.4368H38.7377V45.6763C38.7377 46.0786 38.9585 46.4446 39.3124 46.6321L40.3106 47.1614C40.2471 47.361 40.2138 47.5757 40.2138 47.7996C40.2138 48.9913 41.1877 49.9622 42.3795 49.9622C43.5742 49.9622 44.5452 48.9913 44.5452 47.7996C44.5452 46.6079 43.5742 45.637 42.3795 45.637C41.6263 45.637 40.9579 46.0272 40.5707 46.614L39.5967 46.0967C39.4395 46.0151 39.3427 45.8517 39.3427 45.6763V42.4368C39.9074 42.4371 37.2969 42.4357 44.8658 42.4398C45.1077 42.4308 45.3467 42.4097 45.5735 42.3733H45.5766L49.5268 44.6509C49.2486 45.0985 49.0882 45.6278 49.0882 46.1935C49.0882 47.8207 50.413 49.1455 52.0403 49.1455C53.6676 49.1455 54.9924 47.8207 54.9924 46.1935C54.9924 44.8203 54.0487 43.6649 52.7784 43.3382ZM29.5729 49.3573C28.7139 49.3573 28.0152 48.6586 28.0152 47.7996C28.0152 46.9405 28.7139 46.2419 29.5729 46.2419C30.4342 46.2419 31.1337 46.9386 31.1337 47.7996C31.1337 48.6586 30.435 49.3573 29.5729 49.3573ZM42.3795 46.2419C43.2415 46.2419 43.9402 46.9405 43.9402 47.7996C43.9402 48.6586 43.2415 49.3573 42.3795 49.3573C41.5205 49.3573 40.8187 48.6586 40.8187 47.7996C40.8187 46.9712 41.4972 46.2419 42.3795 46.2419ZM52.4729 24.6244C53.7674 24.6244 54.82 25.677 54.82 26.9685C54.82 28.2687 53.7642 29.3187 52.4729 29.3187C51.5435 29.3187 50.684 28.7638 50.3102 27.873C50.1923 27.5946 50.1287 27.2892 50.1287 26.9685C50.1287 25.6632 51.1964 24.6244 52.4729 24.6244ZM49.7839 25.7587C49.6176 26.1277 49.5238 26.5359 49.5238 26.9685C49.5238 27.398 49.6145 27.8064 49.7839 28.1754L43.4623 31.8201C42.5007 30.9837 41.2636 30.6304 40.1926 30.7404C39.2927 29.2609 37.6321 28.5306 36.2787 28.6231V20.6438C37.2163 20.5471 38.027 20.0088 38.4958 19.2435L49.7839 25.7587ZM33.629 17.7069C33.629 16.4124 34.6816 15.3628 35.9732 15.3628C37.2678 15.3628 38.3203 16.4124 38.3203 17.7069C38.3203 18.9914 37.2737 20.0541 35.9732 20.0541C34.6868 20.0541 33.629 19.006 33.629 17.7069ZM33.4536 19.2435C33.9255 20.0117 34.7361 20.5471 35.6737 20.6438V28.6835C35.5648 28.7017 35.456 28.7229 35.3501 28.7501C33.5613 28.2869 31.5198 29.0467 30.4924 30.7918C29.4751 30.608 28.4406 30.796 27.5676 31.2877L22.3409 28.2751C22.5345 27.882 22.6434 27.4374 22.6434 26.9685C22.6434 26.4998 22.5345 26.0551 22.3379 25.6619L33.4536 19.2435ZM27.5615 33.998C27.161 33.9589 26.5759 34.0033 26.025 34.1674C26.4554 32.5586 27.9071 31.3821 29.6123 31.3301C28.644 31.8905 27.8757 32.8439 27.5615 33.998ZM34.1735 29.228C33.5383 29.6001 32.9969 30.1323 32.6097 30.7918C32.1521 30.7091 31.7068 30.7002 31.2365 30.7646C31.9261 29.8359 32.9969 29.2642 34.1735 29.228ZM17.3471 26.9685C17.3471 25.677 18.3967 24.6244 19.6913 24.6244C21.0043 24.6244 22.0384 25.6956 22.0384 26.9685C22.0384 28.244 21.0215 29.2717 19.782 29.3158C18.6417 29.4271 17.3471 28.4185 17.3471 26.9685ZM22.0384 46.003C22.0384 47.2975 20.9858 48.3501 19.6913 48.3501C18.3967 48.3501 17.3471 47.2975 17.3471 46.003C17.3471 44.5528 18.6483 43.5511 19.782 43.6618C21.0264 43.7059 22.0384 44.7329 22.0384 46.003ZM22.0172 44.1881C21.494 43.5197 20.6894 43.084 19.782 43.0568V29.9207C20.6894 29.8934 21.494 29.4578 22.0172 28.7894L27.002 31.6629C26.2579 32.2436 25.7013 33.0511 25.4442 33.998C23.0821 33.7673 20.7227 35.7507 20.7227 38.426C20.7227 40.6281 22.3227 42.2342 24.7032 42.4247C24.7123 42.4277 24.7213 42.4277 24.7274 42.4277H25.0692L22.0172 44.1881ZM25.0419 34.5938C23.7262 35.3651 22.84 36.7927 22.84 38.426C22.84 39.9172 23.5719 41.1332 24.7848 41.8227H24.7425C22.6978 41.6535 21.3276 40.2893 21.3276 38.426C21.3276 36.3511 22.9821 34.6543 25.0419 34.5938ZM37.5369 51.9162C37.5369 52.7751 36.8382 53.4739 35.9792 53.4739C35.1172 53.4739 34.4185 52.7751 34.4185 51.9162C34.4185 49.8528 37.5369 49.8357 37.5369 51.9162ZM26.8598 41.8227C26.5408 41.7944 26.3711 41.7559 26.267 41.7381C24.555 41.3751 23.4449 40.1048 23.4449 38.426C23.4449 36.0977 25.5085 34.3228 27.7521 34.624C27.9094 34.6483 28.0606 34.5424 28.0908 34.3851C28.515 32.3148 30.5942 30.9352 32.6974 31.427C32.8305 31.4571 32.9697 31.3936 33.0332 31.2727C34.3577 28.7535 37.9129 28.4882 39.5544 30.8703C39.7648 31.162 39.8059 31.4062 40.0747 31.3604C41.3193 31.1933 42.5681 31.6885 43.3686 32.5732C43.9505 33.1982 44.2941 34.0955 44.2941 34.3518C44.3569 34.6406 44.651 34.5823 44.6813 34.5908C44.7206 34.5908 44.7569 34.5908 44.7962 34.5938C46.856 34.6543 48.5075 36.3511 48.5075 38.426C48.5075 40.1048 47.3763 41.3812 45.6794 41.735C44.9106 41.9102 39.4014 41.8259 26.8598 41.8227ZM46.4174 42.1615C48.0599 41.5929 49.1124 40.1986 49.1124 38.426C49.1124 36.0275 47.2039 34.0675 44.8295 33.9888C44.651 33.3415 44.3304 32.7547 43.9069 32.2648L50.0834 28.7017C50.5643 29.3641 51.3174 29.8209 52.1734 29.9086V43.2474C52.1311 43.2444 52.0857 43.2444 52.0403 43.2444C51.1965 43.2444 50.4342 43.5983 49.8989 44.17L46.4174 42.1615ZM52.0403 48.5406C50.7458 48.5406 49.6932 47.488 49.6932 46.1935C49.6932 44.9125 50.739 43.8493 52.0403 43.8493C53.3514 43.8493 54.3875 44.9178 54.3875 46.1935C54.3875 47.488 53.3319 48.5406 52.0403 48.5406Z" fill="#402DA3"/>
<path d="M53.6619 16.9998C53.5318 16.9998 53.4117 16.9153 53.3723 16.7842C53.3243 16.6244 53.4151 16.4557 53.575 16.4076L54.1203 16.2439C54.2816 16.1978 54.4489 16.2867 54.4971 16.4468C54.5451 16.6066 54.4542 16.7753 54.2943 16.8235L53.749 16.9871C53.7199 16.9957 53.6907 16.9998 53.6619 16.9998ZM51.2556 17.7229C51.1255 17.7229 51.0054 17.6384 50.966 17.5073C50.918 17.3475 51.0088 17.1788 51.1687 17.1306L51.714 16.967C51.875 16.92 52.0426 17.0095 52.0908 17.1699C52.1388 17.3297 52.0479 17.4984 51.888 17.5465L51.3427 17.7102C51.3136 17.7188 51.2844 17.7229 51.2556 17.7229ZM53.1748 18.7552C53.0447 18.7552 52.9246 18.6708 52.8853 18.5399L52.7215 17.9946C52.6734 17.8345 52.7642 17.6659 52.9242 17.6177C53.0844 17.572 53.2529 17.6606 53.3008 17.8204L53.4646 18.3656C53.5127 18.5257 53.4219 18.6944 53.2619 18.7425C53.233 18.7511 53.2036 18.7552 53.1748 18.7552ZM52.4517 16.3491C52.3218 16.3491 52.2015 16.2646 52.1622 16.1337L51.9983 15.5885C51.9502 15.4284 52.0408 15.2597 52.2008 15.2116C52.3613 15.1649 52.5294 15.2544 52.5776 15.4142L52.7415 15.9595C52.7896 16.1196 52.6989 16.2882 52.539 16.3364C52.5099 16.3449 52.4805 16.3491 52.4517 16.3491ZM54.0883 18.0094C54.04 18.0094 53.9909 17.9979 53.9453 17.9734L53.4439 17.7037C53.2968 17.6245 53.2417 17.4411 53.3207 17.294C53.3997 17.1466 53.5829 17.0908 53.7304 17.1708L54.2318 17.4405C54.3789 17.5197 54.434 17.7031 54.355 17.8502C54.3004 17.9518 54.1961 18.0094 54.0883 18.0094ZM51.8754 16.8193C51.8271 16.8193 51.7781 16.8078 51.7325 16.7833L51.2311 16.5136C51.084 16.4344 51.0289 16.251 51.1079 16.1039C51.1869 15.9568 51.3696 15.9013 51.5176 15.9807L52.019 16.2504C52.1661 16.3296 52.2212 16.513 52.1422 16.6601C52.0875 16.7617 51.9832 16.8193 51.8754 16.8193ZM52.0013 18.6365C51.953 18.6365 51.9038 18.625 51.8583 18.6005C51.7112 18.5213 51.6561 18.3379 51.7351 18.1908L52.0048 17.6895C52.0837 17.5421 52.2671 17.4872 52.4145 17.5663C52.5616 17.6455 52.6167 17.8289 52.5377 17.976L52.268 18.4773C52.2133 18.5789 52.1091 18.6365 52.0013 18.6365ZM53.1915 16.4238C53.1432 16.4238 53.0942 16.4123 53.0485 16.3878C52.9014 16.3086 52.8463 16.1252 52.9254 15.9781L53.195 15.4765C53.2741 15.3294 53.4567 15.2739 53.6047 15.3533C53.7518 15.4325 53.8069 15.6159 53.7279 15.763L53.4582 16.2646C53.4036 16.3662 53.2993 16.4238 53.1915 16.4238Z" fill="#ED7149"/>
<path d="M18.8893 16.4651C18.7222 16.4651 18.5868 16.3298 18.5868 16.1627V15.5837C18.5868 15.4165 18.7222 15.2812 18.8893 15.2812C19.0563 15.2812 19.1918 15.4165 19.1918 15.5837V16.1627C19.1918 16.3298 19.0563 16.4651 18.8893 16.4651ZM18.8893 19.0211C18.7222 19.0211 18.5868 18.8858 18.5868 18.7186V18.1393C18.5868 17.9722 18.7222 17.8369 18.8893 17.8369C19.0563 17.8369 19.1918 17.9722 19.1918 18.1393V18.7186C19.1918 18.8858 19.0563 19.0211 18.8893 19.0211ZM20.4567 17.4535H19.8776C19.7106 17.4535 19.5752 17.3182 19.5752 17.151C19.5752 16.9838 19.7106 16.8485 19.8776 16.8485H20.4567C20.6238 16.8485 20.7592 16.9838 20.7592 17.151C20.7592 17.3182 20.6238 17.4535 20.4567 17.4535ZM17.9011 17.4535H17.322C17.155 17.4535 17.0195 17.3182 17.0195 17.151C17.0195 16.9838 17.155 16.8485 17.322 16.8485H17.9011C18.0681 16.8485 18.2036 16.9838 18.2036 17.151C18.2036 17.3182 18.0681 17.4535 17.9011 17.4535ZM19.5882 16.7546C19.5108 16.7546 19.4334 16.7251 19.3743 16.666C19.2561 16.5478 19.2561 16.3564 19.3743 16.2383L19.7838 15.8289C19.902 15.7107 20.0934 15.7107 20.2116 15.8289C20.3297 15.947 20.3297 16.1384 20.2116 16.2566L19.802 16.666C19.7429 16.7251 19.6655 16.7546 19.5882 16.7546ZM17.781 18.5617C17.7036 18.5617 17.6262 18.5322 17.5672 18.4731C17.449 18.355 17.449 18.1636 17.5672 18.0454L17.9767 17.636C18.0949 17.5179 18.2863 17.5179 18.4044 17.636C18.5226 17.7542 18.5226 17.9456 18.4044 18.0637L17.9949 18.4731C17.9358 18.5322 17.8584 18.5617 17.781 18.5617ZM19.9977 18.5617C19.9203 18.5617 19.8429 18.5322 19.7838 18.4731L19.3743 18.0637C19.2561 17.9456 19.2561 17.7542 19.3743 17.636C19.4922 17.5179 19.6839 17.5179 19.802 17.636L20.2116 18.0454C20.3297 18.1636 20.3297 18.355 20.2116 18.4731C20.1526 18.5322 20.0751 18.5617 19.9977 18.5617ZM18.1906 16.7546C18.1132 16.7546 18.0358 16.7251 17.9767 16.666L17.5672 16.2566C17.449 16.1384 17.449 15.947 17.5672 15.8289C17.685 15.7107 17.8767 15.7107 17.9949 15.8289L18.4044 16.2383C18.5226 16.3564 18.5226 16.5478 18.4044 16.666C18.3455 16.7251 18.268 16.7546 18.1906 16.7546Z" fill="#FAD014"/>
<path d="M47.7265 52.7829C47.1964 52.7829 46.7053 52.4376 46.5449 51.9039C46.4503 51.589 46.4838 51.2558 46.6395 50.966C46.7953 50.676 47.0549 50.4639 47.3704 50.3691C47.6852 50.2745 48.0192 50.3079 48.3095 50.4639C48.5997 50.6198 48.8118 50.8792 48.9063 51.1941C49.1023 51.8454 48.7316 52.5345 48.08 52.7309C47.9625 52.7661 47.8434 52.7829 47.7265 52.7829ZM47.7263 50.9217C47.6655 50.9217 47.6043 50.9306 47.5443 50.9486C47.3838 50.9968 47.2516 51.1046 47.1725 51.2523C47.0932 51.3999 47.076 51.5695 47.1242 51.7296C47.224 52.0619 47.5742 52.2509 47.9059 52.1514C48.2379 52.0513 48.4269 51.7001 48.3271 51.3683C48.279 51.2079 48.171 51.0762 48.0233 50.9968C47.9304 50.9468 47.8289 50.9217 47.7263 50.9217Z" fill="#A2E55A"/>
</g>
</g>
<defs>
<filter id="filter0_b_417_4379" x="-182.789" y="-183.289" width="436.579" height="436.579" filterUnits="userSpaceOnUse" color-interpolation-filters="sRGB">
<feFlood flood-opacity="0" result="BackgroundImageFix"/>
<feGaussianBlur in="BackgroundImageFix" stdDeviation="91.6447"/>
<feComposite in2="SourceAlpha" operator="in" result="effect1_backgroundBlur_417_4379"/>
<feBlend mode="normal" in="SourceGraphic" in2="effect1_backgroundBlur_417_4379" result="shape"/>
</filter>
<linearGradient id="paint0_linear_417_4379" x1="0.5" y1="0" x2="70.5" y2="70" gradientUnits="userSpaceOnUse">
<stop stop-color="#37CBF9" stop-opacity="0"/>
<stop offset="1" stop-color="#207893" stop-opacity="0.25"/>
</linearGradient>
<clipPath id="clip0_417_4379">
<rect width="40.8333" height="40.8333" fill="white" transform="translate(15.668 14)"/>
</clipPath>
</defs>
</svg>
