<svg width="33" height="32" viewBox="0 0 33 32" fill="none" xmlns="http://www.w3.org/2000/svg">
<g clip-path="url(#clip0_417_3974)">
<path d="M27.7848 4.71381C21.5518 -1.51919 11.4468 -1.51919 5.21381 4.71381C-1.01919 10.9468 -1.01919 21.0518 5.21381 27.2848C11.4468 33.5178 21.5518 33.5178 27.7848 27.2848C34.0178 21.0518 34.0178 10.9458 27.7848 4.71381ZM24.5488 21.1918C24.5489 21.3432 24.5191 21.4932 24.4612 21.6331C24.4033 21.773 24.3183 21.9002 24.2113 22.0073C24.1042 22.1143 23.977 22.1993 23.8371 22.2572C23.6972 22.3151 23.5472 22.3449 23.3958 22.3448H9.60181C9.45038 22.3449 9.30042 22.3151 9.1605 22.2572C9.02058 22.1993 8.89345 22.1143 8.78637 22.0073C8.67929 21.9002 8.59437 21.773 8.53645 21.6331C8.47853 21.4932 8.44875 21.3432 8.44881 21.1918V13.1578L16.4048 17.4328L24.5488 13.1468V21.1918ZM24.5488 11.4368L16.4118 15.7178L8.44881 11.4398V9.66181C8.44881 9.65781 8.45181 9.65381 8.45681 9.65381H24.5418C24.5458 9.65381 24.5498 9.65681 24.5498 9.66181V11.4368H24.5488Z" fill="black"/>
<path d="M24.5488 21.1918C24.5489 21.3432 24.5191 21.4932 24.4612 21.6331C24.4033 21.773 24.3183 21.9002 24.2113 22.0073C24.1042 22.1143 23.977 22.1993 23.8371 22.2572C23.6972 22.3151 23.5472 22.3449 23.3958 22.3448H9.60181C9.45038 22.3449 9.30042 22.3151 9.1605 22.2572C9.02058 22.1993 8.89345 22.1143 8.78637 22.0073C8.67929 21.9002 8.59437 21.773 8.53645 21.6331C8.47853 21.4932 8.44875 21.3432 8.44881 21.1918V13.1578L16.4048 17.4328L24.5488 13.1468V21.1918Z" fill="white"/>
<path d="M24.5488 11.4368L16.4118 15.7178L8.44881 11.4398V9.66181C8.44881 9.65781 8.45181 9.65381 8.45681 9.65381H24.5418C24.5458 9.65381 24.5498 9.65681 24.5498 9.66181V11.4368H24.5488Z" fill="white"/>
</g>
<defs>
<clipPath id="clip0_417_3974">
<rect width="32" height="32" fill="white" transform="translate(0.5)"/>
</clipPath>
</defs>
</svg>
