<svg width="616" height="369" viewBox="0 0 616 369" fill="none" xmlns="http://www.w3.org/2000/svg">
<path d="M340.759 51.3789H188.258L112.008 183.448L188.258 315.517H340.759L417.009 183.448L340.759 51.3789Z" fill="#D9EBFF"/>
<path d="M488.643 59.6836H421.859L388.467 117.521L421.859 175.357H488.643L522.035 117.521L488.643 59.6836Z" fill="#D9EBFF"/>
<path d="M483.775 202.273H436.31L412.578 243.379L436.31 284.485H483.775L507.508 243.379L483.775 202.273Z" fill="#D9EBFF"/>
<path d="M307.496 252.758V311.872H355.318V252.758H307.496ZM338.689 277.487C338.689 279.552 337.869 281.532 336.408 282.993C334.948 284.453 332.968 285.273 330.903 285.273C328.838 285.273 326.858 284.453 325.397 282.993C323.937 281.532 323.117 279.552 323.117 277.487V269.701H338.689V277.487Z" fill="#4D76B8"/>
<path d="M307.496 278.558H323.199C323.147 278.203 323.12 277.845 323.117 277.487V269.701H338.689V277.487C338.686 277.845 338.659 278.203 338.607 278.558H355.318V252.758H307.496V278.558Z" fill="#4469A0"/>
<path d="M431.642 129.453H231.174C225.74 129.453 221.334 133.859 221.334 139.293V259.855C221.334 265.29 225.74 269.695 231.174 269.695H431.642C437.076 269.695 441.482 265.29 441.482 259.855V139.293C441.482 133.859 437.076 129.453 431.642 129.453Z" fill="#4D76B8"/>
<path d="M427.481 138.695H235.33C232.953 138.695 231.025 140.623 231.025 143V256.151C231.025 258.529 232.953 260.456 235.33 260.456H427.481C429.859 260.456 431.786 258.529 431.786 256.151V143C431.786 140.623 429.859 138.695 427.481 138.695Z" fill="white"/>
<path d="M428.263 138.695H234.549C233.614 138.695 232.718 139.067 232.057 139.727C231.397 140.388 231.025 141.284 231.025 142.218V148.117H431.786V142.218C431.786 141.284 431.415 140.388 430.754 139.727C430.093 139.067 429.197 138.695 428.263 138.695Z" fill="#A9C0FF"/>
<path d="M517.231 97.0625H387.294C385.595 97.0625 384.219 98.4392 384.219 100.138V142.105C384.219 143.803 385.595 145.18 387.294 145.18H517.231C518.929 145.18 520.306 143.803 520.306 142.105V100.138C520.306 98.4392 518.929 97.0625 517.231 97.0625Z" fill="white"/>
<path d="M485.922 136.684H401.568V138.529H485.922V136.684Z" fill="#4D76B8"/>
<path d="M508.725 128.602H455.146V130.447H508.725V128.602Z" fill="#4D76B8"/>
<path d="M449.612 128.602H401.568V130.447H449.612V128.602Z" fill="#4D76B8"/>
<path d="M508.722 120.535H473.52V122.38H508.722V120.535Z" fill="#4D76B8"/>
<path d="M468.357 120.535H401.568V122.38H468.357V120.535Z" fill="#4D76B8"/>
<path d="M508.726 112.441H401.568V114.286H508.726V112.441Z" fill="#4D76B8"/>
<path d="M508.726 104.359H401.568V106.204H508.726V104.359Z" fill="#4D76B8"/>
<path d="M390.31 107.87C390.189 107.87 390.07 107.834 389.969 107.767C389.867 107.699 389.789 107.603 389.742 107.491C389.696 107.378 389.683 107.255 389.707 107.135C389.731 107.016 389.789 106.906 389.875 106.82L393.789 102.907C393.846 102.85 393.914 102.804 393.989 102.773C394.063 102.742 394.143 102.727 394.224 102.727C394.305 102.727 394.385 102.742 394.459 102.773C394.534 102.804 394.602 102.85 394.659 102.907C394.716 102.964 394.761 103.032 394.792 103.106C394.823 103.181 394.839 103.261 394.839 103.341C394.839 103.422 394.823 103.502 394.792 103.577C394.761 103.651 394.716 103.719 394.659 103.776L390.745 107.69C390.688 107.747 390.62 107.793 390.546 107.824C390.471 107.854 390.391 107.87 390.31 107.87Z" fill="#4D76B8"/>
<path d="M394.224 107.87C394.143 107.87 394.063 107.854 393.989 107.824C393.914 107.793 393.846 107.747 393.789 107.69L389.875 103.776C389.76 103.661 389.695 103.505 389.695 103.341C389.695 103.178 389.76 103.022 389.875 102.907C389.991 102.791 390.147 102.727 390.31 102.727C390.473 102.727 390.63 102.791 390.745 102.907L394.659 106.82C394.745 106.906 394.803 107.016 394.827 107.135C394.851 107.255 394.839 107.378 394.792 107.491C394.746 107.603 394.667 107.699 394.566 107.767C394.465 107.834 394.346 107.87 394.224 107.87Z" fill="#4D76B8"/>
<path d="M517.235 146.091H387.298C386.238 146.09 385.222 145.669 384.473 144.919C383.724 144.17 383.302 143.154 383.301 142.094V100.126C383.302 99.0666 383.724 98.0505 384.473 97.3011C385.222 96.5517 386.238 96.1301 387.298 96.1289H517.235C518.295 96.1301 519.311 96.5517 520.061 97.3011C520.81 98.0505 521.232 99.0666 521.233 100.126V142.094C521.232 143.154 520.81 144.17 520.061 144.919C519.311 145.669 518.295 146.09 517.235 146.091ZM387.298 97.9739C386.728 97.9746 386.181 98.2016 385.777 98.6051C385.373 99.0086 385.146 99.5557 385.146 100.126V142.094C385.146 142.665 385.373 143.212 385.777 143.615C386.181 144.019 386.728 144.246 387.298 144.246H517.235C517.806 144.246 518.353 144.019 518.757 143.615C519.16 143.212 519.387 142.665 519.388 142.094V100.126C519.387 99.5557 519.16 99.0086 518.757 98.6051C518.353 98.2016 517.806 97.9746 517.235 97.9739H387.298Z" fill="#4D76B8"/>
<path d="M212.08 183.891H139.657C138.299 183.891 137.197 184.992 137.197 186.351V287.112C137.197 288.471 138.299 289.572 139.657 289.572H212.08C213.438 289.572 214.54 288.471 214.54 287.112V186.351C214.54 184.992 213.438 183.891 212.08 183.891Z" fill="white"/>
<path d="M184.877 275.438H153.291V277.283H184.877V275.438Z" fill="#4D76B8"/>
<path d="M203.327 267.688H153.291V269.533H203.327V267.688Z" fill="#4D76B8"/>
<path d="M184.877 257.941H153.291V259.786H184.877V257.941Z" fill="#4D76B8"/>
<path d="M203.327 250.199H153.291V252.044H203.327V250.199Z" fill="#4D76B8"/>
<path d="M203.327 242.449H153.291V244.294H203.327V242.449Z" fill="#4D76B8"/>
<path d="M175.864 227.868C184.179 227.868 190.919 221.128 190.919 212.813C190.919 204.498 184.179 197.758 175.864 197.758C167.549 197.758 160.809 204.498 160.809 212.813C160.809 221.128 167.549 227.868 175.864 227.868Z" fill="#A9C0FF"/>
<path d="M212.082 290.487H139.66C138.763 290.486 137.903 290.13 137.269 289.496C136.635 288.861 136.278 288.002 136.277 287.105V186.343C136.278 185.447 136.635 184.587 137.269 183.953C137.903 183.319 138.763 182.962 139.66 182.961H212.082C212.979 182.962 213.839 183.319 214.473 183.953C215.107 184.587 215.464 185.447 215.465 186.343V287.105C215.464 288.002 215.107 288.861 214.473 289.496C213.839 290.13 212.979 290.486 212.082 290.487ZM139.66 184.806C139.252 184.806 138.861 184.969 138.573 185.257C138.285 185.545 138.123 185.936 138.122 186.343V287.105C138.123 287.513 138.285 287.903 138.573 288.192C138.861 288.48 139.252 288.642 139.66 288.642H212.082C212.49 288.642 212.881 288.48 213.169 288.192C213.457 287.903 213.619 287.513 213.62 287.105V186.343C213.619 185.936 213.457 185.545 213.169 185.257C212.881 184.969 212.49 184.806 212.082 184.806H139.66Z" fill="#4D76B8"/>
<path d="M149.12 272.022H142.293V265.195H149.12V272.022ZM144.138 270.177H147.275V267.04H144.138V270.177Z" fill="#4D76B8"/>
<path d="M149.12 246.784H142.293V239.957H149.12V246.784ZM144.138 244.939H147.275V241.802H144.138V244.939Z" fill="#4D76B8"/>
<path d="M143.748 194.8C143.626 194.8 143.507 194.764 143.406 194.696C143.305 194.629 143.226 194.533 143.18 194.42C143.133 194.308 143.121 194.184 143.145 194.065C143.168 193.946 143.227 193.836 143.313 193.75L147.227 189.836C147.284 189.779 147.352 189.734 147.426 189.703C147.501 189.672 147.581 189.656 147.662 189.656C147.742 189.656 147.822 189.672 147.897 189.703C147.972 189.734 148.039 189.779 148.097 189.836C148.154 189.893 148.199 189.961 148.23 190.036C148.261 190.11 148.277 190.19 148.277 190.271C148.277 190.352 148.261 190.432 148.23 190.506C148.199 190.581 148.154 190.649 148.097 190.706L144.183 194.62C144.125 194.677 144.058 194.722 143.983 194.753C143.908 194.784 143.828 194.8 143.748 194.8Z" fill="#4D76B8"/>
<path d="M147.662 194.8C147.581 194.8 147.501 194.784 147.426 194.753C147.352 194.722 147.284 194.677 147.227 194.62L143.313 190.706C143.256 190.649 143.211 190.581 143.18 190.506C143.149 190.432 143.133 190.352 143.133 190.271C143.133 190.19 143.149 190.11 143.18 190.036C143.211 189.961 143.256 189.893 143.313 189.836C143.37 189.779 143.438 189.734 143.512 189.703C143.587 189.672 143.667 189.656 143.748 189.656C143.829 189.656 143.908 189.672 143.983 189.703C144.058 189.734 144.125 189.779 144.183 189.836L148.097 193.75C148.183 193.836 148.241 193.946 148.265 194.065C148.289 194.184 148.276 194.308 148.23 194.42C148.183 194.533 148.104 194.629 148.003 194.696C147.902 194.764 147.783 194.8 147.662 194.8Z" fill="#4D76B8"/>
<path d="M302.614 216.367H249.158C248.818 216.367 248.543 216.643 248.543 216.982V222.728C248.543 223.067 248.818 223.343 249.158 223.343H302.614C302.953 223.343 303.229 223.067 303.229 222.728V216.982C303.229 216.643 302.953 216.367 302.614 216.367Z" fill="#A9C0FF"/>
<path d="M332.979 204.32H279.523C279.184 204.32 278.908 204.596 278.908 204.935V210.681C278.908 211.02 279.184 211.296 279.523 211.296H332.979C333.319 211.296 333.594 211.02 333.594 210.681V204.935C333.594 204.596 333.319 204.32 332.979 204.32Z" fill="#A9C0FF"/>
<path d="M400.218 214.172H373.699C373.359 214.172 373.084 214.447 373.084 214.787V220.532C373.084 220.872 373.359 221.147 373.699 221.147H400.218C400.557 221.147 400.833 220.872 400.833 220.532V214.787C400.833 214.447 400.557 214.172 400.218 214.172Z" fill="#A9C0FF"/>
<path d="M275.271 204.32H248.752C248.412 204.32 248.137 204.596 248.137 204.935V210.681C248.137 211.02 248.412 211.296 248.752 211.296H275.271C275.61 211.296 275.886 211.02 275.886 210.681V204.935C275.886 204.596 275.61 204.32 275.271 204.32Z" fill="#A9C0FF"/>
<path d="M276.005 157.531H249.486C249.146 157.531 248.871 157.807 248.871 158.146V163.892C248.871 164.231 249.146 164.507 249.486 164.507H276.005C276.345 164.507 276.62 164.231 276.62 163.892V158.146C276.62 157.807 276.345 157.531 276.005 157.531Z" fill="#A9C0FF"/>
<path d="M401.423 241.965H373.084V243.81H401.423V241.965Z" fill="#4D76B8"/>
<path d="M419.873 234.906H373.084V236.751H419.873V234.906Z" fill="#4D76B8"/>
<path d="M407.575 227.859H373.086V229.704H407.575V227.859Z" fill="#4D76B8"/>
<path d="M401.423 199.062H373.084V200.908H401.423V199.062Z" fill="#4D76B8"/>
<path d="M419.873 192.008H373.084V193.853H419.873V192.008Z" fill="#4D76B8"/>
<path d="M419.873 184.961H373.084V186.806H419.873V184.961Z" fill="#4D76B8"/>
<path d="M419.871 177.918H373.082V179.763H419.871V177.918Z" fill="#4D76B8"/>
<path d="M419.873 170.863H373.084V172.708H419.873V170.863Z" fill="#4D76B8"/>
<path d="M295.66 244.934H248.871V246.779H295.66V244.934Z" fill="#4D76B8"/>
<path d="M295.66 186.227H248.871V188.072H295.66V186.227Z" fill="#4D76B8"/>
<path d="M351.163 237.105H249.023V238.95H351.163V237.105Z" fill="#4D76B8"/>
<path d="M351.163 229.109H249.023V230.954H351.163V229.109Z" fill="#4D76B8"/>
<path d="M351.01 178.227H248.871V180.072H351.01V178.227Z" fill="#4D76B8"/>
<path d="M351.01 170.227H248.871V172.072H351.01V170.227Z" fill="#4D76B8"/>
<path d="M411.435 157.531H373.699C373.359 157.531 373.084 157.807 373.084 158.146V163.892C373.084 164.231 373.359 164.507 373.699 164.507H411.435C411.775 164.507 412.05 164.231 412.05 163.892V158.146C412.05 157.807 411.775 157.531 411.435 157.531Z" fill="#A9C0FF"/>
<path d="M248.137 76.2449V114.312C248.137 116.69 250.064 118.617 252.442 118.617H330.621C332.998 118.617 334.926 116.69 334.926 114.312V76.2449C334.926 73.8673 332.998 71.9399 330.621 71.9399H252.442C250.064 71.9399 248.137 73.8673 248.137 76.2449Z" fill="white"/>
<path d="M330.623 119.546H252.444C251.058 119.544 249.73 118.993 248.75 118.013C247.77 117.033 247.218 115.704 247.217 114.318V76.2509C247.218 74.865 247.77 73.5363 248.75 72.5562C249.73 71.5762 251.058 71.025 252.444 71.0234H330.623C332.009 71.025 333.338 71.5762 334.318 72.5562C335.298 73.5363 335.849 74.865 335.851 76.2509V114.318C335.849 115.704 335.298 117.033 334.318 118.013C333.338 118.993 332.009 119.544 330.623 119.546ZM252.444 72.8684C251.548 72.8695 250.688 73.2261 250.054 73.8603C249.42 74.4944 249.063 75.3542 249.062 76.2509V114.318C249.063 115.215 249.42 116.075 250.054 116.709C250.688 117.343 251.548 117.7 252.444 117.701H330.623C331.52 117.7 332.38 117.343 333.014 116.709C333.648 116.075 334.005 115.215 334.006 114.318V76.2509C334.005 75.3542 333.648 74.4944 333.014 73.8603C332.38 73.2261 331.52 72.8695 330.623 72.8684H252.444Z" fill="#4D76B8"/>
<path d="M253.67 82.7377C253.548 82.7377 253.429 82.7016 253.328 82.634C253.227 82.5664 253.148 82.4704 253.101 82.358C253.055 82.2457 253.043 82.122 253.066 82.0027C253.09 81.8835 253.149 81.7739 253.235 81.6879L257.148 77.7739C257.264 77.6585 257.42 77.5937 257.583 77.5938C257.746 77.5937 257.903 77.6585 258.018 77.7739C258.133 77.8892 258.198 78.0456 258.198 78.2087C258.198 78.3718 258.133 78.5282 258.018 78.6435L254.104 82.5575C254.047 82.6147 253.98 82.6601 253.905 82.691C253.83 82.7219 253.75 82.7378 253.67 82.7377Z" fill="#4D76B8"/>
<path d="M257.583 82.7377C257.503 82.7378 257.423 82.7219 257.348 82.691C257.273 82.6601 257.206 82.6147 257.149 82.5575L253.235 78.6435C253.178 78.5864 253.132 78.5186 253.101 78.444C253.071 78.3694 253.055 78.2894 253.055 78.2087C253.055 78.1279 253.071 78.048 253.101 77.9734C253.132 77.8988 253.178 77.831 253.235 77.7739C253.292 77.7168 253.36 77.6715 253.434 77.6406C253.509 77.6097 253.589 77.5938 253.67 77.5938C253.75 77.5938 253.83 77.6097 253.905 77.6406C253.98 77.6715 254.047 77.7168 254.104 77.7739L258.018 81.6879C258.104 81.7739 258.163 81.8835 258.186 82.0027C258.21 82.122 258.198 82.2457 258.151 82.358C258.105 82.4704 258.026 82.5664 257.925 82.634C257.824 82.7016 257.705 82.7377 257.583 82.7377Z" fill="#4D76B8"/>
<path d="M278.214 103.695C277.95 103.758 277.683 103.804 277.413 103.834C277.055 103.88 276.695 103.903 276.334 103.904C276.019 103.907 275.705 103.88 275.395 103.823C275.148 103.779 274.914 103.679 274.711 103.532C274.519 103.384 274.373 103.183 274.294 102.953C274.191 102.639 274.144 102.309 274.154 101.979V98.3602H269.701V103.695C269.437 103.758 269.17 103.805 268.901 103.834C268.543 103.88 268.183 103.903 267.822 103.904C267.507 103.907 267.193 103.88 266.883 103.823C266.636 103.779 266.402 103.679 266.199 103.532C266.006 103.384 265.861 103.183 265.782 102.953C265.678 102.639 265.631 102.309 265.642 101.979V89.7322C265.812 89.7015 266.083 89.6591 266.454 89.6048C266.807 89.5522 267.164 89.525 267.521 89.5238C267.836 89.5201 268.15 89.5473 268.46 89.6048C268.707 89.6488 268.941 89.7477 269.145 89.8943C269.337 90.0432 269.482 90.2448 269.562 90.4745C269.665 90.7886 269.712 91.1183 269.701 91.4486V95.1597H274.154V89.7322C274.324 89.7015 274.595 89.6591 274.966 89.6048C275.319 89.5522 275.676 89.525 276.033 89.5238C276.348 89.5201 276.663 89.5473 276.972 89.6048C277.219 89.6488 277.453 89.7477 277.657 89.8943C277.849 90.0432 277.994 90.2448 278.074 90.4745C278.177 90.7886 278.224 91.1183 278.214 91.4486V103.695Z" fill="#4D76B8"/>
<path d="M280.574 92.9862C280.444 92.7681 280.343 92.5342 280.272 92.2902C280.178 91.9899 280.131 91.6769 280.133 91.3623C280.111 91.1297 280.135 90.895 280.205 90.672C280.275 90.449 280.388 90.2422 280.539 90.0638C280.68 89.9309 280.845 89.8275 281.027 89.7598C281.208 89.692 281.401 89.6612 281.594 89.6692H291.707C291.836 89.8877 291.937 90.1216 292.008 90.3653C292.102 90.6656 292.149 90.9786 292.148 91.2932C292.17 91.5258 292.145 91.7604 292.076 91.9834C292.006 92.2064 291.892 92.4132 291.742 92.5917C291.601 92.7245 291.435 92.8278 291.254 92.8955C291.073 92.9633 290.88 92.9941 290.686 92.9862H288.112V103.702C287.848 103.765 287.581 103.811 287.312 103.841C286.954 103.887 286.594 103.91 286.233 103.91C285.918 103.914 285.604 103.887 285.294 103.829C285.047 103.785 284.813 103.686 284.61 103.539C284.417 103.391 284.272 103.189 284.192 102.96C284.089 102.645 284.042 102.316 284.053 101.985V92.9862H280.574Z" fill="#4D76B8"/>
<path d="M303.375 100.338C303.145 100.523 302.881 100.661 302.598 100.744C302.24 100.85 301.869 100.901 301.496 100.895C301.027 100.909 300.56 100.838 300.116 100.686C299.95 100.63 299.799 100.536 299.676 100.411C299.553 100.286 299.461 100.134 299.409 99.9667C298.976 98.6064 298.62 97.5047 298.342 96.6617C298.064 95.8191 297.847 95.0808 297.692 94.4468H297.577C297.53 95.359 297.495 96.1901 297.472 96.9398C297.449 97.6899 297.433 98.4206 297.426 99.1319C297.417 99.843 297.402 100.562 297.38 101.289C297.356 102.016 297.321 102.82 297.275 103.701C297.019 103.792 296.755 103.858 296.486 103.898C296.165 103.952 295.839 103.979 295.512 103.979C294.964 104.008 294.416 103.896 293.923 103.654C293.727 103.53 293.571 103.353 293.47 103.144C293.37 102.935 293.33 102.702 293.355 102.472L294.028 90.6426C294.243 90.3651 294.521 90.1426 294.84 89.9934C295.389 89.7333 295.995 89.6138 296.602 89.6457C297.266 89.6124 297.927 89.7439 298.527 90.0282C299.008 90.303 299.371 90.7445 299.548 91.2691C299.687 91.6402 299.838 92.0654 300 92.5447C300.163 93.024 300.325 93.5188 300.487 94.0293C300.65 94.5392 300.808 95.0455 300.963 95.5482C301.117 96.0509 301.256 96.5032 301.38 96.905H301.496C301.867 95.6065 302.238 94.3503 302.609 93.1363C302.981 91.9225 303.321 90.9057 303.63 90.0859C303.913 89.9443 304.213 89.8392 304.523 89.773C304.923 89.6843 305.331 89.6416 305.741 89.6457C306.376 89.6225 307.009 89.7372 307.596 89.982C307.804 90.0599 307.99 90.1888 308.136 90.3569C308.282 90.5249 308.383 90.7268 308.431 90.9441C308.493 91.254 308.559 91.7295 308.628 92.3705C308.698 93.0125 308.771 93.7355 308.848 94.5392C308.926 95.3434 309.003 96.1939 309.081 97.0905C309.158 97.9878 309.231 98.8498 309.301 99.6767C309.37 100.504 309.428 101.262 309.475 101.95C309.521 102.638 309.552 103.168 309.568 103.538C309.311 103.69 309.034 103.804 308.744 103.875C308.382 103.952 308.012 103.987 307.642 103.979C307.131 103.995 306.623 103.892 306.158 103.678C305.95 103.561 305.779 103.388 305.664 103.179C305.549 102.97 305.495 102.733 305.508 102.495C305.416 100.809 305.358 99.2941 305.335 97.9488C305.311 96.6035 305.277 95.4747 305.23 94.5627H305.114C304.96 95.1656 304.735 95.9232 304.442 96.8353C304.148 97.7482 303.792 98.9157 303.375 100.338Z" fill="#4D76B8"/>
<path d="M314.299 103.861C314.009 103.885 313.718 103.845 313.446 103.745C313.174 103.644 312.927 103.486 312.721 103.281C312.516 103.076 312.358 102.829 312.258 102.556C312.158 102.284 312.118 101.993 312.141 101.704V89.7126C312.311 89.682 312.582 89.6396 312.953 89.5853C313.306 89.5326 313.663 89.5055 314.02 89.5042C314.335 89.5006 314.649 89.5278 314.959 89.5853C315.206 89.6295 315.44 89.7286 315.644 89.8754C315.836 90.0242 315.981 90.2255 316.061 90.455C316.164 90.7691 316.211 91.0988 316.2 91.4291V100.591H321.512C321.64 100.806 321.741 101.036 321.813 101.275C321.906 101.564 321.953 101.865 321.952 102.168C321.976 102.402 321.954 102.638 321.886 102.863C321.818 103.088 321.707 103.297 321.558 103.479C321.418 103.609 321.254 103.709 321.075 103.775C320.896 103.841 320.705 103.87 320.515 103.861L314.299 103.861Z" fill="#4D76B8"/>
<path d="M493.423 161.074H453.694C451.316 161.074 449.389 163.002 449.389 165.379V234.58C449.389 236.957 451.316 238.885 453.694 238.885H493.423C495.8 238.885 497.728 236.957 497.728 234.58V165.379C497.728 163.002 495.8 161.074 493.423 161.074Z" fill="white"/>
<path d="M493.425 239.804H453.696C452.31 239.802 450.982 239.251 450.002 238.271C449.022 237.291 448.47 235.962 448.469 234.576V165.376C448.47 163.99 449.022 162.661 450.002 161.681C450.982 160.701 452.31 160.15 453.696 160.148H493.425C494.811 160.15 496.14 160.701 497.12 161.681C498.1 162.661 498.651 163.99 498.653 165.376V234.576C498.651 235.962 498.1 237.291 497.12 238.271C496.14 239.251 494.811 239.802 493.425 239.804ZM453.696 161.993C452.799 161.994 451.94 162.351 451.306 162.985C450.671 163.619 450.315 164.479 450.314 165.376V234.576C450.315 235.473 450.671 236.333 451.306 236.967C451.94 237.601 452.799 237.958 453.696 237.959H493.425C494.322 237.958 495.182 237.601 495.816 236.967C496.45 236.333 496.806 235.473 496.808 234.576V165.376C496.806 164.479 496.45 163.619 495.816 162.985C495.182 162.351 494.322 161.994 493.425 161.993H453.696Z" fill="#4D76B8"/>
<path d="M456.127 172.569C456.005 172.569 455.886 172.533 455.785 172.466C455.684 172.398 455.605 172.302 455.559 172.19C455.512 172.077 455.5 171.954 455.524 171.834C455.547 171.715 455.606 171.606 455.692 171.52L459.606 167.606C459.721 167.491 459.877 167.426 460.04 167.426C460.203 167.426 460.36 167.491 460.475 167.606C460.59 167.721 460.655 167.878 460.655 168.041C460.655 168.204 460.59 168.36 460.475 168.476L456.561 172.389C456.504 172.446 456.437 172.492 456.362 172.523C456.287 172.554 456.207 172.57 456.127 172.569Z" fill="#4D76B8"/>
<path d="M460.04 172.569C459.96 172.57 459.88 172.554 459.805 172.523C459.73 172.492 459.663 172.446 459.606 172.389L455.692 168.476C455.577 168.36 455.512 168.204 455.512 168.041C455.512 167.878 455.577 167.721 455.692 167.606C455.807 167.491 455.964 167.426 456.127 167.426C456.29 167.426 456.446 167.491 456.562 167.606L460.475 171.52C460.561 171.606 460.62 171.715 460.643 171.834C460.667 171.954 460.655 172.077 460.608 172.19C460.562 172.302 460.483 172.398 460.382 172.466C460.281 172.533 460.162 172.569 460.04 172.569Z" fill="#4D76B8"/>
<path d="M468.223 205.659C468.256 205.764 468.276 205.873 468.281 205.983C468.289 206.107 468.293 206.223 468.292 206.331C468.294 206.596 468.263 206.861 468.2 207.119C468.144 207.354 468.042 207.575 467.898 207.769C467.753 207.959 467.567 208.114 467.353 208.221C467.089 208.346 466.799 208.406 466.507 208.396C466.175 208.394 465.847 208.323 465.544 208.187C465.227 208.047 464.837 207.846 464.373 207.584L459.386 204.707C459.057 204.174 458.856 203.572 458.8 202.948C458.743 202.324 458.833 201.696 459.061 201.112C459.244 200.76 459.526 200.469 459.873 200.277L466.252 196.566C466.839 196.672 467.379 196.96 467.794 197.39C468.054 197.708 468.197 198.104 468.2 198.515C468.228 198.972 468.083 199.423 467.794 199.779C467.451 200.132 467.046 200.419 466.599 200.625L462.517 202.689L468.223 205.659Z" fill="#4D76B8"/>
<path d="M472.282 210.954C472.074 210.984 471.865 211.003 471.656 211.011C471.455 211.019 471.269 211.023 471.099 211.023C470.567 211.058 470.04 210.911 469.603 210.605C469.418 210.437 469.274 210.227 469.184 209.994C469.093 209.761 469.058 209.509 469.081 209.26C469.082 208.832 469.145 208.407 469.267 207.996C469.39 207.571 469.498 207.196 469.591 206.872L473.673 192.143C473.906 192.113 474.122 192.094 474.323 192.085C474.524 192.078 474.709 192.074 474.88 192.074C475.4 192.046 475.915 192.184 476.352 192.468C476.541 192.619 476.69 192.815 476.785 193.038C476.88 193.26 476.918 193.503 476.897 193.744C476.899 194.176 476.837 194.606 476.711 195.02C476.588 195.421 476.472 195.823 476.364 196.226L472.282 210.954Z" fill="#4D76B8"/>
<path d="M477.753 199.304C477.72 199.199 477.7 199.09 477.695 198.979C477.687 198.856 477.684 198.74 477.684 198.632C477.682 198.366 477.713 198.101 477.777 197.843C477.832 197.609 477.935 197.388 478.078 197.194C478.223 197.004 478.409 196.849 478.623 196.742C478.887 196.617 479.178 196.557 479.47 196.568C479.802 196.569 480.129 196.64 480.432 196.777C480.749 196.915 481.14 197.116 481.604 197.38L486.59 200.255C487.018 200.865 487.23 201.599 487.193 202.343C487.22 202.86 487.124 203.376 486.915 203.85C486.733 204.203 486.45 204.493 486.103 204.686L479.725 208.397C479.137 208.291 478.597 208.003 478.182 207.573C477.923 207.255 477.78 206.859 477.777 206.448C477.749 205.991 477.893 205.54 478.182 205.184C478.525 204.831 478.93 204.544 479.377 204.337L483.459 202.273L477.753 199.304Z" fill="#4D76B8"/>
<path d="M141.699 119.659V157.726C141.699 160.104 143.627 162.031 146.004 162.031H224.183C226.561 162.031 228.488 160.104 228.488 157.726V119.659C228.488 117.281 226.561 115.354 224.183 115.354H146.004C143.627 115.354 141.699 117.281 141.699 119.659Z" fill="white"/>
<path d="M224.185 162.956H146.007C144.621 162.954 143.292 162.403 142.312 161.423C141.332 160.443 140.781 159.114 140.779 157.728V119.661C140.781 118.275 141.332 116.946 142.312 115.966C143.292 114.986 144.621 114.435 146.007 114.434H224.185C225.571 114.435 226.9 114.986 227.88 115.966C228.86 116.946 229.411 118.275 229.413 119.661V157.728C229.411 159.114 228.86 160.443 227.88 161.423C226.9 162.403 225.571 162.954 224.185 162.956ZM146.007 116.279C145.11 116.28 144.25 116.636 143.616 117.27C142.982 117.905 142.625 118.764 142.624 119.661V157.728C142.625 158.625 142.982 159.485 143.616 160.119C144.25 160.753 145.11 161.11 146.007 161.111H224.185C225.082 161.11 225.942 160.753 226.576 160.119C227.21 159.485 227.567 158.625 227.568 157.728V119.661C227.567 118.764 227.21 117.905 226.576 117.27C225.942 116.636 225.082 116.28 224.185 116.279H146.007Z" fill="#4D76B8"/>
<path d="M148.441 125.652C148.319 125.652 148.201 125.616 148.099 125.548C147.998 125.48 147.92 125.384 147.873 125.272C147.826 125.16 147.814 125.036 147.838 124.917C147.862 124.798 147.92 124.688 148.006 124.602L151.92 120.688C151.977 120.631 152.045 120.586 152.119 120.555C152.194 120.524 152.274 120.508 152.355 120.508C152.436 120.508 152.516 120.524 152.59 120.555C152.665 120.586 152.733 120.631 152.79 120.688C152.847 120.745 152.892 120.813 152.923 120.887C152.954 120.962 152.97 121.042 152.97 121.123C152.97 121.204 152.954 121.283 152.923 121.358C152.892 121.433 152.847 121.5 152.79 121.558L148.876 125.472C148.819 125.529 148.751 125.574 148.676 125.605C148.602 125.636 148.522 125.652 148.441 125.652Z" fill="#4D76B8"/>
<path d="M152.355 125.652C152.274 125.652 152.194 125.636 152.119 125.605C152.045 125.574 151.977 125.529 151.92 125.472L148.006 121.558C147.891 121.442 147.826 121.286 147.826 121.123C147.826 120.96 147.891 120.803 148.006 120.688C148.122 120.573 148.278 120.508 148.441 120.508C148.604 120.508 148.761 120.573 148.876 120.688L152.79 124.602C152.876 124.688 152.934 124.798 152.958 124.917C152.982 125.036 152.969 125.16 152.923 125.272C152.876 125.384 152.798 125.48 152.696 125.548C152.595 125.616 152.476 125.652 152.355 125.652Z" fill="#4D76B8"/>
<path d="M175.613 135.456C175.104 135.424 174.595 135.505 174.122 135.693C173.648 135.882 173.223 136.173 172.876 136.546C172.192 137.424 171.854 138.521 171.925 139.631C171.888 140.193 171.963 140.757 172.144 141.29C172.325 141.823 172.609 142.316 172.981 142.739C173.352 143.108 173.797 143.396 174.286 143.583C174.776 143.771 175.299 143.855 175.822 143.829C176.37 143.843 176.917 143.757 177.434 143.574C177.867 143.407 178.289 143.214 178.698 142.994C178.957 143.206 179.166 143.471 179.313 143.771C179.466 144.101 179.541 144.463 179.533 144.827C179.517 145.165 179.41 145.493 179.225 145.776C179.039 146.06 178.781 146.288 178.478 146.439C177.486 146.944 176.376 147.173 175.265 147.099C174.274 147.106 173.288 146.957 172.343 146.658C171.459 146.382 170.644 145.919 169.954 145.302C169.25 144.658 168.7 143.866 168.342 142.982C167.923 141.916 167.723 140.776 167.751 139.631C167.729 138.541 167.922 137.457 168.319 136.442C168.669 135.565 169.198 134.771 169.872 134.111C170.532 133.475 171.319 132.985 172.181 132.673C173.087 132.344 174.045 132.179 175.01 132.186C176.154 132.123 177.294 132.363 178.315 132.882C178.656 133.043 178.945 133.295 179.152 133.61C179.359 133.925 179.475 134.291 179.487 134.668C179.496 135.038 179.39 135.402 179.185 135.711C179.002 135.987 178.765 136.224 178.489 136.407C178.083 136.142 177.652 135.917 177.202 135.734C176.695 135.54 176.156 135.445 175.613 135.456Z" fill="#4D76B8"/>
<path d="M187.856 145.527C187.637 145.612 187.406 145.662 187.172 145.678C186.852 145.716 186.531 145.735 186.209 145.736C185.71 145.768 185.212 145.659 184.771 145.423C184.446 145.214 184.284 144.77 184.284 144.089V141.538H180.781C180.658 141.329 180.568 141.102 180.515 140.865C180.446 140.592 180.411 140.312 180.411 140.03C180.372 139.591 180.505 139.155 180.781 138.813C180.912 138.683 181.068 138.582 181.24 138.516C181.412 138.45 181.595 138.421 181.779 138.43H184.284V134.533C184.517 134.47 184.753 134.42 184.992 134.383C185.302 134.329 185.616 134.302 185.931 134.302C186.427 134.272 186.922 134.384 187.357 134.626C187.547 134.795 187.692 135.008 187.779 135.247C187.866 135.486 187.892 135.743 187.856 135.995V138.43H191.289C191.366 138.616 191.447 138.844 191.532 139.114C191.617 139.388 191.661 139.674 191.66 139.961C191.696 140.392 191.563 140.82 191.289 141.155C191.162 141.283 191.01 141.383 190.842 141.449C190.674 141.515 190.495 141.545 190.315 141.538H187.856V145.527Z" fill="#4D76B8"/>
<path d="M200.504 145.527C200.285 145.612 200.054 145.662 199.82 145.678C199.501 145.716 199.179 145.735 198.857 145.736C198.358 145.768 197.86 145.659 197.42 145.423C197.095 145.214 196.932 144.77 196.933 144.089V141.538H193.43C193.306 141.329 193.216 141.102 193.163 140.865C193.094 140.592 193.06 140.312 193.059 140.03C193.021 139.591 193.153 139.155 193.43 138.813C193.561 138.683 193.717 138.582 193.888 138.516C194.06 138.45 194.244 138.421 194.427 138.43H196.933V134.533C197.165 134.47 197.402 134.42 197.64 134.383C197.95 134.329 198.264 134.302 198.579 134.302C199.076 134.272 199.571 134.384 200.006 134.626C200.196 134.795 200.341 135.008 200.428 135.247C200.515 135.486 200.541 135.743 200.504 135.995V138.43H203.937C204.014 138.616 204.095 138.844 204.18 139.114C204.266 139.388 204.309 139.674 204.308 139.961C204.345 140.392 204.211 140.82 203.937 141.155C203.81 141.283 203.658 141.383 203.49 141.449C203.323 141.515 203.143 141.545 202.963 141.538H200.504L200.504 145.527Z" fill="#4D76B8"/>
<path d="M437.159 229.451H414.129V227.606H437.159C438.643 227.604 440.066 227.014 441.115 225.965C442.164 224.915 442.755 223.493 442.756 222.009C442.758 220.035 443.543 218.144 444.938 216.749C446.334 215.353 448.225 214.569 450.198 214.566H464.778V216.411H450.198C448.714 216.413 447.292 217.003 446.242 218.053C445.193 219.102 444.603 220.525 444.601 222.009C444.599 223.982 443.814 225.873 442.419 227.268C441.024 228.664 439.132 229.448 437.159 229.451Z" fill="#4469A0"/>
<path d="M313.904 164.493H312.059V149.914C312.057 148.43 311.467 147.007 310.418 145.958C309.368 144.909 307.946 144.319 306.462 144.317C304.489 144.315 302.597 143.53 301.202 142.135C299.807 140.739 299.022 138.848 299.02 136.875V111.328H300.865V136.875C300.866 138.359 301.456 139.781 302.506 140.831C303.555 141.88 304.977 142.47 306.461 142.472C308.434 142.474 310.326 143.259 311.721 144.654C313.116 146.049 313.901 147.941 313.904 149.914V164.493Z" fill="#4469A0"/>
<path d="M363.199 156.783V154.938C364.833 154.936 366.399 154.286 367.555 153.131C368.71 151.975 369.36 150.409 369.362 148.775V141.597C369.364 139.474 370.208 137.439 371.709 135.938C373.211 134.437 375.246 133.592 377.369 133.59H392.564V135.435H377.369C375.735 135.437 374.169 136.087 373.014 137.242C371.858 138.397 371.208 139.963 371.207 141.597V148.775C371.204 150.898 370.36 152.934 368.859 154.435C367.357 155.936 365.322 156.78 363.199 156.783Z" fill="#4469A0"/>
<path d="M243.91 168.966C241.787 168.964 239.752 168.119 238.251 166.618C236.749 165.117 235.905 163.082 235.903 160.959V153.781C235.901 152.147 235.251 150.581 234.096 149.425C232.94 148.27 231.374 147.62 229.74 147.618H214.545V145.773H229.74C231.863 145.776 233.899 146.62 235.4 148.121C236.901 149.623 237.745 151.658 237.748 153.781V160.959C237.75 162.593 238.399 164.159 239.555 165.314C240.71 166.47 242.276 167.119 243.91 167.121V168.966Z" fill="#4469A0"/>
<path d="M533.349 271.457H430.915C429.217 271.457 427.84 272.834 427.84 274.532V283.142C427.84 284.84 429.217 286.217 430.915 286.217H533.349C535.048 286.217 536.424 284.84 536.424 283.142V274.532C536.424 272.834 535.048 271.457 533.349 271.457Z" fill="white"/>
<path d="M528.704 276.883H453.209C452.128 276.883 451.252 277.759 451.252 278.84C451.252 279.921 452.128 280.797 453.209 280.797H528.704C529.785 280.797 530.661 279.921 530.661 278.84C530.661 277.759 529.785 276.883 528.704 276.883Z" fill="#A9C0FF"/>
<path d="M440.433 281.405C440.312 281.405 440.193 281.369 440.092 281.302C439.991 281.234 439.912 281.138 439.865 281.026C439.819 280.913 439.806 280.79 439.83 280.67C439.854 280.551 439.912 280.442 439.998 280.356L443.912 276.442C444.027 276.326 444.184 276.262 444.347 276.262C444.51 276.262 444.666 276.326 444.782 276.442C444.897 276.557 444.962 276.714 444.962 276.877C444.962 277.04 444.897 277.196 444.782 277.311L440.868 281.225C440.811 281.282 440.743 281.328 440.669 281.359C440.594 281.39 440.514 281.405 440.433 281.405Z" fill="#4D76B8"/>
<path d="M444.347 281.405C444.266 281.405 444.186 281.39 444.112 281.359C444.037 281.328 443.969 281.282 443.912 281.225L439.998 277.311C439.883 277.196 439.818 277.04 439.818 276.877C439.818 276.714 439.883 276.557 439.998 276.442C440.114 276.326 440.27 276.262 440.433 276.262C440.596 276.262 440.753 276.326 440.868 276.442L444.782 280.356C444.868 280.442 444.926 280.551 444.95 280.67C444.974 280.79 444.962 280.913 444.915 281.026C444.869 281.138 444.79 281.234 444.689 281.302C444.588 281.369 444.469 281.405 444.347 281.405Z" fill="#4D76B8"/>
<path d="M533.346 287.136H430.912C429.852 287.135 428.836 286.713 428.086 285.964C427.337 285.215 426.915 284.199 426.914 283.139V274.529C426.915 273.469 427.337 272.453 428.086 271.703C428.836 270.954 429.852 270.532 430.912 270.531H533.346C534.406 270.532 535.422 270.954 536.171 271.703C536.921 272.453 537.342 273.469 537.343 274.529V283.139C537.342 284.199 536.921 285.215 536.171 285.964C535.422 286.713 534.406 287.135 533.346 287.136ZM430.912 272.376C430.341 272.377 429.794 272.604 429.39 273.007C428.987 273.411 428.76 273.958 428.759 274.529V283.139C428.76 283.709 428.987 284.257 429.39 284.66C429.794 285.064 430.341 285.291 430.912 285.291H533.346C533.917 285.291 534.464 285.064 534.867 284.66C535.271 284.257 535.498 283.709 535.498 283.139V274.529C535.498 273.958 535.271 273.411 534.867 273.007C534.464 272.604 533.917 272.377 533.346 272.376H430.912Z" fill="#4D76B8"/>
<path d="M528.709 276.883H513.396V280.797H528.709C529.228 280.797 529.726 280.59 530.093 280.223C530.46 279.857 530.666 279.359 530.666 278.84C530.666 278.321 530.46 277.823 530.093 277.456C529.726 277.089 529.228 276.883 528.709 276.883Z" fill="#4D76B8"/>
<path d="M243.019 223.3C242.339 223.3 241.674 223.098 241.108 222.72C240.543 222.342 240.102 221.805 239.842 221.177C239.582 220.548 239.513 219.857 239.646 219.19C239.779 218.523 240.106 217.91 240.587 217.429C241.068 216.948 241.681 216.621 242.348 216.488C243.015 216.355 243.707 216.423 244.335 216.684C244.963 216.944 245.501 217.385 245.878 217.95C246.256 218.516 246.458 219.181 246.458 219.861C246.457 220.773 246.094 221.647 245.45 222.291C244.805 222.936 243.931 223.299 243.019 223.3ZM243.019 218.267C242.704 218.267 242.396 218.36 242.133 218.536C241.871 218.711 241.667 218.96 241.546 219.251C241.426 219.542 241.394 219.863 241.456 220.172C241.517 220.481 241.669 220.765 241.892 220.988C242.115 221.211 242.399 221.363 242.708 221.424C243.017 221.486 243.338 221.454 243.629 221.333C243.92 221.213 244.169 221.008 244.344 220.746C244.52 220.484 244.613 220.176 244.613 219.861C244.613 219.438 244.444 219.033 244.146 218.734C243.847 218.435 243.442 218.267 243.019 218.267Z" fill="#4469A0"/>
<path d="M197.505 223.3C196.825 223.3 196.16 223.098 195.595 222.72C195.029 222.342 194.588 221.805 194.328 221.177C194.068 220.548 194 219.857 194.132 219.19C194.265 218.523 194.593 217.91 195.074 217.429C195.555 216.948 196.167 216.621 196.834 216.488C197.502 216.355 198.193 216.423 198.821 216.684C199.45 216.944 199.987 217.385 200.365 217.95C200.743 218.516 200.944 219.181 200.944 219.861C200.943 220.773 200.581 221.647 199.936 222.291C199.291 222.936 198.417 223.299 197.505 223.3ZM197.505 218.267C197.19 218.267 196.882 218.36 196.62 218.536C196.358 218.711 196.153 218.96 196.033 219.251C195.912 219.542 195.881 219.863 195.942 220.172C196.004 220.481 196.155 220.765 196.378 220.988C196.601 221.211 196.885 221.363 197.194 221.424C197.504 221.486 197.824 221.454 198.115 221.333C198.407 221.213 198.656 221.008 198.831 220.746C199.006 220.484 199.099 220.176 199.099 219.861C199.099 219.438 198.931 219.033 198.632 218.734C198.333 218.435 197.928 218.267 197.505 218.267Z" fill="#4469A0"/>
<path d="M312.988 169.581C312.308 169.581 311.643 169.379 311.077 169.001C310.512 168.624 310.071 168.086 309.811 167.458C309.55 166.83 309.482 166.138 309.615 165.471C309.748 164.804 310.075 164.191 310.556 163.71C311.037 163.229 311.65 162.902 312.317 162.769C312.984 162.637 313.675 162.705 314.304 162.965C314.932 163.225 315.469 163.666 315.847 164.232C316.225 164.797 316.427 165.462 316.427 166.142C316.426 167.054 316.063 167.928 315.418 168.573C314.774 169.217 313.9 169.58 312.988 169.581ZM312.988 164.548C312.673 164.548 312.364 164.642 312.102 164.817C311.84 164.992 311.636 165.241 311.515 165.532C311.395 165.823 311.363 166.144 311.424 166.453C311.486 166.762 311.638 167.046 311.861 167.269C312.084 167.492 312.368 167.644 312.677 167.705C312.986 167.767 313.307 167.735 313.598 167.615C313.889 167.494 314.138 167.29 314.313 167.028C314.488 166.766 314.582 166.457 314.582 166.142C314.581 165.719 314.413 165.314 314.114 165.015C313.816 164.717 313.41 164.549 312.988 164.548Z" fill="#4469A0"/>
<path d="M394.224 137.94C393.544 137.94 392.879 137.739 392.314 137.361C391.748 136.983 391.307 136.446 391.047 135.817C390.787 135.189 390.719 134.498 390.851 133.831C390.984 133.163 391.311 132.551 391.792 132.07C392.273 131.589 392.886 131.261 393.553 131.129C394.22 130.996 394.912 131.064 395.54 131.324C396.169 131.585 396.706 132.025 397.084 132.591C397.461 133.156 397.663 133.821 397.663 134.501C397.662 135.413 397.299 136.287 396.655 136.932C396.01 137.577 395.136 137.939 394.224 137.94ZM394.224 132.908C393.909 132.908 393.601 133.001 393.339 133.176C393.076 133.351 392.872 133.6 392.751 133.891C392.631 134.183 392.599 134.503 392.661 134.812C392.722 135.122 392.874 135.406 393.097 135.629C393.32 135.851 393.604 136.003 393.913 136.065C394.222 136.126 394.543 136.095 394.834 135.974C395.125 135.853 395.374 135.649 395.549 135.387C395.725 135.125 395.818 134.817 395.818 134.501C395.818 134.079 395.65 133.674 395.351 133.375C395.052 133.076 394.647 132.908 394.224 132.908Z" fill="#4469A0"/>
<path d="M466.853 218.921C466.173 218.921 465.508 218.719 464.942 218.341C464.377 217.963 463.936 217.426 463.676 216.798C463.416 216.17 463.347 215.478 463.48 214.811C463.613 214.144 463.94 213.531 464.421 213.05C464.902 212.569 465.515 212.242 466.182 212.109C466.849 211.976 467.541 212.044 468.169 212.305C468.797 212.565 469.335 213.006 469.712 213.571C470.09 214.137 470.292 214.802 470.292 215.482C470.291 216.394 469.928 217.268 469.284 217.913C468.639 218.557 467.765 218.92 466.853 218.921ZM466.853 213.888C466.538 213.888 466.23 213.981 465.967 214.157C465.705 214.332 465.501 214.581 465.38 214.872C465.26 215.163 465.228 215.484 465.29 215.793C465.351 216.102 465.503 216.386 465.726 216.609C465.949 216.832 466.233 216.984 466.542 217.045C466.851 217.107 467.172 217.075 467.463 216.955C467.754 216.834 468.003 216.63 468.178 216.367C468.353 216.105 468.447 215.797 468.447 215.482C468.447 215.059 468.278 214.654 467.98 214.355C467.681 214.057 467.276 213.888 466.853 213.888Z" fill="#4469A0"/>
<path d="M400.583 258.421C399.903 258.421 399.238 258.219 398.673 257.841C398.107 257.463 397.667 256.926 397.406 256.298C397.146 255.67 397.078 254.978 397.211 254.311C397.343 253.644 397.671 253.031 398.152 252.55C398.633 252.069 399.246 251.742 399.913 251.609C400.58 251.476 401.271 251.544 401.9 251.805C402.528 252.065 403.065 252.506 403.443 253.071C403.821 253.637 404.022 254.302 404.022 254.982C404.021 255.894 403.659 256.768 403.014 257.413C402.369 258.057 401.495 258.42 400.583 258.421ZM400.583 253.388C400.268 253.388 399.96 253.481 399.698 253.657C399.436 253.832 399.232 254.081 399.111 254.372C398.99 254.663 398.959 254.984 399.02 255.293C399.082 255.602 399.233 255.886 399.456 256.109C399.679 256.332 399.963 256.484 400.273 256.545C400.582 256.607 400.902 256.575 401.193 256.455C401.485 256.334 401.734 256.13 401.909 255.867C402.084 255.605 402.177 255.297 402.177 254.982C402.177 254.559 402.009 254.154 401.71 253.855C401.411 253.557 401.006 253.388 400.583 253.388Z" fill="#4469A0"/>
<path d="M411.615 231.96C410.935 231.96 410.27 231.758 409.704 231.38C409.139 231.003 408.698 230.465 408.438 229.837C408.177 229.209 408.109 228.517 408.242 227.85C408.375 227.183 408.702 226.57 409.183 226.089C409.664 225.608 410.277 225.281 410.944 225.148C411.611 225.015 412.302 225.084 412.931 225.344C413.559 225.604 414.096 226.045 414.474 226.61C414.852 227.176 415.054 227.841 415.054 228.521C415.053 229.433 414.69 230.307 414.045 230.952C413.401 231.596 412.527 231.959 411.615 231.96ZM411.615 226.927C411.299 226.927 410.991 227.021 410.729 227.196C410.467 227.371 410.263 227.62 410.142 227.911C410.021 228.202 409.99 228.523 410.051 228.832C410.113 229.141 410.265 229.425 410.488 229.648C410.711 229.871 410.995 230.023 411.304 230.084C411.613 230.146 411.933 230.114 412.225 229.994C412.516 229.873 412.765 229.669 412.94 229.407C413.115 229.144 413.209 228.836 413.209 228.521C413.208 228.098 413.04 227.693 412.741 227.394C412.443 227.096 412.037 226.928 411.615 226.927Z" fill="#4469A0"/>
<path d="M360.583 159.288C359.903 159.288 359.238 159.086 358.673 158.709C358.107 158.331 357.667 157.794 357.406 157.165C357.146 156.537 357.078 155.845 357.211 155.178C357.343 154.511 357.671 153.898 358.152 153.417C358.633 152.936 359.246 152.609 359.913 152.476C360.58 152.344 361.271 152.412 361.9 152.672C362.528 152.932 363.065 153.373 363.443 153.939C363.821 154.504 364.022 155.169 364.022 155.849C364.021 156.761 363.659 157.635 363.014 158.28C362.369 158.924 361.495 159.287 360.583 159.288ZM360.583 154.255C360.268 154.255 359.96 154.349 359.698 154.524C359.436 154.699 359.232 154.948 359.111 155.239C358.99 155.53 358.959 155.851 359.02 156.16C359.082 156.469 359.233 156.753 359.456 156.976C359.679 157.199 359.963 157.351 360.273 157.412C360.582 157.474 360.902 157.442 361.193 157.322C361.485 157.201 361.734 156.997 361.909 156.735C362.084 156.473 362.177 156.164 362.177 155.849C362.177 155.427 362.009 155.021 361.71 154.723C361.411 154.424 361.006 154.256 360.583 154.255Z" fill="#4469A0"/>
<path d="M299.945 113.245C299.265 113.245 298.6 113.043 298.034 112.666C297.469 112.288 297.028 111.751 296.768 111.122C296.507 110.494 296.439 109.802 296.572 109.135C296.705 108.468 297.032 107.855 297.513 107.374C297.994 106.893 298.607 106.566 299.274 106.433C299.941 106.301 300.632 106.369 301.261 106.629C301.889 106.889 302.426 107.33 302.804 107.896C303.182 108.461 303.384 109.126 303.384 109.806C303.383 110.718 303.02 111.592 302.375 112.237C301.731 112.881 300.857 113.244 299.945 113.245ZM299.945 108.212C299.63 108.212 299.321 108.306 299.059 108.481C298.797 108.656 298.593 108.905 298.472 109.196C298.352 109.487 298.32 109.808 298.381 110.117C298.443 110.426 298.595 110.71 298.818 110.933C299.041 111.156 299.325 111.308 299.634 111.369C299.943 111.431 300.264 111.399 300.555 111.279C300.846 111.158 301.095 110.954 301.27 110.692C301.445 110.43 301.539 110.121 301.539 109.806C301.538 109.384 301.37 108.978 301.071 108.68C300.773 108.381 300.367 108.213 299.945 108.212Z" fill="#4469A0"/>
<path d="M245.82 171.476C245.14 171.476 244.475 171.274 243.909 170.896C243.344 170.518 242.903 169.981 242.643 169.353C242.382 168.724 242.314 168.033 242.447 167.366C242.58 166.699 242.907 166.086 243.388 165.605C243.869 165.124 244.482 164.796 245.149 164.664C245.816 164.531 246.507 164.599 247.136 164.859C247.764 165.12 248.301 165.561 248.679 166.126C249.057 166.692 249.259 167.356 249.259 168.037C249.258 168.948 248.895 169.823 248.25 170.467C247.606 171.112 246.732 171.475 245.82 171.476ZM245.82 166.443C245.505 166.443 245.196 166.536 244.934 166.711C244.672 166.886 244.468 167.135 244.347 167.427C244.227 167.718 244.195 168.038 244.256 168.348C244.318 168.657 244.47 168.941 244.693 169.164C244.916 169.387 245.2 169.538 245.509 169.6C245.818 169.661 246.139 169.63 246.43 169.509C246.721 169.389 246.97 169.184 247.145 168.922C247.32 168.66 247.414 168.352 247.414 168.037C247.413 167.614 247.245 167.209 246.946 166.91C246.648 166.611 246.242 166.443 245.82 166.443Z" fill="#4469A0"/>
<path d="M212.259 150.136C211.579 150.136 210.914 149.934 210.349 149.556C209.783 149.178 209.342 148.641 209.082 148.013C208.822 147.384 208.754 146.693 208.886 146.026C209.019 145.359 209.347 144.746 209.828 144.265C210.308 143.784 210.921 143.457 211.588 143.324C212.255 143.191 212.947 143.259 213.575 143.52C214.204 143.78 214.741 144.221 215.119 144.786C215.497 145.352 215.698 146.017 215.698 146.697C215.697 147.609 215.335 148.483 214.69 149.127C214.045 149.772 213.171 150.135 212.259 150.136ZM212.259 145.103C211.944 145.103 211.636 145.196 211.374 145.371C211.112 145.547 210.907 145.796 210.787 146.087C210.666 146.378 210.634 146.699 210.696 147.008C210.757 147.317 210.909 147.601 211.132 147.824C211.355 148.047 211.639 148.199 211.948 148.26C212.257 148.322 212.578 148.29 212.869 148.169C213.16 148.049 213.409 147.844 213.585 147.582C213.76 147.32 213.853 147.012 213.853 146.697C213.853 146.274 213.685 145.869 213.386 145.57C213.087 145.271 212.682 145.103 212.259 145.103Z" fill="#4469A0"/>
<path d="M431.785 280.326H416.589C414.466 280.324 412.431 279.48 410.93 277.978C409.429 276.477 408.585 274.442 408.582 272.319L408.582 262.066C408.58 260.432 407.93 258.866 406.775 257.711C405.62 256.555 404.054 255.905 402.42 255.904V254.059C404.543 254.061 406.578 254.905 408.079 256.407C409.58 257.908 410.425 259.943 410.427 262.066L410.427 272.319C410.429 273.953 411.079 275.519 412.234 276.674C413.389 277.83 414.956 278.48 416.589 278.481H431.785V280.326Z" fill="#4469A0"/>
<path d="M433.683 282.276C433.003 282.276 432.338 282.074 431.772 281.696C431.207 281.319 430.766 280.781 430.506 280.153C430.246 279.525 430.178 278.833 430.31 278.166C430.443 277.499 430.771 276.886 431.251 276.406C431.732 275.925 432.345 275.597 433.012 275.464C433.679 275.332 434.371 275.4 434.999 275.66C435.627 275.921 436.164 276.361 436.542 276.927C436.92 277.492 437.122 278.157 437.122 278.837C437.121 279.749 436.758 280.623 436.113 281.268C435.469 281.912 434.595 282.275 433.683 282.276ZM433.683 277.243C433.368 277.243 433.059 277.337 432.797 277.512C432.535 277.687 432.331 277.936 432.21 278.227C432.09 278.519 432.058 278.839 432.12 279.148C432.181 279.457 432.333 279.741 432.556 279.964C432.779 280.187 433.063 280.339 433.372 280.4C433.681 280.462 434.002 280.43 434.293 280.31C434.584 280.189 434.833 279.985 435.008 279.723C435.183 279.461 435.277 279.153 435.277 278.837C435.276 278.415 435.108 278.01 434.809 277.711C434.511 277.412 434.105 277.244 433.683 277.243Z" fill="#4469A0"/>
<path d="M240.506 218.938H200.021V220.783H240.506V218.938Z" fill="#4469A0"/>
<path d="M480.342 311.859H183.072V317.394H480.342V311.859Z" fill="#456BA3"/>
<path d="M355.319 296.668H307.496V306.793H355.319V296.668Z" fill="#456BA3"/>
<path d="M366.382 311.871H296.42V304.821C296.42 304.006 296.744 303.223 297.321 302.647C297.897 302.07 298.679 301.746 299.495 301.746H363.307C364.123 301.746 364.905 302.07 365.482 302.647C366.058 303.223 366.382 304.006 366.382 304.821V311.871Z" fill="#4D76B8"/>
<path d="M423.863 74.8997H399.362C399.117 74.8997 398.883 74.8025 398.71 74.6295C398.537 74.4565 398.439 74.2218 398.439 73.9772C398.439 73.7325 398.537 73.4979 398.71 73.3249C398.883 73.1519 399.117 73.0547 399.362 73.0547H423.863C424.108 73.0547 424.343 73.1519 424.516 73.3249C424.689 73.4979 424.786 73.7325 424.786 73.9772C424.786 74.2218 424.689 74.4565 424.516 74.6295C424.343 74.8025 424.108 74.8997 423.863 74.8997Z" fill="#A9C0FF"/>
<path d="M423.863 81.0911H399.362C399.117 81.0911 398.883 80.9939 398.71 80.8209C398.537 80.6479 398.439 80.4133 398.439 80.1686C398.439 79.9239 398.537 79.6893 398.71 79.5163C398.883 79.3433 399.117 79.2461 399.362 79.2461H423.863C424.108 79.2461 424.343 79.3433 424.516 79.5163C424.689 79.6893 424.786 79.9239 424.786 80.1686C424.786 80.4133 424.689 80.6479 424.516 80.8209C424.343 80.9939 424.108 81.0911 423.863 81.0911Z" fill="#A9C0FF"/>
<path d="M423.863 87.2903H399.362C399.117 87.2903 398.883 87.1931 398.71 87.0201C398.537 86.8471 398.439 86.6125 398.439 86.3678C398.439 86.1232 398.537 85.8885 398.71 85.7155C398.883 85.5425 399.117 85.4453 399.362 85.4453H423.863C424.108 85.4453 424.343 85.5425 424.516 85.7155C424.689 85.8885 424.786 86.1232 424.786 86.3678C424.786 86.6125 424.689 86.8471 424.516 87.0201C424.343 87.1931 424.108 87.2903 423.863 87.2903Z" fill="#A9C0FF"/>
<path d="M515.461 248.079H490.96C490.715 248.079 490.48 247.982 490.307 247.809C490.134 247.636 490.037 247.402 490.037 247.157C490.037 246.912 490.134 246.678 490.307 246.505C490.48 246.332 490.715 246.234 490.96 246.234H515.461C515.706 246.234 515.941 246.332 516.114 246.505C516.287 246.678 516.384 246.912 516.384 247.157C516.384 247.402 516.287 247.636 516.114 247.809C515.941 247.982 515.706 248.079 515.461 248.079Z" fill="#A9C0FF"/>
<path d="M515.461 254.283H490.96C490.715 254.283 490.48 254.185 490.307 254.012C490.134 253.839 490.037 253.605 490.037 253.36C490.037 253.115 490.134 252.881 490.307 252.708C490.48 252.535 490.715 252.438 490.96 252.438H515.461C515.706 252.438 515.941 252.535 516.114 252.708C516.287 252.881 516.384 253.115 516.384 253.36C516.384 253.605 516.287 253.839 516.114 254.012C515.941 254.185 515.706 254.283 515.461 254.283Z" fill="#A9C0FF"/>
<path d="M515.461 260.486H490.96C490.715 260.486 490.48 260.388 490.307 260.215C490.134 260.042 490.037 259.808 490.037 259.563C490.037 259.318 490.134 259.084 490.307 258.911C490.48 258.738 490.715 258.641 490.96 258.641H515.461C515.706 258.641 515.941 258.738 516.114 258.911C516.287 259.084 516.384 259.318 516.384 259.563C516.384 259.808 516.287 260.042 516.114 260.215C515.941 260.388 515.706 260.486 515.461 260.486Z" fill="#A9C0FF"/>
<path d="M173.065 89.9973H148.563C148.318 89.9973 148.084 89.9002 147.911 89.7272C147.738 89.5542 147.641 89.3195 147.641 89.0748C147.641 88.8302 147.738 88.5955 147.911 88.4225C148.084 88.2495 148.318 88.1523 148.563 88.1523H173.065C173.31 88.1523 173.544 88.2495 173.717 88.4225C173.89 88.5955 173.987 88.8302 173.987 89.0748C173.987 89.3195 173.89 89.5542 173.717 89.7272C173.544 89.9002 173.31 89.9973 173.065 89.9973Z" fill="#A9C0FF"/>
<path d="M173.065 96.2083H148.563C148.318 96.2083 148.084 96.1111 147.911 95.9381C147.738 95.7651 147.641 95.5304 147.641 95.2858C147.641 95.0411 147.738 94.8065 147.911 94.6335C148.084 94.4605 148.318 94.3633 148.563 94.3633H173.065C173.31 94.3633 173.544 94.4605 173.717 94.6335C173.89 94.8065 173.987 95.0411 173.987 95.2858C173.987 95.5304 173.89 95.7651 173.717 95.9381C173.544 96.1111 173.31 96.2083 173.065 96.2083Z" fill="#A9C0FF"/>
<path d="M173.065 102.408H148.563C148.318 102.408 148.084 102.31 147.911 102.137C147.738 101.964 147.641 101.73 147.641 101.485C147.641 101.24 147.738 101.006 147.911 100.833C148.084 100.66 148.318 100.562 148.563 100.562H173.065C173.31 100.562 173.544 100.66 173.717 100.833C173.89 101.006 173.987 101.24 173.987 101.485C173.987 101.73 173.89 101.964 173.717 102.137C173.544 102.31 173.31 102.408 173.065 102.408Z" fill="#A9C0FF"/>
</svg>
